G04 #@! TF.GenerationSoftware,KiCad,Pcbnew,5.1.10-88a1d61d58~90~ubuntu20.04.1*
G04 #@! TF.CreationDate,2021-08-06T19:03:49+02:00*
G04 #@! TF.ProjectId,arlene,61726c65-6e65-42e6-9b69-6361645f7063,v1.00*
G04 #@! TF.SameCoordinates,Original*
G04 #@! TF.FileFunction,Copper,L3,Inr*
G04 #@! TF.FilePolarity,Positive*
%FSLAX46Y46*%
G04 Gerber Fmt 4.6, Leading zero omitted, Abs format (unit mm)*
G04 Created by KiCad (PCBNEW 5.1.10-88a1d61d58~90~ubuntu20.04.1) date 2021-08-06 19:03:49*
%MOMM*%
%LPD*%
G01*
G04 APERTURE LIST*
G04 #@! TA.AperFunction,ComponentPad*
%ADD10O,1.800000X1.070000*%
G04 #@! TD*
G04 #@! TA.AperFunction,ComponentPad*
%ADD11R,1.800000X1.070000*%
G04 #@! TD*
G04 #@! TA.AperFunction,ComponentPad*
%ADD12O,1.950000X1.700000*%
G04 #@! TD*
G04 #@! TA.AperFunction,ComponentPad*
%ADD13C,2.000000*%
G04 #@! TD*
G04 #@! TA.AperFunction,ComponentPad*
%ADD14R,2.500000X3.000000*%
G04 #@! TD*
G04 #@! TA.AperFunction,ComponentPad*
%ADD15R,2.000000X2.000000*%
G04 #@! TD*
G04 #@! TA.AperFunction,ComponentPad*
%ADD16R,1.700000X1.700000*%
G04 #@! TD*
G04 #@! TA.AperFunction,ComponentPad*
%ADD17O,1.700000X1.700000*%
G04 #@! TD*
G04 #@! TA.AperFunction,ViaPad*
%ADD18C,0.800000*%
G04 #@! TD*
G04 #@! TA.AperFunction,ViaPad*
%ADD19C,0.700000*%
G04 #@! TD*
G04 #@! TA.AperFunction,Conductor*
%ADD20C,1.000000*%
G04 #@! TD*
G04 #@! TA.AperFunction,Conductor*
%ADD21C,0.250000*%
G04 #@! TD*
G04 #@! TA.AperFunction,Conductor*
%ADD22C,0.254000*%
G04 #@! TD*
G04 #@! TA.AperFunction,Conductor*
%ADD23C,0.100000*%
G04 #@! TD*
G04 APERTURE END LIST*
G04 #@! TA.AperFunction,ComponentPad*
G36*
G01*
X144580000Y-88640000D02*
X144580000Y-88240000D01*
G75*
G02*
X144780000Y-88040000I200000J0D01*
G01*
X145180000Y-88040000D01*
G75*
G02*
X145380000Y-88240000I0J-200000D01*
G01*
X145380000Y-88640000D01*
G75*
G02*
X145180000Y-88840000I-200000J0D01*
G01*
X144780000Y-88840000D01*
G75*
G02*
X144580000Y-88640000I0J200000D01*
G01*
G37*
G04 #@! TD.AperFunction*
G04 #@! TA.AperFunction,ComponentPad*
G36*
G01*
X145580000Y-88640000D02*
X145580000Y-88240000D01*
G75*
G02*
X145780000Y-88040000I200000J0D01*
G01*
X146180000Y-88040000D01*
G75*
G02*
X146380000Y-88240000I0J-200000D01*
G01*
X146380000Y-88640000D01*
G75*
G02*
X146180000Y-88840000I-200000J0D01*
G01*
X145780000Y-88840000D01*
G75*
G02*
X145580000Y-88640000I0J200000D01*
G01*
G37*
G04 #@! TD.AperFunction*
G04 #@! TA.AperFunction,ComponentPad*
G36*
G01*
X146580000Y-88640000D02*
X146580000Y-88240000D01*
G75*
G02*
X146780000Y-88040000I200000J0D01*
G01*
X147180000Y-88040000D01*
G75*
G02*
X147380000Y-88240000I0J-200000D01*
G01*
X147380000Y-88640000D01*
G75*
G02*
X147180000Y-88840000I-200000J0D01*
G01*
X146780000Y-88840000D01*
G75*
G02*
X146580000Y-88640000I0J200000D01*
G01*
G37*
G04 #@! TD.AperFunction*
G04 #@! TA.AperFunction,ComponentPad*
G36*
G01*
X147580000Y-88640000D02*
X147580000Y-88240000D01*
G75*
G02*
X147780000Y-88040000I200000J0D01*
G01*
X148180000Y-88040000D01*
G75*
G02*
X148380000Y-88240000I0J-200000D01*
G01*
X148380000Y-88640000D01*
G75*
G02*
X148180000Y-88840000I-200000J0D01*
G01*
X147780000Y-88840000D01*
G75*
G02*
X147580000Y-88640000I0J200000D01*
G01*
G37*
G04 #@! TD.AperFunction*
G04 #@! TA.AperFunction,ComponentPad*
G36*
G01*
X143580000Y-88640000D02*
X143580000Y-88240000D01*
G75*
G02*
X143780000Y-88040000I200000J0D01*
G01*
X144180000Y-88040000D01*
G75*
G02*
X144380000Y-88240000I0J-200000D01*
G01*
X144380000Y-88640000D01*
G75*
G02*
X144180000Y-88840000I-200000J0D01*
G01*
X143780000Y-88840000D01*
G75*
G02*
X143580000Y-88640000I0J200000D01*
G01*
G37*
G04 #@! TD.AperFunction*
G04 #@! TA.AperFunction,ComponentPad*
G36*
G01*
X141580000Y-88640000D02*
X141580000Y-88240000D01*
G75*
G02*
X141780000Y-88040000I200000J0D01*
G01*
X142180000Y-88040000D01*
G75*
G02*
X142380000Y-88240000I0J-200000D01*
G01*
X142380000Y-88640000D01*
G75*
G02*
X142180000Y-88840000I-200000J0D01*
G01*
X141780000Y-88840000D01*
G75*
G02*
X141580000Y-88640000I0J200000D01*
G01*
G37*
G04 #@! TD.AperFunction*
G04 #@! TA.AperFunction,ComponentPad*
G36*
G01*
X140580000Y-88640000D02*
X140580000Y-88240000D01*
G75*
G02*
X140780000Y-88040000I200000J0D01*
G01*
X141180000Y-88040000D01*
G75*
G02*
X141380000Y-88240000I0J-200000D01*
G01*
X141380000Y-88640000D01*
G75*
G02*
X141180000Y-88840000I-200000J0D01*
G01*
X140780000Y-88840000D01*
G75*
G02*
X140580000Y-88640000I0J200000D01*
G01*
G37*
G04 #@! TD.AperFunction*
G04 #@! TA.AperFunction,ComponentPad*
G36*
G01*
X140580000Y-87240000D02*
X140580000Y-86840000D01*
G75*
G02*
X140780000Y-86640000I200000J0D01*
G01*
X141180000Y-86640000D01*
G75*
G02*
X141380000Y-86840000I0J-200000D01*
G01*
X141380000Y-87240000D01*
G75*
G02*
X141180000Y-87440000I-200000J0D01*
G01*
X140780000Y-87440000D01*
G75*
G02*
X140580000Y-87240000I0J200000D01*
G01*
G37*
G04 #@! TD.AperFunction*
G04 #@! TA.AperFunction,ComponentPad*
G36*
G01*
X141580000Y-87240000D02*
X141580000Y-86840000D01*
G75*
G02*
X141780000Y-86640000I200000J0D01*
G01*
X142180000Y-86640000D01*
G75*
G02*
X142380000Y-86840000I0J-200000D01*
G01*
X142380000Y-87240000D01*
G75*
G02*
X142180000Y-87440000I-200000J0D01*
G01*
X141780000Y-87440000D01*
G75*
G02*
X141580000Y-87240000I0J200000D01*
G01*
G37*
G04 #@! TD.AperFunction*
G04 #@! TA.AperFunction,ComponentPad*
G36*
G01*
X142580000Y-87240000D02*
X142580000Y-86840000D01*
G75*
G02*
X142780000Y-86640000I200000J0D01*
G01*
X143180000Y-86640000D01*
G75*
G02*
X143380000Y-86840000I0J-200000D01*
G01*
X143380000Y-87240000D01*
G75*
G02*
X143180000Y-87440000I-200000J0D01*
G01*
X142780000Y-87440000D01*
G75*
G02*
X142580000Y-87240000I0J200000D01*
G01*
G37*
G04 #@! TD.AperFunction*
G04 #@! TA.AperFunction,ComponentPad*
G36*
G01*
X143580000Y-87240000D02*
X143580000Y-86840000D01*
G75*
G02*
X143780000Y-86640000I200000J0D01*
G01*
X144180000Y-86640000D01*
G75*
G02*
X144380000Y-86840000I0J-200000D01*
G01*
X144380000Y-87240000D01*
G75*
G02*
X144180000Y-87440000I-200000J0D01*
G01*
X143780000Y-87440000D01*
G75*
G02*
X143580000Y-87240000I0J200000D01*
G01*
G37*
G04 #@! TD.AperFunction*
G04 #@! TA.AperFunction,ComponentPad*
G36*
G01*
X144580000Y-87240000D02*
X144580000Y-86840000D01*
G75*
G02*
X144780000Y-86640000I200000J0D01*
G01*
X145180000Y-86640000D01*
G75*
G02*
X145380000Y-86840000I0J-200000D01*
G01*
X145380000Y-87240000D01*
G75*
G02*
X145180000Y-87440000I-200000J0D01*
G01*
X144780000Y-87440000D01*
G75*
G02*
X144580000Y-87240000I0J200000D01*
G01*
G37*
G04 #@! TD.AperFunction*
G04 #@! TA.AperFunction,ComponentPad*
G36*
G01*
X146580000Y-87240000D02*
X146580000Y-86840000D01*
G75*
G02*
X146780000Y-86640000I200000J0D01*
G01*
X147180000Y-86640000D01*
G75*
G02*
X147380000Y-86840000I0J-200000D01*
G01*
X147380000Y-87240000D01*
G75*
G02*
X147180000Y-87440000I-200000J0D01*
G01*
X146780000Y-87440000D01*
G75*
G02*
X146580000Y-87240000I0J200000D01*
G01*
G37*
G04 #@! TD.AperFunction*
G04 #@! TA.AperFunction,ComponentPad*
G36*
G01*
X147580000Y-87240000D02*
X147580000Y-86840000D01*
G75*
G02*
X147780000Y-86640000I200000J0D01*
G01*
X148180000Y-86640000D01*
G75*
G02*
X148380000Y-86840000I0J-200000D01*
G01*
X148380000Y-87240000D01*
G75*
G02*
X148180000Y-87440000I-200000J0D01*
G01*
X147780000Y-87440000D01*
G75*
G02*
X147580000Y-87240000I0J200000D01*
G01*
G37*
G04 #@! TD.AperFunction*
G04 #@! TA.AperFunction,ComponentPad*
G36*
G01*
X141430000Y-86010000D02*
X141430000Y-85610000D01*
G75*
G02*
X141630000Y-85410000I200000J0D01*
G01*
X143330000Y-85410000D01*
G75*
G02*
X143530000Y-85610000I0J-200000D01*
G01*
X143530000Y-86010000D01*
G75*
G02*
X143330000Y-86210000I-200000J0D01*
G01*
X141630000Y-86210000D01*
G75*
G02*
X141430000Y-86010000I0J200000D01*
G01*
G37*
G04 #@! TD.AperFunction*
G04 #@! TA.AperFunction,ComponentPad*
G36*
G01*
X145430000Y-86010000D02*
X145430000Y-85610000D01*
G75*
G02*
X145630000Y-85410000I200000J0D01*
G01*
X147330000Y-85410000D01*
G75*
G02*
X147530000Y-85610000I0J-200000D01*
G01*
X147530000Y-86010000D01*
G75*
G02*
X147330000Y-86210000I-200000J0D01*
G01*
X145630000Y-86210000D01*
G75*
G02*
X145430000Y-86010000I0J200000D01*
G01*
G37*
G04 #@! TD.AperFunction*
G04 #@! TA.AperFunction,ComponentPad*
G36*
G01*
X145430000Y-89870000D02*
X145430000Y-89470000D01*
G75*
G02*
X145630000Y-89270000I200000J0D01*
G01*
X147330000Y-89270000D01*
G75*
G02*
X147530000Y-89470000I0J-200000D01*
G01*
X147530000Y-89870000D01*
G75*
G02*
X147330000Y-90070000I-200000J0D01*
G01*
X145630000Y-90070000D01*
G75*
G02*
X145430000Y-89870000I0J200000D01*
G01*
G37*
G04 #@! TD.AperFunction*
G04 #@! TA.AperFunction,ComponentPad*
G36*
G01*
X141430000Y-89870000D02*
X141430000Y-89470000D01*
G75*
G02*
X141630000Y-89270000I200000J0D01*
G01*
X143330000Y-89270000D01*
G75*
G02*
X143530000Y-89470000I0J-200000D01*
G01*
X143530000Y-89870000D01*
G75*
G02*
X143330000Y-90070000I-200000J0D01*
G01*
X141630000Y-90070000D01*
G75*
G02*
X141430000Y-89870000I0J200000D01*
G01*
G37*
G04 #@! TD.AperFunction*
G04 #@! TA.AperFunction,ComponentPad*
G36*
G01*
X145580000Y-87240000D02*
X145580000Y-86840000D01*
G75*
G02*
X145780000Y-86640000I200000J0D01*
G01*
X146180000Y-86640000D01*
G75*
G02*
X146380000Y-86840000I0J-200000D01*
G01*
X146380000Y-87240000D01*
G75*
G02*
X146180000Y-87440000I-200000J0D01*
G01*
X145780000Y-87440000D01*
G75*
G02*
X145580000Y-87240000I0J200000D01*
G01*
G37*
G04 #@! TD.AperFunction*
G04 #@! TA.AperFunction,ComponentPad*
G36*
G01*
X142580000Y-88640000D02*
X142580000Y-88240000D01*
G75*
G02*
X142780000Y-88040000I200000J0D01*
G01*
X143180000Y-88040000D01*
G75*
G02*
X143380000Y-88240000I0J-200000D01*
G01*
X143380000Y-88640000D01*
G75*
G02*
X143180000Y-88840000I-200000J0D01*
G01*
X142780000Y-88840000D01*
G75*
G02*
X142580000Y-88640000I0J200000D01*
G01*
G37*
G04 #@! TD.AperFunction*
D10*
X132480000Y-113560000D03*
X132480000Y-112290000D03*
X132480000Y-111020000D03*
D11*
X132480000Y-109750000D03*
G04 #@! TA.AperFunction,ComponentPad*
G36*
G01*
X171825000Y-111310000D02*
X170375000Y-111310000D01*
G75*
G02*
X170125000Y-111060000I0J250000D01*
G01*
X170125000Y-109860000D01*
G75*
G02*
X170375000Y-109610000I250000J0D01*
G01*
X171825000Y-109610000D01*
G75*
G02*
X172075000Y-109860000I0J-250000D01*
G01*
X172075000Y-111060000D01*
G75*
G02*
X171825000Y-111310000I-250000J0D01*
G01*
G37*
G04 #@! TD.AperFunction*
D12*
X171100000Y-107960000D03*
X171100000Y-105460000D03*
G04 #@! TA.AperFunction,ComponentPad*
G36*
G01*
X171825000Y-100390000D02*
X170375000Y-100390000D01*
G75*
G02*
X170125000Y-100140000I0J250000D01*
G01*
X170125000Y-98940000D01*
G75*
G02*
X170375000Y-98690000I250000J0D01*
G01*
X171825000Y-98690000D01*
G75*
G02*
X172075000Y-98940000I0J-250000D01*
G01*
X172075000Y-100140000D01*
G75*
G02*
X171825000Y-100390000I-250000J0D01*
G01*
G37*
G04 #@! TD.AperFunction*
X171100000Y-97040000D03*
X171100000Y-94540000D03*
X171100000Y-92040000D03*
X171100000Y-89540000D03*
D13*
X129850000Y-93000000D03*
X134850000Y-93000000D03*
D14*
X126750000Y-100000000D03*
X137950000Y-100000000D03*
D13*
X129850000Y-107500000D03*
X132350000Y-107500000D03*
D15*
X134850000Y-107500000D03*
X139130000Y-108750000D03*
D13*
X146730000Y-108750000D03*
D16*
X166420000Y-86800000D03*
D17*
X163880000Y-86800000D03*
X161340000Y-86800000D03*
X158790000Y-86800000D03*
X156260000Y-86800000D03*
X153720000Y-86800000D03*
X151180000Y-86800000D03*
D16*
X136350000Y-86820000D03*
D17*
X136350000Y-89360000D03*
X133810000Y-86820000D03*
X133810000Y-89360000D03*
X131270000Y-86820000D03*
X131270000Y-89360000D03*
X128730000Y-86820000D03*
X128730000Y-89360000D03*
D18*
X158255000Y-105670000D03*
X154400000Y-107430000D03*
X154400000Y-108230000D03*
X160410000Y-106640000D03*
X167900000Y-110150000D03*
X167900000Y-110950000D03*
D19*
X163810000Y-111500000D03*
X162860000Y-111500000D03*
X164760000Y-111500000D03*
D18*
X156100000Y-110562500D03*
X150140000Y-113190000D03*
X151190000Y-110450000D03*
X161210000Y-106640000D03*
X161160000Y-97210000D03*
X159900000Y-95435000D03*
X167820000Y-92705000D03*
X161400000Y-90070000D03*
X155740000Y-98760000D03*
X140095000Y-102750000D03*
X126930000Y-93505000D03*
X140095000Y-91800000D03*
X152400000Y-95545000D03*
X142580000Y-99520000D03*
X154150000Y-103450000D03*
X154880000Y-109599998D03*
X146280000Y-100200000D03*
X150150000Y-103270000D03*
X143280000Y-94320000D03*
X148470000Y-95020000D03*
X145520000Y-97250000D03*
X132350000Y-105600000D03*
X138270000Y-90960000D03*
X173000000Y-87000000D03*
X173000000Y-113000000D03*
X127000000Y-113000000D03*
X127000000Y-87000000D03*
X167810000Y-97240000D03*
X161950000Y-113700000D03*
X160060000Y-111500000D03*
X161090000Y-109660000D03*
X157260000Y-111500000D03*
X168120000Y-113700000D03*
X165510000Y-111500000D03*
X162110000Y-111500000D03*
X167870000Y-109060010D03*
X150257660Y-107847660D03*
X132350000Y-104110000D03*
X136770000Y-90960000D03*
X153090000Y-110450000D03*
X146770000Y-103270000D03*
X141645000Y-102750000D03*
X161880000Y-91625000D03*
X154090000Y-113470000D03*
X152400000Y-93995000D03*
X141645000Y-91800000D03*
X161005000Y-103240000D03*
X159735000Y-98550000D03*
X159120000Y-101760000D03*
X144280000Y-94320000D03*
D20*
X173170000Y-108390000D02*
X171100000Y-110460000D01*
X173170000Y-96610000D02*
X173170000Y-108390000D01*
X171100000Y-94540000D02*
X173170000Y-96610000D01*
D21*
X146480000Y-85810000D02*
X142480000Y-85810000D01*
X147892478Y-89670000D02*
X146480000Y-89670000D01*
X148705010Y-88857468D02*
X147892478Y-89670000D01*
X148705010Y-86622532D02*
X148705010Y-88857468D01*
X147892478Y-85810000D02*
X148705010Y-86622532D01*
X146480000Y-85810000D02*
X147892478Y-85810000D01*
X141067522Y-89670000D02*
X142480000Y-89670000D01*
X140254990Y-88857468D02*
X141067522Y-89670000D01*
X140254990Y-86622532D02*
X140254990Y-88857468D01*
X141067522Y-85810000D02*
X140254990Y-86622532D01*
X142480000Y-85810000D02*
X141067522Y-85810000D01*
X144980000Y-88297522D02*
X144980000Y-88440000D01*
X143980000Y-87297522D02*
X144980000Y-88297522D01*
X143980000Y-87040000D02*
X143980000Y-87297522D01*
X144280000Y-89750000D02*
X144280000Y-94320000D01*
X144980000Y-89050000D02*
X144280000Y-89750000D01*
X144980000Y-88440000D02*
X144980000Y-89050000D01*
D22*
X127783368Y-85666525D02*
X127576525Y-85873368D01*
X127448224Y-86065385D01*
X127301898Y-86004774D01*
X127101939Y-85965000D01*
X126898061Y-85965000D01*
X126698102Y-86004774D01*
X126509744Y-86082795D01*
X126340226Y-86196063D01*
X126196063Y-86340226D01*
X126082795Y-86509744D01*
X126004774Y-86698102D01*
X125965000Y-86898061D01*
X125965000Y-87101939D01*
X126004774Y-87301898D01*
X126082795Y-87490256D01*
X126196063Y-87659774D01*
X126340226Y-87803937D01*
X126509744Y-87917205D01*
X126698102Y-87995226D01*
X126898061Y-88035000D01*
X127101939Y-88035000D01*
X127301898Y-87995226D01*
X127490256Y-87917205D01*
X127632233Y-87822340D01*
X127783368Y-87973475D01*
X127959406Y-88091100D01*
X127729731Y-88262412D01*
X127534822Y-88478645D01*
X127385843Y-88728748D01*
X127288519Y-89003109D01*
X127409186Y-89233000D01*
X128603000Y-89233000D01*
X128603000Y-89213000D01*
X128857000Y-89213000D01*
X128857000Y-89233000D01*
X128877000Y-89233000D01*
X128877000Y-89487000D01*
X128857000Y-89487000D01*
X128857000Y-90680155D01*
X129086890Y-90801476D01*
X129234099Y-90756825D01*
X129496920Y-90631641D01*
X129730269Y-90457588D01*
X129925178Y-90241355D01*
X129994805Y-90124466D01*
X130116525Y-90306632D01*
X130323368Y-90513475D01*
X130566589Y-90675990D01*
X130836842Y-90787932D01*
X131123740Y-90845000D01*
X131416260Y-90845000D01*
X131703158Y-90787932D01*
X131973411Y-90675990D01*
X132216632Y-90513475D01*
X132423475Y-90306632D01*
X132540000Y-90132240D01*
X132656525Y-90306632D01*
X132863368Y-90513475D01*
X133106589Y-90675990D01*
X133376842Y-90787932D01*
X133663740Y-90845000D01*
X133956260Y-90845000D01*
X134243158Y-90787932D01*
X134513411Y-90675990D01*
X134756632Y-90513475D01*
X134963475Y-90306632D01*
X135080000Y-90132240D01*
X135196525Y-90306632D01*
X135403368Y-90513475D01*
X135646589Y-90675990D01*
X135916842Y-90787932D01*
X136203740Y-90845000D01*
X136496260Y-90845000D01*
X136783158Y-90787932D01*
X137053411Y-90675990D01*
X137296632Y-90513475D01*
X137377829Y-90432278D01*
X137352795Y-90469744D01*
X137274774Y-90658102D01*
X137235000Y-90858061D01*
X137235000Y-91061939D01*
X137274774Y-91261898D01*
X137352795Y-91450256D01*
X137466063Y-91619774D01*
X137610226Y-91763937D01*
X137779744Y-91877205D01*
X137968102Y-91955226D01*
X138168061Y-91995000D01*
X138371939Y-91995000D01*
X138571898Y-91955226D01*
X138760256Y-91877205D01*
X138929774Y-91763937D01*
X139073937Y-91619774D01*
X139076265Y-91616290D01*
X139060000Y-91698061D01*
X139060000Y-91901939D01*
X139099774Y-92101898D01*
X139177795Y-92290256D01*
X139291063Y-92459774D01*
X139435226Y-92603937D01*
X139604744Y-92717205D01*
X139793102Y-92795226D01*
X139993061Y-92835000D01*
X140196939Y-92835000D01*
X140396898Y-92795226D01*
X140585256Y-92717205D01*
X140754774Y-92603937D01*
X140898937Y-92459774D01*
X141012205Y-92290256D01*
X141090226Y-92101898D01*
X141130000Y-91901939D01*
X141130000Y-91698061D01*
X141090226Y-91498102D01*
X141012205Y-91309744D01*
X140898937Y-91140226D01*
X140754774Y-90996063D01*
X140585256Y-90882795D01*
X140396898Y-90804774D01*
X140196939Y-90765000D01*
X139993061Y-90765000D01*
X139793102Y-90804774D01*
X139604744Y-90882795D01*
X139435226Y-90996063D01*
X139291063Y-91140226D01*
X139288735Y-91143710D01*
X139305000Y-91061939D01*
X139305000Y-90858061D01*
X139265226Y-90658102D01*
X139187205Y-90469744D01*
X139073937Y-90300226D01*
X138929774Y-90156063D01*
X138760256Y-90042795D01*
X138571898Y-89964774D01*
X138371939Y-89925000D01*
X138168061Y-89925000D01*
X137968102Y-89964774D01*
X137779744Y-90042795D01*
X137610226Y-90156063D01*
X137591710Y-90174579D01*
X137665990Y-90063411D01*
X137777932Y-89793158D01*
X137835000Y-89506260D01*
X137835000Y-89213740D01*
X137777932Y-88926842D01*
X137665990Y-88656589D01*
X137503475Y-88413368D01*
X137371620Y-88281513D01*
X137444180Y-88259502D01*
X137554494Y-88200537D01*
X137651185Y-88121185D01*
X137730537Y-88024494D01*
X137789502Y-87914180D01*
X137825812Y-87794482D01*
X137838072Y-87670000D01*
X137838072Y-85970000D01*
X137825812Y-85845518D01*
X137789502Y-85725820D01*
X137754320Y-85660000D01*
X140142720Y-85660000D01*
X139743992Y-86058729D01*
X139714989Y-86082531D01*
X139687039Y-86116589D01*
X139620016Y-86198256D01*
X139560096Y-86310357D01*
X139549444Y-86330286D01*
X139505987Y-86473547D01*
X139494990Y-86585200D01*
X139494990Y-86585210D01*
X139491314Y-86622532D01*
X139494990Y-86659855D01*
X139494991Y-88820136D01*
X139491314Y-88857468D01*
X139505988Y-89006453D01*
X139549444Y-89149714D01*
X139620016Y-89281744D01*
X139691191Y-89368470D01*
X139714990Y-89397469D01*
X139743988Y-89421267D01*
X140503723Y-90181002D01*
X140527521Y-90210001D01*
X140643246Y-90304974D01*
X140775275Y-90375546D01*
X140918536Y-90419003D01*
X141008915Y-90427905D01*
X141037394Y-90462606D01*
X141164392Y-90566831D01*
X141309284Y-90644278D01*
X141466500Y-90691969D01*
X141630000Y-90708072D01*
X143330000Y-90708072D01*
X143493500Y-90691969D01*
X143520000Y-90683930D01*
X143520001Y-93312462D01*
X143381939Y-93285000D01*
X143178061Y-93285000D01*
X142978102Y-93324774D01*
X142789744Y-93402795D01*
X142620226Y-93516063D01*
X142476063Y-93660226D01*
X142362795Y-93829744D01*
X142284774Y-94018102D01*
X142245000Y-94218061D01*
X142245000Y-94421939D01*
X142284774Y-94621898D01*
X142362795Y-94810256D01*
X142476063Y-94979774D01*
X142620226Y-95123937D01*
X142789744Y-95237205D01*
X142978102Y-95315226D01*
X143178061Y-95355000D01*
X143381939Y-95355000D01*
X143581898Y-95315226D01*
X143770256Y-95237205D01*
X143780000Y-95230694D01*
X143789744Y-95237205D01*
X143978102Y-95315226D01*
X144178061Y-95355000D01*
X144381939Y-95355000D01*
X144581898Y-95315226D01*
X144770256Y-95237205D01*
X144939774Y-95123937D01*
X145083937Y-94979774D01*
X145125172Y-94918061D01*
X147435000Y-94918061D01*
X147435000Y-95121939D01*
X147474774Y-95321898D01*
X147552795Y-95510256D01*
X147666063Y-95679774D01*
X147810226Y-95823937D01*
X147979744Y-95937205D01*
X148168102Y-96015226D01*
X148368061Y-96055000D01*
X148571939Y-96055000D01*
X148771898Y-96015226D01*
X148960256Y-95937205D01*
X149129774Y-95823937D01*
X149273937Y-95679774D01*
X149387205Y-95510256D01*
X149415038Y-95443061D01*
X151365000Y-95443061D01*
X151365000Y-95646939D01*
X151404774Y-95846898D01*
X151482795Y-96035256D01*
X151596063Y-96204774D01*
X151740226Y-96348937D01*
X151909744Y-96462205D01*
X152098102Y-96540226D01*
X152298061Y-96580000D01*
X152501939Y-96580000D01*
X152701898Y-96540226D01*
X152890256Y-96462205D01*
X153059774Y-96348937D01*
X153203937Y-96204774D01*
X153317205Y-96035256D01*
X153395226Y-95846898D01*
X153435000Y-95646939D01*
X153435000Y-95443061D01*
X153413120Y-95333061D01*
X158865000Y-95333061D01*
X158865000Y-95536939D01*
X158904774Y-95736898D01*
X158982795Y-95925256D01*
X159096063Y-96094774D01*
X159240226Y-96238937D01*
X159409744Y-96352205D01*
X159598102Y-96430226D01*
X159798061Y-96470000D01*
X160001939Y-96470000D01*
X160201898Y-96430226D01*
X160390256Y-96352205D01*
X160559774Y-96238937D01*
X160703937Y-96094774D01*
X160817205Y-95925256D01*
X160895226Y-95736898D01*
X160935000Y-95536939D01*
X160935000Y-95333061D01*
X160895226Y-95133102D01*
X160817205Y-94944744D01*
X160703937Y-94775226D01*
X160559774Y-94631063D01*
X160390256Y-94517795D01*
X160201898Y-94439774D01*
X160001939Y-94400000D01*
X159798061Y-94400000D01*
X159598102Y-94439774D01*
X159409744Y-94517795D01*
X159240226Y-94631063D01*
X159096063Y-94775226D01*
X158982795Y-94944744D01*
X158904774Y-95133102D01*
X158865000Y-95333061D01*
X153413120Y-95333061D01*
X153395226Y-95243102D01*
X153317205Y-95054744D01*
X153203937Y-94885226D01*
X153059774Y-94741063D01*
X152890256Y-94627795D01*
X152701898Y-94549774D01*
X152501939Y-94510000D01*
X152298061Y-94510000D01*
X152098102Y-94549774D01*
X151909744Y-94627795D01*
X151740226Y-94741063D01*
X151596063Y-94885226D01*
X151482795Y-95054744D01*
X151404774Y-95243102D01*
X151365000Y-95443061D01*
X149415038Y-95443061D01*
X149465226Y-95321898D01*
X149505000Y-95121939D01*
X149505000Y-94918061D01*
X149465226Y-94718102D01*
X149387205Y-94529744D01*
X149273937Y-94360226D01*
X149129774Y-94216063D01*
X148960256Y-94102795D01*
X148771898Y-94024774D01*
X148571939Y-93985000D01*
X148368061Y-93985000D01*
X148168102Y-94024774D01*
X147979744Y-94102795D01*
X147810226Y-94216063D01*
X147666063Y-94360226D01*
X147552795Y-94529744D01*
X147474774Y-94718102D01*
X147435000Y-94918061D01*
X145125172Y-94918061D01*
X145197205Y-94810256D01*
X145275226Y-94621898D01*
X145315000Y-94421939D01*
X145315000Y-94218061D01*
X145275226Y-94018102D01*
X145197205Y-93829744D01*
X145083937Y-93660226D01*
X145040000Y-93616289D01*
X145040000Y-92603061D01*
X166785000Y-92603061D01*
X166785000Y-92806939D01*
X166824774Y-93006898D01*
X166902795Y-93195256D01*
X167016063Y-93364774D01*
X167160226Y-93508937D01*
X167329744Y-93622205D01*
X167518102Y-93700226D01*
X167718061Y-93740000D01*
X167921939Y-93740000D01*
X168121898Y-93700226D01*
X168310256Y-93622205D01*
X168479774Y-93508937D01*
X168623937Y-93364774D01*
X168737205Y-93195256D01*
X168815226Y-93006898D01*
X168855000Y-92806939D01*
X168855000Y-92603061D01*
X168815226Y-92403102D01*
X168737205Y-92214744D01*
X168623937Y-92045226D01*
X168479774Y-91901063D01*
X168310256Y-91787795D01*
X168121898Y-91709774D01*
X167921939Y-91670000D01*
X167718061Y-91670000D01*
X167518102Y-91709774D01*
X167329744Y-91787795D01*
X167160226Y-91901063D01*
X167016063Y-92045226D01*
X166902795Y-92214744D01*
X166824774Y-92403102D01*
X166785000Y-92603061D01*
X145040000Y-92603061D01*
X145040000Y-90464745D01*
X145164392Y-90566831D01*
X145309284Y-90644278D01*
X145466500Y-90691969D01*
X145630000Y-90708072D01*
X147330000Y-90708072D01*
X147493500Y-90691969D01*
X147650716Y-90644278D01*
X147795608Y-90566831D01*
X147922606Y-90462606D01*
X147951085Y-90427905D01*
X148041464Y-90419003D01*
X148184725Y-90375546D01*
X148316754Y-90304974D01*
X148432479Y-90210001D01*
X148456281Y-90180998D01*
X148669218Y-89968061D01*
X160365000Y-89968061D01*
X160365000Y-90171939D01*
X160404774Y-90371898D01*
X160482795Y-90560256D01*
X160596063Y-90729774D01*
X160740226Y-90873937D01*
X160909744Y-90987205D01*
X161098102Y-91065226D01*
X161298061Y-91105000D01*
X161501939Y-91105000D01*
X161701898Y-91065226D01*
X161890256Y-90987205D01*
X162059774Y-90873937D01*
X162203937Y-90729774D01*
X162317205Y-90560256D01*
X162395226Y-90371898D01*
X162435000Y-90171939D01*
X162435000Y-89968061D01*
X162395226Y-89768102D01*
X162317205Y-89579744D01*
X162290649Y-89540000D01*
X169482815Y-89540000D01*
X169511487Y-89831111D01*
X169596401Y-90111034D01*
X169734294Y-90369014D01*
X169919866Y-90595134D01*
X170145986Y-90780706D01*
X170163374Y-90790000D01*
X170145986Y-90799294D01*
X169919866Y-90984866D01*
X169734294Y-91210986D01*
X169596401Y-91468966D01*
X169511487Y-91748889D01*
X169482815Y-92040000D01*
X169511487Y-92331111D01*
X169596401Y-92611034D01*
X169734294Y-92869014D01*
X169919866Y-93095134D01*
X170145986Y-93280706D01*
X170163374Y-93290000D01*
X170145986Y-93299294D01*
X169919866Y-93484866D01*
X169734294Y-93710986D01*
X169596401Y-93968966D01*
X169511487Y-94248889D01*
X169482815Y-94540000D01*
X169511487Y-94831111D01*
X169596401Y-95111034D01*
X169734294Y-95369014D01*
X169919866Y-95595134D01*
X170145986Y-95780706D01*
X170163374Y-95790000D01*
X170145986Y-95799294D01*
X169919866Y-95984866D01*
X169734294Y-96210986D01*
X169596401Y-96468966D01*
X169511487Y-96748889D01*
X169482815Y-97040000D01*
X169511487Y-97331111D01*
X169596401Y-97611034D01*
X169734294Y-97869014D01*
X169919866Y-98095134D01*
X169983337Y-98147223D01*
X169881614Y-98201595D01*
X169747038Y-98312038D01*
X169636595Y-98446614D01*
X169554528Y-98600150D01*
X169503992Y-98766746D01*
X169486928Y-98940000D01*
X169486928Y-100140000D01*
X169503992Y-100313254D01*
X169554528Y-100479850D01*
X169636595Y-100633386D01*
X169747038Y-100767962D01*
X169881614Y-100878405D01*
X170035150Y-100960472D01*
X170201746Y-101011008D01*
X170375000Y-101028072D01*
X171825000Y-101028072D01*
X171998254Y-101011008D01*
X172035000Y-100999861D01*
X172035001Y-104209131D01*
X171796034Y-104081401D01*
X171516111Y-103996487D01*
X171297950Y-103975000D01*
X170902050Y-103975000D01*
X170683889Y-103996487D01*
X170403966Y-104081401D01*
X170145986Y-104219294D01*
X169919866Y-104404866D01*
X169734294Y-104630986D01*
X169596401Y-104888966D01*
X169511487Y-105168889D01*
X169482815Y-105460000D01*
X169511487Y-105751111D01*
X169596401Y-106031034D01*
X169734294Y-106289014D01*
X169919866Y-106515134D01*
X170145986Y-106700706D01*
X170163374Y-106710000D01*
X170145986Y-106719294D01*
X169919866Y-106904866D01*
X169734294Y-107130986D01*
X169596401Y-107388966D01*
X169511487Y-107668889D01*
X169482815Y-107960000D01*
X169511487Y-108251111D01*
X169596401Y-108531034D01*
X169734294Y-108789014D01*
X169919866Y-109015134D01*
X169983337Y-109067223D01*
X169881614Y-109121595D01*
X169747038Y-109232038D01*
X169636595Y-109366614D01*
X169554528Y-109520150D01*
X169503992Y-109686746D01*
X169486928Y-109860000D01*
X169486928Y-111060000D01*
X169503992Y-111233254D01*
X169554528Y-111399850D01*
X169636595Y-111553386D01*
X169747038Y-111687962D01*
X169881614Y-111798405D01*
X170035150Y-111880472D01*
X170201746Y-111931008D01*
X170375000Y-111948072D01*
X171825000Y-111948072D01*
X171998254Y-111931008D01*
X172164850Y-111880472D01*
X172318386Y-111798405D01*
X172452962Y-111687962D01*
X172563405Y-111553386D01*
X172645472Y-111399850D01*
X172696008Y-111233254D01*
X172713072Y-111060000D01*
X172713072Y-110452059D01*
X173933141Y-109231991D01*
X173976449Y-109196449D01*
X174118284Y-109023623D01*
X174223676Y-108826447D01*
X174288577Y-108612499D01*
X174305000Y-108445752D01*
X174310491Y-108390001D01*
X174305000Y-108334249D01*
X174305000Y-96665751D01*
X174310491Y-96609999D01*
X174288577Y-96387501D01*
X174223676Y-96173553D01*
X174181568Y-96094774D01*
X174118284Y-95976377D01*
X173976449Y-95803551D01*
X173933141Y-95768009D01*
X172716104Y-94550973D01*
X172717185Y-94540000D01*
X172688513Y-94248889D01*
X172603599Y-93968966D01*
X172465706Y-93710986D01*
X172280134Y-93484866D01*
X172054014Y-93299294D01*
X172036626Y-93290000D01*
X172054014Y-93280706D01*
X172280134Y-93095134D01*
X172465706Y-92869014D01*
X172603599Y-92611034D01*
X172688513Y-92331111D01*
X172717185Y-92040000D01*
X172688513Y-91748889D01*
X172603599Y-91468966D01*
X172465706Y-91210986D01*
X172280134Y-90984866D01*
X172054014Y-90799294D01*
X172036626Y-90790000D01*
X172054014Y-90780706D01*
X172280134Y-90595134D01*
X172465706Y-90369014D01*
X172603599Y-90111034D01*
X172688513Y-89831111D01*
X172717185Y-89540000D01*
X172688513Y-89248889D01*
X172603599Y-88968966D01*
X172465706Y-88710986D01*
X172280134Y-88484866D01*
X172054014Y-88299294D01*
X171796034Y-88161401D01*
X171516111Y-88076487D01*
X171297950Y-88055000D01*
X170902050Y-88055000D01*
X170683889Y-88076487D01*
X170403966Y-88161401D01*
X170145986Y-88299294D01*
X169919866Y-88484866D01*
X169734294Y-88710986D01*
X169596401Y-88968966D01*
X169511487Y-89248889D01*
X169482815Y-89540000D01*
X162290649Y-89540000D01*
X162203937Y-89410226D01*
X162059774Y-89266063D01*
X161890256Y-89152795D01*
X161701898Y-89074774D01*
X161501939Y-89035000D01*
X161298061Y-89035000D01*
X161098102Y-89074774D01*
X160909744Y-89152795D01*
X160740226Y-89266063D01*
X160596063Y-89410226D01*
X160482795Y-89579744D01*
X160404774Y-89768102D01*
X160365000Y-89968061D01*
X148669218Y-89968061D01*
X149216012Y-89421267D01*
X149245011Y-89397469D01*
X149339984Y-89281744D01*
X149410556Y-89149715D01*
X149454013Y-89006454D01*
X149465010Y-88894801D01*
X149465010Y-88894793D01*
X149468686Y-88857468D01*
X149465010Y-88820143D01*
X149465010Y-86659857D01*
X149468686Y-86622532D01*
X149465010Y-86585207D01*
X149465010Y-86585199D01*
X149454013Y-86473546D01*
X149410556Y-86330285D01*
X149339984Y-86198256D01*
X149245011Y-86082531D01*
X149216014Y-86058734D01*
X148817279Y-85660000D01*
X150219893Y-85660000D01*
X150026525Y-85853368D01*
X149864010Y-86096589D01*
X149752068Y-86366842D01*
X149695000Y-86653740D01*
X149695000Y-86946260D01*
X149752068Y-87233158D01*
X149864010Y-87503411D01*
X150026525Y-87746632D01*
X150233368Y-87953475D01*
X150476589Y-88115990D01*
X150746842Y-88227932D01*
X151033740Y-88285000D01*
X151326260Y-88285000D01*
X151613158Y-88227932D01*
X151883411Y-88115990D01*
X152126632Y-87953475D01*
X152333475Y-87746632D01*
X152450000Y-87572240D01*
X152566525Y-87746632D01*
X152773368Y-87953475D01*
X153016589Y-88115990D01*
X153286842Y-88227932D01*
X153573740Y-88285000D01*
X153866260Y-88285000D01*
X154153158Y-88227932D01*
X154423411Y-88115990D01*
X154666632Y-87953475D01*
X154873475Y-87746632D01*
X154990000Y-87572240D01*
X155106525Y-87746632D01*
X155313368Y-87953475D01*
X155556589Y-88115990D01*
X155826842Y-88227932D01*
X156113740Y-88285000D01*
X156406260Y-88285000D01*
X156693158Y-88227932D01*
X156963411Y-88115990D01*
X157206632Y-87953475D01*
X157413475Y-87746632D01*
X157525000Y-87579723D01*
X157636525Y-87746632D01*
X157843368Y-87953475D01*
X158086589Y-88115990D01*
X158356842Y-88227932D01*
X158643740Y-88285000D01*
X158936260Y-88285000D01*
X159223158Y-88227932D01*
X159493411Y-88115990D01*
X159736632Y-87953475D01*
X159943475Y-87746632D01*
X160065000Y-87564757D01*
X160186525Y-87746632D01*
X160393368Y-87953475D01*
X160636589Y-88115990D01*
X160906842Y-88227932D01*
X161193740Y-88285000D01*
X161486260Y-88285000D01*
X161773158Y-88227932D01*
X162043411Y-88115990D01*
X162286632Y-87953475D01*
X162493475Y-87746632D01*
X162610000Y-87572240D01*
X162726525Y-87746632D01*
X162933368Y-87953475D01*
X163176589Y-88115990D01*
X163446842Y-88227932D01*
X163733740Y-88285000D01*
X164026260Y-88285000D01*
X164313158Y-88227932D01*
X164583411Y-88115990D01*
X164826632Y-87953475D01*
X164958487Y-87821620D01*
X164980498Y-87894180D01*
X165039463Y-88004494D01*
X165118815Y-88101185D01*
X165215506Y-88180537D01*
X165325820Y-88239502D01*
X165445518Y-88275812D01*
X165570000Y-88288072D01*
X167270000Y-88288072D01*
X167394482Y-88275812D01*
X167514180Y-88239502D01*
X167624494Y-88180537D01*
X167721185Y-88101185D01*
X167800537Y-88004494D01*
X167859502Y-87894180D01*
X167895812Y-87774482D01*
X167908072Y-87650000D01*
X167908072Y-86898061D01*
X171965000Y-86898061D01*
X171965000Y-87101939D01*
X172004774Y-87301898D01*
X172082795Y-87490256D01*
X172196063Y-87659774D01*
X172340226Y-87803937D01*
X172509744Y-87917205D01*
X172698102Y-87995226D01*
X172898061Y-88035000D01*
X173101939Y-88035000D01*
X173301898Y-87995226D01*
X173490256Y-87917205D01*
X173659774Y-87803937D01*
X173803937Y-87659774D01*
X173917205Y-87490256D01*
X173995226Y-87301898D01*
X174035000Y-87101939D01*
X174035000Y-86898061D01*
X173995226Y-86698102D01*
X173917205Y-86509744D01*
X173803937Y-86340226D01*
X173659774Y-86196063D01*
X173490256Y-86082795D01*
X173301898Y-86004774D01*
X173101939Y-85965000D01*
X172898061Y-85965000D01*
X172698102Y-86004774D01*
X172509744Y-86082795D01*
X172340226Y-86196063D01*
X172196063Y-86340226D01*
X172082795Y-86509744D01*
X172004774Y-86698102D01*
X171965000Y-86898061D01*
X167908072Y-86898061D01*
X167908072Y-85950000D01*
X167895812Y-85825518D01*
X167859502Y-85705820D01*
X167835010Y-85660000D01*
X172967721Y-85660000D01*
X173259659Y-85688625D01*
X173509429Y-85764035D01*
X173739792Y-85886522D01*
X173941980Y-86051422D01*
X174108286Y-86252450D01*
X174232378Y-86481954D01*
X174309531Y-86731195D01*
X174340000Y-87021089D01*
X174340001Y-112967711D01*
X174311375Y-113259660D01*
X174235965Y-113509429D01*
X174113477Y-113739794D01*
X173948579Y-113941979D01*
X173747546Y-114108288D01*
X173518046Y-114232378D01*
X173268805Y-114309531D01*
X172978911Y-114340000D01*
X168937150Y-114340000D01*
X169037205Y-114190256D01*
X169115226Y-114001898D01*
X169155000Y-113801939D01*
X169155000Y-113598061D01*
X169115226Y-113398102D01*
X169037205Y-113209744D01*
X168923937Y-113040226D01*
X168781772Y-112898061D01*
X171965000Y-112898061D01*
X171965000Y-113101939D01*
X172004774Y-113301898D01*
X172082795Y-113490256D01*
X172196063Y-113659774D01*
X172340226Y-113803937D01*
X172509744Y-113917205D01*
X172698102Y-113995226D01*
X172898061Y-114035000D01*
X173101939Y-114035000D01*
X173301898Y-113995226D01*
X173490256Y-113917205D01*
X173659774Y-113803937D01*
X173803937Y-113659774D01*
X173917205Y-113490256D01*
X173995226Y-113301898D01*
X174035000Y-113101939D01*
X174035000Y-112898061D01*
X173995226Y-112698102D01*
X173917205Y-112509744D01*
X173803937Y-112340226D01*
X173659774Y-112196063D01*
X173490256Y-112082795D01*
X173301898Y-112004774D01*
X173101939Y-111965000D01*
X172898061Y-111965000D01*
X172698102Y-112004774D01*
X172509744Y-112082795D01*
X172340226Y-112196063D01*
X172196063Y-112340226D01*
X172082795Y-112509744D01*
X172004774Y-112698102D01*
X171965000Y-112898061D01*
X168781772Y-112898061D01*
X168779774Y-112896063D01*
X168610256Y-112782795D01*
X168421898Y-112704774D01*
X168221939Y-112665000D01*
X168018061Y-112665000D01*
X167818102Y-112704774D01*
X167629744Y-112782795D01*
X167460226Y-112896063D01*
X167316063Y-113040226D01*
X167202795Y-113209744D01*
X167124774Y-113398102D01*
X167085000Y-113598061D01*
X167085000Y-113801939D01*
X167124774Y-114001898D01*
X167202795Y-114190256D01*
X167302850Y-114340000D01*
X162767150Y-114340000D01*
X162867205Y-114190256D01*
X162945226Y-114001898D01*
X162985000Y-113801939D01*
X162985000Y-113598061D01*
X162945226Y-113398102D01*
X162867205Y-113209744D01*
X162753937Y-113040226D01*
X162609774Y-112896063D01*
X162440256Y-112782795D01*
X162251898Y-112704774D01*
X162051939Y-112665000D01*
X161848061Y-112665000D01*
X161648102Y-112704774D01*
X161459744Y-112782795D01*
X161290226Y-112896063D01*
X161146063Y-113040226D01*
X161032795Y-113209744D01*
X160954774Y-113398102D01*
X160915000Y-113598061D01*
X160915000Y-113801939D01*
X160954774Y-114001898D01*
X161032795Y-114190256D01*
X161132850Y-114340000D01*
X133718433Y-114340000D01*
X133822526Y-114213162D01*
X133931169Y-114009906D01*
X133998071Y-113789360D01*
X134020661Y-113560000D01*
X133998071Y-113330640D01*
X133931169Y-113110094D01*
X133919393Y-113088061D01*
X149105000Y-113088061D01*
X149105000Y-113291939D01*
X149144774Y-113491898D01*
X149222795Y-113680256D01*
X149336063Y-113849774D01*
X149480226Y-113993937D01*
X149649744Y-114107205D01*
X149838102Y-114185226D01*
X150038061Y-114225000D01*
X150241939Y-114225000D01*
X150441898Y-114185226D01*
X150630256Y-114107205D01*
X150799774Y-113993937D01*
X150943937Y-113849774D01*
X151057205Y-113680256D01*
X151135226Y-113491898D01*
X151175000Y-113291939D01*
X151175000Y-113088061D01*
X151135226Y-112888102D01*
X151057205Y-112699744D01*
X150943937Y-112530226D01*
X150799774Y-112386063D01*
X150630256Y-112272795D01*
X150441898Y-112194774D01*
X150241939Y-112155000D01*
X150038061Y-112155000D01*
X149838102Y-112194774D01*
X149649744Y-112272795D01*
X149480226Y-112386063D01*
X149336063Y-112530226D01*
X149222795Y-112699744D01*
X149144774Y-112888102D01*
X149105000Y-113088061D01*
X133919393Y-113088061D01*
X133832234Y-112925000D01*
X133931169Y-112739906D01*
X133998071Y-112519360D01*
X134020661Y-112290000D01*
X133998071Y-112060640D01*
X133931169Y-111840094D01*
X133832234Y-111655000D01*
X133931169Y-111469906D01*
X133998071Y-111249360D01*
X134020661Y-111020000D01*
X133998071Y-110790640D01*
X133937130Y-110589743D01*
X133969502Y-110529180D01*
X134005812Y-110409482D01*
X134018072Y-110285000D01*
X134018072Y-109750000D01*
X137491928Y-109750000D01*
X137504188Y-109874482D01*
X137540498Y-109994180D01*
X137599463Y-110104494D01*
X137678815Y-110201185D01*
X137775506Y-110280537D01*
X137885820Y-110339502D01*
X138005518Y-110375812D01*
X138130000Y-110388072D01*
X138844250Y-110385000D01*
X139003000Y-110226250D01*
X139003000Y-108877000D01*
X139257000Y-108877000D01*
X139257000Y-110226250D01*
X139415750Y-110385000D01*
X140130000Y-110388072D01*
X140254482Y-110375812D01*
X140374180Y-110339502D01*
X140484494Y-110280537D01*
X140581185Y-110201185D01*
X140660537Y-110104494D01*
X140719502Y-109994180D01*
X140755812Y-109874482D01*
X140768072Y-109750000D01*
X140765000Y-109035750D01*
X140606250Y-108877000D01*
X139257000Y-108877000D01*
X139003000Y-108877000D01*
X137653750Y-108877000D01*
X137495000Y-109035750D01*
X137491928Y-109750000D01*
X134018072Y-109750000D01*
X134018072Y-109215000D01*
X134010496Y-109138072D01*
X135850000Y-109138072D01*
X135974482Y-109125812D01*
X136094180Y-109089502D01*
X136204494Y-109030537D01*
X136301185Y-108951185D01*
X136380537Y-108854494D01*
X136439502Y-108744180D01*
X136475812Y-108624482D01*
X136488072Y-108500000D01*
X136488072Y-107750000D01*
X137491928Y-107750000D01*
X137495000Y-108464250D01*
X137653750Y-108623000D01*
X139003000Y-108623000D01*
X139003000Y-107273750D01*
X139257000Y-107273750D01*
X139257000Y-108623000D01*
X140606250Y-108623000D01*
X140640283Y-108588967D01*
X145095000Y-108588967D01*
X145095000Y-108911033D01*
X145157832Y-109226912D01*
X145281082Y-109524463D01*
X145460013Y-109792252D01*
X145687748Y-110019987D01*
X145955537Y-110198918D01*
X146253088Y-110322168D01*
X146568967Y-110385000D01*
X146891033Y-110385000D01*
X147076738Y-110348061D01*
X150155000Y-110348061D01*
X150155000Y-110551939D01*
X150194774Y-110751898D01*
X150272795Y-110940256D01*
X150386063Y-111109774D01*
X150530226Y-111253937D01*
X150699744Y-111367205D01*
X150888102Y-111445226D01*
X151088061Y-111485000D01*
X151291939Y-111485000D01*
X151491898Y-111445226D01*
X151680256Y-111367205D01*
X151849774Y-111253937D01*
X151993937Y-111109774D01*
X152107205Y-110940256D01*
X152185226Y-110751898D01*
X152225000Y-110551939D01*
X152225000Y-110348061D01*
X152185226Y-110148102D01*
X152107205Y-109959744D01*
X151993937Y-109790226D01*
X151849774Y-109646063D01*
X151680256Y-109532795D01*
X151491898Y-109454774D01*
X151291939Y-109415000D01*
X151088061Y-109415000D01*
X150888102Y-109454774D01*
X150699744Y-109532795D01*
X150530226Y-109646063D01*
X150386063Y-109790226D01*
X150272795Y-109959744D01*
X150194774Y-110148102D01*
X150155000Y-110348061D01*
X147076738Y-110348061D01*
X147206912Y-110322168D01*
X147504463Y-110198918D01*
X147772252Y-110019987D01*
X147999987Y-109792252D01*
X148178918Y-109524463D01*
X148302168Y-109226912D01*
X148365000Y-108911033D01*
X148365000Y-108588967D01*
X148302168Y-108273088D01*
X148178918Y-107975537D01*
X148025360Y-107745721D01*
X149222660Y-107745721D01*
X149222660Y-107949599D01*
X149262434Y-108149558D01*
X149340455Y-108337916D01*
X149453723Y-108507434D01*
X149597886Y-108651597D01*
X149767404Y-108764865D01*
X149955762Y-108842886D01*
X150155721Y-108882660D01*
X150359599Y-108882660D01*
X150559558Y-108842886D01*
X150747916Y-108764865D01*
X150917434Y-108651597D01*
X151061597Y-108507434D01*
X151174865Y-108337916D01*
X151252886Y-108149558D01*
X151292660Y-107949599D01*
X151292660Y-107745721D01*
X151252886Y-107545762D01*
X151174865Y-107357404D01*
X151155259Y-107328061D01*
X153365000Y-107328061D01*
X153365000Y-107531939D01*
X153404774Y-107731898D01*
X153445409Y-107830000D01*
X153404774Y-107928102D01*
X153365000Y-108128061D01*
X153365000Y-108331939D01*
X153404774Y-108531898D01*
X153482795Y-108720256D01*
X153596063Y-108889774D01*
X153740226Y-109033937D01*
X153909744Y-109147205D01*
X153941781Y-109160475D01*
X153884774Y-109298100D01*
X153845000Y-109498059D01*
X153845000Y-109701937D01*
X153884774Y-109901896D01*
X153962795Y-110090254D01*
X154076063Y-110259772D01*
X154220226Y-110403935D01*
X154389744Y-110517203D01*
X154578102Y-110595224D01*
X154778061Y-110634998D01*
X154981939Y-110634998D01*
X155065000Y-110618476D01*
X155065000Y-110664439D01*
X155104774Y-110864398D01*
X155182795Y-111052756D01*
X155296063Y-111222274D01*
X155440226Y-111366437D01*
X155609744Y-111479705D01*
X155798102Y-111557726D01*
X155998061Y-111597500D01*
X156201939Y-111597500D01*
X156225000Y-111592913D01*
X156225000Y-111601939D01*
X156264774Y-111801898D01*
X156342795Y-111990256D01*
X156456063Y-112159774D01*
X156600226Y-112303937D01*
X156769744Y-112417205D01*
X156958102Y-112495226D01*
X157158061Y-112535000D01*
X157361939Y-112535000D01*
X157561898Y-112495226D01*
X157750256Y-112417205D01*
X157919774Y-112303937D01*
X158063937Y-112159774D01*
X158177205Y-111990256D01*
X158255226Y-111801898D01*
X158295000Y-111601939D01*
X158295000Y-111398061D01*
X159025000Y-111398061D01*
X159025000Y-111601939D01*
X159064774Y-111801898D01*
X159142795Y-111990256D01*
X159256063Y-112159774D01*
X159400226Y-112303937D01*
X159569744Y-112417205D01*
X159758102Y-112495226D01*
X159958061Y-112535000D01*
X160161939Y-112535000D01*
X160361898Y-112495226D01*
X160550256Y-112417205D01*
X160719774Y-112303937D01*
X160863937Y-112159774D01*
X160977205Y-111990256D01*
X161055226Y-111801898D01*
X161085000Y-111652213D01*
X161114774Y-111801898D01*
X161192795Y-111990256D01*
X161306063Y-112159774D01*
X161450226Y-112303937D01*
X161619744Y-112417205D01*
X161808102Y-112495226D01*
X162008061Y-112535000D01*
X162211939Y-112535000D01*
X162411898Y-112495226D01*
X162550328Y-112437886D01*
X162572686Y-112447147D01*
X162762986Y-112485000D01*
X162957014Y-112485000D01*
X163147314Y-112447147D01*
X163326572Y-112372896D01*
X163335000Y-112367265D01*
X163343428Y-112372896D01*
X163522686Y-112447147D01*
X163712986Y-112485000D01*
X163907014Y-112485000D01*
X164097314Y-112447147D01*
X164276572Y-112372896D01*
X164285000Y-112367265D01*
X164293428Y-112372896D01*
X164472686Y-112447147D01*
X164662986Y-112485000D01*
X164857014Y-112485000D01*
X165047314Y-112447147D01*
X165069672Y-112437886D01*
X165208102Y-112495226D01*
X165408061Y-112535000D01*
X165611939Y-112535000D01*
X165811898Y-112495226D01*
X166000256Y-112417205D01*
X166169774Y-112303937D01*
X166313937Y-112159774D01*
X166427205Y-111990256D01*
X166505226Y-111801898D01*
X166545000Y-111601939D01*
X166545000Y-111398061D01*
X166505226Y-111198102D01*
X166427205Y-111009744D01*
X166313937Y-110840226D01*
X166169774Y-110696063D01*
X166000256Y-110582795D01*
X165811898Y-110504774D01*
X165611939Y-110465000D01*
X165408061Y-110465000D01*
X165208102Y-110504774D01*
X165069672Y-110562114D01*
X165047314Y-110552853D01*
X164857014Y-110515000D01*
X164662986Y-110515000D01*
X164472686Y-110552853D01*
X164293428Y-110627104D01*
X164285000Y-110632735D01*
X164276572Y-110627104D01*
X164097314Y-110552853D01*
X163907014Y-110515000D01*
X163712986Y-110515000D01*
X163522686Y-110552853D01*
X163343428Y-110627104D01*
X163335000Y-110632735D01*
X163326572Y-110627104D01*
X163147314Y-110552853D01*
X162957014Y-110515000D01*
X162762986Y-110515000D01*
X162572686Y-110552853D01*
X162550328Y-110562114D01*
X162411898Y-110504774D01*
X162211939Y-110465000D01*
X162008061Y-110465000D01*
X161808102Y-110504774D01*
X161619744Y-110582795D01*
X161450226Y-110696063D01*
X161306063Y-110840226D01*
X161192795Y-111009744D01*
X161114774Y-111198102D01*
X161085000Y-111347787D01*
X161055226Y-111198102D01*
X160977205Y-111009744D01*
X160863937Y-110840226D01*
X160719774Y-110696063D01*
X160550256Y-110582795D01*
X160361898Y-110504774D01*
X160161939Y-110465000D01*
X159958061Y-110465000D01*
X159758102Y-110504774D01*
X159569744Y-110582795D01*
X159400226Y-110696063D01*
X159256063Y-110840226D01*
X159142795Y-111009744D01*
X159064774Y-111198102D01*
X159025000Y-111398061D01*
X158295000Y-111398061D01*
X158255226Y-111198102D01*
X158177205Y-111009744D01*
X158063937Y-110840226D01*
X157919774Y-110696063D01*
X157750256Y-110582795D01*
X157561898Y-110504774D01*
X157361939Y-110465000D01*
X157158061Y-110465000D01*
X157135000Y-110469587D01*
X157135000Y-110460561D01*
X157095226Y-110260602D01*
X157017205Y-110072244D01*
X156903937Y-109902726D01*
X156759774Y-109758563D01*
X156590256Y-109645295D01*
X156401898Y-109567274D01*
X156355581Y-109558061D01*
X160055000Y-109558061D01*
X160055000Y-109761939D01*
X160094774Y-109961898D01*
X160172795Y-110150256D01*
X160286063Y-110319774D01*
X160430226Y-110463937D01*
X160599744Y-110577205D01*
X160788102Y-110655226D01*
X160988061Y-110695000D01*
X161191939Y-110695000D01*
X161391898Y-110655226D01*
X161580256Y-110577205D01*
X161749774Y-110463937D01*
X161893937Y-110319774D01*
X162007205Y-110150256D01*
X162085226Y-109961898D01*
X162125000Y-109761939D01*
X162125000Y-109558061D01*
X162085226Y-109358102D01*
X162007205Y-109169744D01*
X161893937Y-109000226D01*
X161851782Y-108958071D01*
X166835000Y-108958071D01*
X166835000Y-109161949D01*
X166874774Y-109361908D01*
X166952795Y-109550266D01*
X167004370Y-109627454D01*
X166982795Y-109659744D01*
X166904774Y-109848102D01*
X166865000Y-110048061D01*
X166865000Y-110251939D01*
X166904774Y-110451898D01*
X166945409Y-110550000D01*
X166904774Y-110648102D01*
X166865000Y-110848061D01*
X166865000Y-111051939D01*
X166904774Y-111251898D01*
X166982795Y-111440256D01*
X167096063Y-111609774D01*
X167240226Y-111753937D01*
X167409744Y-111867205D01*
X167598102Y-111945226D01*
X167798061Y-111985000D01*
X168001939Y-111985000D01*
X168201898Y-111945226D01*
X168390256Y-111867205D01*
X168559774Y-111753937D01*
X168703937Y-111609774D01*
X168817205Y-111440256D01*
X168895226Y-111251898D01*
X168935000Y-111051939D01*
X168935000Y-110848061D01*
X168895226Y-110648102D01*
X168854591Y-110550000D01*
X168895226Y-110451898D01*
X168935000Y-110251939D01*
X168935000Y-110048061D01*
X168895226Y-109848102D01*
X168817205Y-109659744D01*
X168765630Y-109582556D01*
X168787205Y-109550266D01*
X168865226Y-109361908D01*
X168905000Y-109161949D01*
X168905000Y-108958071D01*
X168865226Y-108758112D01*
X168787205Y-108569754D01*
X168673937Y-108400236D01*
X168529774Y-108256073D01*
X168360256Y-108142805D01*
X168171898Y-108064784D01*
X167971939Y-108025010D01*
X167768061Y-108025010D01*
X167568102Y-108064784D01*
X167379744Y-108142805D01*
X167210226Y-108256073D01*
X167066063Y-108400236D01*
X166952795Y-108569754D01*
X166874774Y-108758112D01*
X166835000Y-108958071D01*
X161851782Y-108958071D01*
X161749774Y-108856063D01*
X161580256Y-108742795D01*
X161391898Y-108664774D01*
X161191939Y-108625000D01*
X160988061Y-108625000D01*
X160788102Y-108664774D01*
X160599744Y-108742795D01*
X160430226Y-108856063D01*
X160286063Y-109000226D01*
X160172795Y-109169744D01*
X160094774Y-109358102D01*
X160055000Y-109558061D01*
X156355581Y-109558061D01*
X156201939Y-109527500D01*
X155998061Y-109527500D01*
X155915000Y-109544022D01*
X155915000Y-109498059D01*
X155875226Y-109298100D01*
X155797205Y-109109742D01*
X155683937Y-108940224D01*
X155539774Y-108796061D01*
X155370256Y-108682793D01*
X155338219Y-108669523D01*
X155395226Y-108531898D01*
X155435000Y-108331939D01*
X155435000Y-108128061D01*
X155395226Y-107928102D01*
X155354591Y-107830000D01*
X155395226Y-107731898D01*
X155435000Y-107531939D01*
X155435000Y-107328061D01*
X155395226Y-107128102D01*
X155317205Y-106939744D01*
X155203937Y-106770226D01*
X155059774Y-106626063D01*
X154890256Y-106512795D01*
X154701898Y-106434774D01*
X154501939Y-106395000D01*
X154298061Y-106395000D01*
X154098102Y-106434774D01*
X153909744Y-106512795D01*
X153740226Y-106626063D01*
X153596063Y-106770226D01*
X153482795Y-106939744D01*
X153404774Y-107128102D01*
X153365000Y-107328061D01*
X151155259Y-107328061D01*
X151061597Y-107187886D01*
X150917434Y-107043723D01*
X150747916Y-106930455D01*
X150559558Y-106852434D01*
X150359599Y-106812660D01*
X150155721Y-106812660D01*
X149955762Y-106852434D01*
X149767404Y-106930455D01*
X149597886Y-107043723D01*
X149453723Y-107187886D01*
X149340455Y-107357404D01*
X149262434Y-107545762D01*
X149222660Y-107745721D01*
X148025360Y-107745721D01*
X147999987Y-107707748D01*
X147772252Y-107480013D01*
X147504463Y-107301082D01*
X147206912Y-107177832D01*
X146891033Y-107115000D01*
X146568967Y-107115000D01*
X146253088Y-107177832D01*
X145955537Y-107301082D01*
X145687748Y-107480013D01*
X145460013Y-107707748D01*
X145281082Y-107975537D01*
X145157832Y-108273088D01*
X145095000Y-108588967D01*
X140640283Y-108588967D01*
X140765000Y-108464250D01*
X140768072Y-107750000D01*
X140755812Y-107625518D01*
X140719502Y-107505820D01*
X140660537Y-107395506D01*
X140581185Y-107298815D01*
X140484494Y-107219463D01*
X140374180Y-107160498D01*
X140254482Y-107124188D01*
X140130000Y-107111928D01*
X139415750Y-107115000D01*
X139257000Y-107273750D01*
X139003000Y-107273750D01*
X138844250Y-107115000D01*
X138130000Y-107111928D01*
X138005518Y-107124188D01*
X137885820Y-107160498D01*
X137775506Y-107219463D01*
X137678815Y-107298815D01*
X137599463Y-107395506D01*
X137540498Y-107505820D01*
X137504188Y-107625518D01*
X137491928Y-107750000D01*
X136488072Y-107750000D01*
X136488072Y-106500000D01*
X136475812Y-106375518D01*
X136439502Y-106255820D01*
X136380537Y-106145506D01*
X136301185Y-106048815D01*
X136204494Y-105969463D01*
X136094180Y-105910498D01*
X135974482Y-105874188D01*
X135850000Y-105861928D01*
X133850000Y-105861928D01*
X133725518Y-105874188D01*
X133605820Y-105910498D01*
X133495506Y-105969463D01*
X133398815Y-106048815D01*
X133319463Y-106145506D01*
X133305335Y-106171937D01*
X133241243Y-106129112D01*
X133267205Y-106090256D01*
X133345226Y-105901898D01*
X133385000Y-105701939D01*
X133385000Y-105568061D01*
X157220000Y-105568061D01*
X157220000Y-105771939D01*
X157259774Y-105971898D01*
X157337795Y-106160256D01*
X157451063Y-106329774D01*
X157595226Y-106473937D01*
X157764744Y-106587205D01*
X157953102Y-106665226D01*
X158153061Y-106705000D01*
X158356939Y-106705000D01*
X158556898Y-106665226D01*
X158745256Y-106587205D01*
X158818805Y-106538061D01*
X159375000Y-106538061D01*
X159375000Y-106741939D01*
X159414774Y-106941898D01*
X159492795Y-107130256D01*
X159606063Y-107299774D01*
X159750226Y-107443937D01*
X159919744Y-107557205D01*
X160108102Y-107635226D01*
X160308061Y-107675000D01*
X160511939Y-107675000D01*
X160711898Y-107635226D01*
X160810000Y-107594591D01*
X160908102Y-107635226D01*
X161108061Y-107675000D01*
X161311939Y-107675000D01*
X161511898Y-107635226D01*
X161700256Y-107557205D01*
X161869774Y-107443937D01*
X162013937Y-107299774D01*
X162127205Y-107130256D01*
X162205226Y-106941898D01*
X162245000Y-106741939D01*
X162245000Y-106538061D01*
X162205226Y-106338102D01*
X162127205Y-106149744D01*
X162013937Y-105980226D01*
X161869774Y-105836063D01*
X161700256Y-105722795D01*
X161511898Y-105644774D01*
X161311939Y-105605000D01*
X161108061Y-105605000D01*
X160908102Y-105644774D01*
X160810000Y-105685409D01*
X160711898Y-105644774D01*
X160511939Y-105605000D01*
X160308061Y-105605000D01*
X160108102Y-105644774D01*
X159919744Y-105722795D01*
X159750226Y-105836063D01*
X159606063Y-105980226D01*
X159492795Y-106149744D01*
X159414774Y-106338102D01*
X159375000Y-106538061D01*
X158818805Y-106538061D01*
X158914774Y-106473937D01*
X159058937Y-106329774D01*
X159172205Y-106160256D01*
X159250226Y-105971898D01*
X159290000Y-105771939D01*
X159290000Y-105568061D01*
X159250226Y-105368102D01*
X159172205Y-105179744D01*
X159058937Y-105010226D01*
X158914774Y-104866063D01*
X158745256Y-104752795D01*
X158556898Y-104674774D01*
X158356939Y-104635000D01*
X158153061Y-104635000D01*
X157953102Y-104674774D01*
X157764744Y-104752795D01*
X157595226Y-104866063D01*
X157451063Y-105010226D01*
X157337795Y-105179744D01*
X157259774Y-105368102D01*
X157220000Y-105568061D01*
X133385000Y-105568061D01*
X133385000Y-105498061D01*
X133345226Y-105298102D01*
X133267205Y-105109744D01*
X133153937Y-104940226D01*
X133009774Y-104796063D01*
X132840256Y-104682795D01*
X132651898Y-104604774D01*
X132451939Y-104565000D01*
X132248061Y-104565000D01*
X132048102Y-104604774D01*
X131859744Y-104682795D01*
X131690226Y-104796063D01*
X131546063Y-104940226D01*
X131432795Y-105109744D01*
X131354774Y-105298102D01*
X131315000Y-105498061D01*
X131315000Y-105701939D01*
X131354774Y-105901898D01*
X131432795Y-106090256D01*
X131458757Y-106129112D01*
X131307748Y-106230013D01*
X131100000Y-106437761D01*
X130892252Y-106230013D01*
X130624463Y-106051082D01*
X130326912Y-105927832D01*
X130011033Y-105865000D01*
X129688967Y-105865000D01*
X129373088Y-105927832D01*
X129075537Y-106051082D01*
X128807748Y-106230013D01*
X128580013Y-106457748D01*
X128401082Y-106725537D01*
X128277832Y-107023088D01*
X128215000Y-107338967D01*
X128215000Y-107661033D01*
X128277832Y-107976912D01*
X128401082Y-108274463D01*
X128580013Y-108542252D01*
X128807748Y-108769987D01*
X129075537Y-108948918D01*
X129373088Y-109072168D01*
X129688967Y-109135000D01*
X130011033Y-109135000D01*
X130326912Y-109072168D01*
X130624463Y-108948918D01*
X130892252Y-108769987D01*
X131100000Y-108562239D01*
X131223703Y-108685942D01*
X131128815Y-108763815D01*
X131049463Y-108860506D01*
X130990498Y-108970820D01*
X130954188Y-109090518D01*
X130941928Y-109215000D01*
X130941928Y-110285000D01*
X130954188Y-110409482D01*
X130990498Y-110529180D01*
X131022870Y-110589743D01*
X130961929Y-110790640D01*
X130939339Y-111020000D01*
X130961929Y-111249360D01*
X131028831Y-111469906D01*
X131127766Y-111655000D01*
X131028831Y-111840094D01*
X130961929Y-112060640D01*
X130939339Y-112290000D01*
X130961929Y-112519360D01*
X131028831Y-112739906D01*
X131127766Y-112925000D01*
X131028831Y-113110094D01*
X130961929Y-113330640D01*
X130939339Y-113560000D01*
X130961929Y-113789360D01*
X131028831Y-114009906D01*
X131137474Y-114213162D01*
X131241567Y-114340000D01*
X127032279Y-114340000D01*
X126740340Y-114311375D01*
X126490571Y-114235965D01*
X126260206Y-114113477D01*
X126058021Y-113948579D01*
X125891712Y-113747546D01*
X125767622Y-113518046D01*
X125690469Y-113268805D01*
X125660000Y-112978911D01*
X125660000Y-112898061D01*
X125965000Y-112898061D01*
X125965000Y-113101939D01*
X126004774Y-113301898D01*
X126082795Y-113490256D01*
X126196063Y-113659774D01*
X126340226Y-113803937D01*
X126509744Y-113917205D01*
X126698102Y-113995226D01*
X126898061Y-114035000D01*
X127101939Y-114035000D01*
X127301898Y-113995226D01*
X127490256Y-113917205D01*
X127659774Y-113803937D01*
X127803937Y-113659774D01*
X127917205Y-113490256D01*
X127995226Y-113301898D01*
X128035000Y-113101939D01*
X128035000Y-112898061D01*
X127995226Y-112698102D01*
X127917205Y-112509744D01*
X127803937Y-112340226D01*
X127659774Y-112196063D01*
X127490256Y-112082795D01*
X127301898Y-112004774D01*
X127101939Y-111965000D01*
X126898061Y-111965000D01*
X126698102Y-112004774D01*
X126509744Y-112082795D01*
X126340226Y-112196063D01*
X126196063Y-112340226D01*
X126082795Y-112509744D01*
X126004774Y-112698102D01*
X125965000Y-112898061D01*
X125660000Y-112898061D01*
X125660000Y-102138072D01*
X128000000Y-102138072D01*
X128124482Y-102125812D01*
X128244180Y-102089502D01*
X128354494Y-102030537D01*
X128451185Y-101951185D01*
X128530537Y-101854494D01*
X128589502Y-101744180D01*
X128625812Y-101624482D01*
X128638072Y-101500000D01*
X128638072Y-98500000D01*
X136061928Y-98500000D01*
X136061928Y-101500000D01*
X136074188Y-101624482D01*
X136110498Y-101744180D01*
X136169463Y-101854494D01*
X136248815Y-101951185D01*
X136345506Y-102030537D01*
X136455820Y-102089502D01*
X136575518Y-102125812D01*
X136700000Y-102138072D01*
X139200000Y-102138072D01*
X139263256Y-102131842D01*
X139177795Y-102259744D01*
X139099774Y-102448102D01*
X139060000Y-102648061D01*
X139060000Y-102851939D01*
X139099774Y-103051898D01*
X139177795Y-103240256D01*
X139291063Y-103409774D01*
X139435226Y-103553937D01*
X139604744Y-103667205D01*
X139793102Y-103745226D01*
X139993061Y-103785000D01*
X140196939Y-103785000D01*
X140396898Y-103745226D01*
X140585256Y-103667205D01*
X140754774Y-103553937D01*
X140898937Y-103409774D01*
X141012205Y-103240256D01*
X141042109Y-103168061D01*
X149115000Y-103168061D01*
X149115000Y-103371939D01*
X149154774Y-103571898D01*
X149232795Y-103760256D01*
X149346063Y-103929774D01*
X149490226Y-104073937D01*
X149659744Y-104187205D01*
X149848102Y-104265226D01*
X150048061Y-104305000D01*
X150251939Y-104305000D01*
X150451898Y-104265226D01*
X150640256Y-104187205D01*
X150809774Y-104073937D01*
X150953937Y-103929774D01*
X151067205Y-103760256D01*
X151145226Y-103571898D01*
X151185000Y-103371939D01*
X151185000Y-103348061D01*
X153115000Y-103348061D01*
X153115000Y-103551939D01*
X153154774Y-103751898D01*
X153232795Y-103940256D01*
X153346063Y-104109774D01*
X153490226Y-104253937D01*
X153659744Y-104367205D01*
X153848102Y-104445226D01*
X154048061Y-104485000D01*
X154251939Y-104485000D01*
X154451898Y-104445226D01*
X154640256Y-104367205D01*
X154809774Y-104253937D01*
X154953937Y-104109774D01*
X155067205Y-103940256D01*
X155145226Y-103751898D01*
X155185000Y-103551939D01*
X155185000Y-103348061D01*
X155145226Y-103148102D01*
X155141067Y-103138061D01*
X159970000Y-103138061D01*
X159970000Y-103341939D01*
X160009774Y-103541898D01*
X160087795Y-103730256D01*
X160201063Y-103899774D01*
X160345226Y-104043937D01*
X160514744Y-104157205D01*
X160703102Y-104235226D01*
X160903061Y-104275000D01*
X161106939Y-104275000D01*
X161306898Y-104235226D01*
X161495256Y-104157205D01*
X161664774Y-104043937D01*
X161808937Y-103899774D01*
X161922205Y-103730256D01*
X162000226Y-103541898D01*
X162040000Y-103341939D01*
X162040000Y-103138061D01*
X162000226Y-102938102D01*
X161922205Y-102749744D01*
X161808937Y-102580226D01*
X161664774Y-102436063D01*
X161495256Y-102322795D01*
X161306898Y-102244774D01*
X161106939Y-102205000D01*
X160903061Y-102205000D01*
X160703102Y-102244774D01*
X160514744Y-102322795D01*
X160345226Y-102436063D01*
X160201063Y-102580226D01*
X160087795Y-102749744D01*
X160009774Y-102938102D01*
X159970000Y-103138061D01*
X155141067Y-103138061D01*
X155067205Y-102959744D01*
X154953937Y-102790226D01*
X154809774Y-102646063D01*
X154640256Y-102532795D01*
X154451898Y-102454774D01*
X154251939Y-102415000D01*
X154048061Y-102415000D01*
X153848102Y-102454774D01*
X153659744Y-102532795D01*
X153490226Y-102646063D01*
X153346063Y-102790226D01*
X153232795Y-102959744D01*
X153154774Y-103148102D01*
X153115000Y-103348061D01*
X151185000Y-103348061D01*
X151185000Y-103168061D01*
X151145226Y-102968102D01*
X151067205Y-102779744D01*
X150953937Y-102610226D01*
X150809774Y-102466063D01*
X150640256Y-102352795D01*
X150451898Y-102274774D01*
X150251939Y-102235000D01*
X150048061Y-102235000D01*
X149848102Y-102274774D01*
X149659744Y-102352795D01*
X149490226Y-102466063D01*
X149346063Y-102610226D01*
X149232795Y-102779744D01*
X149154774Y-102968102D01*
X149115000Y-103168061D01*
X141042109Y-103168061D01*
X141090226Y-103051898D01*
X141130000Y-102851939D01*
X141130000Y-102648061D01*
X141090226Y-102448102D01*
X141012205Y-102259744D01*
X140898937Y-102090226D01*
X140754774Y-101946063D01*
X140585256Y-101832795D01*
X140396898Y-101754774D01*
X140196939Y-101715000D01*
X139993061Y-101715000D01*
X139793102Y-101754774D01*
X139781205Y-101759702D01*
X139789502Y-101744180D01*
X139815625Y-101658061D01*
X158085000Y-101658061D01*
X158085000Y-101861939D01*
X158124774Y-102061898D01*
X158202795Y-102250256D01*
X158316063Y-102419774D01*
X158460226Y-102563937D01*
X158629744Y-102677205D01*
X158818102Y-102755226D01*
X159018061Y-102795000D01*
X159221939Y-102795000D01*
X159421898Y-102755226D01*
X159610256Y-102677205D01*
X159779774Y-102563937D01*
X159923937Y-102419774D01*
X160037205Y-102250256D01*
X160115226Y-102061898D01*
X160155000Y-101861939D01*
X160155000Y-101658061D01*
X160115226Y-101458102D01*
X160037205Y-101269744D01*
X159923937Y-101100226D01*
X159779774Y-100956063D01*
X159610256Y-100842795D01*
X159421898Y-100764774D01*
X159221939Y-100725000D01*
X159018061Y-100725000D01*
X158818102Y-100764774D01*
X158629744Y-100842795D01*
X158460226Y-100956063D01*
X158316063Y-101100226D01*
X158202795Y-101269744D01*
X158124774Y-101458102D01*
X158085000Y-101658061D01*
X139815625Y-101658061D01*
X139825812Y-101624482D01*
X139838072Y-101500000D01*
X139838072Y-99418061D01*
X141545000Y-99418061D01*
X141545000Y-99621939D01*
X141584774Y-99821898D01*
X141662795Y-100010256D01*
X141776063Y-100179774D01*
X141920226Y-100323937D01*
X142089744Y-100437205D01*
X142278102Y-100515226D01*
X142478061Y-100555000D01*
X142681939Y-100555000D01*
X142881898Y-100515226D01*
X143070256Y-100437205D01*
X143239774Y-100323937D01*
X143383937Y-100179774D01*
X143438535Y-100098061D01*
X145245000Y-100098061D01*
X145245000Y-100301939D01*
X145284774Y-100501898D01*
X145362795Y-100690256D01*
X145476063Y-100859774D01*
X145620226Y-101003937D01*
X145789744Y-101117205D01*
X145978102Y-101195226D01*
X146178061Y-101235000D01*
X146381939Y-101235000D01*
X146581898Y-101195226D01*
X146770256Y-101117205D01*
X146939774Y-101003937D01*
X147083937Y-100859774D01*
X147197205Y-100690256D01*
X147275226Y-100501898D01*
X147315000Y-100301939D01*
X147315000Y-100098061D01*
X147275226Y-99898102D01*
X147197205Y-99709744D01*
X147083937Y-99540226D01*
X146939774Y-99396063D01*
X146770256Y-99282795D01*
X146581898Y-99204774D01*
X146381939Y-99165000D01*
X146178061Y-99165000D01*
X145978102Y-99204774D01*
X145789744Y-99282795D01*
X145620226Y-99396063D01*
X145476063Y-99540226D01*
X145362795Y-99709744D01*
X145284774Y-99898102D01*
X145245000Y-100098061D01*
X143438535Y-100098061D01*
X143497205Y-100010256D01*
X143575226Y-99821898D01*
X143615000Y-99621939D01*
X143615000Y-99418061D01*
X143575226Y-99218102D01*
X143497205Y-99029744D01*
X143383937Y-98860226D01*
X143239774Y-98716063D01*
X143152968Y-98658061D01*
X154705000Y-98658061D01*
X154705000Y-98861939D01*
X154744774Y-99061898D01*
X154822795Y-99250256D01*
X154936063Y-99419774D01*
X155080226Y-99563937D01*
X155249744Y-99677205D01*
X155438102Y-99755226D01*
X155638061Y-99795000D01*
X155841939Y-99795000D01*
X156041898Y-99755226D01*
X156230256Y-99677205D01*
X156399774Y-99563937D01*
X156543937Y-99419774D01*
X156657205Y-99250256D01*
X156735226Y-99061898D01*
X156775000Y-98861939D01*
X156775000Y-98658061D01*
X156735226Y-98458102D01*
X156731067Y-98448061D01*
X158700000Y-98448061D01*
X158700000Y-98651939D01*
X158739774Y-98851898D01*
X158817795Y-99040256D01*
X158931063Y-99209774D01*
X159075226Y-99353937D01*
X159244744Y-99467205D01*
X159433102Y-99545226D01*
X159633061Y-99585000D01*
X159836939Y-99585000D01*
X160036898Y-99545226D01*
X160225256Y-99467205D01*
X160394774Y-99353937D01*
X160538937Y-99209774D01*
X160652205Y-99040256D01*
X160730226Y-98851898D01*
X160770000Y-98651939D01*
X160770000Y-98448061D01*
X160730226Y-98248102D01*
X160682303Y-98132407D01*
X160858102Y-98205226D01*
X161058061Y-98245000D01*
X161261939Y-98245000D01*
X161461898Y-98205226D01*
X161650256Y-98127205D01*
X161819774Y-98013937D01*
X161963937Y-97869774D01*
X162077205Y-97700256D01*
X162155226Y-97511898D01*
X162195000Y-97311939D01*
X162195000Y-97138061D01*
X166775000Y-97138061D01*
X166775000Y-97341939D01*
X166814774Y-97541898D01*
X166892795Y-97730256D01*
X167006063Y-97899774D01*
X167150226Y-98043937D01*
X167319744Y-98157205D01*
X167508102Y-98235226D01*
X167708061Y-98275000D01*
X167911939Y-98275000D01*
X168111898Y-98235226D01*
X168300256Y-98157205D01*
X168469774Y-98043937D01*
X168613937Y-97899774D01*
X168727205Y-97730256D01*
X168805226Y-97541898D01*
X168845000Y-97341939D01*
X168845000Y-97138061D01*
X168805226Y-96938102D01*
X168727205Y-96749744D01*
X168613937Y-96580226D01*
X168469774Y-96436063D01*
X168300256Y-96322795D01*
X168111898Y-96244774D01*
X167911939Y-96205000D01*
X167708061Y-96205000D01*
X167508102Y-96244774D01*
X167319744Y-96322795D01*
X167150226Y-96436063D01*
X167006063Y-96580226D01*
X166892795Y-96749744D01*
X166814774Y-96938102D01*
X166775000Y-97138061D01*
X162195000Y-97138061D01*
X162195000Y-97108061D01*
X162155226Y-96908102D01*
X162077205Y-96719744D01*
X161963937Y-96550226D01*
X161819774Y-96406063D01*
X161650256Y-96292795D01*
X161461898Y-96214774D01*
X161261939Y-96175000D01*
X161058061Y-96175000D01*
X160858102Y-96214774D01*
X160669744Y-96292795D01*
X160500226Y-96406063D01*
X160356063Y-96550226D01*
X160242795Y-96719744D01*
X160164774Y-96908102D01*
X160125000Y-97108061D01*
X160125000Y-97311939D01*
X160164774Y-97511898D01*
X160212697Y-97627593D01*
X160036898Y-97554774D01*
X159836939Y-97515000D01*
X159633061Y-97515000D01*
X159433102Y-97554774D01*
X159244744Y-97632795D01*
X159075226Y-97746063D01*
X158931063Y-97890226D01*
X158817795Y-98059744D01*
X158739774Y-98248102D01*
X158700000Y-98448061D01*
X156731067Y-98448061D01*
X156657205Y-98269744D01*
X156543937Y-98100226D01*
X156399774Y-97956063D01*
X156230256Y-97842795D01*
X156041898Y-97764774D01*
X155841939Y-97725000D01*
X155638061Y-97725000D01*
X155438102Y-97764774D01*
X155249744Y-97842795D01*
X155080226Y-97956063D01*
X154936063Y-98100226D01*
X154822795Y-98269744D01*
X154744774Y-98458102D01*
X154705000Y-98658061D01*
X143152968Y-98658061D01*
X143070256Y-98602795D01*
X142881898Y-98524774D01*
X142681939Y-98485000D01*
X142478061Y-98485000D01*
X142278102Y-98524774D01*
X142089744Y-98602795D01*
X141920226Y-98716063D01*
X141776063Y-98860226D01*
X141662795Y-99029744D01*
X141584774Y-99218102D01*
X141545000Y-99418061D01*
X139838072Y-99418061D01*
X139838072Y-98500000D01*
X139825812Y-98375518D01*
X139789502Y-98255820D01*
X139730537Y-98145506D01*
X139651185Y-98048815D01*
X139554494Y-97969463D01*
X139444180Y-97910498D01*
X139324482Y-97874188D01*
X139200000Y-97861928D01*
X136700000Y-97861928D01*
X136575518Y-97874188D01*
X136455820Y-97910498D01*
X136345506Y-97969463D01*
X136248815Y-98048815D01*
X136169463Y-98145506D01*
X136110498Y-98255820D01*
X136074188Y-98375518D01*
X136061928Y-98500000D01*
X128638072Y-98500000D01*
X128625812Y-98375518D01*
X128589502Y-98255820D01*
X128530537Y-98145506D01*
X128451185Y-98048815D01*
X128354494Y-97969463D01*
X128244180Y-97910498D01*
X128124482Y-97874188D01*
X128000000Y-97861928D01*
X125660000Y-97861928D01*
X125660000Y-97148061D01*
X144485000Y-97148061D01*
X144485000Y-97351939D01*
X144524774Y-97551898D01*
X144602795Y-97740256D01*
X144716063Y-97909774D01*
X144860226Y-98053937D01*
X145029744Y-98167205D01*
X145218102Y-98245226D01*
X145418061Y-98285000D01*
X145621939Y-98285000D01*
X145821898Y-98245226D01*
X146010256Y-98167205D01*
X146179774Y-98053937D01*
X146323937Y-97909774D01*
X146437205Y-97740256D01*
X146515226Y-97551898D01*
X146555000Y-97351939D01*
X146555000Y-97148061D01*
X146515226Y-96948102D01*
X146437205Y-96759744D01*
X146323937Y-96590226D01*
X146179774Y-96446063D01*
X146010256Y-96332795D01*
X145821898Y-96254774D01*
X145621939Y-96215000D01*
X145418061Y-96215000D01*
X145218102Y-96254774D01*
X145029744Y-96332795D01*
X144860226Y-96446063D01*
X144716063Y-96590226D01*
X144602795Y-96759744D01*
X144524774Y-96948102D01*
X144485000Y-97148061D01*
X125660000Y-97148061D01*
X125660000Y-93403061D01*
X125895000Y-93403061D01*
X125895000Y-93606939D01*
X125934774Y-93806898D01*
X126012795Y-93995256D01*
X126126063Y-94164774D01*
X126270226Y-94308937D01*
X126439744Y-94422205D01*
X126628102Y-94500226D01*
X126828061Y-94540000D01*
X127031939Y-94540000D01*
X127231898Y-94500226D01*
X127420256Y-94422205D01*
X127589774Y-94308937D01*
X127733937Y-94164774D01*
X127847205Y-93995256D01*
X127925226Y-93806898D01*
X127965000Y-93606939D01*
X127965000Y-93403061D01*
X127925226Y-93203102D01*
X127847205Y-93014744D01*
X127733937Y-92845226D01*
X127727678Y-92838967D01*
X128215000Y-92838967D01*
X128215000Y-93161033D01*
X128277832Y-93476912D01*
X128401082Y-93774463D01*
X128580013Y-94042252D01*
X128807748Y-94269987D01*
X129075537Y-94448918D01*
X129373088Y-94572168D01*
X129688967Y-94635000D01*
X130011033Y-94635000D01*
X130326912Y-94572168D01*
X130624463Y-94448918D01*
X130892252Y-94269987D01*
X131119987Y-94042252D01*
X131298918Y-93774463D01*
X131422168Y-93476912D01*
X131485000Y-93161033D01*
X131485000Y-92838967D01*
X133215000Y-92838967D01*
X133215000Y-93161033D01*
X133277832Y-93476912D01*
X133401082Y-93774463D01*
X133580013Y-94042252D01*
X133807748Y-94269987D01*
X134075537Y-94448918D01*
X134373088Y-94572168D01*
X134688967Y-94635000D01*
X135011033Y-94635000D01*
X135326912Y-94572168D01*
X135624463Y-94448918D01*
X135892252Y-94269987D01*
X136119987Y-94042252D01*
X136298918Y-93774463D01*
X136422168Y-93476912D01*
X136485000Y-93161033D01*
X136485000Y-92838967D01*
X136422168Y-92523088D01*
X136298918Y-92225537D01*
X136119987Y-91957748D01*
X135892252Y-91730013D01*
X135624463Y-91551082D01*
X135326912Y-91427832D01*
X135011033Y-91365000D01*
X134688967Y-91365000D01*
X134373088Y-91427832D01*
X134075537Y-91551082D01*
X133807748Y-91730013D01*
X133580013Y-91957748D01*
X133401082Y-92225537D01*
X133277832Y-92523088D01*
X133215000Y-92838967D01*
X131485000Y-92838967D01*
X131422168Y-92523088D01*
X131298918Y-92225537D01*
X131119987Y-91957748D01*
X130892252Y-91730013D01*
X130624463Y-91551082D01*
X130326912Y-91427832D01*
X130011033Y-91365000D01*
X129688967Y-91365000D01*
X129373088Y-91427832D01*
X129075537Y-91551082D01*
X128807748Y-91730013D01*
X128580013Y-91957748D01*
X128401082Y-92225537D01*
X128277832Y-92523088D01*
X128215000Y-92838967D01*
X127727678Y-92838967D01*
X127589774Y-92701063D01*
X127420256Y-92587795D01*
X127231898Y-92509774D01*
X127031939Y-92470000D01*
X126828061Y-92470000D01*
X126628102Y-92509774D01*
X126439744Y-92587795D01*
X126270226Y-92701063D01*
X126126063Y-92845226D01*
X126012795Y-93014744D01*
X125934774Y-93203102D01*
X125895000Y-93403061D01*
X125660000Y-93403061D01*
X125660000Y-89716891D01*
X127288519Y-89716891D01*
X127385843Y-89991252D01*
X127534822Y-90241355D01*
X127729731Y-90457588D01*
X127963080Y-90631641D01*
X128225901Y-90756825D01*
X128373110Y-90801476D01*
X128603000Y-90680155D01*
X128603000Y-89487000D01*
X127409186Y-89487000D01*
X127288519Y-89716891D01*
X125660000Y-89716891D01*
X125660000Y-87032279D01*
X125688625Y-86740341D01*
X125764035Y-86490571D01*
X125886522Y-86260208D01*
X126051422Y-86058020D01*
X126252450Y-85891714D01*
X126481954Y-85767622D01*
X126731195Y-85690469D01*
X127021088Y-85660000D01*
X127793133Y-85660000D01*
X127783368Y-85666525D01*
G04 #@! TA.AperFunction,Conductor*
D23*
G36*
X127783368Y-85666525D02*
G01*
X127576525Y-85873368D01*
X127448224Y-86065385D01*
X127301898Y-86004774D01*
X127101939Y-85965000D01*
X126898061Y-85965000D01*
X126698102Y-86004774D01*
X126509744Y-86082795D01*
X126340226Y-86196063D01*
X126196063Y-86340226D01*
X126082795Y-86509744D01*
X126004774Y-86698102D01*
X125965000Y-86898061D01*
X125965000Y-87101939D01*
X126004774Y-87301898D01*
X126082795Y-87490256D01*
X126196063Y-87659774D01*
X126340226Y-87803937D01*
X126509744Y-87917205D01*
X126698102Y-87995226D01*
X126898061Y-88035000D01*
X127101939Y-88035000D01*
X127301898Y-87995226D01*
X127490256Y-87917205D01*
X127632233Y-87822340D01*
X127783368Y-87973475D01*
X127959406Y-88091100D01*
X127729731Y-88262412D01*
X127534822Y-88478645D01*
X127385843Y-88728748D01*
X127288519Y-89003109D01*
X127409186Y-89233000D01*
X128603000Y-89233000D01*
X128603000Y-89213000D01*
X128857000Y-89213000D01*
X128857000Y-89233000D01*
X128877000Y-89233000D01*
X128877000Y-89487000D01*
X128857000Y-89487000D01*
X128857000Y-90680155D01*
X129086890Y-90801476D01*
X129234099Y-90756825D01*
X129496920Y-90631641D01*
X129730269Y-90457588D01*
X129925178Y-90241355D01*
X129994805Y-90124466D01*
X130116525Y-90306632D01*
X130323368Y-90513475D01*
X130566589Y-90675990D01*
X130836842Y-90787932D01*
X131123740Y-90845000D01*
X131416260Y-90845000D01*
X131703158Y-90787932D01*
X131973411Y-90675990D01*
X132216632Y-90513475D01*
X132423475Y-90306632D01*
X132540000Y-90132240D01*
X132656525Y-90306632D01*
X132863368Y-90513475D01*
X133106589Y-90675990D01*
X133376842Y-90787932D01*
X133663740Y-90845000D01*
X133956260Y-90845000D01*
X134243158Y-90787932D01*
X134513411Y-90675990D01*
X134756632Y-90513475D01*
X134963475Y-90306632D01*
X135080000Y-90132240D01*
X135196525Y-90306632D01*
X135403368Y-90513475D01*
X135646589Y-90675990D01*
X135916842Y-90787932D01*
X136203740Y-90845000D01*
X136496260Y-90845000D01*
X136783158Y-90787932D01*
X137053411Y-90675990D01*
X137296632Y-90513475D01*
X137377829Y-90432278D01*
X137352795Y-90469744D01*
X137274774Y-90658102D01*
X137235000Y-90858061D01*
X137235000Y-91061939D01*
X137274774Y-91261898D01*
X137352795Y-91450256D01*
X137466063Y-91619774D01*
X137610226Y-91763937D01*
X137779744Y-91877205D01*
X137968102Y-91955226D01*
X138168061Y-91995000D01*
X138371939Y-91995000D01*
X138571898Y-91955226D01*
X138760256Y-91877205D01*
X138929774Y-91763937D01*
X139073937Y-91619774D01*
X139076265Y-91616290D01*
X139060000Y-91698061D01*
X139060000Y-91901939D01*
X139099774Y-92101898D01*
X139177795Y-92290256D01*
X139291063Y-92459774D01*
X139435226Y-92603937D01*
X139604744Y-92717205D01*
X139793102Y-92795226D01*
X139993061Y-92835000D01*
X140196939Y-92835000D01*
X140396898Y-92795226D01*
X140585256Y-92717205D01*
X140754774Y-92603937D01*
X140898937Y-92459774D01*
X141012205Y-92290256D01*
X141090226Y-92101898D01*
X141130000Y-91901939D01*
X141130000Y-91698061D01*
X141090226Y-91498102D01*
X141012205Y-91309744D01*
X140898937Y-91140226D01*
X140754774Y-90996063D01*
X140585256Y-90882795D01*
X140396898Y-90804774D01*
X140196939Y-90765000D01*
X139993061Y-90765000D01*
X139793102Y-90804774D01*
X139604744Y-90882795D01*
X139435226Y-90996063D01*
X139291063Y-91140226D01*
X139288735Y-91143710D01*
X139305000Y-91061939D01*
X139305000Y-90858061D01*
X139265226Y-90658102D01*
X139187205Y-90469744D01*
X139073937Y-90300226D01*
X138929774Y-90156063D01*
X138760256Y-90042795D01*
X138571898Y-89964774D01*
X138371939Y-89925000D01*
X138168061Y-89925000D01*
X137968102Y-89964774D01*
X137779744Y-90042795D01*
X137610226Y-90156063D01*
X137591710Y-90174579D01*
X137665990Y-90063411D01*
X137777932Y-89793158D01*
X137835000Y-89506260D01*
X137835000Y-89213740D01*
X137777932Y-88926842D01*
X137665990Y-88656589D01*
X137503475Y-88413368D01*
X137371620Y-88281513D01*
X137444180Y-88259502D01*
X137554494Y-88200537D01*
X137651185Y-88121185D01*
X137730537Y-88024494D01*
X137789502Y-87914180D01*
X137825812Y-87794482D01*
X137838072Y-87670000D01*
X137838072Y-85970000D01*
X137825812Y-85845518D01*
X137789502Y-85725820D01*
X137754320Y-85660000D01*
X140142720Y-85660000D01*
X139743992Y-86058729D01*
X139714989Y-86082531D01*
X139687039Y-86116589D01*
X139620016Y-86198256D01*
X139560096Y-86310357D01*
X139549444Y-86330286D01*
X139505987Y-86473547D01*
X139494990Y-86585200D01*
X139494990Y-86585210D01*
X139491314Y-86622532D01*
X139494990Y-86659855D01*
X139494991Y-88820136D01*
X139491314Y-88857468D01*
X139505988Y-89006453D01*
X139549444Y-89149714D01*
X139620016Y-89281744D01*
X139691191Y-89368470D01*
X139714990Y-89397469D01*
X139743988Y-89421267D01*
X140503723Y-90181002D01*
X140527521Y-90210001D01*
X140643246Y-90304974D01*
X140775275Y-90375546D01*
X140918536Y-90419003D01*
X141008915Y-90427905D01*
X141037394Y-90462606D01*
X141164392Y-90566831D01*
X141309284Y-90644278D01*
X141466500Y-90691969D01*
X141630000Y-90708072D01*
X143330000Y-90708072D01*
X143493500Y-90691969D01*
X143520000Y-90683930D01*
X143520001Y-93312462D01*
X143381939Y-93285000D01*
X143178061Y-93285000D01*
X142978102Y-93324774D01*
X142789744Y-93402795D01*
X142620226Y-93516063D01*
X142476063Y-93660226D01*
X142362795Y-93829744D01*
X142284774Y-94018102D01*
X142245000Y-94218061D01*
X142245000Y-94421939D01*
X142284774Y-94621898D01*
X142362795Y-94810256D01*
X142476063Y-94979774D01*
X142620226Y-95123937D01*
X142789744Y-95237205D01*
X142978102Y-95315226D01*
X143178061Y-95355000D01*
X143381939Y-95355000D01*
X143581898Y-95315226D01*
X143770256Y-95237205D01*
X143780000Y-95230694D01*
X143789744Y-95237205D01*
X143978102Y-95315226D01*
X144178061Y-95355000D01*
X144381939Y-95355000D01*
X144581898Y-95315226D01*
X144770256Y-95237205D01*
X144939774Y-95123937D01*
X145083937Y-94979774D01*
X145125172Y-94918061D01*
X147435000Y-94918061D01*
X147435000Y-95121939D01*
X147474774Y-95321898D01*
X147552795Y-95510256D01*
X147666063Y-95679774D01*
X147810226Y-95823937D01*
X147979744Y-95937205D01*
X148168102Y-96015226D01*
X148368061Y-96055000D01*
X148571939Y-96055000D01*
X148771898Y-96015226D01*
X148960256Y-95937205D01*
X149129774Y-95823937D01*
X149273937Y-95679774D01*
X149387205Y-95510256D01*
X149415038Y-95443061D01*
X151365000Y-95443061D01*
X151365000Y-95646939D01*
X151404774Y-95846898D01*
X151482795Y-96035256D01*
X151596063Y-96204774D01*
X151740226Y-96348937D01*
X151909744Y-96462205D01*
X152098102Y-96540226D01*
X152298061Y-96580000D01*
X152501939Y-96580000D01*
X152701898Y-96540226D01*
X152890256Y-96462205D01*
X153059774Y-96348937D01*
X153203937Y-96204774D01*
X153317205Y-96035256D01*
X153395226Y-95846898D01*
X153435000Y-95646939D01*
X153435000Y-95443061D01*
X153413120Y-95333061D01*
X158865000Y-95333061D01*
X158865000Y-95536939D01*
X158904774Y-95736898D01*
X158982795Y-95925256D01*
X159096063Y-96094774D01*
X159240226Y-96238937D01*
X159409744Y-96352205D01*
X159598102Y-96430226D01*
X159798061Y-96470000D01*
X160001939Y-96470000D01*
X160201898Y-96430226D01*
X160390256Y-96352205D01*
X160559774Y-96238937D01*
X160703937Y-96094774D01*
X160817205Y-95925256D01*
X160895226Y-95736898D01*
X160935000Y-95536939D01*
X160935000Y-95333061D01*
X160895226Y-95133102D01*
X160817205Y-94944744D01*
X160703937Y-94775226D01*
X160559774Y-94631063D01*
X160390256Y-94517795D01*
X160201898Y-94439774D01*
X160001939Y-94400000D01*
X159798061Y-94400000D01*
X159598102Y-94439774D01*
X159409744Y-94517795D01*
X159240226Y-94631063D01*
X159096063Y-94775226D01*
X158982795Y-94944744D01*
X158904774Y-95133102D01*
X158865000Y-95333061D01*
X153413120Y-95333061D01*
X153395226Y-95243102D01*
X153317205Y-95054744D01*
X153203937Y-94885226D01*
X153059774Y-94741063D01*
X152890256Y-94627795D01*
X152701898Y-94549774D01*
X152501939Y-94510000D01*
X152298061Y-94510000D01*
X152098102Y-94549774D01*
X151909744Y-94627795D01*
X151740226Y-94741063D01*
X151596063Y-94885226D01*
X151482795Y-95054744D01*
X151404774Y-95243102D01*
X151365000Y-95443061D01*
X149415038Y-95443061D01*
X149465226Y-95321898D01*
X149505000Y-95121939D01*
X149505000Y-94918061D01*
X149465226Y-94718102D01*
X149387205Y-94529744D01*
X149273937Y-94360226D01*
X149129774Y-94216063D01*
X148960256Y-94102795D01*
X148771898Y-94024774D01*
X148571939Y-93985000D01*
X148368061Y-93985000D01*
X148168102Y-94024774D01*
X147979744Y-94102795D01*
X147810226Y-94216063D01*
X147666063Y-94360226D01*
X147552795Y-94529744D01*
X147474774Y-94718102D01*
X147435000Y-94918061D01*
X145125172Y-94918061D01*
X145197205Y-94810256D01*
X145275226Y-94621898D01*
X145315000Y-94421939D01*
X145315000Y-94218061D01*
X145275226Y-94018102D01*
X145197205Y-93829744D01*
X145083937Y-93660226D01*
X145040000Y-93616289D01*
X145040000Y-92603061D01*
X166785000Y-92603061D01*
X166785000Y-92806939D01*
X166824774Y-93006898D01*
X166902795Y-93195256D01*
X167016063Y-93364774D01*
X167160226Y-93508937D01*
X167329744Y-93622205D01*
X167518102Y-93700226D01*
X167718061Y-93740000D01*
X167921939Y-93740000D01*
X168121898Y-93700226D01*
X168310256Y-93622205D01*
X168479774Y-93508937D01*
X168623937Y-93364774D01*
X168737205Y-93195256D01*
X168815226Y-93006898D01*
X168855000Y-92806939D01*
X168855000Y-92603061D01*
X168815226Y-92403102D01*
X168737205Y-92214744D01*
X168623937Y-92045226D01*
X168479774Y-91901063D01*
X168310256Y-91787795D01*
X168121898Y-91709774D01*
X167921939Y-91670000D01*
X167718061Y-91670000D01*
X167518102Y-91709774D01*
X167329744Y-91787795D01*
X167160226Y-91901063D01*
X167016063Y-92045226D01*
X166902795Y-92214744D01*
X166824774Y-92403102D01*
X166785000Y-92603061D01*
X145040000Y-92603061D01*
X145040000Y-90464745D01*
X145164392Y-90566831D01*
X145309284Y-90644278D01*
X145466500Y-90691969D01*
X145630000Y-90708072D01*
X147330000Y-90708072D01*
X147493500Y-90691969D01*
X147650716Y-90644278D01*
X147795608Y-90566831D01*
X147922606Y-90462606D01*
X147951085Y-90427905D01*
X148041464Y-90419003D01*
X148184725Y-90375546D01*
X148316754Y-90304974D01*
X148432479Y-90210001D01*
X148456281Y-90180998D01*
X148669218Y-89968061D01*
X160365000Y-89968061D01*
X160365000Y-90171939D01*
X160404774Y-90371898D01*
X160482795Y-90560256D01*
X160596063Y-90729774D01*
X160740226Y-90873937D01*
X160909744Y-90987205D01*
X161098102Y-91065226D01*
X161298061Y-91105000D01*
X161501939Y-91105000D01*
X161701898Y-91065226D01*
X161890256Y-90987205D01*
X162059774Y-90873937D01*
X162203937Y-90729774D01*
X162317205Y-90560256D01*
X162395226Y-90371898D01*
X162435000Y-90171939D01*
X162435000Y-89968061D01*
X162395226Y-89768102D01*
X162317205Y-89579744D01*
X162290649Y-89540000D01*
X169482815Y-89540000D01*
X169511487Y-89831111D01*
X169596401Y-90111034D01*
X169734294Y-90369014D01*
X169919866Y-90595134D01*
X170145986Y-90780706D01*
X170163374Y-90790000D01*
X170145986Y-90799294D01*
X169919866Y-90984866D01*
X169734294Y-91210986D01*
X169596401Y-91468966D01*
X169511487Y-91748889D01*
X169482815Y-92040000D01*
X169511487Y-92331111D01*
X169596401Y-92611034D01*
X169734294Y-92869014D01*
X169919866Y-93095134D01*
X170145986Y-93280706D01*
X170163374Y-93290000D01*
X170145986Y-93299294D01*
X169919866Y-93484866D01*
X169734294Y-93710986D01*
X169596401Y-93968966D01*
X169511487Y-94248889D01*
X169482815Y-94540000D01*
X169511487Y-94831111D01*
X169596401Y-95111034D01*
X169734294Y-95369014D01*
X169919866Y-95595134D01*
X170145986Y-95780706D01*
X170163374Y-95790000D01*
X170145986Y-95799294D01*
X169919866Y-95984866D01*
X169734294Y-96210986D01*
X169596401Y-96468966D01*
X169511487Y-96748889D01*
X169482815Y-97040000D01*
X169511487Y-97331111D01*
X169596401Y-97611034D01*
X169734294Y-97869014D01*
X169919866Y-98095134D01*
X169983337Y-98147223D01*
X169881614Y-98201595D01*
X169747038Y-98312038D01*
X169636595Y-98446614D01*
X169554528Y-98600150D01*
X169503992Y-98766746D01*
X169486928Y-98940000D01*
X169486928Y-100140000D01*
X169503992Y-100313254D01*
X169554528Y-100479850D01*
X169636595Y-100633386D01*
X169747038Y-100767962D01*
X169881614Y-100878405D01*
X170035150Y-100960472D01*
X170201746Y-101011008D01*
X170375000Y-101028072D01*
X171825000Y-101028072D01*
X171998254Y-101011008D01*
X172035000Y-100999861D01*
X172035001Y-104209131D01*
X171796034Y-104081401D01*
X171516111Y-103996487D01*
X171297950Y-103975000D01*
X170902050Y-103975000D01*
X170683889Y-103996487D01*
X170403966Y-104081401D01*
X170145986Y-104219294D01*
X169919866Y-104404866D01*
X169734294Y-104630986D01*
X169596401Y-104888966D01*
X169511487Y-105168889D01*
X169482815Y-105460000D01*
X169511487Y-105751111D01*
X169596401Y-106031034D01*
X169734294Y-106289014D01*
X169919866Y-106515134D01*
X170145986Y-106700706D01*
X170163374Y-106710000D01*
X170145986Y-106719294D01*
X169919866Y-106904866D01*
X169734294Y-107130986D01*
X169596401Y-107388966D01*
X169511487Y-107668889D01*
X169482815Y-107960000D01*
X169511487Y-108251111D01*
X169596401Y-108531034D01*
X169734294Y-108789014D01*
X169919866Y-109015134D01*
X169983337Y-109067223D01*
X169881614Y-109121595D01*
X169747038Y-109232038D01*
X169636595Y-109366614D01*
X169554528Y-109520150D01*
X169503992Y-109686746D01*
X169486928Y-109860000D01*
X169486928Y-111060000D01*
X169503992Y-111233254D01*
X169554528Y-111399850D01*
X169636595Y-111553386D01*
X169747038Y-111687962D01*
X169881614Y-111798405D01*
X170035150Y-111880472D01*
X170201746Y-111931008D01*
X170375000Y-111948072D01*
X171825000Y-111948072D01*
X171998254Y-111931008D01*
X172164850Y-111880472D01*
X172318386Y-111798405D01*
X172452962Y-111687962D01*
X172563405Y-111553386D01*
X172645472Y-111399850D01*
X172696008Y-111233254D01*
X172713072Y-111060000D01*
X172713072Y-110452059D01*
X173933141Y-109231991D01*
X173976449Y-109196449D01*
X174118284Y-109023623D01*
X174223676Y-108826447D01*
X174288577Y-108612499D01*
X174305000Y-108445752D01*
X174310491Y-108390001D01*
X174305000Y-108334249D01*
X174305000Y-96665751D01*
X174310491Y-96609999D01*
X174288577Y-96387501D01*
X174223676Y-96173553D01*
X174181568Y-96094774D01*
X174118284Y-95976377D01*
X173976449Y-95803551D01*
X173933141Y-95768009D01*
X172716104Y-94550973D01*
X172717185Y-94540000D01*
X172688513Y-94248889D01*
X172603599Y-93968966D01*
X172465706Y-93710986D01*
X172280134Y-93484866D01*
X172054014Y-93299294D01*
X172036626Y-93290000D01*
X172054014Y-93280706D01*
X172280134Y-93095134D01*
X172465706Y-92869014D01*
X172603599Y-92611034D01*
X172688513Y-92331111D01*
X172717185Y-92040000D01*
X172688513Y-91748889D01*
X172603599Y-91468966D01*
X172465706Y-91210986D01*
X172280134Y-90984866D01*
X172054014Y-90799294D01*
X172036626Y-90790000D01*
X172054014Y-90780706D01*
X172280134Y-90595134D01*
X172465706Y-90369014D01*
X172603599Y-90111034D01*
X172688513Y-89831111D01*
X172717185Y-89540000D01*
X172688513Y-89248889D01*
X172603599Y-88968966D01*
X172465706Y-88710986D01*
X172280134Y-88484866D01*
X172054014Y-88299294D01*
X171796034Y-88161401D01*
X171516111Y-88076487D01*
X171297950Y-88055000D01*
X170902050Y-88055000D01*
X170683889Y-88076487D01*
X170403966Y-88161401D01*
X170145986Y-88299294D01*
X169919866Y-88484866D01*
X169734294Y-88710986D01*
X169596401Y-88968966D01*
X169511487Y-89248889D01*
X169482815Y-89540000D01*
X162290649Y-89540000D01*
X162203937Y-89410226D01*
X162059774Y-89266063D01*
X161890256Y-89152795D01*
X161701898Y-89074774D01*
X161501939Y-89035000D01*
X161298061Y-89035000D01*
X161098102Y-89074774D01*
X160909744Y-89152795D01*
X160740226Y-89266063D01*
X160596063Y-89410226D01*
X160482795Y-89579744D01*
X160404774Y-89768102D01*
X160365000Y-89968061D01*
X148669218Y-89968061D01*
X149216012Y-89421267D01*
X149245011Y-89397469D01*
X149339984Y-89281744D01*
X149410556Y-89149715D01*
X149454013Y-89006454D01*
X149465010Y-88894801D01*
X149465010Y-88894793D01*
X149468686Y-88857468D01*
X149465010Y-88820143D01*
X149465010Y-86659857D01*
X149468686Y-86622532D01*
X149465010Y-86585207D01*
X149465010Y-86585199D01*
X149454013Y-86473546D01*
X149410556Y-86330285D01*
X149339984Y-86198256D01*
X149245011Y-86082531D01*
X149216014Y-86058734D01*
X148817279Y-85660000D01*
X150219893Y-85660000D01*
X150026525Y-85853368D01*
X149864010Y-86096589D01*
X149752068Y-86366842D01*
X149695000Y-86653740D01*
X149695000Y-86946260D01*
X149752068Y-87233158D01*
X149864010Y-87503411D01*
X150026525Y-87746632D01*
X150233368Y-87953475D01*
X150476589Y-88115990D01*
X150746842Y-88227932D01*
X151033740Y-88285000D01*
X151326260Y-88285000D01*
X151613158Y-88227932D01*
X151883411Y-88115990D01*
X152126632Y-87953475D01*
X152333475Y-87746632D01*
X152450000Y-87572240D01*
X152566525Y-87746632D01*
X152773368Y-87953475D01*
X153016589Y-88115990D01*
X153286842Y-88227932D01*
X153573740Y-88285000D01*
X153866260Y-88285000D01*
X154153158Y-88227932D01*
X154423411Y-88115990D01*
X154666632Y-87953475D01*
X154873475Y-87746632D01*
X154990000Y-87572240D01*
X155106525Y-87746632D01*
X155313368Y-87953475D01*
X155556589Y-88115990D01*
X155826842Y-88227932D01*
X156113740Y-88285000D01*
X156406260Y-88285000D01*
X156693158Y-88227932D01*
X156963411Y-88115990D01*
X157206632Y-87953475D01*
X157413475Y-87746632D01*
X157525000Y-87579723D01*
X157636525Y-87746632D01*
X157843368Y-87953475D01*
X158086589Y-88115990D01*
X158356842Y-88227932D01*
X158643740Y-88285000D01*
X158936260Y-88285000D01*
X159223158Y-88227932D01*
X159493411Y-88115990D01*
X159736632Y-87953475D01*
X159943475Y-87746632D01*
X160065000Y-87564757D01*
X160186525Y-87746632D01*
X160393368Y-87953475D01*
X160636589Y-88115990D01*
X160906842Y-88227932D01*
X161193740Y-88285000D01*
X161486260Y-88285000D01*
X161773158Y-88227932D01*
X162043411Y-88115990D01*
X162286632Y-87953475D01*
X162493475Y-87746632D01*
X162610000Y-87572240D01*
X162726525Y-87746632D01*
X162933368Y-87953475D01*
X163176589Y-88115990D01*
X163446842Y-88227932D01*
X163733740Y-88285000D01*
X164026260Y-88285000D01*
X164313158Y-88227932D01*
X164583411Y-88115990D01*
X164826632Y-87953475D01*
X164958487Y-87821620D01*
X164980498Y-87894180D01*
X165039463Y-88004494D01*
X165118815Y-88101185D01*
X165215506Y-88180537D01*
X165325820Y-88239502D01*
X165445518Y-88275812D01*
X165570000Y-88288072D01*
X167270000Y-88288072D01*
X167394482Y-88275812D01*
X167514180Y-88239502D01*
X167624494Y-88180537D01*
X167721185Y-88101185D01*
X167800537Y-88004494D01*
X167859502Y-87894180D01*
X167895812Y-87774482D01*
X167908072Y-87650000D01*
X167908072Y-86898061D01*
X171965000Y-86898061D01*
X171965000Y-87101939D01*
X172004774Y-87301898D01*
X172082795Y-87490256D01*
X172196063Y-87659774D01*
X172340226Y-87803937D01*
X172509744Y-87917205D01*
X172698102Y-87995226D01*
X172898061Y-88035000D01*
X173101939Y-88035000D01*
X173301898Y-87995226D01*
X173490256Y-87917205D01*
X173659774Y-87803937D01*
X173803937Y-87659774D01*
X173917205Y-87490256D01*
X173995226Y-87301898D01*
X174035000Y-87101939D01*
X174035000Y-86898061D01*
X173995226Y-86698102D01*
X173917205Y-86509744D01*
X173803937Y-86340226D01*
X173659774Y-86196063D01*
X173490256Y-86082795D01*
X173301898Y-86004774D01*
X173101939Y-85965000D01*
X172898061Y-85965000D01*
X172698102Y-86004774D01*
X172509744Y-86082795D01*
X172340226Y-86196063D01*
X172196063Y-86340226D01*
X172082795Y-86509744D01*
X172004774Y-86698102D01*
X171965000Y-86898061D01*
X167908072Y-86898061D01*
X167908072Y-85950000D01*
X167895812Y-85825518D01*
X167859502Y-85705820D01*
X167835010Y-85660000D01*
X172967721Y-85660000D01*
X173259659Y-85688625D01*
X173509429Y-85764035D01*
X173739792Y-85886522D01*
X173941980Y-86051422D01*
X174108286Y-86252450D01*
X174232378Y-86481954D01*
X174309531Y-86731195D01*
X174340000Y-87021089D01*
X174340001Y-112967711D01*
X174311375Y-113259660D01*
X174235965Y-113509429D01*
X174113477Y-113739794D01*
X173948579Y-113941979D01*
X173747546Y-114108288D01*
X173518046Y-114232378D01*
X173268805Y-114309531D01*
X172978911Y-114340000D01*
X168937150Y-114340000D01*
X169037205Y-114190256D01*
X169115226Y-114001898D01*
X169155000Y-113801939D01*
X169155000Y-113598061D01*
X169115226Y-113398102D01*
X169037205Y-113209744D01*
X168923937Y-113040226D01*
X168781772Y-112898061D01*
X171965000Y-112898061D01*
X171965000Y-113101939D01*
X172004774Y-113301898D01*
X172082795Y-113490256D01*
X172196063Y-113659774D01*
X172340226Y-113803937D01*
X172509744Y-113917205D01*
X172698102Y-113995226D01*
X172898061Y-114035000D01*
X173101939Y-114035000D01*
X173301898Y-113995226D01*
X173490256Y-113917205D01*
X173659774Y-113803937D01*
X173803937Y-113659774D01*
X173917205Y-113490256D01*
X173995226Y-113301898D01*
X174035000Y-113101939D01*
X174035000Y-112898061D01*
X173995226Y-112698102D01*
X173917205Y-112509744D01*
X173803937Y-112340226D01*
X173659774Y-112196063D01*
X173490256Y-112082795D01*
X173301898Y-112004774D01*
X173101939Y-111965000D01*
X172898061Y-111965000D01*
X172698102Y-112004774D01*
X172509744Y-112082795D01*
X172340226Y-112196063D01*
X172196063Y-112340226D01*
X172082795Y-112509744D01*
X172004774Y-112698102D01*
X171965000Y-112898061D01*
X168781772Y-112898061D01*
X168779774Y-112896063D01*
X168610256Y-112782795D01*
X168421898Y-112704774D01*
X168221939Y-112665000D01*
X168018061Y-112665000D01*
X167818102Y-112704774D01*
X167629744Y-112782795D01*
X167460226Y-112896063D01*
X167316063Y-113040226D01*
X167202795Y-113209744D01*
X167124774Y-113398102D01*
X167085000Y-113598061D01*
X167085000Y-113801939D01*
X167124774Y-114001898D01*
X167202795Y-114190256D01*
X167302850Y-114340000D01*
X162767150Y-114340000D01*
X162867205Y-114190256D01*
X162945226Y-114001898D01*
X162985000Y-113801939D01*
X162985000Y-113598061D01*
X162945226Y-113398102D01*
X162867205Y-113209744D01*
X162753937Y-113040226D01*
X162609774Y-112896063D01*
X162440256Y-112782795D01*
X162251898Y-112704774D01*
X162051939Y-112665000D01*
X161848061Y-112665000D01*
X161648102Y-112704774D01*
X161459744Y-112782795D01*
X161290226Y-112896063D01*
X161146063Y-113040226D01*
X161032795Y-113209744D01*
X160954774Y-113398102D01*
X160915000Y-113598061D01*
X160915000Y-113801939D01*
X160954774Y-114001898D01*
X161032795Y-114190256D01*
X161132850Y-114340000D01*
X133718433Y-114340000D01*
X133822526Y-114213162D01*
X133931169Y-114009906D01*
X133998071Y-113789360D01*
X134020661Y-113560000D01*
X133998071Y-113330640D01*
X133931169Y-113110094D01*
X133919393Y-113088061D01*
X149105000Y-113088061D01*
X149105000Y-113291939D01*
X149144774Y-113491898D01*
X149222795Y-113680256D01*
X149336063Y-113849774D01*
X149480226Y-113993937D01*
X149649744Y-114107205D01*
X149838102Y-114185226D01*
X150038061Y-114225000D01*
X150241939Y-114225000D01*
X150441898Y-114185226D01*
X150630256Y-114107205D01*
X150799774Y-113993937D01*
X150943937Y-113849774D01*
X151057205Y-113680256D01*
X151135226Y-113491898D01*
X151175000Y-113291939D01*
X151175000Y-113088061D01*
X151135226Y-112888102D01*
X151057205Y-112699744D01*
X150943937Y-112530226D01*
X150799774Y-112386063D01*
X150630256Y-112272795D01*
X150441898Y-112194774D01*
X150241939Y-112155000D01*
X150038061Y-112155000D01*
X149838102Y-112194774D01*
X149649744Y-112272795D01*
X149480226Y-112386063D01*
X149336063Y-112530226D01*
X149222795Y-112699744D01*
X149144774Y-112888102D01*
X149105000Y-113088061D01*
X133919393Y-113088061D01*
X133832234Y-112925000D01*
X133931169Y-112739906D01*
X133998071Y-112519360D01*
X134020661Y-112290000D01*
X133998071Y-112060640D01*
X133931169Y-111840094D01*
X133832234Y-111655000D01*
X133931169Y-111469906D01*
X133998071Y-111249360D01*
X134020661Y-111020000D01*
X133998071Y-110790640D01*
X133937130Y-110589743D01*
X133969502Y-110529180D01*
X134005812Y-110409482D01*
X134018072Y-110285000D01*
X134018072Y-109750000D01*
X137491928Y-109750000D01*
X137504188Y-109874482D01*
X137540498Y-109994180D01*
X137599463Y-110104494D01*
X137678815Y-110201185D01*
X137775506Y-110280537D01*
X137885820Y-110339502D01*
X138005518Y-110375812D01*
X138130000Y-110388072D01*
X138844250Y-110385000D01*
X139003000Y-110226250D01*
X139003000Y-108877000D01*
X139257000Y-108877000D01*
X139257000Y-110226250D01*
X139415750Y-110385000D01*
X140130000Y-110388072D01*
X140254482Y-110375812D01*
X140374180Y-110339502D01*
X140484494Y-110280537D01*
X140581185Y-110201185D01*
X140660537Y-110104494D01*
X140719502Y-109994180D01*
X140755812Y-109874482D01*
X140768072Y-109750000D01*
X140765000Y-109035750D01*
X140606250Y-108877000D01*
X139257000Y-108877000D01*
X139003000Y-108877000D01*
X137653750Y-108877000D01*
X137495000Y-109035750D01*
X137491928Y-109750000D01*
X134018072Y-109750000D01*
X134018072Y-109215000D01*
X134010496Y-109138072D01*
X135850000Y-109138072D01*
X135974482Y-109125812D01*
X136094180Y-109089502D01*
X136204494Y-109030537D01*
X136301185Y-108951185D01*
X136380537Y-108854494D01*
X136439502Y-108744180D01*
X136475812Y-108624482D01*
X136488072Y-108500000D01*
X136488072Y-107750000D01*
X137491928Y-107750000D01*
X137495000Y-108464250D01*
X137653750Y-108623000D01*
X139003000Y-108623000D01*
X139003000Y-107273750D01*
X139257000Y-107273750D01*
X139257000Y-108623000D01*
X140606250Y-108623000D01*
X140640283Y-108588967D01*
X145095000Y-108588967D01*
X145095000Y-108911033D01*
X145157832Y-109226912D01*
X145281082Y-109524463D01*
X145460013Y-109792252D01*
X145687748Y-110019987D01*
X145955537Y-110198918D01*
X146253088Y-110322168D01*
X146568967Y-110385000D01*
X146891033Y-110385000D01*
X147076738Y-110348061D01*
X150155000Y-110348061D01*
X150155000Y-110551939D01*
X150194774Y-110751898D01*
X150272795Y-110940256D01*
X150386063Y-111109774D01*
X150530226Y-111253937D01*
X150699744Y-111367205D01*
X150888102Y-111445226D01*
X151088061Y-111485000D01*
X151291939Y-111485000D01*
X151491898Y-111445226D01*
X151680256Y-111367205D01*
X151849774Y-111253937D01*
X151993937Y-111109774D01*
X152107205Y-110940256D01*
X152185226Y-110751898D01*
X152225000Y-110551939D01*
X152225000Y-110348061D01*
X152185226Y-110148102D01*
X152107205Y-109959744D01*
X151993937Y-109790226D01*
X151849774Y-109646063D01*
X151680256Y-109532795D01*
X151491898Y-109454774D01*
X151291939Y-109415000D01*
X151088061Y-109415000D01*
X150888102Y-109454774D01*
X150699744Y-109532795D01*
X150530226Y-109646063D01*
X150386063Y-109790226D01*
X150272795Y-109959744D01*
X150194774Y-110148102D01*
X150155000Y-110348061D01*
X147076738Y-110348061D01*
X147206912Y-110322168D01*
X147504463Y-110198918D01*
X147772252Y-110019987D01*
X147999987Y-109792252D01*
X148178918Y-109524463D01*
X148302168Y-109226912D01*
X148365000Y-108911033D01*
X148365000Y-108588967D01*
X148302168Y-108273088D01*
X148178918Y-107975537D01*
X148025360Y-107745721D01*
X149222660Y-107745721D01*
X149222660Y-107949599D01*
X149262434Y-108149558D01*
X149340455Y-108337916D01*
X149453723Y-108507434D01*
X149597886Y-108651597D01*
X149767404Y-108764865D01*
X149955762Y-108842886D01*
X150155721Y-108882660D01*
X150359599Y-108882660D01*
X150559558Y-108842886D01*
X150747916Y-108764865D01*
X150917434Y-108651597D01*
X151061597Y-108507434D01*
X151174865Y-108337916D01*
X151252886Y-108149558D01*
X151292660Y-107949599D01*
X151292660Y-107745721D01*
X151252886Y-107545762D01*
X151174865Y-107357404D01*
X151155259Y-107328061D01*
X153365000Y-107328061D01*
X153365000Y-107531939D01*
X153404774Y-107731898D01*
X153445409Y-107830000D01*
X153404774Y-107928102D01*
X153365000Y-108128061D01*
X153365000Y-108331939D01*
X153404774Y-108531898D01*
X153482795Y-108720256D01*
X153596063Y-108889774D01*
X153740226Y-109033937D01*
X153909744Y-109147205D01*
X153941781Y-109160475D01*
X153884774Y-109298100D01*
X153845000Y-109498059D01*
X153845000Y-109701937D01*
X153884774Y-109901896D01*
X153962795Y-110090254D01*
X154076063Y-110259772D01*
X154220226Y-110403935D01*
X154389744Y-110517203D01*
X154578102Y-110595224D01*
X154778061Y-110634998D01*
X154981939Y-110634998D01*
X155065000Y-110618476D01*
X155065000Y-110664439D01*
X155104774Y-110864398D01*
X155182795Y-111052756D01*
X155296063Y-111222274D01*
X155440226Y-111366437D01*
X155609744Y-111479705D01*
X155798102Y-111557726D01*
X155998061Y-111597500D01*
X156201939Y-111597500D01*
X156225000Y-111592913D01*
X156225000Y-111601939D01*
X156264774Y-111801898D01*
X156342795Y-111990256D01*
X156456063Y-112159774D01*
X156600226Y-112303937D01*
X156769744Y-112417205D01*
X156958102Y-112495226D01*
X157158061Y-112535000D01*
X157361939Y-112535000D01*
X157561898Y-112495226D01*
X157750256Y-112417205D01*
X157919774Y-112303937D01*
X158063937Y-112159774D01*
X158177205Y-111990256D01*
X158255226Y-111801898D01*
X158295000Y-111601939D01*
X158295000Y-111398061D01*
X159025000Y-111398061D01*
X159025000Y-111601939D01*
X159064774Y-111801898D01*
X159142795Y-111990256D01*
X159256063Y-112159774D01*
X159400226Y-112303937D01*
X159569744Y-112417205D01*
X159758102Y-112495226D01*
X159958061Y-112535000D01*
X160161939Y-112535000D01*
X160361898Y-112495226D01*
X160550256Y-112417205D01*
X160719774Y-112303937D01*
X160863937Y-112159774D01*
X160977205Y-111990256D01*
X161055226Y-111801898D01*
X161085000Y-111652213D01*
X161114774Y-111801898D01*
X161192795Y-111990256D01*
X161306063Y-112159774D01*
X161450226Y-112303937D01*
X161619744Y-112417205D01*
X161808102Y-112495226D01*
X162008061Y-112535000D01*
X162211939Y-112535000D01*
X162411898Y-112495226D01*
X162550328Y-112437886D01*
X162572686Y-112447147D01*
X162762986Y-112485000D01*
X162957014Y-112485000D01*
X163147314Y-112447147D01*
X163326572Y-112372896D01*
X163335000Y-112367265D01*
X163343428Y-112372896D01*
X163522686Y-112447147D01*
X163712986Y-112485000D01*
X163907014Y-112485000D01*
X164097314Y-112447147D01*
X164276572Y-112372896D01*
X164285000Y-112367265D01*
X164293428Y-112372896D01*
X164472686Y-112447147D01*
X164662986Y-112485000D01*
X164857014Y-112485000D01*
X165047314Y-112447147D01*
X165069672Y-112437886D01*
X165208102Y-112495226D01*
X165408061Y-112535000D01*
X165611939Y-112535000D01*
X165811898Y-112495226D01*
X166000256Y-112417205D01*
X166169774Y-112303937D01*
X166313937Y-112159774D01*
X166427205Y-111990256D01*
X166505226Y-111801898D01*
X166545000Y-111601939D01*
X166545000Y-111398061D01*
X166505226Y-111198102D01*
X166427205Y-111009744D01*
X166313937Y-110840226D01*
X166169774Y-110696063D01*
X166000256Y-110582795D01*
X165811898Y-110504774D01*
X165611939Y-110465000D01*
X165408061Y-110465000D01*
X165208102Y-110504774D01*
X165069672Y-110562114D01*
X165047314Y-110552853D01*
X164857014Y-110515000D01*
X164662986Y-110515000D01*
X164472686Y-110552853D01*
X164293428Y-110627104D01*
X164285000Y-110632735D01*
X164276572Y-110627104D01*
X164097314Y-110552853D01*
X163907014Y-110515000D01*
X163712986Y-110515000D01*
X163522686Y-110552853D01*
X163343428Y-110627104D01*
X163335000Y-110632735D01*
X163326572Y-110627104D01*
X163147314Y-110552853D01*
X162957014Y-110515000D01*
X162762986Y-110515000D01*
X162572686Y-110552853D01*
X162550328Y-110562114D01*
X162411898Y-110504774D01*
X162211939Y-110465000D01*
X162008061Y-110465000D01*
X161808102Y-110504774D01*
X161619744Y-110582795D01*
X161450226Y-110696063D01*
X161306063Y-110840226D01*
X161192795Y-111009744D01*
X161114774Y-111198102D01*
X161085000Y-111347787D01*
X161055226Y-111198102D01*
X160977205Y-111009744D01*
X160863937Y-110840226D01*
X160719774Y-110696063D01*
X160550256Y-110582795D01*
X160361898Y-110504774D01*
X160161939Y-110465000D01*
X159958061Y-110465000D01*
X159758102Y-110504774D01*
X159569744Y-110582795D01*
X159400226Y-110696063D01*
X159256063Y-110840226D01*
X159142795Y-111009744D01*
X159064774Y-111198102D01*
X159025000Y-111398061D01*
X158295000Y-111398061D01*
X158255226Y-111198102D01*
X158177205Y-111009744D01*
X158063937Y-110840226D01*
X157919774Y-110696063D01*
X157750256Y-110582795D01*
X157561898Y-110504774D01*
X157361939Y-110465000D01*
X157158061Y-110465000D01*
X157135000Y-110469587D01*
X157135000Y-110460561D01*
X157095226Y-110260602D01*
X157017205Y-110072244D01*
X156903937Y-109902726D01*
X156759774Y-109758563D01*
X156590256Y-109645295D01*
X156401898Y-109567274D01*
X156355581Y-109558061D01*
X160055000Y-109558061D01*
X160055000Y-109761939D01*
X160094774Y-109961898D01*
X160172795Y-110150256D01*
X160286063Y-110319774D01*
X160430226Y-110463937D01*
X160599744Y-110577205D01*
X160788102Y-110655226D01*
X160988061Y-110695000D01*
X161191939Y-110695000D01*
X161391898Y-110655226D01*
X161580256Y-110577205D01*
X161749774Y-110463937D01*
X161893937Y-110319774D01*
X162007205Y-110150256D01*
X162085226Y-109961898D01*
X162125000Y-109761939D01*
X162125000Y-109558061D01*
X162085226Y-109358102D01*
X162007205Y-109169744D01*
X161893937Y-109000226D01*
X161851782Y-108958071D01*
X166835000Y-108958071D01*
X166835000Y-109161949D01*
X166874774Y-109361908D01*
X166952795Y-109550266D01*
X167004370Y-109627454D01*
X166982795Y-109659744D01*
X166904774Y-109848102D01*
X166865000Y-110048061D01*
X166865000Y-110251939D01*
X166904774Y-110451898D01*
X166945409Y-110550000D01*
X166904774Y-110648102D01*
X166865000Y-110848061D01*
X166865000Y-111051939D01*
X166904774Y-111251898D01*
X166982795Y-111440256D01*
X167096063Y-111609774D01*
X167240226Y-111753937D01*
X167409744Y-111867205D01*
X167598102Y-111945226D01*
X167798061Y-111985000D01*
X168001939Y-111985000D01*
X168201898Y-111945226D01*
X168390256Y-111867205D01*
X168559774Y-111753937D01*
X168703937Y-111609774D01*
X168817205Y-111440256D01*
X168895226Y-111251898D01*
X168935000Y-111051939D01*
X168935000Y-110848061D01*
X168895226Y-110648102D01*
X168854591Y-110550000D01*
X168895226Y-110451898D01*
X168935000Y-110251939D01*
X168935000Y-110048061D01*
X168895226Y-109848102D01*
X168817205Y-109659744D01*
X168765630Y-109582556D01*
X168787205Y-109550266D01*
X168865226Y-109361908D01*
X168905000Y-109161949D01*
X168905000Y-108958071D01*
X168865226Y-108758112D01*
X168787205Y-108569754D01*
X168673937Y-108400236D01*
X168529774Y-108256073D01*
X168360256Y-108142805D01*
X168171898Y-108064784D01*
X167971939Y-108025010D01*
X167768061Y-108025010D01*
X167568102Y-108064784D01*
X167379744Y-108142805D01*
X167210226Y-108256073D01*
X167066063Y-108400236D01*
X166952795Y-108569754D01*
X166874774Y-108758112D01*
X166835000Y-108958071D01*
X161851782Y-108958071D01*
X161749774Y-108856063D01*
X161580256Y-108742795D01*
X161391898Y-108664774D01*
X161191939Y-108625000D01*
X160988061Y-108625000D01*
X160788102Y-108664774D01*
X160599744Y-108742795D01*
X160430226Y-108856063D01*
X160286063Y-109000226D01*
X160172795Y-109169744D01*
X160094774Y-109358102D01*
X160055000Y-109558061D01*
X156355581Y-109558061D01*
X156201939Y-109527500D01*
X155998061Y-109527500D01*
X155915000Y-109544022D01*
X155915000Y-109498059D01*
X155875226Y-109298100D01*
X155797205Y-109109742D01*
X155683937Y-108940224D01*
X155539774Y-108796061D01*
X155370256Y-108682793D01*
X155338219Y-108669523D01*
X155395226Y-108531898D01*
X155435000Y-108331939D01*
X155435000Y-108128061D01*
X155395226Y-107928102D01*
X155354591Y-107830000D01*
X155395226Y-107731898D01*
X155435000Y-107531939D01*
X155435000Y-107328061D01*
X155395226Y-107128102D01*
X155317205Y-106939744D01*
X155203937Y-106770226D01*
X155059774Y-106626063D01*
X154890256Y-106512795D01*
X154701898Y-106434774D01*
X154501939Y-106395000D01*
X154298061Y-106395000D01*
X154098102Y-106434774D01*
X153909744Y-106512795D01*
X153740226Y-106626063D01*
X153596063Y-106770226D01*
X153482795Y-106939744D01*
X153404774Y-107128102D01*
X153365000Y-107328061D01*
X151155259Y-107328061D01*
X151061597Y-107187886D01*
X150917434Y-107043723D01*
X150747916Y-106930455D01*
X150559558Y-106852434D01*
X150359599Y-106812660D01*
X150155721Y-106812660D01*
X149955762Y-106852434D01*
X149767404Y-106930455D01*
X149597886Y-107043723D01*
X149453723Y-107187886D01*
X149340455Y-107357404D01*
X149262434Y-107545762D01*
X149222660Y-107745721D01*
X148025360Y-107745721D01*
X147999987Y-107707748D01*
X147772252Y-107480013D01*
X147504463Y-107301082D01*
X147206912Y-107177832D01*
X146891033Y-107115000D01*
X146568967Y-107115000D01*
X146253088Y-107177832D01*
X145955537Y-107301082D01*
X145687748Y-107480013D01*
X145460013Y-107707748D01*
X145281082Y-107975537D01*
X145157832Y-108273088D01*
X145095000Y-108588967D01*
X140640283Y-108588967D01*
X140765000Y-108464250D01*
X140768072Y-107750000D01*
X140755812Y-107625518D01*
X140719502Y-107505820D01*
X140660537Y-107395506D01*
X140581185Y-107298815D01*
X140484494Y-107219463D01*
X140374180Y-107160498D01*
X140254482Y-107124188D01*
X140130000Y-107111928D01*
X139415750Y-107115000D01*
X139257000Y-107273750D01*
X139003000Y-107273750D01*
X138844250Y-107115000D01*
X138130000Y-107111928D01*
X138005518Y-107124188D01*
X137885820Y-107160498D01*
X137775506Y-107219463D01*
X137678815Y-107298815D01*
X137599463Y-107395506D01*
X137540498Y-107505820D01*
X137504188Y-107625518D01*
X137491928Y-107750000D01*
X136488072Y-107750000D01*
X136488072Y-106500000D01*
X136475812Y-106375518D01*
X136439502Y-106255820D01*
X136380537Y-106145506D01*
X136301185Y-106048815D01*
X136204494Y-105969463D01*
X136094180Y-105910498D01*
X135974482Y-105874188D01*
X135850000Y-105861928D01*
X133850000Y-105861928D01*
X133725518Y-105874188D01*
X133605820Y-105910498D01*
X133495506Y-105969463D01*
X133398815Y-106048815D01*
X133319463Y-106145506D01*
X133305335Y-106171937D01*
X133241243Y-106129112D01*
X133267205Y-106090256D01*
X133345226Y-105901898D01*
X133385000Y-105701939D01*
X133385000Y-105568061D01*
X157220000Y-105568061D01*
X157220000Y-105771939D01*
X157259774Y-105971898D01*
X157337795Y-106160256D01*
X157451063Y-106329774D01*
X157595226Y-106473937D01*
X157764744Y-106587205D01*
X157953102Y-106665226D01*
X158153061Y-106705000D01*
X158356939Y-106705000D01*
X158556898Y-106665226D01*
X158745256Y-106587205D01*
X158818805Y-106538061D01*
X159375000Y-106538061D01*
X159375000Y-106741939D01*
X159414774Y-106941898D01*
X159492795Y-107130256D01*
X159606063Y-107299774D01*
X159750226Y-107443937D01*
X159919744Y-107557205D01*
X160108102Y-107635226D01*
X160308061Y-107675000D01*
X160511939Y-107675000D01*
X160711898Y-107635226D01*
X160810000Y-107594591D01*
X160908102Y-107635226D01*
X161108061Y-107675000D01*
X161311939Y-107675000D01*
X161511898Y-107635226D01*
X161700256Y-107557205D01*
X161869774Y-107443937D01*
X162013937Y-107299774D01*
X162127205Y-107130256D01*
X162205226Y-106941898D01*
X162245000Y-106741939D01*
X162245000Y-106538061D01*
X162205226Y-106338102D01*
X162127205Y-106149744D01*
X162013937Y-105980226D01*
X161869774Y-105836063D01*
X161700256Y-105722795D01*
X161511898Y-105644774D01*
X161311939Y-105605000D01*
X161108061Y-105605000D01*
X160908102Y-105644774D01*
X160810000Y-105685409D01*
X160711898Y-105644774D01*
X160511939Y-105605000D01*
X160308061Y-105605000D01*
X160108102Y-105644774D01*
X159919744Y-105722795D01*
X159750226Y-105836063D01*
X159606063Y-105980226D01*
X159492795Y-106149744D01*
X159414774Y-106338102D01*
X159375000Y-106538061D01*
X158818805Y-106538061D01*
X158914774Y-106473937D01*
X159058937Y-106329774D01*
X159172205Y-106160256D01*
X159250226Y-105971898D01*
X159290000Y-105771939D01*
X159290000Y-105568061D01*
X159250226Y-105368102D01*
X159172205Y-105179744D01*
X159058937Y-105010226D01*
X158914774Y-104866063D01*
X158745256Y-104752795D01*
X158556898Y-104674774D01*
X158356939Y-104635000D01*
X158153061Y-104635000D01*
X157953102Y-104674774D01*
X157764744Y-104752795D01*
X157595226Y-104866063D01*
X157451063Y-105010226D01*
X157337795Y-105179744D01*
X157259774Y-105368102D01*
X157220000Y-105568061D01*
X133385000Y-105568061D01*
X133385000Y-105498061D01*
X133345226Y-105298102D01*
X133267205Y-105109744D01*
X133153937Y-104940226D01*
X133009774Y-104796063D01*
X132840256Y-104682795D01*
X132651898Y-104604774D01*
X132451939Y-104565000D01*
X132248061Y-104565000D01*
X132048102Y-104604774D01*
X131859744Y-104682795D01*
X131690226Y-104796063D01*
X131546063Y-104940226D01*
X131432795Y-105109744D01*
X131354774Y-105298102D01*
X131315000Y-105498061D01*
X131315000Y-105701939D01*
X131354774Y-105901898D01*
X131432795Y-106090256D01*
X131458757Y-106129112D01*
X131307748Y-106230013D01*
X131100000Y-106437761D01*
X130892252Y-106230013D01*
X130624463Y-106051082D01*
X130326912Y-105927832D01*
X130011033Y-105865000D01*
X129688967Y-105865000D01*
X129373088Y-105927832D01*
X129075537Y-106051082D01*
X128807748Y-106230013D01*
X128580013Y-106457748D01*
X128401082Y-106725537D01*
X128277832Y-107023088D01*
X128215000Y-107338967D01*
X128215000Y-107661033D01*
X128277832Y-107976912D01*
X128401082Y-108274463D01*
X128580013Y-108542252D01*
X128807748Y-108769987D01*
X129075537Y-108948918D01*
X129373088Y-109072168D01*
X129688967Y-109135000D01*
X130011033Y-109135000D01*
X130326912Y-109072168D01*
X130624463Y-108948918D01*
X130892252Y-108769987D01*
X131100000Y-108562239D01*
X131223703Y-108685942D01*
X131128815Y-108763815D01*
X131049463Y-108860506D01*
X130990498Y-108970820D01*
X130954188Y-109090518D01*
X130941928Y-109215000D01*
X130941928Y-110285000D01*
X130954188Y-110409482D01*
X130990498Y-110529180D01*
X131022870Y-110589743D01*
X130961929Y-110790640D01*
X130939339Y-111020000D01*
X130961929Y-111249360D01*
X131028831Y-111469906D01*
X131127766Y-111655000D01*
X131028831Y-111840094D01*
X130961929Y-112060640D01*
X130939339Y-112290000D01*
X130961929Y-112519360D01*
X131028831Y-112739906D01*
X131127766Y-112925000D01*
X131028831Y-113110094D01*
X130961929Y-113330640D01*
X130939339Y-113560000D01*
X130961929Y-113789360D01*
X131028831Y-114009906D01*
X131137474Y-114213162D01*
X131241567Y-114340000D01*
X127032279Y-114340000D01*
X126740340Y-114311375D01*
X126490571Y-114235965D01*
X126260206Y-114113477D01*
X126058021Y-113948579D01*
X125891712Y-113747546D01*
X125767622Y-113518046D01*
X125690469Y-113268805D01*
X125660000Y-112978911D01*
X125660000Y-112898061D01*
X125965000Y-112898061D01*
X125965000Y-113101939D01*
X126004774Y-113301898D01*
X126082795Y-113490256D01*
X126196063Y-113659774D01*
X126340226Y-113803937D01*
X126509744Y-113917205D01*
X126698102Y-113995226D01*
X126898061Y-114035000D01*
X127101939Y-114035000D01*
X127301898Y-113995226D01*
X127490256Y-113917205D01*
X127659774Y-113803937D01*
X127803937Y-113659774D01*
X127917205Y-113490256D01*
X127995226Y-113301898D01*
X128035000Y-113101939D01*
X128035000Y-112898061D01*
X127995226Y-112698102D01*
X127917205Y-112509744D01*
X127803937Y-112340226D01*
X127659774Y-112196063D01*
X127490256Y-112082795D01*
X127301898Y-112004774D01*
X127101939Y-111965000D01*
X126898061Y-111965000D01*
X126698102Y-112004774D01*
X126509744Y-112082795D01*
X126340226Y-112196063D01*
X126196063Y-112340226D01*
X126082795Y-112509744D01*
X126004774Y-112698102D01*
X125965000Y-112898061D01*
X125660000Y-112898061D01*
X125660000Y-102138072D01*
X128000000Y-102138072D01*
X128124482Y-102125812D01*
X128244180Y-102089502D01*
X128354494Y-102030537D01*
X128451185Y-101951185D01*
X128530537Y-101854494D01*
X128589502Y-101744180D01*
X128625812Y-101624482D01*
X128638072Y-101500000D01*
X128638072Y-98500000D01*
X136061928Y-98500000D01*
X136061928Y-101500000D01*
X136074188Y-101624482D01*
X136110498Y-101744180D01*
X136169463Y-101854494D01*
X136248815Y-101951185D01*
X136345506Y-102030537D01*
X136455820Y-102089502D01*
X136575518Y-102125812D01*
X136700000Y-102138072D01*
X139200000Y-102138072D01*
X139263256Y-102131842D01*
X139177795Y-102259744D01*
X139099774Y-102448102D01*
X139060000Y-102648061D01*
X139060000Y-102851939D01*
X139099774Y-103051898D01*
X139177795Y-103240256D01*
X139291063Y-103409774D01*
X139435226Y-103553937D01*
X139604744Y-103667205D01*
X139793102Y-103745226D01*
X139993061Y-103785000D01*
X140196939Y-103785000D01*
X140396898Y-103745226D01*
X140585256Y-103667205D01*
X140754774Y-103553937D01*
X140898937Y-103409774D01*
X141012205Y-103240256D01*
X141042109Y-103168061D01*
X149115000Y-103168061D01*
X149115000Y-103371939D01*
X149154774Y-103571898D01*
X149232795Y-103760256D01*
X149346063Y-103929774D01*
X149490226Y-104073937D01*
X149659744Y-104187205D01*
X149848102Y-104265226D01*
X150048061Y-104305000D01*
X150251939Y-104305000D01*
X150451898Y-104265226D01*
X150640256Y-104187205D01*
X150809774Y-104073937D01*
X150953937Y-103929774D01*
X151067205Y-103760256D01*
X151145226Y-103571898D01*
X151185000Y-103371939D01*
X151185000Y-103348061D01*
X153115000Y-103348061D01*
X153115000Y-103551939D01*
X153154774Y-103751898D01*
X153232795Y-103940256D01*
X153346063Y-104109774D01*
X153490226Y-104253937D01*
X153659744Y-104367205D01*
X153848102Y-104445226D01*
X154048061Y-104485000D01*
X154251939Y-104485000D01*
X154451898Y-104445226D01*
X154640256Y-104367205D01*
X154809774Y-104253937D01*
X154953937Y-104109774D01*
X155067205Y-103940256D01*
X155145226Y-103751898D01*
X155185000Y-103551939D01*
X155185000Y-103348061D01*
X155145226Y-103148102D01*
X155141067Y-103138061D01*
X159970000Y-103138061D01*
X159970000Y-103341939D01*
X160009774Y-103541898D01*
X160087795Y-103730256D01*
X160201063Y-103899774D01*
X160345226Y-104043937D01*
X160514744Y-104157205D01*
X160703102Y-104235226D01*
X160903061Y-104275000D01*
X161106939Y-104275000D01*
X161306898Y-104235226D01*
X161495256Y-104157205D01*
X161664774Y-104043937D01*
X161808937Y-103899774D01*
X161922205Y-103730256D01*
X162000226Y-103541898D01*
X162040000Y-103341939D01*
X162040000Y-103138061D01*
X162000226Y-102938102D01*
X161922205Y-102749744D01*
X161808937Y-102580226D01*
X161664774Y-102436063D01*
X161495256Y-102322795D01*
X161306898Y-102244774D01*
X161106939Y-102205000D01*
X160903061Y-102205000D01*
X160703102Y-102244774D01*
X160514744Y-102322795D01*
X160345226Y-102436063D01*
X160201063Y-102580226D01*
X160087795Y-102749744D01*
X160009774Y-102938102D01*
X159970000Y-103138061D01*
X155141067Y-103138061D01*
X155067205Y-102959744D01*
X154953937Y-102790226D01*
X154809774Y-102646063D01*
X154640256Y-102532795D01*
X154451898Y-102454774D01*
X154251939Y-102415000D01*
X154048061Y-102415000D01*
X153848102Y-102454774D01*
X153659744Y-102532795D01*
X153490226Y-102646063D01*
X153346063Y-102790226D01*
X153232795Y-102959744D01*
X153154774Y-103148102D01*
X153115000Y-103348061D01*
X151185000Y-103348061D01*
X151185000Y-103168061D01*
X151145226Y-102968102D01*
X151067205Y-102779744D01*
X150953937Y-102610226D01*
X150809774Y-102466063D01*
X150640256Y-102352795D01*
X150451898Y-102274774D01*
X150251939Y-102235000D01*
X150048061Y-102235000D01*
X149848102Y-102274774D01*
X149659744Y-102352795D01*
X149490226Y-102466063D01*
X149346063Y-102610226D01*
X149232795Y-102779744D01*
X149154774Y-102968102D01*
X149115000Y-103168061D01*
X141042109Y-103168061D01*
X141090226Y-103051898D01*
X141130000Y-102851939D01*
X141130000Y-102648061D01*
X141090226Y-102448102D01*
X141012205Y-102259744D01*
X140898937Y-102090226D01*
X140754774Y-101946063D01*
X140585256Y-101832795D01*
X140396898Y-101754774D01*
X140196939Y-101715000D01*
X139993061Y-101715000D01*
X139793102Y-101754774D01*
X139781205Y-101759702D01*
X139789502Y-101744180D01*
X139815625Y-101658061D01*
X158085000Y-101658061D01*
X158085000Y-101861939D01*
X158124774Y-102061898D01*
X158202795Y-102250256D01*
X158316063Y-102419774D01*
X158460226Y-102563937D01*
X158629744Y-102677205D01*
X158818102Y-102755226D01*
X159018061Y-102795000D01*
X159221939Y-102795000D01*
X159421898Y-102755226D01*
X159610256Y-102677205D01*
X159779774Y-102563937D01*
X159923937Y-102419774D01*
X160037205Y-102250256D01*
X160115226Y-102061898D01*
X160155000Y-101861939D01*
X160155000Y-101658061D01*
X160115226Y-101458102D01*
X160037205Y-101269744D01*
X159923937Y-101100226D01*
X159779774Y-100956063D01*
X159610256Y-100842795D01*
X159421898Y-100764774D01*
X159221939Y-100725000D01*
X159018061Y-100725000D01*
X158818102Y-100764774D01*
X158629744Y-100842795D01*
X158460226Y-100956063D01*
X158316063Y-101100226D01*
X158202795Y-101269744D01*
X158124774Y-101458102D01*
X158085000Y-101658061D01*
X139815625Y-101658061D01*
X139825812Y-101624482D01*
X139838072Y-101500000D01*
X139838072Y-99418061D01*
X141545000Y-99418061D01*
X141545000Y-99621939D01*
X141584774Y-99821898D01*
X141662795Y-100010256D01*
X141776063Y-100179774D01*
X141920226Y-100323937D01*
X142089744Y-100437205D01*
X142278102Y-100515226D01*
X142478061Y-100555000D01*
X142681939Y-100555000D01*
X142881898Y-100515226D01*
X143070256Y-100437205D01*
X143239774Y-100323937D01*
X143383937Y-100179774D01*
X143438535Y-100098061D01*
X145245000Y-100098061D01*
X145245000Y-100301939D01*
X145284774Y-100501898D01*
X145362795Y-100690256D01*
X145476063Y-100859774D01*
X145620226Y-101003937D01*
X145789744Y-101117205D01*
X145978102Y-101195226D01*
X146178061Y-101235000D01*
X146381939Y-101235000D01*
X146581898Y-101195226D01*
X146770256Y-101117205D01*
X146939774Y-101003937D01*
X147083937Y-100859774D01*
X147197205Y-100690256D01*
X147275226Y-100501898D01*
X147315000Y-100301939D01*
X147315000Y-100098061D01*
X147275226Y-99898102D01*
X147197205Y-99709744D01*
X147083937Y-99540226D01*
X146939774Y-99396063D01*
X146770256Y-99282795D01*
X146581898Y-99204774D01*
X146381939Y-99165000D01*
X146178061Y-99165000D01*
X145978102Y-99204774D01*
X145789744Y-99282795D01*
X145620226Y-99396063D01*
X145476063Y-99540226D01*
X145362795Y-99709744D01*
X145284774Y-99898102D01*
X145245000Y-100098061D01*
X143438535Y-100098061D01*
X143497205Y-100010256D01*
X143575226Y-99821898D01*
X143615000Y-99621939D01*
X143615000Y-99418061D01*
X143575226Y-99218102D01*
X143497205Y-99029744D01*
X143383937Y-98860226D01*
X143239774Y-98716063D01*
X143152968Y-98658061D01*
X154705000Y-98658061D01*
X154705000Y-98861939D01*
X154744774Y-99061898D01*
X154822795Y-99250256D01*
X154936063Y-99419774D01*
X155080226Y-99563937D01*
X155249744Y-99677205D01*
X155438102Y-99755226D01*
X155638061Y-99795000D01*
X155841939Y-99795000D01*
X156041898Y-99755226D01*
X156230256Y-99677205D01*
X156399774Y-99563937D01*
X156543937Y-99419774D01*
X156657205Y-99250256D01*
X156735226Y-99061898D01*
X156775000Y-98861939D01*
X156775000Y-98658061D01*
X156735226Y-98458102D01*
X156731067Y-98448061D01*
X158700000Y-98448061D01*
X158700000Y-98651939D01*
X158739774Y-98851898D01*
X158817795Y-99040256D01*
X158931063Y-99209774D01*
X159075226Y-99353937D01*
X159244744Y-99467205D01*
X159433102Y-99545226D01*
X159633061Y-99585000D01*
X159836939Y-99585000D01*
X160036898Y-99545226D01*
X160225256Y-99467205D01*
X160394774Y-99353937D01*
X160538937Y-99209774D01*
X160652205Y-99040256D01*
X160730226Y-98851898D01*
X160770000Y-98651939D01*
X160770000Y-98448061D01*
X160730226Y-98248102D01*
X160682303Y-98132407D01*
X160858102Y-98205226D01*
X161058061Y-98245000D01*
X161261939Y-98245000D01*
X161461898Y-98205226D01*
X161650256Y-98127205D01*
X161819774Y-98013937D01*
X161963937Y-97869774D01*
X162077205Y-97700256D01*
X162155226Y-97511898D01*
X162195000Y-97311939D01*
X162195000Y-97138061D01*
X166775000Y-97138061D01*
X166775000Y-97341939D01*
X166814774Y-97541898D01*
X166892795Y-97730256D01*
X167006063Y-97899774D01*
X167150226Y-98043937D01*
X167319744Y-98157205D01*
X167508102Y-98235226D01*
X167708061Y-98275000D01*
X167911939Y-98275000D01*
X168111898Y-98235226D01*
X168300256Y-98157205D01*
X168469774Y-98043937D01*
X168613937Y-97899774D01*
X168727205Y-97730256D01*
X168805226Y-97541898D01*
X168845000Y-97341939D01*
X168845000Y-97138061D01*
X168805226Y-96938102D01*
X168727205Y-96749744D01*
X168613937Y-96580226D01*
X168469774Y-96436063D01*
X168300256Y-96322795D01*
X168111898Y-96244774D01*
X167911939Y-96205000D01*
X167708061Y-96205000D01*
X167508102Y-96244774D01*
X167319744Y-96322795D01*
X167150226Y-96436063D01*
X167006063Y-96580226D01*
X166892795Y-96749744D01*
X166814774Y-96938102D01*
X166775000Y-97138061D01*
X162195000Y-97138061D01*
X162195000Y-97108061D01*
X162155226Y-96908102D01*
X162077205Y-96719744D01*
X161963937Y-96550226D01*
X161819774Y-96406063D01*
X161650256Y-96292795D01*
X161461898Y-96214774D01*
X161261939Y-96175000D01*
X161058061Y-96175000D01*
X160858102Y-96214774D01*
X160669744Y-96292795D01*
X160500226Y-96406063D01*
X160356063Y-96550226D01*
X160242795Y-96719744D01*
X160164774Y-96908102D01*
X160125000Y-97108061D01*
X160125000Y-97311939D01*
X160164774Y-97511898D01*
X160212697Y-97627593D01*
X160036898Y-97554774D01*
X159836939Y-97515000D01*
X159633061Y-97515000D01*
X159433102Y-97554774D01*
X159244744Y-97632795D01*
X159075226Y-97746063D01*
X158931063Y-97890226D01*
X158817795Y-98059744D01*
X158739774Y-98248102D01*
X158700000Y-98448061D01*
X156731067Y-98448061D01*
X156657205Y-98269744D01*
X156543937Y-98100226D01*
X156399774Y-97956063D01*
X156230256Y-97842795D01*
X156041898Y-97764774D01*
X155841939Y-97725000D01*
X155638061Y-97725000D01*
X155438102Y-97764774D01*
X155249744Y-97842795D01*
X155080226Y-97956063D01*
X154936063Y-98100226D01*
X154822795Y-98269744D01*
X154744774Y-98458102D01*
X154705000Y-98658061D01*
X143152968Y-98658061D01*
X143070256Y-98602795D01*
X142881898Y-98524774D01*
X142681939Y-98485000D01*
X142478061Y-98485000D01*
X142278102Y-98524774D01*
X142089744Y-98602795D01*
X141920226Y-98716063D01*
X141776063Y-98860226D01*
X141662795Y-99029744D01*
X141584774Y-99218102D01*
X141545000Y-99418061D01*
X139838072Y-99418061D01*
X139838072Y-98500000D01*
X139825812Y-98375518D01*
X139789502Y-98255820D01*
X139730537Y-98145506D01*
X139651185Y-98048815D01*
X139554494Y-97969463D01*
X139444180Y-97910498D01*
X139324482Y-97874188D01*
X139200000Y-97861928D01*
X136700000Y-97861928D01*
X136575518Y-97874188D01*
X136455820Y-97910498D01*
X136345506Y-97969463D01*
X136248815Y-98048815D01*
X136169463Y-98145506D01*
X136110498Y-98255820D01*
X136074188Y-98375518D01*
X136061928Y-98500000D01*
X128638072Y-98500000D01*
X128625812Y-98375518D01*
X128589502Y-98255820D01*
X128530537Y-98145506D01*
X128451185Y-98048815D01*
X128354494Y-97969463D01*
X128244180Y-97910498D01*
X128124482Y-97874188D01*
X128000000Y-97861928D01*
X125660000Y-97861928D01*
X125660000Y-97148061D01*
X144485000Y-97148061D01*
X144485000Y-97351939D01*
X144524774Y-97551898D01*
X144602795Y-97740256D01*
X144716063Y-97909774D01*
X144860226Y-98053937D01*
X145029744Y-98167205D01*
X145218102Y-98245226D01*
X145418061Y-98285000D01*
X145621939Y-98285000D01*
X145821898Y-98245226D01*
X146010256Y-98167205D01*
X146179774Y-98053937D01*
X146323937Y-97909774D01*
X146437205Y-97740256D01*
X146515226Y-97551898D01*
X146555000Y-97351939D01*
X146555000Y-97148061D01*
X146515226Y-96948102D01*
X146437205Y-96759744D01*
X146323937Y-96590226D01*
X146179774Y-96446063D01*
X146010256Y-96332795D01*
X145821898Y-96254774D01*
X145621939Y-96215000D01*
X145418061Y-96215000D01*
X145218102Y-96254774D01*
X145029744Y-96332795D01*
X144860226Y-96446063D01*
X144716063Y-96590226D01*
X144602795Y-96759744D01*
X144524774Y-96948102D01*
X144485000Y-97148061D01*
X125660000Y-97148061D01*
X125660000Y-93403061D01*
X125895000Y-93403061D01*
X125895000Y-93606939D01*
X125934774Y-93806898D01*
X126012795Y-93995256D01*
X126126063Y-94164774D01*
X126270226Y-94308937D01*
X126439744Y-94422205D01*
X126628102Y-94500226D01*
X126828061Y-94540000D01*
X127031939Y-94540000D01*
X127231898Y-94500226D01*
X127420256Y-94422205D01*
X127589774Y-94308937D01*
X127733937Y-94164774D01*
X127847205Y-93995256D01*
X127925226Y-93806898D01*
X127965000Y-93606939D01*
X127965000Y-93403061D01*
X127925226Y-93203102D01*
X127847205Y-93014744D01*
X127733937Y-92845226D01*
X127727678Y-92838967D01*
X128215000Y-92838967D01*
X128215000Y-93161033D01*
X128277832Y-93476912D01*
X128401082Y-93774463D01*
X128580013Y-94042252D01*
X128807748Y-94269987D01*
X129075537Y-94448918D01*
X129373088Y-94572168D01*
X129688967Y-94635000D01*
X130011033Y-94635000D01*
X130326912Y-94572168D01*
X130624463Y-94448918D01*
X130892252Y-94269987D01*
X131119987Y-94042252D01*
X131298918Y-93774463D01*
X131422168Y-93476912D01*
X131485000Y-93161033D01*
X131485000Y-92838967D01*
X133215000Y-92838967D01*
X133215000Y-93161033D01*
X133277832Y-93476912D01*
X133401082Y-93774463D01*
X133580013Y-94042252D01*
X133807748Y-94269987D01*
X134075537Y-94448918D01*
X134373088Y-94572168D01*
X134688967Y-94635000D01*
X135011033Y-94635000D01*
X135326912Y-94572168D01*
X135624463Y-94448918D01*
X135892252Y-94269987D01*
X136119987Y-94042252D01*
X136298918Y-93774463D01*
X136422168Y-93476912D01*
X136485000Y-93161033D01*
X136485000Y-92838967D01*
X136422168Y-92523088D01*
X136298918Y-92225537D01*
X136119987Y-91957748D01*
X135892252Y-91730013D01*
X135624463Y-91551082D01*
X135326912Y-91427832D01*
X135011033Y-91365000D01*
X134688967Y-91365000D01*
X134373088Y-91427832D01*
X134075537Y-91551082D01*
X133807748Y-91730013D01*
X133580013Y-91957748D01*
X133401082Y-92225537D01*
X133277832Y-92523088D01*
X133215000Y-92838967D01*
X131485000Y-92838967D01*
X131422168Y-92523088D01*
X131298918Y-92225537D01*
X131119987Y-91957748D01*
X130892252Y-91730013D01*
X130624463Y-91551082D01*
X130326912Y-91427832D01*
X130011033Y-91365000D01*
X129688967Y-91365000D01*
X129373088Y-91427832D01*
X129075537Y-91551082D01*
X128807748Y-91730013D01*
X128580013Y-91957748D01*
X128401082Y-92225537D01*
X128277832Y-92523088D01*
X128215000Y-92838967D01*
X127727678Y-92838967D01*
X127589774Y-92701063D01*
X127420256Y-92587795D01*
X127231898Y-92509774D01*
X127031939Y-92470000D01*
X126828061Y-92470000D01*
X126628102Y-92509774D01*
X126439744Y-92587795D01*
X126270226Y-92701063D01*
X126126063Y-92845226D01*
X126012795Y-93014744D01*
X125934774Y-93203102D01*
X125895000Y-93403061D01*
X125660000Y-93403061D01*
X125660000Y-89716891D01*
X127288519Y-89716891D01*
X127385843Y-89991252D01*
X127534822Y-90241355D01*
X127729731Y-90457588D01*
X127963080Y-90631641D01*
X128225901Y-90756825D01*
X128373110Y-90801476D01*
X128603000Y-90680155D01*
X128603000Y-89487000D01*
X127409186Y-89487000D01*
X127288519Y-89716891D01*
X125660000Y-89716891D01*
X125660000Y-87032279D01*
X125688625Y-86740341D01*
X125764035Y-86490571D01*
X125886522Y-86260208D01*
X126051422Y-86058020D01*
X126252450Y-85891714D01*
X126481954Y-85767622D01*
X126731195Y-85690469D01*
X127021088Y-85660000D01*
X127793133Y-85660000D01*
X127783368Y-85666525D01*
G37*
G04 #@! TD.AperFunction*
M02*
