G04 #@! TF.GenerationSoftware,KiCad,Pcbnew,5.1.10-88a1d61d58~90~ubuntu20.04.1*
G04 #@! TF.CreationDate,2021-08-05T14:32:23+02:00*
G04 #@! TF.ProjectId,arlene,61726c65-6e65-42e6-9b69-6361645f7063,v1.00*
G04 #@! TF.SameCoordinates,Original*
G04 #@! TF.FileFunction,Copper,L4,Bot*
G04 #@! TF.FilePolarity,Positive*
%FSLAX46Y46*%
G04 Gerber Fmt 4.6, Leading zero omitted, Abs format (unit mm)*
G04 Created by KiCad (PCBNEW 5.1.10-88a1d61d58~90~ubuntu20.04.1) date 2021-08-05 14:32:23*
%MOMM*%
%LPD*%
G01*
G04 APERTURE LIST*
G04 #@! TA.AperFunction,ComponentPad*
%ADD10O,1.800000X1.070000*%
G04 #@! TD*
G04 #@! TA.AperFunction,ComponentPad*
%ADD11R,1.800000X1.070000*%
G04 #@! TD*
G04 #@! TA.AperFunction,SMDPad,CuDef*
%ADD12R,0.600000X1.550000*%
G04 #@! TD*
G04 #@! TA.AperFunction,ComponentPad*
%ADD13O,1.950000X1.700000*%
G04 #@! TD*
G04 #@! TA.AperFunction,ComponentPad*
%ADD14C,2.000000*%
G04 #@! TD*
G04 #@! TA.AperFunction,ComponentPad*
%ADD15R,2.500000X3.000000*%
G04 #@! TD*
G04 #@! TA.AperFunction,ComponentPad*
%ADD16R,2.000000X2.000000*%
G04 #@! TD*
G04 #@! TA.AperFunction,ComponentPad*
%ADD17R,1.700000X1.700000*%
G04 #@! TD*
G04 #@! TA.AperFunction,ComponentPad*
%ADD18O,1.700000X1.700000*%
G04 #@! TD*
G04 #@! TA.AperFunction,ViaPad*
%ADD19C,0.800000*%
G04 #@! TD*
G04 #@! TA.AperFunction,ViaPad*
%ADD20C,0.700000*%
G04 #@! TD*
G04 #@! TA.AperFunction,Conductor*
%ADD21C,1.000000*%
G04 #@! TD*
G04 #@! TA.AperFunction,Conductor*
%ADD22C,0.250000*%
G04 #@! TD*
G04 #@! TA.AperFunction,Conductor*
%ADD23C,0.200000*%
G04 #@! TD*
G04 #@! TA.AperFunction,Conductor*
%ADD24C,0.254000*%
G04 #@! TD*
G04 #@! TA.AperFunction,Conductor*
%ADD25C,0.100000*%
G04 #@! TD*
G04 APERTURE END LIST*
G04 #@! TA.AperFunction,ComponentPad*
G36*
G01*
X144580000Y-88640000D02*
X144580000Y-88240000D01*
G75*
G02*
X144780000Y-88040000I200000J0D01*
G01*
X145180000Y-88040000D01*
G75*
G02*
X145380000Y-88240000I0J-200000D01*
G01*
X145380000Y-88640000D01*
G75*
G02*
X145180000Y-88840000I-200000J0D01*
G01*
X144780000Y-88840000D01*
G75*
G02*
X144580000Y-88640000I0J200000D01*
G01*
G37*
G04 #@! TD.AperFunction*
G04 #@! TA.AperFunction,ComponentPad*
G36*
G01*
X145580000Y-88640000D02*
X145580000Y-88240000D01*
G75*
G02*
X145780000Y-88040000I200000J0D01*
G01*
X146180000Y-88040000D01*
G75*
G02*
X146380000Y-88240000I0J-200000D01*
G01*
X146380000Y-88640000D01*
G75*
G02*
X146180000Y-88840000I-200000J0D01*
G01*
X145780000Y-88840000D01*
G75*
G02*
X145580000Y-88640000I0J200000D01*
G01*
G37*
G04 #@! TD.AperFunction*
G04 #@! TA.AperFunction,ComponentPad*
G36*
G01*
X146580000Y-88640000D02*
X146580000Y-88240000D01*
G75*
G02*
X146780000Y-88040000I200000J0D01*
G01*
X147180000Y-88040000D01*
G75*
G02*
X147380000Y-88240000I0J-200000D01*
G01*
X147380000Y-88640000D01*
G75*
G02*
X147180000Y-88840000I-200000J0D01*
G01*
X146780000Y-88840000D01*
G75*
G02*
X146580000Y-88640000I0J200000D01*
G01*
G37*
G04 #@! TD.AperFunction*
G04 #@! TA.AperFunction,ComponentPad*
G36*
G01*
X147580000Y-88640000D02*
X147580000Y-88240000D01*
G75*
G02*
X147780000Y-88040000I200000J0D01*
G01*
X148180000Y-88040000D01*
G75*
G02*
X148380000Y-88240000I0J-200000D01*
G01*
X148380000Y-88640000D01*
G75*
G02*
X148180000Y-88840000I-200000J0D01*
G01*
X147780000Y-88840000D01*
G75*
G02*
X147580000Y-88640000I0J200000D01*
G01*
G37*
G04 #@! TD.AperFunction*
G04 #@! TA.AperFunction,ComponentPad*
G36*
G01*
X143580000Y-88640000D02*
X143580000Y-88240000D01*
G75*
G02*
X143780000Y-88040000I200000J0D01*
G01*
X144180000Y-88040000D01*
G75*
G02*
X144380000Y-88240000I0J-200000D01*
G01*
X144380000Y-88640000D01*
G75*
G02*
X144180000Y-88840000I-200000J0D01*
G01*
X143780000Y-88840000D01*
G75*
G02*
X143580000Y-88640000I0J200000D01*
G01*
G37*
G04 #@! TD.AperFunction*
G04 #@! TA.AperFunction,ComponentPad*
G36*
G01*
X141580000Y-88640000D02*
X141580000Y-88240000D01*
G75*
G02*
X141780000Y-88040000I200000J0D01*
G01*
X142180000Y-88040000D01*
G75*
G02*
X142380000Y-88240000I0J-200000D01*
G01*
X142380000Y-88640000D01*
G75*
G02*
X142180000Y-88840000I-200000J0D01*
G01*
X141780000Y-88840000D01*
G75*
G02*
X141580000Y-88640000I0J200000D01*
G01*
G37*
G04 #@! TD.AperFunction*
G04 #@! TA.AperFunction,ComponentPad*
G36*
G01*
X140580000Y-88640000D02*
X140580000Y-88240000D01*
G75*
G02*
X140780000Y-88040000I200000J0D01*
G01*
X141180000Y-88040000D01*
G75*
G02*
X141380000Y-88240000I0J-200000D01*
G01*
X141380000Y-88640000D01*
G75*
G02*
X141180000Y-88840000I-200000J0D01*
G01*
X140780000Y-88840000D01*
G75*
G02*
X140580000Y-88640000I0J200000D01*
G01*
G37*
G04 #@! TD.AperFunction*
G04 #@! TA.AperFunction,ComponentPad*
G36*
G01*
X140580000Y-87240000D02*
X140580000Y-86840000D01*
G75*
G02*
X140780000Y-86640000I200000J0D01*
G01*
X141180000Y-86640000D01*
G75*
G02*
X141380000Y-86840000I0J-200000D01*
G01*
X141380000Y-87240000D01*
G75*
G02*
X141180000Y-87440000I-200000J0D01*
G01*
X140780000Y-87440000D01*
G75*
G02*
X140580000Y-87240000I0J200000D01*
G01*
G37*
G04 #@! TD.AperFunction*
G04 #@! TA.AperFunction,ComponentPad*
G36*
G01*
X141580000Y-87240000D02*
X141580000Y-86840000D01*
G75*
G02*
X141780000Y-86640000I200000J0D01*
G01*
X142180000Y-86640000D01*
G75*
G02*
X142380000Y-86840000I0J-200000D01*
G01*
X142380000Y-87240000D01*
G75*
G02*
X142180000Y-87440000I-200000J0D01*
G01*
X141780000Y-87440000D01*
G75*
G02*
X141580000Y-87240000I0J200000D01*
G01*
G37*
G04 #@! TD.AperFunction*
G04 #@! TA.AperFunction,ComponentPad*
G36*
G01*
X142580000Y-87240000D02*
X142580000Y-86840000D01*
G75*
G02*
X142780000Y-86640000I200000J0D01*
G01*
X143180000Y-86640000D01*
G75*
G02*
X143380000Y-86840000I0J-200000D01*
G01*
X143380000Y-87240000D01*
G75*
G02*
X143180000Y-87440000I-200000J0D01*
G01*
X142780000Y-87440000D01*
G75*
G02*
X142580000Y-87240000I0J200000D01*
G01*
G37*
G04 #@! TD.AperFunction*
G04 #@! TA.AperFunction,ComponentPad*
G36*
G01*
X143580000Y-87240000D02*
X143580000Y-86840000D01*
G75*
G02*
X143780000Y-86640000I200000J0D01*
G01*
X144180000Y-86640000D01*
G75*
G02*
X144380000Y-86840000I0J-200000D01*
G01*
X144380000Y-87240000D01*
G75*
G02*
X144180000Y-87440000I-200000J0D01*
G01*
X143780000Y-87440000D01*
G75*
G02*
X143580000Y-87240000I0J200000D01*
G01*
G37*
G04 #@! TD.AperFunction*
G04 #@! TA.AperFunction,ComponentPad*
G36*
G01*
X144580000Y-87240000D02*
X144580000Y-86840000D01*
G75*
G02*
X144780000Y-86640000I200000J0D01*
G01*
X145180000Y-86640000D01*
G75*
G02*
X145380000Y-86840000I0J-200000D01*
G01*
X145380000Y-87240000D01*
G75*
G02*
X145180000Y-87440000I-200000J0D01*
G01*
X144780000Y-87440000D01*
G75*
G02*
X144580000Y-87240000I0J200000D01*
G01*
G37*
G04 #@! TD.AperFunction*
G04 #@! TA.AperFunction,ComponentPad*
G36*
G01*
X146580000Y-87240000D02*
X146580000Y-86840000D01*
G75*
G02*
X146780000Y-86640000I200000J0D01*
G01*
X147180000Y-86640000D01*
G75*
G02*
X147380000Y-86840000I0J-200000D01*
G01*
X147380000Y-87240000D01*
G75*
G02*
X147180000Y-87440000I-200000J0D01*
G01*
X146780000Y-87440000D01*
G75*
G02*
X146580000Y-87240000I0J200000D01*
G01*
G37*
G04 #@! TD.AperFunction*
G04 #@! TA.AperFunction,ComponentPad*
G36*
G01*
X147580000Y-87240000D02*
X147580000Y-86840000D01*
G75*
G02*
X147780000Y-86640000I200000J0D01*
G01*
X148180000Y-86640000D01*
G75*
G02*
X148380000Y-86840000I0J-200000D01*
G01*
X148380000Y-87240000D01*
G75*
G02*
X148180000Y-87440000I-200000J0D01*
G01*
X147780000Y-87440000D01*
G75*
G02*
X147580000Y-87240000I0J200000D01*
G01*
G37*
G04 #@! TD.AperFunction*
G04 #@! TA.AperFunction,ComponentPad*
G36*
G01*
X141430000Y-86010000D02*
X141430000Y-85610000D01*
G75*
G02*
X141630000Y-85410000I200000J0D01*
G01*
X143330000Y-85410000D01*
G75*
G02*
X143530000Y-85610000I0J-200000D01*
G01*
X143530000Y-86010000D01*
G75*
G02*
X143330000Y-86210000I-200000J0D01*
G01*
X141630000Y-86210000D01*
G75*
G02*
X141430000Y-86010000I0J200000D01*
G01*
G37*
G04 #@! TD.AperFunction*
G04 #@! TA.AperFunction,ComponentPad*
G36*
G01*
X145430000Y-86010000D02*
X145430000Y-85610000D01*
G75*
G02*
X145630000Y-85410000I200000J0D01*
G01*
X147330000Y-85410000D01*
G75*
G02*
X147530000Y-85610000I0J-200000D01*
G01*
X147530000Y-86010000D01*
G75*
G02*
X147330000Y-86210000I-200000J0D01*
G01*
X145630000Y-86210000D01*
G75*
G02*
X145430000Y-86010000I0J200000D01*
G01*
G37*
G04 #@! TD.AperFunction*
G04 #@! TA.AperFunction,ComponentPad*
G36*
G01*
X145430000Y-89870000D02*
X145430000Y-89470000D01*
G75*
G02*
X145630000Y-89270000I200000J0D01*
G01*
X147330000Y-89270000D01*
G75*
G02*
X147530000Y-89470000I0J-200000D01*
G01*
X147530000Y-89870000D01*
G75*
G02*
X147330000Y-90070000I-200000J0D01*
G01*
X145630000Y-90070000D01*
G75*
G02*
X145430000Y-89870000I0J200000D01*
G01*
G37*
G04 #@! TD.AperFunction*
G04 #@! TA.AperFunction,ComponentPad*
G36*
G01*
X141430000Y-89870000D02*
X141430000Y-89470000D01*
G75*
G02*
X141630000Y-89270000I200000J0D01*
G01*
X143330000Y-89270000D01*
G75*
G02*
X143530000Y-89470000I0J-200000D01*
G01*
X143530000Y-89870000D01*
G75*
G02*
X143330000Y-90070000I-200000J0D01*
G01*
X141630000Y-90070000D01*
G75*
G02*
X141430000Y-89870000I0J200000D01*
G01*
G37*
G04 #@! TD.AperFunction*
G04 #@! TA.AperFunction,ComponentPad*
G36*
G01*
X145580000Y-87240000D02*
X145580000Y-86840000D01*
G75*
G02*
X145780000Y-86640000I200000J0D01*
G01*
X146180000Y-86640000D01*
G75*
G02*
X146380000Y-86840000I0J-200000D01*
G01*
X146380000Y-87240000D01*
G75*
G02*
X146180000Y-87440000I-200000J0D01*
G01*
X145780000Y-87440000D01*
G75*
G02*
X145580000Y-87240000I0J200000D01*
G01*
G37*
G04 #@! TD.AperFunction*
G04 #@! TA.AperFunction,ComponentPad*
G36*
G01*
X142580000Y-88640000D02*
X142580000Y-88240000D01*
G75*
G02*
X142780000Y-88040000I200000J0D01*
G01*
X143180000Y-88040000D01*
G75*
G02*
X143380000Y-88240000I0J-200000D01*
G01*
X143380000Y-88640000D01*
G75*
G02*
X143180000Y-88840000I-200000J0D01*
G01*
X142780000Y-88840000D01*
G75*
G02*
X142580000Y-88640000I0J200000D01*
G01*
G37*
G04 #@! TD.AperFunction*
D10*
X132480000Y-113560000D03*
X132480000Y-112290000D03*
X132480000Y-111020000D03*
D11*
X132480000Y-109750000D03*
D12*
X163545000Y-105200000D03*
X162275000Y-105200000D03*
X161005000Y-105200000D03*
X159735000Y-105200000D03*
X159735000Y-99800000D03*
X161005000Y-99800000D03*
X162275000Y-99800000D03*
X163545000Y-99800000D03*
G04 #@! TA.AperFunction,ComponentPad*
G36*
G01*
X171825000Y-111310000D02*
X170375000Y-111310000D01*
G75*
G02*
X170125000Y-111060000I0J250000D01*
G01*
X170125000Y-109860000D01*
G75*
G02*
X170375000Y-109610000I250000J0D01*
G01*
X171825000Y-109610000D01*
G75*
G02*
X172075000Y-109860000I0J-250000D01*
G01*
X172075000Y-111060000D01*
G75*
G02*
X171825000Y-111310000I-250000J0D01*
G01*
G37*
G04 #@! TD.AperFunction*
D13*
X171100000Y-107960000D03*
X171100000Y-105460000D03*
G04 #@! TA.AperFunction,ComponentPad*
G36*
G01*
X171825000Y-100390000D02*
X170375000Y-100390000D01*
G75*
G02*
X170125000Y-100140000I0J250000D01*
G01*
X170125000Y-98940000D01*
G75*
G02*
X170375000Y-98690000I250000J0D01*
G01*
X171825000Y-98690000D01*
G75*
G02*
X172075000Y-98940000I0J-250000D01*
G01*
X172075000Y-100140000D01*
G75*
G02*
X171825000Y-100390000I-250000J0D01*
G01*
G37*
G04 #@! TD.AperFunction*
X171100000Y-97040000D03*
X171100000Y-94540000D03*
X171100000Y-92040000D03*
X171100000Y-89540000D03*
D14*
X129850000Y-93000000D03*
X134850000Y-93000000D03*
D15*
X126750000Y-100000000D03*
X137950000Y-100000000D03*
D14*
X129850000Y-107500000D03*
X132350000Y-107500000D03*
D16*
X134850000Y-107500000D03*
X139130000Y-108750000D03*
D14*
X146730000Y-108750000D03*
D17*
X166420000Y-86800000D03*
D18*
X163880000Y-86800000D03*
X161340000Y-86800000D03*
X158790000Y-86800000D03*
X156260000Y-86800000D03*
X153720000Y-86800000D03*
X151180000Y-86800000D03*
D17*
X136350000Y-86820000D03*
D18*
X136350000Y-89360000D03*
X133810000Y-86820000D03*
X133810000Y-89360000D03*
X131270000Y-86820000D03*
X131270000Y-89360000D03*
X128730000Y-86820000D03*
X128730000Y-89360000D03*
G04 #@! TA.AperFunction,SMDPad,CuDef*
G36*
G01*
X164027500Y-107635000D02*
X164027500Y-109685000D01*
G75*
G02*
X163777500Y-109935000I-250000J0D01*
G01*
X162202500Y-109935000D01*
G75*
G02*
X161952500Y-109685000I0J250000D01*
G01*
X161952500Y-107635000D01*
G75*
G02*
X162202500Y-107385000I250000J0D01*
G01*
X163777500Y-107385000D01*
G75*
G02*
X164027500Y-107635000I0J-250000D01*
G01*
G37*
G04 #@! TD.AperFunction*
G04 #@! TA.AperFunction,SMDPad,CuDef*
G36*
G01*
X157802500Y-107635000D02*
X157802500Y-109685000D01*
G75*
G02*
X157552500Y-109935000I-250000J0D01*
G01*
X155977500Y-109935000D01*
G75*
G02*
X155727500Y-109685000I0J250000D01*
G01*
X155727500Y-107635000D01*
G75*
G02*
X155977500Y-107385000I250000J0D01*
G01*
X157552500Y-107385000D01*
G75*
G02*
X157802500Y-107635000I0J-250000D01*
G01*
G37*
G04 #@! TD.AperFunction*
D19*
X158255000Y-105670000D03*
X154400000Y-107430000D03*
X154400000Y-108230000D03*
X160410000Y-106640000D03*
X167900000Y-110150000D03*
X167900000Y-110950000D03*
D20*
X163810000Y-111500000D03*
X162860000Y-111500000D03*
X164760000Y-111500000D03*
D19*
X156100000Y-110562500D03*
X150140000Y-113190000D03*
X151190000Y-110450000D03*
X161210000Y-106640000D03*
X161160000Y-97210000D03*
X159900000Y-95435000D03*
X167820000Y-92705000D03*
X161400000Y-90070000D03*
X155740000Y-98760000D03*
X140095000Y-102750000D03*
X126930000Y-93505000D03*
X140095000Y-91800000D03*
X152400000Y-95545000D03*
X142580000Y-99520000D03*
X154150000Y-103450000D03*
X154880000Y-109599998D03*
X146280000Y-100200000D03*
X150150000Y-103270000D03*
X143280000Y-94320000D03*
X148470000Y-95020000D03*
X145520000Y-97250000D03*
X132350000Y-105600000D03*
X138270000Y-90960000D03*
X173000000Y-87000000D03*
X173000000Y-113000000D03*
X127000000Y-113000000D03*
X127000000Y-87000000D03*
X167810000Y-97240000D03*
X161950000Y-113700000D03*
X160060000Y-111500000D03*
X161090000Y-109660000D03*
X157260000Y-111500000D03*
X168120000Y-113700000D03*
X165510000Y-111500000D03*
X162110000Y-111500000D03*
X167870000Y-109060010D03*
X150257660Y-107847660D03*
X132350000Y-104110000D03*
X136770000Y-90960000D03*
X153090000Y-110450000D03*
X146770000Y-103270000D03*
X141645000Y-102750000D03*
X161880000Y-91625000D03*
X154090000Y-113470000D03*
X152400000Y-93995000D03*
X141645000Y-91800000D03*
X161005000Y-103240000D03*
X159735000Y-98550000D03*
X159120000Y-101760000D03*
X144280000Y-94320000D03*
D21*
X161005000Y-105200000D02*
X162275000Y-105200000D01*
X162275000Y-105200000D02*
X163545000Y-105200000D01*
D22*
X161005000Y-105200000D02*
X161005000Y-103240000D01*
D21*
X162990000Y-105915000D02*
X162275000Y-105200000D01*
X162990000Y-108660000D02*
X162990000Y-105915000D01*
X163690000Y-107960000D02*
X162990000Y-108660000D01*
X171100000Y-107960000D02*
X163690000Y-107960000D01*
X170840000Y-99800000D02*
X171100000Y-99540000D01*
X163545000Y-99800000D02*
X170840000Y-99800000D01*
X162275000Y-99800000D02*
X163545000Y-99800000D01*
X161005000Y-99800000D02*
X162275000Y-99800000D01*
X159735000Y-99800000D02*
X161005000Y-99800000D01*
D22*
X159735000Y-99800000D02*
X159735000Y-98550000D01*
X159735000Y-102375000D02*
X159120000Y-101760000D01*
X159735000Y-105200000D02*
X159735000Y-102375000D01*
D23*
X141980000Y-87147122D02*
X142572878Y-87740000D01*
X141980000Y-87040000D02*
X141980000Y-87147122D01*
X142572878Y-87740000D02*
X146640000Y-87740000D01*
X146980000Y-87400000D02*
X146980000Y-87040000D01*
X146640000Y-87740000D02*
X146980000Y-87400000D01*
D24*
X127783368Y-85666525D02*
X127576525Y-85873368D01*
X127414010Y-86116589D01*
X127302068Y-86386842D01*
X127245000Y-86673740D01*
X127245000Y-86966260D01*
X127302068Y-87253158D01*
X127414010Y-87523411D01*
X127576525Y-87766632D01*
X127783368Y-87973475D01*
X127957760Y-88090000D01*
X127783368Y-88206525D01*
X127576525Y-88413368D01*
X127414010Y-88656589D01*
X127302068Y-88926842D01*
X127245000Y-89213740D01*
X127245000Y-89506260D01*
X127302068Y-89793158D01*
X127414010Y-90063411D01*
X127576525Y-90306632D01*
X127783368Y-90513475D01*
X128026589Y-90675990D01*
X128296842Y-90787932D01*
X128583740Y-90845000D01*
X128876260Y-90845000D01*
X129163158Y-90787932D01*
X129433411Y-90675990D01*
X129676632Y-90513475D01*
X129883475Y-90306632D01*
X130005195Y-90124466D01*
X130074822Y-90241355D01*
X130269731Y-90457588D01*
X130503080Y-90631641D01*
X130765901Y-90756825D01*
X130913110Y-90801476D01*
X131143000Y-90680155D01*
X131143000Y-89487000D01*
X131123000Y-89487000D01*
X131123000Y-89233000D01*
X131143000Y-89233000D01*
X131143000Y-86947000D01*
X131123000Y-86947000D01*
X131123000Y-86693000D01*
X131143000Y-86693000D01*
X131143000Y-86673000D01*
X131397000Y-86673000D01*
X131397000Y-86693000D01*
X131417000Y-86693000D01*
X131417000Y-86947000D01*
X131397000Y-86947000D01*
X131397000Y-89233000D01*
X131417000Y-89233000D01*
X131417000Y-89487000D01*
X131397000Y-89487000D01*
X131397000Y-90680155D01*
X131626890Y-90801476D01*
X131774099Y-90756825D01*
X132036920Y-90631641D01*
X132270269Y-90457588D01*
X132465178Y-90241355D01*
X132534805Y-90124466D01*
X132656525Y-90306632D01*
X132863368Y-90513475D01*
X133106589Y-90675990D01*
X133376842Y-90787932D01*
X133663740Y-90845000D01*
X133956260Y-90845000D01*
X134243158Y-90787932D01*
X134513411Y-90675990D01*
X134756632Y-90513475D01*
X134963475Y-90306632D01*
X135080000Y-90132240D01*
X135196525Y-90306632D01*
X135403368Y-90513475D01*
X135646589Y-90675990D01*
X135761729Y-90723682D01*
X135735000Y-90858061D01*
X135735000Y-91061939D01*
X135774774Y-91261898D01*
X135852795Y-91450256D01*
X135966063Y-91619774D01*
X136110226Y-91763937D01*
X136279744Y-91877205D01*
X136468102Y-91955226D01*
X136668061Y-91995000D01*
X136871939Y-91995000D01*
X137071898Y-91955226D01*
X137260256Y-91877205D01*
X137429774Y-91763937D01*
X137495650Y-91698061D01*
X140610000Y-91698061D01*
X140610000Y-91901939D01*
X140649774Y-92101898D01*
X140727795Y-92290256D01*
X140841063Y-92459774D01*
X140985226Y-92603937D01*
X141154744Y-92717205D01*
X141343102Y-92795226D01*
X141543061Y-92835000D01*
X141746939Y-92835000D01*
X141946898Y-92795226D01*
X142135256Y-92717205D01*
X142304774Y-92603937D01*
X142448937Y-92459774D01*
X142562205Y-92290256D01*
X142640226Y-92101898D01*
X142680000Y-91901939D01*
X142680000Y-91698061D01*
X142645191Y-91523061D01*
X160845000Y-91523061D01*
X160845000Y-91726939D01*
X160884774Y-91926898D01*
X160962795Y-92115256D01*
X161076063Y-92284774D01*
X161220226Y-92428937D01*
X161389744Y-92542205D01*
X161578102Y-92620226D01*
X161778061Y-92660000D01*
X161981939Y-92660000D01*
X162181898Y-92620226D01*
X162370256Y-92542205D01*
X162539774Y-92428937D01*
X162683937Y-92284774D01*
X162797205Y-92115256D01*
X162875226Y-91926898D01*
X162915000Y-91726939D01*
X162915000Y-91523061D01*
X162875226Y-91323102D01*
X162797205Y-91134744D01*
X162683937Y-90965226D01*
X162539774Y-90821063D01*
X162370256Y-90707795D01*
X162181898Y-90629774D01*
X161981939Y-90590000D01*
X161778061Y-90590000D01*
X161578102Y-90629774D01*
X161389744Y-90707795D01*
X161220226Y-90821063D01*
X161076063Y-90965226D01*
X160962795Y-91134744D01*
X160884774Y-91323102D01*
X160845000Y-91523061D01*
X142645191Y-91523061D01*
X142640226Y-91498102D01*
X142562205Y-91309744D01*
X142448937Y-91140226D01*
X142304774Y-90996063D01*
X142135256Y-90882795D01*
X141946898Y-90804774D01*
X141746939Y-90765000D01*
X141543061Y-90765000D01*
X141343102Y-90804774D01*
X141154744Y-90882795D01*
X140985226Y-90996063D01*
X140841063Y-91140226D01*
X140727795Y-91309744D01*
X140649774Y-91498102D01*
X140610000Y-91698061D01*
X137495650Y-91698061D01*
X137573937Y-91619774D01*
X137687205Y-91450256D01*
X137765226Y-91261898D01*
X137805000Y-91061939D01*
X137805000Y-90858061D01*
X137765226Y-90658102D01*
X137687205Y-90469744D01*
X137573937Y-90300226D01*
X137534264Y-90260553D01*
X137665990Y-90063411D01*
X137777932Y-89793158D01*
X137835000Y-89506260D01*
X137835000Y-89213740D01*
X137777932Y-88926842D01*
X137665990Y-88656589D01*
X137503475Y-88413368D01*
X137371620Y-88281513D01*
X137444180Y-88259502D01*
X137554494Y-88200537D01*
X137651185Y-88121185D01*
X137730537Y-88024494D01*
X137789502Y-87914180D01*
X137825812Y-87794482D01*
X137838072Y-87670000D01*
X137838072Y-85970000D01*
X137825812Y-85845518D01*
X137789502Y-85725820D01*
X137754320Y-85660000D01*
X140791928Y-85660000D01*
X140791928Y-86010000D01*
X140802053Y-86112803D01*
X140694250Y-86005000D01*
X140580000Y-86001928D01*
X140455518Y-86014188D01*
X140335820Y-86050498D01*
X140225506Y-86109463D01*
X140128815Y-86188815D01*
X140049463Y-86285506D01*
X139990498Y-86395820D01*
X139954188Y-86515518D01*
X139941928Y-86640000D01*
X139945000Y-86754250D01*
X140103750Y-86913000D01*
X140853000Y-86913000D01*
X140853000Y-86893000D01*
X140941928Y-86893000D01*
X140941928Y-87187000D01*
X140853000Y-87187000D01*
X140853000Y-87167000D01*
X140103750Y-87167000D01*
X139945000Y-87325750D01*
X139941928Y-87440000D01*
X139954188Y-87564482D01*
X139990498Y-87684180D01*
X140020335Y-87740000D01*
X139990498Y-87795820D01*
X139954188Y-87915518D01*
X139941928Y-88040000D01*
X139945000Y-88154250D01*
X140103750Y-88313000D01*
X140853000Y-88313000D01*
X140853000Y-88293000D01*
X140941928Y-88293000D01*
X140941928Y-88587000D01*
X140853000Y-88587000D01*
X140853000Y-88567000D01*
X140103750Y-88567000D01*
X139945000Y-88725750D01*
X139941928Y-88840000D01*
X139954188Y-88964482D01*
X139990498Y-89084180D01*
X140049463Y-89194494D01*
X140128815Y-89291185D01*
X140225506Y-89370537D01*
X140335820Y-89429502D01*
X140455518Y-89465812D01*
X140580000Y-89478072D01*
X140694250Y-89475000D01*
X140802053Y-89367197D01*
X140791928Y-89470000D01*
X140791928Y-89870000D01*
X140808031Y-90033500D01*
X140855722Y-90190716D01*
X140933169Y-90335608D01*
X141037394Y-90462606D01*
X141164392Y-90566831D01*
X141309284Y-90644278D01*
X141466500Y-90691969D01*
X141630000Y-90708072D01*
X143330000Y-90708072D01*
X143493500Y-90691969D01*
X143650716Y-90644278D01*
X143795608Y-90566831D01*
X143922606Y-90462606D01*
X144026831Y-90335608D01*
X144104278Y-90190716D01*
X144151969Y-90033500D01*
X144168072Y-89870000D01*
X144168072Y-89478072D01*
X144180000Y-89478072D01*
X144343500Y-89461969D01*
X144480000Y-89420562D01*
X144616500Y-89461969D01*
X144780000Y-89478072D01*
X144791928Y-89478072D01*
X144791928Y-89870000D01*
X144808031Y-90033500D01*
X144855722Y-90190716D01*
X144933169Y-90335608D01*
X145037394Y-90462606D01*
X145164392Y-90566831D01*
X145309284Y-90644278D01*
X145466500Y-90691969D01*
X145630000Y-90708072D01*
X147330000Y-90708072D01*
X147493500Y-90691969D01*
X147650716Y-90644278D01*
X147795608Y-90566831D01*
X147922606Y-90462606D01*
X148026831Y-90335608D01*
X148104278Y-90190716D01*
X148151969Y-90033500D01*
X148168072Y-89870000D01*
X148168072Y-89470000D01*
X148157947Y-89367197D01*
X148265750Y-89475000D01*
X148380000Y-89478072D01*
X148504482Y-89465812D01*
X148624180Y-89429502D01*
X148734494Y-89370537D01*
X148831185Y-89291185D01*
X148910537Y-89194494D01*
X148969502Y-89084180D01*
X149005812Y-88964482D01*
X149018072Y-88840000D01*
X149015000Y-88725750D01*
X148856250Y-88567000D01*
X148107000Y-88567000D01*
X148107000Y-88587000D01*
X148018072Y-88587000D01*
X148018072Y-88293000D01*
X148107000Y-88293000D01*
X148107000Y-88313000D01*
X148856250Y-88313000D01*
X149015000Y-88154250D01*
X149018072Y-88040000D01*
X149005812Y-87915518D01*
X148969502Y-87795820D01*
X148939665Y-87740000D01*
X148969502Y-87684180D01*
X149005812Y-87564482D01*
X149018072Y-87440000D01*
X149015000Y-87325750D01*
X148856250Y-87167000D01*
X148107000Y-87167000D01*
X148107000Y-87187000D01*
X148018072Y-87187000D01*
X148018072Y-86893000D01*
X148107000Y-86893000D01*
X148107000Y-86913000D01*
X148856250Y-86913000D01*
X149015000Y-86754250D01*
X149018072Y-86640000D01*
X149005812Y-86515518D01*
X148969502Y-86395820D01*
X148910537Y-86285506D01*
X148831185Y-86188815D01*
X148734494Y-86109463D01*
X148624180Y-86050498D01*
X148504482Y-86014188D01*
X148380000Y-86001928D01*
X148265750Y-86005000D01*
X148157947Y-86112803D01*
X148168072Y-86010000D01*
X148168072Y-85660000D01*
X150219893Y-85660000D01*
X150026525Y-85853368D01*
X149864010Y-86096589D01*
X149752068Y-86366842D01*
X149695000Y-86653740D01*
X149695000Y-86946260D01*
X149752068Y-87233158D01*
X149864010Y-87503411D01*
X150026525Y-87746632D01*
X150233368Y-87953475D01*
X150476589Y-88115990D01*
X150746842Y-88227932D01*
X151033740Y-88285000D01*
X151326260Y-88285000D01*
X151613158Y-88227932D01*
X151883411Y-88115990D01*
X152126632Y-87953475D01*
X152333475Y-87746632D01*
X152450000Y-87572240D01*
X152566525Y-87746632D01*
X152773368Y-87953475D01*
X153016589Y-88115990D01*
X153286842Y-88227932D01*
X153573740Y-88285000D01*
X153866260Y-88285000D01*
X154153158Y-88227932D01*
X154423411Y-88115990D01*
X154666632Y-87953475D01*
X154873475Y-87746632D01*
X154990000Y-87572240D01*
X155106525Y-87746632D01*
X155313368Y-87953475D01*
X155556589Y-88115990D01*
X155826842Y-88227932D01*
X156113740Y-88285000D01*
X156406260Y-88285000D01*
X156693158Y-88227932D01*
X156963411Y-88115990D01*
X157206632Y-87953475D01*
X157413475Y-87746632D01*
X157525000Y-87579723D01*
X157636525Y-87746632D01*
X157843368Y-87953475D01*
X158086589Y-88115990D01*
X158356842Y-88227932D01*
X158643740Y-88285000D01*
X158936260Y-88285000D01*
X159223158Y-88227932D01*
X159493411Y-88115990D01*
X159736632Y-87953475D01*
X159943475Y-87746632D01*
X160065000Y-87564757D01*
X160186525Y-87746632D01*
X160393368Y-87953475D01*
X160636589Y-88115990D01*
X160906842Y-88227932D01*
X161193740Y-88285000D01*
X161486260Y-88285000D01*
X161773158Y-88227932D01*
X162043411Y-88115990D01*
X162286632Y-87953475D01*
X162493475Y-87746632D01*
X162610000Y-87572240D01*
X162726525Y-87746632D01*
X162933368Y-87953475D01*
X163176589Y-88115990D01*
X163446842Y-88227932D01*
X163733740Y-88285000D01*
X164026260Y-88285000D01*
X164313158Y-88227932D01*
X164583411Y-88115990D01*
X164826632Y-87953475D01*
X164958487Y-87821620D01*
X164980498Y-87894180D01*
X165039463Y-88004494D01*
X165118815Y-88101185D01*
X165215506Y-88180537D01*
X165325820Y-88239502D01*
X165445518Y-88275812D01*
X165570000Y-88288072D01*
X166134250Y-88285000D01*
X166293000Y-88126250D01*
X166293000Y-86927000D01*
X166547000Y-86927000D01*
X166547000Y-88126250D01*
X166705750Y-88285000D01*
X167270000Y-88288072D01*
X167394482Y-88275812D01*
X167514180Y-88239502D01*
X167624494Y-88180537D01*
X167721185Y-88101185D01*
X167800537Y-88004494D01*
X167859502Y-87894180D01*
X167895812Y-87774482D01*
X167908072Y-87650000D01*
X167905000Y-87085750D01*
X167746250Y-86927000D01*
X166547000Y-86927000D01*
X166293000Y-86927000D01*
X166273000Y-86927000D01*
X166273000Y-86673000D01*
X166293000Y-86673000D01*
X166293000Y-86653000D01*
X166547000Y-86653000D01*
X166547000Y-86673000D01*
X167746250Y-86673000D01*
X167905000Y-86514250D01*
X167908072Y-85950000D01*
X167895812Y-85825518D01*
X167859502Y-85705820D01*
X167835010Y-85660000D01*
X172967721Y-85660000D01*
X173259659Y-85688625D01*
X173509429Y-85764035D01*
X173739792Y-85886522D01*
X173941980Y-86051422D01*
X174108286Y-86252450D01*
X174232378Y-86481954D01*
X174309531Y-86731195D01*
X174340000Y-87021089D01*
X174340001Y-112967711D01*
X174311375Y-113259660D01*
X174235965Y-113509429D01*
X174113477Y-113739794D01*
X173948579Y-113941979D01*
X173747546Y-114108288D01*
X173518046Y-114232378D01*
X173268805Y-114309531D01*
X172978911Y-114340000D01*
X154650903Y-114340000D01*
X154749774Y-114273937D01*
X154893937Y-114129774D01*
X155007205Y-113960256D01*
X155085226Y-113771898D01*
X155125000Y-113571939D01*
X155125000Y-113368061D01*
X155085226Y-113168102D01*
X155007205Y-112979744D01*
X154893937Y-112810226D01*
X154749774Y-112666063D01*
X154580256Y-112552795D01*
X154391898Y-112474774D01*
X154191939Y-112435000D01*
X153988061Y-112435000D01*
X153788102Y-112474774D01*
X153599744Y-112552795D01*
X153430226Y-112666063D01*
X153286063Y-112810226D01*
X153172795Y-112979744D01*
X153094774Y-113168102D01*
X153055000Y-113368061D01*
X153055000Y-113571939D01*
X153094774Y-113771898D01*
X153172795Y-113960256D01*
X153286063Y-114129774D01*
X153430226Y-114273937D01*
X153529097Y-114340000D01*
X133718433Y-114340000D01*
X133822526Y-114213162D01*
X133931169Y-114009906D01*
X133998071Y-113789360D01*
X134020661Y-113560000D01*
X133998071Y-113330640D01*
X133931169Y-113110094D01*
X133832234Y-112925000D01*
X133931169Y-112739906D01*
X133998071Y-112519360D01*
X134020661Y-112290000D01*
X133998071Y-112060640D01*
X133931169Y-111840094D01*
X133830846Y-111652404D01*
X133888377Y-111564421D01*
X133973900Y-111327383D01*
X133848244Y-111147000D01*
X133107560Y-111147000D01*
X133074360Y-111136929D01*
X132902477Y-111120000D01*
X132057523Y-111120000D01*
X131885640Y-111136929D01*
X131852440Y-111147000D01*
X131111756Y-111147000D01*
X130986100Y-111327383D01*
X131071623Y-111564421D01*
X131129154Y-111652404D01*
X131028831Y-111840094D01*
X130961929Y-112060640D01*
X130939339Y-112290000D01*
X130961929Y-112519360D01*
X131028831Y-112739906D01*
X131127766Y-112925000D01*
X131028831Y-113110094D01*
X130961929Y-113330640D01*
X130939339Y-113560000D01*
X130961929Y-113789360D01*
X131028831Y-114009906D01*
X131137474Y-114213162D01*
X131241567Y-114340000D01*
X127032279Y-114340000D01*
X126740340Y-114311375D01*
X126490571Y-114235965D01*
X126260206Y-114113477D01*
X126058021Y-113948579D01*
X125891712Y-113747546D01*
X125767622Y-113518046D01*
X125690469Y-113268805D01*
X125660000Y-112978911D01*
X125660000Y-109215000D01*
X130941928Y-109215000D01*
X130941928Y-110285000D01*
X130954188Y-110409482D01*
X130990498Y-110529180D01*
X131027385Y-110598190D01*
X130986100Y-110712617D01*
X131111756Y-110893000D01*
X131396800Y-110893000D01*
X131455518Y-110910812D01*
X131580000Y-110923072D01*
X133380000Y-110923072D01*
X133504482Y-110910812D01*
X133563200Y-110893000D01*
X133848244Y-110893000D01*
X133973900Y-110712617D01*
X133932615Y-110598190D01*
X133969502Y-110529180D01*
X134005812Y-110409482D01*
X134018072Y-110285000D01*
X134018072Y-109215000D01*
X134010496Y-109138072D01*
X135850000Y-109138072D01*
X135974482Y-109125812D01*
X136094180Y-109089502D01*
X136204494Y-109030537D01*
X136301185Y-108951185D01*
X136380537Y-108854494D01*
X136439502Y-108744180D01*
X136475812Y-108624482D01*
X136488072Y-108500000D01*
X136488072Y-107750000D01*
X137491928Y-107750000D01*
X137491928Y-109750000D01*
X137504188Y-109874482D01*
X137540498Y-109994180D01*
X137599463Y-110104494D01*
X137678815Y-110201185D01*
X137775506Y-110280537D01*
X137885820Y-110339502D01*
X138005518Y-110375812D01*
X138130000Y-110388072D01*
X140130000Y-110388072D01*
X140254482Y-110375812D01*
X140374180Y-110339502D01*
X140484494Y-110280537D01*
X140581185Y-110201185D01*
X140660537Y-110104494D01*
X140719502Y-109994180D01*
X140755812Y-109874482D01*
X140768072Y-109750000D01*
X140768072Y-108588967D01*
X145095000Y-108588967D01*
X145095000Y-108911033D01*
X145157832Y-109226912D01*
X145281082Y-109524463D01*
X145460013Y-109792252D01*
X145687748Y-110019987D01*
X145955537Y-110198918D01*
X146253088Y-110322168D01*
X146568967Y-110385000D01*
X146891033Y-110385000D01*
X147076738Y-110348061D01*
X152055000Y-110348061D01*
X152055000Y-110551939D01*
X152094774Y-110751898D01*
X152172795Y-110940256D01*
X152286063Y-111109774D01*
X152430226Y-111253937D01*
X152599744Y-111367205D01*
X152788102Y-111445226D01*
X152988061Y-111485000D01*
X153191939Y-111485000D01*
X153391898Y-111445226D01*
X153580256Y-111367205D01*
X153749774Y-111253937D01*
X153893937Y-111109774D01*
X154007205Y-110940256D01*
X154085226Y-110751898D01*
X154125000Y-110551939D01*
X154125000Y-110348061D01*
X154085226Y-110148102D01*
X154007205Y-109959744D01*
X153990672Y-109935000D01*
X155089428Y-109935000D01*
X155101688Y-110059482D01*
X155137998Y-110179180D01*
X155196963Y-110289494D01*
X155276315Y-110386185D01*
X155373006Y-110465537D01*
X155483320Y-110524502D01*
X155603018Y-110560812D01*
X155727500Y-110573072D01*
X156479250Y-110570000D01*
X156638000Y-110411250D01*
X156638000Y-108787000D01*
X156892000Y-108787000D01*
X156892000Y-110411250D01*
X157050750Y-110570000D01*
X157802500Y-110573072D01*
X157926982Y-110560812D01*
X158046680Y-110524502D01*
X158156994Y-110465537D01*
X158253685Y-110386185D01*
X158333037Y-110289494D01*
X158392002Y-110179180D01*
X158428312Y-110059482D01*
X158440572Y-109935000D01*
X158437500Y-108945750D01*
X158278750Y-108787000D01*
X156892000Y-108787000D01*
X156638000Y-108787000D01*
X155251250Y-108787000D01*
X155092500Y-108945750D01*
X155089428Y-109935000D01*
X153990672Y-109935000D01*
X153893937Y-109790226D01*
X153749774Y-109646063D01*
X153580256Y-109532795D01*
X153391898Y-109454774D01*
X153191939Y-109415000D01*
X152988061Y-109415000D01*
X152788102Y-109454774D01*
X152599744Y-109532795D01*
X152430226Y-109646063D01*
X152286063Y-109790226D01*
X152172795Y-109959744D01*
X152094774Y-110148102D01*
X152055000Y-110348061D01*
X147076738Y-110348061D01*
X147206912Y-110322168D01*
X147504463Y-110198918D01*
X147772252Y-110019987D01*
X147999987Y-109792252D01*
X148178918Y-109524463D01*
X148302168Y-109226912D01*
X148365000Y-108911033D01*
X148365000Y-108588967D01*
X148302168Y-108273088D01*
X148178918Y-107975537D01*
X147999987Y-107707748D01*
X147772252Y-107480013D01*
X147630056Y-107385000D01*
X155089428Y-107385000D01*
X155092500Y-108374250D01*
X155251250Y-108533000D01*
X156638000Y-108533000D01*
X156638000Y-106908750D01*
X156892000Y-106908750D01*
X156892000Y-108533000D01*
X158278750Y-108533000D01*
X158437500Y-108374250D01*
X158440572Y-107385000D01*
X158428312Y-107260518D01*
X158392002Y-107140820D01*
X158333037Y-107030506D01*
X158253685Y-106933815D01*
X158156994Y-106854463D01*
X158046680Y-106795498D01*
X157926982Y-106759188D01*
X157802500Y-106746928D01*
X157050750Y-106750000D01*
X156892000Y-106908750D01*
X156638000Y-106908750D01*
X156479250Y-106750000D01*
X155727500Y-106746928D01*
X155603018Y-106759188D01*
X155483320Y-106795498D01*
X155373006Y-106854463D01*
X155276315Y-106933815D01*
X155196963Y-107030506D01*
X155137998Y-107140820D01*
X155101688Y-107260518D01*
X155089428Y-107385000D01*
X147630056Y-107385000D01*
X147504463Y-107301082D01*
X147206912Y-107177832D01*
X146891033Y-107115000D01*
X146568967Y-107115000D01*
X146253088Y-107177832D01*
X145955537Y-107301082D01*
X145687748Y-107480013D01*
X145460013Y-107707748D01*
X145281082Y-107975537D01*
X145157832Y-108273088D01*
X145095000Y-108588967D01*
X140768072Y-108588967D01*
X140768072Y-107750000D01*
X140755812Y-107625518D01*
X140719502Y-107505820D01*
X140660537Y-107395506D01*
X140581185Y-107298815D01*
X140484494Y-107219463D01*
X140374180Y-107160498D01*
X140254482Y-107124188D01*
X140130000Y-107111928D01*
X138130000Y-107111928D01*
X138005518Y-107124188D01*
X137885820Y-107160498D01*
X137775506Y-107219463D01*
X137678815Y-107298815D01*
X137599463Y-107395506D01*
X137540498Y-107505820D01*
X137504188Y-107625518D01*
X137491928Y-107750000D01*
X136488072Y-107750000D01*
X136488072Y-106500000D01*
X136475812Y-106375518D01*
X136439502Y-106255820D01*
X136380537Y-106145506D01*
X136301185Y-106048815D01*
X136204494Y-105969463D01*
X136094180Y-105910498D01*
X135974482Y-105874188D01*
X135850000Y-105861928D01*
X133850000Y-105861928D01*
X133725518Y-105874188D01*
X133605820Y-105910498D01*
X133495506Y-105969463D01*
X133398815Y-106048815D01*
X133319463Y-106145506D01*
X133264024Y-106249223D01*
X133210044Y-106100186D01*
X132920429Y-105959296D01*
X132608892Y-105877616D01*
X132287405Y-105858282D01*
X131968325Y-105902039D01*
X131663912Y-106007205D01*
X131489956Y-106100186D01*
X131394192Y-106364587D01*
X132350000Y-107320395D01*
X132364143Y-107306253D01*
X132543748Y-107485858D01*
X132529605Y-107500000D01*
X132543748Y-107514143D01*
X132364143Y-107693748D01*
X132350000Y-107679605D01*
X131433842Y-108595763D01*
X131335820Y-108625498D01*
X131225506Y-108684463D01*
X131128815Y-108763815D01*
X131049463Y-108860506D01*
X130990498Y-108970820D01*
X130954188Y-109090518D01*
X130941928Y-109215000D01*
X125660000Y-109215000D01*
X125660000Y-107338967D01*
X128215000Y-107338967D01*
X128215000Y-107661033D01*
X128277832Y-107976912D01*
X128401082Y-108274463D01*
X128580013Y-108542252D01*
X128807748Y-108769987D01*
X129075537Y-108948918D01*
X129373088Y-109072168D01*
X129688967Y-109135000D01*
X130011033Y-109135000D01*
X130326912Y-109072168D01*
X130624463Y-108948918D01*
X130892252Y-108769987D01*
X131119987Y-108542252D01*
X131184925Y-108445065D01*
X131214587Y-108455808D01*
X132170395Y-107500000D01*
X131214587Y-106544192D01*
X131184925Y-106554935D01*
X131119987Y-106457748D01*
X130892252Y-106230013D01*
X130624463Y-106051082D01*
X130326912Y-105927832D01*
X130011033Y-105865000D01*
X129688967Y-105865000D01*
X129373088Y-105927832D01*
X129075537Y-106051082D01*
X128807748Y-106230013D01*
X128580013Y-106457748D01*
X128401082Y-106725537D01*
X128277832Y-107023088D01*
X128215000Y-107338967D01*
X125660000Y-107338967D01*
X125660000Y-104008061D01*
X131315000Y-104008061D01*
X131315000Y-104211939D01*
X131354774Y-104411898D01*
X131432795Y-104600256D01*
X131546063Y-104769774D01*
X131690226Y-104913937D01*
X131859744Y-105027205D01*
X132048102Y-105105226D01*
X132248061Y-105145000D01*
X132451939Y-105145000D01*
X132651898Y-105105226D01*
X132840256Y-105027205D01*
X133009774Y-104913937D01*
X133153937Y-104769774D01*
X133267205Y-104600256D01*
X133345226Y-104411898D01*
X133385000Y-104211939D01*
X133385000Y-104008061D01*
X133345226Y-103808102D01*
X133267205Y-103619744D01*
X133153937Y-103450226D01*
X133009774Y-103306063D01*
X132840256Y-103192795D01*
X132651898Y-103114774D01*
X132451939Y-103075000D01*
X132248061Y-103075000D01*
X132048102Y-103114774D01*
X131859744Y-103192795D01*
X131690226Y-103306063D01*
X131546063Y-103450226D01*
X131432795Y-103619744D01*
X131354774Y-103808102D01*
X131315000Y-104008061D01*
X125660000Y-104008061D01*
X125660000Y-102648061D01*
X140610000Y-102648061D01*
X140610000Y-102851939D01*
X140649774Y-103051898D01*
X140727795Y-103240256D01*
X140841063Y-103409774D01*
X140985226Y-103553937D01*
X141154744Y-103667205D01*
X141343102Y-103745226D01*
X141543061Y-103785000D01*
X141746939Y-103785000D01*
X141946898Y-103745226D01*
X142135256Y-103667205D01*
X142304774Y-103553937D01*
X142448937Y-103409774D01*
X142562205Y-103240256D01*
X142592109Y-103168061D01*
X145735000Y-103168061D01*
X145735000Y-103371939D01*
X145774774Y-103571898D01*
X145852795Y-103760256D01*
X145966063Y-103929774D01*
X146110226Y-104073937D01*
X146279744Y-104187205D01*
X146468102Y-104265226D01*
X146668061Y-104305000D01*
X146871939Y-104305000D01*
X147071898Y-104265226D01*
X147260256Y-104187205D01*
X147429774Y-104073937D01*
X147573937Y-103929774D01*
X147687205Y-103760256D01*
X147765226Y-103571898D01*
X147805000Y-103371939D01*
X147805000Y-103168061D01*
X147765226Y-102968102D01*
X147687205Y-102779744D01*
X147573937Y-102610226D01*
X147429774Y-102466063D01*
X147260256Y-102352795D01*
X147071898Y-102274774D01*
X146871939Y-102235000D01*
X146668061Y-102235000D01*
X146468102Y-102274774D01*
X146279744Y-102352795D01*
X146110226Y-102466063D01*
X145966063Y-102610226D01*
X145852795Y-102779744D01*
X145774774Y-102968102D01*
X145735000Y-103168061D01*
X142592109Y-103168061D01*
X142640226Y-103051898D01*
X142680000Y-102851939D01*
X142680000Y-102648061D01*
X142640226Y-102448102D01*
X142562205Y-102259744D01*
X142448937Y-102090226D01*
X142304774Y-101946063D01*
X142135256Y-101832795D01*
X141946898Y-101754774D01*
X141746939Y-101715000D01*
X141543061Y-101715000D01*
X141343102Y-101754774D01*
X141154744Y-101832795D01*
X140985226Y-101946063D01*
X140841063Y-102090226D01*
X140727795Y-102259744D01*
X140649774Y-102448102D01*
X140610000Y-102648061D01*
X125660000Y-102648061D01*
X125660000Y-102138072D01*
X128000000Y-102138072D01*
X128124482Y-102125812D01*
X128244180Y-102089502D01*
X128354494Y-102030537D01*
X128451185Y-101951185D01*
X128530537Y-101854494D01*
X128589502Y-101744180D01*
X128625812Y-101624482D01*
X128638072Y-101500000D01*
X128638072Y-98500000D01*
X136061928Y-98500000D01*
X136061928Y-101500000D01*
X136074188Y-101624482D01*
X136110498Y-101744180D01*
X136169463Y-101854494D01*
X136248815Y-101951185D01*
X136345506Y-102030537D01*
X136455820Y-102089502D01*
X136575518Y-102125812D01*
X136700000Y-102138072D01*
X139200000Y-102138072D01*
X139324482Y-102125812D01*
X139444180Y-102089502D01*
X139554494Y-102030537D01*
X139651185Y-101951185D01*
X139730537Y-101854494D01*
X139789502Y-101744180D01*
X139815625Y-101658061D01*
X158085000Y-101658061D01*
X158085000Y-101861939D01*
X158124774Y-102061898D01*
X158202795Y-102250256D01*
X158316063Y-102419774D01*
X158460226Y-102563937D01*
X158629744Y-102677205D01*
X158818102Y-102755226D01*
X158975001Y-102786435D01*
X158975000Y-103984556D01*
X158904463Y-104070506D01*
X158845498Y-104180820D01*
X158809188Y-104300518D01*
X158796928Y-104425000D01*
X158796928Y-105975000D01*
X158809188Y-106099482D01*
X158845498Y-106219180D01*
X158904463Y-106329494D01*
X158983815Y-106426185D01*
X159080506Y-106505537D01*
X159190820Y-106564502D01*
X159310518Y-106600812D01*
X159435000Y-106613072D01*
X160035000Y-106613072D01*
X160159482Y-106600812D01*
X160279180Y-106564502D01*
X160370000Y-106515957D01*
X160460820Y-106564502D01*
X160580518Y-106600812D01*
X160705000Y-106613072D01*
X161305000Y-106613072D01*
X161429482Y-106600812D01*
X161549180Y-106564502D01*
X161640000Y-106515957D01*
X161730820Y-106564502D01*
X161850518Y-106600812D01*
X161855001Y-106601253D01*
X161855001Y-106818617D01*
X161709114Y-106896595D01*
X161574538Y-107007038D01*
X161464095Y-107141614D01*
X161382028Y-107295150D01*
X161331492Y-107461746D01*
X161314428Y-107635000D01*
X161314428Y-109685000D01*
X161331492Y-109858254D01*
X161382028Y-110024850D01*
X161464095Y-110178386D01*
X161574538Y-110312962D01*
X161709114Y-110423405D01*
X161862650Y-110505472D01*
X162029246Y-110556008D01*
X162202500Y-110573072D01*
X163777500Y-110573072D01*
X163950754Y-110556008D01*
X164117350Y-110505472D01*
X164270886Y-110423405D01*
X164405462Y-110312962D01*
X164515905Y-110178386D01*
X164597972Y-110024850D01*
X164648508Y-109858254D01*
X164665572Y-109685000D01*
X164665572Y-109095000D01*
X169931370Y-109095000D01*
X169881614Y-109121595D01*
X169747038Y-109232038D01*
X169636595Y-109366614D01*
X169554528Y-109520150D01*
X169503992Y-109686746D01*
X169486928Y-109860000D01*
X169486928Y-111060000D01*
X169503992Y-111233254D01*
X169554528Y-111399850D01*
X169636595Y-111553386D01*
X169747038Y-111687962D01*
X169881614Y-111798405D01*
X170035150Y-111880472D01*
X170201746Y-111931008D01*
X170375000Y-111948072D01*
X171825000Y-111948072D01*
X171998254Y-111931008D01*
X172164850Y-111880472D01*
X172318386Y-111798405D01*
X172452962Y-111687962D01*
X172563405Y-111553386D01*
X172645472Y-111399850D01*
X172696008Y-111233254D01*
X172713072Y-111060000D01*
X172713072Y-109860000D01*
X172696008Y-109686746D01*
X172645472Y-109520150D01*
X172563405Y-109366614D01*
X172452962Y-109232038D01*
X172318386Y-109121595D01*
X172216663Y-109067223D01*
X172280134Y-109015134D01*
X172465706Y-108789014D01*
X172603599Y-108531034D01*
X172688513Y-108251111D01*
X172717185Y-107960000D01*
X172688513Y-107668889D01*
X172603599Y-107388966D01*
X172465706Y-107130986D01*
X172280134Y-106904866D01*
X172054014Y-106719294D01*
X172028278Y-106705538D01*
X172234429Y-106549049D01*
X172427496Y-106331193D01*
X172574352Y-106079858D01*
X172666476Y-105816890D01*
X172545155Y-105587000D01*
X171227000Y-105587000D01*
X171227000Y-105607000D01*
X170973000Y-105607000D01*
X170973000Y-105587000D01*
X169654845Y-105587000D01*
X169533524Y-105816890D01*
X169625648Y-106079858D01*
X169772504Y-106331193D01*
X169965571Y-106549049D01*
X170171722Y-106705538D01*
X170145986Y-106719294D01*
X170017183Y-106825000D01*
X164136942Y-106825000D01*
X164125000Y-106818617D01*
X164125000Y-106545356D01*
X164199494Y-106505537D01*
X164296185Y-106426185D01*
X164375537Y-106329494D01*
X164434502Y-106219180D01*
X164470812Y-106099482D01*
X164483072Y-105975000D01*
X164483072Y-105846066D01*
X164493284Y-105833623D01*
X164598676Y-105636447D01*
X164663577Y-105422499D01*
X164685491Y-105200000D01*
X164675949Y-105103110D01*
X169533524Y-105103110D01*
X169654845Y-105333000D01*
X170973000Y-105333000D01*
X170973000Y-104133835D01*
X171227000Y-104133835D01*
X171227000Y-105333000D01*
X172545155Y-105333000D01*
X172666476Y-105103110D01*
X172574352Y-104840142D01*
X172427496Y-104588807D01*
X172234429Y-104370951D01*
X172002570Y-104194947D01*
X171740830Y-104067558D01*
X171459267Y-103993680D01*
X171227000Y-104133835D01*
X170973000Y-104133835D01*
X170740733Y-103993680D01*
X170459170Y-104067558D01*
X170197430Y-104194947D01*
X169965571Y-104370951D01*
X169772504Y-104588807D01*
X169625648Y-104840142D01*
X169533524Y-105103110D01*
X164675949Y-105103110D01*
X164663577Y-104977501D01*
X164598676Y-104763553D01*
X164493284Y-104566377D01*
X164483072Y-104553934D01*
X164483072Y-104425000D01*
X164470812Y-104300518D01*
X164434502Y-104180820D01*
X164375537Y-104070506D01*
X164296185Y-103973815D01*
X164199494Y-103894463D01*
X164089180Y-103835498D01*
X163969482Y-103799188D01*
X163845000Y-103786928D01*
X163245000Y-103786928D01*
X163120518Y-103799188D01*
X163000820Y-103835498D01*
X162910000Y-103884043D01*
X162819180Y-103835498D01*
X162699482Y-103799188D01*
X162575000Y-103786928D01*
X161975000Y-103786928D01*
X161877952Y-103796486D01*
X161922205Y-103730256D01*
X162000226Y-103541898D01*
X162040000Y-103341939D01*
X162040000Y-103138061D01*
X162000226Y-102938102D01*
X161922205Y-102749744D01*
X161808937Y-102580226D01*
X161664774Y-102436063D01*
X161495256Y-102322795D01*
X161306898Y-102244774D01*
X161106939Y-102205000D01*
X160903061Y-102205000D01*
X160703102Y-102244774D01*
X160514744Y-102322795D01*
X160494845Y-102336091D01*
X160484003Y-102226014D01*
X160440546Y-102082753D01*
X160369974Y-101950724D01*
X160275001Y-101834999D01*
X160246002Y-101811200D01*
X160155000Y-101720198D01*
X160155000Y-101658061D01*
X160115226Y-101458102D01*
X160037205Y-101269744D01*
X159999338Y-101213072D01*
X160035000Y-101213072D01*
X160159482Y-101200812D01*
X160279180Y-101164502D01*
X160370000Y-101115957D01*
X160460820Y-101164502D01*
X160580518Y-101200812D01*
X160705000Y-101213072D01*
X161305000Y-101213072D01*
X161429482Y-101200812D01*
X161549180Y-101164502D01*
X161640000Y-101115957D01*
X161730820Y-101164502D01*
X161850518Y-101200812D01*
X161975000Y-101213072D01*
X162575000Y-101213072D01*
X162699482Y-101200812D01*
X162819180Y-101164502D01*
X162910000Y-101115957D01*
X163000820Y-101164502D01*
X163120518Y-101200812D01*
X163245000Y-101213072D01*
X163845000Y-101213072D01*
X163969482Y-101200812D01*
X164089180Y-101164502D01*
X164199494Y-101105537D01*
X164296185Y-101026185D01*
X164371018Y-100935000D01*
X169987495Y-100935000D01*
X170035150Y-100960472D01*
X170201746Y-101011008D01*
X170375000Y-101028072D01*
X171825000Y-101028072D01*
X171998254Y-101011008D01*
X172164850Y-100960472D01*
X172318386Y-100878405D01*
X172452962Y-100767962D01*
X172563405Y-100633386D01*
X172645472Y-100479850D01*
X172696008Y-100313254D01*
X172713072Y-100140000D01*
X172713072Y-98940000D01*
X172696008Y-98766746D01*
X172645472Y-98600150D01*
X172563405Y-98446614D01*
X172452962Y-98312038D01*
X172318386Y-98201595D01*
X172216663Y-98147223D01*
X172280134Y-98095134D01*
X172465706Y-97869014D01*
X172603599Y-97611034D01*
X172688513Y-97331111D01*
X172717185Y-97040000D01*
X172688513Y-96748889D01*
X172603599Y-96468966D01*
X172465706Y-96210986D01*
X172280134Y-95984866D01*
X172054014Y-95799294D01*
X172036626Y-95790000D01*
X172054014Y-95780706D01*
X172280134Y-95595134D01*
X172465706Y-95369014D01*
X172603599Y-95111034D01*
X172688513Y-94831111D01*
X172717185Y-94540000D01*
X172688513Y-94248889D01*
X172603599Y-93968966D01*
X172465706Y-93710986D01*
X172280134Y-93484866D01*
X172054014Y-93299294D01*
X172036626Y-93290000D01*
X172054014Y-93280706D01*
X172280134Y-93095134D01*
X172465706Y-92869014D01*
X172603599Y-92611034D01*
X172688513Y-92331111D01*
X172717185Y-92040000D01*
X172688513Y-91748889D01*
X172603599Y-91468966D01*
X172465706Y-91210986D01*
X172280134Y-90984866D01*
X172054014Y-90799294D01*
X172036626Y-90790000D01*
X172054014Y-90780706D01*
X172280134Y-90595134D01*
X172465706Y-90369014D01*
X172603599Y-90111034D01*
X172688513Y-89831111D01*
X172717185Y-89540000D01*
X172688513Y-89248889D01*
X172603599Y-88968966D01*
X172465706Y-88710986D01*
X172280134Y-88484866D01*
X172054014Y-88299294D01*
X171796034Y-88161401D01*
X171516111Y-88076487D01*
X171297950Y-88055000D01*
X170902050Y-88055000D01*
X170683889Y-88076487D01*
X170403966Y-88161401D01*
X170145986Y-88299294D01*
X169919866Y-88484866D01*
X169734294Y-88710986D01*
X169596401Y-88968966D01*
X169511487Y-89248889D01*
X169482815Y-89540000D01*
X169511487Y-89831111D01*
X169596401Y-90111034D01*
X169734294Y-90369014D01*
X169919866Y-90595134D01*
X170145986Y-90780706D01*
X170163374Y-90790000D01*
X170145986Y-90799294D01*
X169919866Y-90984866D01*
X169734294Y-91210986D01*
X169596401Y-91468966D01*
X169511487Y-91748889D01*
X169482815Y-92040000D01*
X169511487Y-92331111D01*
X169596401Y-92611034D01*
X169734294Y-92869014D01*
X169919866Y-93095134D01*
X170145986Y-93280706D01*
X170163374Y-93290000D01*
X170145986Y-93299294D01*
X169919866Y-93484866D01*
X169734294Y-93710986D01*
X169596401Y-93968966D01*
X169511487Y-94248889D01*
X169482815Y-94540000D01*
X169511487Y-94831111D01*
X169596401Y-95111034D01*
X169734294Y-95369014D01*
X169919866Y-95595134D01*
X170145986Y-95780706D01*
X170163374Y-95790000D01*
X170145986Y-95799294D01*
X169919866Y-95984866D01*
X169734294Y-96210986D01*
X169596401Y-96468966D01*
X169511487Y-96748889D01*
X169482815Y-97040000D01*
X169511487Y-97331111D01*
X169596401Y-97611034D01*
X169734294Y-97869014D01*
X169919866Y-98095134D01*
X169983337Y-98147223D01*
X169881614Y-98201595D01*
X169747038Y-98312038D01*
X169636595Y-98446614D01*
X169554528Y-98600150D01*
X169534856Y-98665000D01*
X164371018Y-98665000D01*
X164296185Y-98573815D01*
X164199494Y-98494463D01*
X164089180Y-98435498D01*
X163969482Y-98399188D01*
X163845000Y-98386928D01*
X163245000Y-98386928D01*
X163120518Y-98399188D01*
X163000820Y-98435498D01*
X162910000Y-98484043D01*
X162819180Y-98435498D01*
X162699482Y-98399188D01*
X162575000Y-98386928D01*
X161975000Y-98386928D01*
X161850518Y-98399188D01*
X161730820Y-98435498D01*
X161640000Y-98484043D01*
X161549180Y-98435498D01*
X161429482Y-98399188D01*
X161305000Y-98386928D01*
X160757840Y-98386928D01*
X160730226Y-98248102D01*
X160652205Y-98059744D01*
X160538937Y-97890226D01*
X160394774Y-97746063D01*
X160225256Y-97632795D01*
X160036898Y-97554774D01*
X159836939Y-97515000D01*
X159633061Y-97515000D01*
X159433102Y-97554774D01*
X159244744Y-97632795D01*
X159075226Y-97746063D01*
X158931063Y-97890226D01*
X158817795Y-98059744D01*
X158739774Y-98248102D01*
X158700000Y-98448061D01*
X158700000Y-98651939D01*
X158739774Y-98851898D01*
X158799723Y-98996626D01*
X158796928Y-99025000D01*
X158796928Y-99153934D01*
X158786716Y-99166377D01*
X158681324Y-99363553D01*
X158616423Y-99577501D01*
X158594509Y-99800000D01*
X158616423Y-100022499D01*
X158681324Y-100236447D01*
X158786716Y-100433623D01*
X158796928Y-100446066D01*
X158796928Y-100575000D01*
X158809188Y-100699482D01*
X158828374Y-100762731D01*
X158818102Y-100764774D01*
X158629744Y-100842795D01*
X158460226Y-100956063D01*
X158316063Y-101100226D01*
X158202795Y-101269744D01*
X158124774Y-101458102D01*
X158085000Y-101658061D01*
X139815625Y-101658061D01*
X139825812Y-101624482D01*
X139838072Y-101500000D01*
X139838072Y-98500000D01*
X139825812Y-98375518D01*
X139789502Y-98255820D01*
X139730537Y-98145506D01*
X139651185Y-98048815D01*
X139554494Y-97969463D01*
X139444180Y-97910498D01*
X139324482Y-97874188D01*
X139200000Y-97861928D01*
X136700000Y-97861928D01*
X136575518Y-97874188D01*
X136455820Y-97910498D01*
X136345506Y-97969463D01*
X136248815Y-98048815D01*
X136169463Y-98145506D01*
X136110498Y-98255820D01*
X136074188Y-98375518D01*
X136061928Y-98500000D01*
X128638072Y-98500000D01*
X128625812Y-98375518D01*
X128589502Y-98255820D01*
X128530537Y-98145506D01*
X128451185Y-98048815D01*
X128354494Y-97969463D01*
X128244180Y-97910498D01*
X128124482Y-97874188D01*
X128000000Y-97861928D01*
X125660000Y-97861928D01*
X125660000Y-94135413D01*
X128894192Y-94135413D01*
X128989956Y-94399814D01*
X129279571Y-94540704D01*
X129591108Y-94622384D01*
X129912595Y-94641718D01*
X130231675Y-94597961D01*
X130536088Y-94492795D01*
X130710044Y-94399814D01*
X130805808Y-94135413D01*
X129850000Y-93179605D01*
X128894192Y-94135413D01*
X125660000Y-94135413D01*
X125660000Y-93062595D01*
X128208282Y-93062595D01*
X128252039Y-93381675D01*
X128357205Y-93686088D01*
X128450186Y-93860044D01*
X128714587Y-93955808D01*
X129670395Y-93000000D01*
X130029605Y-93000000D01*
X130985413Y-93955808D01*
X131249814Y-93860044D01*
X131390704Y-93570429D01*
X131472384Y-93258892D01*
X131491718Y-92937405D01*
X131478219Y-92838967D01*
X133215000Y-92838967D01*
X133215000Y-93161033D01*
X133277832Y-93476912D01*
X133401082Y-93774463D01*
X133580013Y-94042252D01*
X133807748Y-94269987D01*
X134075537Y-94448918D01*
X134373088Y-94572168D01*
X134688967Y-94635000D01*
X135011033Y-94635000D01*
X135326912Y-94572168D01*
X135624463Y-94448918D01*
X135892252Y-94269987D01*
X135944178Y-94218061D01*
X143245000Y-94218061D01*
X143245000Y-94421939D01*
X143284774Y-94621898D01*
X143362795Y-94810256D01*
X143476063Y-94979774D01*
X143620226Y-95123937D01*
X143789744Y-95237205D01*
X143978102Y-95315226D01*
X144178061Y-95355000D01*
X144381939Y-95355000D01*
X144581898Y-95315226D01*
X144770256Y-95237205D01*
X144939774Y-95123937D01*
X145083937Y-94979774D01*
X145197205Y-94810256D01*
X145275226Y-94621898D01*
X145315000Y-94421939D01*
X145315000Y-94218061D01*
X145275226Y-94018102D01*
X145223432Y-93893061D01*
X151365000Y-93893061D01*
X151365000Y-94096939D01*
X151404774Y-94296898D01*
X151482795Y-94485256D01*
X151596063Y-94654774D01*
X151740226Y-94798937D01*
X151909744Y-94912205D01*
X152098102Y-94990226D01*
X152298061Y-95030000D01*
X152501939Y-95030000D01*
X152701898Y-94990226D01*
X152890256Y-94912205D01*
X153059774Y-94798937D01*
X153203937Y-94654774D01*
X153317205Y-94485256D01*
X153395226Y-94296898D01*
X153435000Y-94096939D01*
X153435000Y-93893061D01*
X153395226Y-93693102D01*
X153317205Y-93504744D01*
X153203937Y-93335226D01*
X153059774Y-93191063D01*
X152890256Y-93077795D01*
X152701898Y-92999774D01*
X152501939Y-92960000D01*
X152298061Y-92960000D01*
X152098102Y-92999774D01*
X151909744Y-93077795D01*
X151740226Y-93191063D01*
X151596063Y-93335226D01*
X151482795Y-93504744D01*
X151404774Y-93693102D01*
X151365000Y-93893061D01*
X145223432Y-93893061D01*
X145197205Y-93829744D01*
X145083937Y-93660226D01*
X144939774Y-93516063D01*
X144770256Y-93402795D01*
X144581898Y-93324774D01*
X144381939Y-93285000D01*
X144178061Y-93285000D01*
X143978102Y-93324774D01*
X143789744Y-93402795D01*
X143620226Y-93516063D01*
X143476063Y-93660226D01*
X143362795Y-93829744D01*
X143284774Y-94018102D01*
X143245000Y-94218061D01*
X135944178Y-94218061D01*
X136119987Y-94042252D01*
X136298918Y-93774463D01*
X136422168Y-93476912D01*
X136485000Y-93161033D01*
X136485000Y-92838967D01*
X136422168Y-92523088D01*
X136298918Y-92225537D01*
X136119987Y-91957748D01*
X135892252Y-91730013D01*
X135624463Y-91551082D01*
X135326912Y-91427832D01*
X135011033Y-91365000D01*
X134688967Y-91365000D01*
X134373088Y-91427832D01*
X134075537Y-91551082D01*
X133807748Y-91730013D01*
X133580013Y-91957748D01*
X133401082Y-92225537D01*
X133277832Y-92523088D01*
X133215000Y-92838967D01*
X131478219Y-92838967D01*
X131447961Y-92618325D01*
X131342795Y-92313912D01*
X131249814Y-92139956D01*
X130985413Y-92044192D01*
X130029605Y-93000000D01*
X129670395Y-93000000D01*
X128714587Y-92044192D01*
X128450186Y-92139956D01*
X128309296Y-92429571D01*
X128227616Y-92741108D01*
X128208282Y-93062595D01*
X125660000Y-93062595D01*
X125660000Y-91864587D01*
X128894192Y-91864587D01*
X129850000Y-92820395D01*
X130805808Y-91864587D01*
X130710044Y-91600186D01*
X130420429Y-91459296D01*
X130108892Y-91377616D01*
X129787405Y-91358282D01*
X129468325Y-91402039D01*
X129163912Y-91507205D01*
X128989956Y-91600186D01*
X128894192Y-91864587D01*
X125660000Y-91864587D01*
X125660000Y-87032279D01*
X125688625Y-86740341D01*
X125764035Y-86490571D01*
X125886522Y-86260208D01*
X126051422Y-86058020D01*
X126252450Y-85891714D01*
X126481954Y-85767622D01*
X126731195Y-85690469D01*
X127021088Y-85660000D01*
X127793133Y-85660000D01*
X127783368Y-85666525D01*
G04 #@! TA.AperFunction,Conductor*
D25*
G36*
X127783368Y-85666525D02*
G01*
X127576525Y-85873368D01*
X127414010Y-86116589D01*
X127302068Y-86386842D01*
X127245000Y-86673740D01*
X127245000Y-86966260D01*
X127302068Y-87253158D01*
X127414010Y-87523411D01*
X127576525Y-87766632D01*
X127783368Y-87973475D01*
X127957760Y-88090000D01*
X127783368Y-88206525D01*
X127576525Y-88413368D01*
X127414010Y-88656589D01*
X127302068Y-88926842D01*
X127245000Y-89213740D01*
X127245000Y-89506260D01*
X127302068Y-89793158D01*
X127414010Y-90063411D01*
X127576525Y-90306632D01*
X127783368Y-90513475D01*
X128026589Y-90675990D01*
X128296842Y-90787932D01*
X128583740Y-90845000D01*
X128876260Y-90845000D01*
X129163158Y-90787932D01*
X129433411Y-90675990D01*
X129676632Y-90513475D01*
X129883475Y-90306632D01*
X130005195Y-90124466D01*
X130074822Y-90241355D01*
X130269731Y-90457588D01*
X130503080Y-90631641D01*
X130765901Y-90756825D01*
X130913110Y-90801476D01*
X131143000Y-90680155D01*
X131143000Y-89487000D01*
X131123000Y-89487000D01*
X131123000Y-89233000D01*
X131143000Y-89233000D01*
X131143000Y-86947000D01*
X131123000Y-86947000D01*
X131123000Y-86693000D01*
X131143000Y-86693000D01*
X131143000Y-86673000D01*
X131397000Y-86673000D01*
X131397000Y-86693000D01*
X131417000Y-86693000D01*
X131417000Y-86947000D01*
X131397000Y-86947000D01*
X131397000Y-89233000D01*
X131417000Y-89233000D01*
X131417000Y-89487000D01*
X131397000Y-89487000D01*
X131397000Y-90680155D01*
X131626890Y-90801476D01*
X131774099Y-90756825D01*
X132036920Y-90631641D01*
X132270269Y-90457588D01*
X132465178Y-90241355D01*
X132534805Y-90124466D01*
X132656525Y-90306632D01*
X132863368Y-90513475D01*
X133106589Y-90675990D01*
X133376842Y-90787932D01*
X133663740Y-90845000D01*
X133956260Y-90845000D01*
X134243158Y-90787932D01*
X134513411Y-90675990D01*
X134756632Y-90513475D01*
X134963475Y-90306632D01*
X135080000Y-90132240D01*
X135196525Y-90306632D01*
X135403368Y-90513475D01*
X135646589Y-90675990D01*
X135761729Y-90723682D01*
X135735000Y-90858061D01*
X135735000Y-91061939D01*
X135774774Y-91261898D01*
X135852795Y-91450256D01*
X135966063Y-91619774D01*
X136110226Y-91763937D01*
X136279744Y-91877205D01*
X136468102Y-91955226D01*
X136668061Y-91995000D01*
X136871939Y-91995000D01*
X137071898Y-91955226D01*
X137260256Y-91877205D01*
X137429774Y-91763937D01*
X137495650Y-91698061D01*
X140610000Y-91698061D01*
X140610000Y-91901939D01*
X140649774Y-92101898D01*
X140727795Y-92290256D01*
X140841063Y-92459774D01*
X140985226Y-92603937D01*
X141154744Y-92717205D01*
X141343102Y-92795226D01*
X141543061Y-92835000D01*
X141746939Y-92835000D01*
X141946898Y-92795226D01*
X142135256Y-92717205D01*
X142304774Y-92603937D01*
X142448937Y-92459774D01*
X142562205Y-92290256D01*
X142640226Y-92101898D01*
X142680000Y-91901939D01*
X142680000Y-91698061D01*
X142645191Y-91523061D01*
X160845000Y-91523061D01*
X160845000Y-91726939D01*
X160884774Y-91926898D01*
X160962795Y-92115256D01*
X161076063Y-92284774D01*
X161220226Y-92428937D01*
X161389744Y-92542205D01*
X161578102Y-92620226D01*
X161778061Y-92660000D01*
X161981939Y-92660000D01*
X162181898Y-92620226D01*
X162370256Y-92542205D01*
X162539774Y-92428937D01*
X162683937Y-92284774D01*
X162797205Y-92115256D01*
X162875226Y-91926898D01*
X162915000Y-91726939D01*
X162915000Y-91523061D01*
X162875226Y-91323102D01*
X162797205Y-91134744D01*
X162683937Y-90965226D01*
X162539774Y-90821063D01*
X162370256Y-90707795D01*
X162181898Y-90629774D01*
X161981939Y-90590000D01*
X161778061Y-90590000D01*
X161578102Y-90629774D01*
X161389744Y-90707795D01*
X161220226Y-90821063D01*
X161076063Y-90965226D01*
X160962795Y-91134744D01*
X160884774Y-91323102D01*
X160845000Y-91523061D01*
X142645191Y-91523061D01*
X142640226Y-91498102D01*
X142562205Y-91309744D01*
X142448937Y-91140226D01*
X142304774Y-90996063D01*
X142135256Y-90882795D01*
X141946898Y-90804774D01*
X141746939Y-90765000D01*
X141543061Y-90765000D01*
X141343102Y-90804774D01*
X141154744Y-90882795D01*
X140985226Y-90996063D01*
X140841063Y-91140226D01*
X140727795Y-91309744D01*
X140649774Y-91498102D01*
X140610000Y-91698061D01*
X137495650Y-91698061D01*
X137573937Y-91619774D01*
X137687205Y-91450256D01*
X137765226Y-91261898D01*
X137805000Y-91061939D01*
X137805000Y-90858061D01*
X137765226Y-90658102D01*
X137687205Y-90469744D01*
X137573937Y-90300226D01*
X137534264Y-90260553D01*
X137665990Y-90063411D01*
X137777932Y-89793158D01*
X137835000Y-89506260D01*
X137835000Y-89213740D01*
X137777932Y-88926842D01*
X137665990Y-88656589D01*
X137503475Y-88413368D01*
X137371620Y-88281513D01*
X137444180Y-88259502D01*
X137554494Y-88200537D01*
X137651185Y-88121185D01*
X137730537Y-88024494D01*
X137789502Y-87914180D01*
X137825812Y-87794482D01*
X137838072Y-87670000D01*
X137838072Y-85970000D01*
X137825812Y-85845518D01*
X137789502Y-85725820D01*
X137754320Y-85660000D01*
X140791928Y-85660000D01*
X140791928Y-86010000D01*
X140802053Y-86112803D01*
X140694250Y-86005000D01*
X140580000Y-86001928D01*
X140455518Y-86014188D01*
X140335820Y-86050498D01*
X140225506Y-86109463D01*
X140128815Y-86188815D01*
X140049463Y-86285506D01*
X139990498Y-86395820D01*
X139954188Y-86515518D01*
X139941928Y-86640000D01*
X139945000Y-86754250D01*
X140103750Y-86913000D01*
X140853000Y-86913000D01*
X140853000Y-86893000D01*
X140941928Y-86893000D01*
X140941928Y-87187000D01*
X140853000Y-87187000D01*
X140853000Y-87167000D01*
X140103750Y-87167000D01*
X139945000Y-87325750D01*
X139941928Y-87440000D01*
X139954188Y-87564482D01*
X139990498Y-87684180D01*
X140020335Y-87740000D01*
X139990498Y-87795820D01*
X139954188Y-87915518D01*
X139941928Y-88040000D01*
X139945000Y-88154250D01*
X140103750Y-88313000D01*
X140853000Y-88313000D01*
X140853000Y-88293000D01*
X140941928Y-88293000D01*
X140941928Y-88587000D01*
X140853000Y-88587000D01*
X140853000Y-88567000D01*
X140103750Y-88567000D01*
X139945000Y-88725750D01*
X139941928Y-88840000D01*
X139954188Y-88964482D01*
X139990498Y-89084180D01*
X140049463Y-89194494D01*
X140128815Y-89291185D01*
X140225506Y-89370537D01*
X140335820Y-89429502D01*
X140455518Y-89465812D01*
X140580000Y-89478072D01*
X140694250Y-89475000D01*
X140802053Y-89367197D01*
X140791928Y-89470000D01*
X140791928Y-89870000D01*
X140808031Y-90033500D01*
X140855722Y-90190716D01*
X140933169Y-90335608D01*
X141037394Y-90462606D01*
X141164392Y-90566831D01*
X141309284Y-90644278D01*
X141466500Y-90691969D01*
X141630000Y-90708072D01*
X143330000Y-90708072D01*
X143493500Y-90691969D01*
X143650716Y-90644278D01*
X143795608Y-90566831D01*
X143922606Y-90462606D01*
X144026831Y-90335608D01*
X144104278Y-90190716D01*
X144151969Y-90033500D01*
X144168072Y-89870000D01*
X144168072Y-89478072D01*
X144180000Y-89478072D01*
X144343500Y-89461969D01*
X144480000Y-89420562D01*
X144616500Y-89461969D01*
X144780000Y-89478072D01*
X144791928Y-89478072D01*
X144791928Y-89870000D01*
X144808031Y-90033500D01*
X144855722Y-90190716D01*
X144933169Y-90335608D01*
X145037394Y-90462606D01*
X145164392Y-90566831D01*
X145309284Y-90644278D01*
X145466500Y-90691969D01*
X145630000Y-90708072D01*
X147330000Y-90708072D01*
X147493500Y-90691969D01*
X147650716Y-90644278D01*
X147795608Y-90566831D01*
X147922606Y-90462606D01*
X148026831Y-90335608D01*
X148104278Y-90190716D01*
X148151969Y-90033500D01*
X148168072Y-89870000D01*
X148168072Y-89470000D01*
X148157947Y-89367197D01*
X148265750Y-89475000D01*
X148380000Y-89478072D01*
X148504482Y-89465812D01*
X148624180Y-89429502D01*
X148734494Y-89370537D01*
X148831185Y-89291185D01*
X148910537Y-89194494D01*
X148969502Y-89084180D01*
X149005812Y-88964482D01*
X149018072Y-88840000D01*
X149015000Y-88725750D01*
X148856250Y-88567000D01*
X148107000Y-88567000D01*
X148107000Y-88587000D01*
X148018072Y-88587000D01*
X148018072Y-88293000D01*
X148107000Y-88293000D01*
X148107000Y-88313000D01*
X148856250Y-88313000D01*
X149015000Y-88154250D01*
X149018072Y-88040000D01*
X149005812Y-87915518D01*
X148969502Y-87795820D01*
X148939665Y-87740000D01*
X148969502Y-87684180D01*
X149005812Y-87564482D01*
X149018072Y-87440000D01*
X149015000Y-87325750D01*
X148856250Y-87167000D01*
X148107000Y-87167000D01*
X148107000Y-87187000D01*
X148018072Y-87187000D01*
X148018072Y-86893000D01*
X148107000Y-86893000D01*
X148107000Y-86913000D01*
X148856250Y-86913000D01*
X149015000Y-86754250D01*
X149018072Y-86640000D01*
X149005812Y-86515518D01*
X148969502Y-86395820D01*
X148910537Y-86285506D01*
X148831185Y-86188815D01*
X148734494Y-86109463D01*
X148624180Y-86050498D01*
X148504482Y-86014188D01*
X148380000Y-86001928D01*
X148265750Y-86005000D01*
X148157947Y-86112803D01*
X148168072Y-86010000D01*
X148168072Y-85660000D01*
X150219893Y-85660000D01*
X150026525Y-85853368D01*
X149864010Y-86096589D01*
X149752068Y-86366842D01*
X149695000Y-86653740D01*
X149695000Y-86946260D01*
X149752068Y-87233158D01*
X149864010Y-87503411D01*
X150026525Y-87746632D01*
X150233368Y-87953475D01*
X150476589Y-88115990D01*
X150746842Y-88227932D01*
X151033740Y-88285000D01*
X151326260Y-88285000D01*
X151613158Y-88227932D01*
X151883411Y-88115990D01*
X152126632Y-87953475D01*
X152333475Y-87746632D01*
X152450000Y-87572240D01*
X152566525Y-87746632D01*
X152773368Y-87953475D01*
X153016589Y-88115990D01*
X153286842Y-88227932D01*
X153573740Y-88285000D01*
X153866260Y-88285000D01*
X154153158Y-88227932D01*
X154423411Y-88115990D01*
X154666632Y-87953475D01*
X154873475Y-87746632D01*
X154990000Y-87572240D01*
X155106525Y-87746632D01*
X155313368Y-87953475D01*
X155556589Y-88115990D01*
X155826842Y-88227932D01*
X156113740Y-88285000D01*
X156406260Y-88285000D01*
X156693158Y-88227932D01*
X156963411Y-88115990D01*
X157206632Y-87953475D01*
X157413475Y-87746632D01*
X157525000Y-87579723D01*
X157636525Y-87746632D01*
X157843368Y-87953475D01*
X158086589Y-88115990D01*
X158356842Y-88227932D01*
X158643740Y-88285000D01*
X158936260Y-88285000D01*
X159223158Y-88227932D01*
X159493411Y-88115990D01*
X159736632Y-87953475D01*
X159943475Y-87746632D01*
X160065000Y-87564757D01*
X160186525Y-87746632D01*
X160393368Y-87953475D01*
X160636589Y-88115990D01*
X160906842Y-88227932D01*
X161193740Y-88285000D01*
X161486260Y-88285000D01*
X161773158Y-88227932D01*
X162043411Y-88115990D01*
X162286632Y-87953475D01*
X162493475Y-87746632D01*
X162610000Y-87572240D01*
X162726525Y-87746632D01*
X162933368Y-87953475D01*
X163176589Y-88115990D01*
X163446842Y-88227932D01*
X163733740Y-88285000D01*
X164026260Y-88285000D01*
X164313158Y-88227932D01*
X164583411Y-88115990D01*
X164826632Y-87953475D01*
X164958487Y-87821620D01*
X164980498Y-87894180D01*
X165039463Y-88004494D01*
X165118815Y-88101185D01*
X165215506Y-88180537D01*
X165325820Y-88239502D01*
X165445518Y-88275812D01*
X165570000Y-88288072D01*
X166134250Y-88285000D01*
X166293000Y-88126250D01*
X166293000Y-86927000D01*
X166547000Y-86927000D01*
X166547000Y-88126250D01*
X166705750Y-88285000D01*
X167270000Y-88288072D01*
X167394482Y-88275812D01*
X167514180Y-88239502D01*
X167624494Y-88180537D01*
X167721185Y-88101185D01*
X167800537Y-88004494D01*
X167859502Y-87894180D01*
X167895812Y-87774482D01*
X167908072Y-87650000D01*
X167905000Y-87085750D01*
X167746250Y-86927000D01*
X166547000Y-86927000D01*
X166293000Y-86927000D01*
X166273000Y-86927000D01*
X166273000Y-86673000D01*
X166293000Y-86673000D01*
X166293000Y-86653000D01*
X166547000Y-86653000D01*
X166547000Y-86673000D01*
X167746250Y-86673000D01*
X167905000Y-86514250D01*
X167908072Y-85950000D01*
X167895812Y-85825518D01*
X167859502Y-85705820D01*
X167835010Y-85660000D01*
X172967721Y-85660000D01*
X173259659Y-85688625D01*
X173509429Y-85764035D01*
X173739792Y-85886522D01*
X173941980Y-86051422D01*
X174108286Y-86252450D01*
X174232378Y-86481954D01*
X174309531Y-86731195D01*
X174340000Y-87021089D01*
X174340001Y-112967711D01*
X174311375Y-113259660D01*
X174235965Y-113509429D01*
X174113477Y-113739794D01*
X173948579Y-113941979D01*
X173747546Y-114108288D01*
X173518046Y-114232378D01*
X173268805Y-114309531D01*
X172978911Y-114340000D01*
X154650903Y-114340000D01*
X154749774Y-114273937D01*
X154893937Y-114129774D01*
X155007205Y-113960256D01*
X155085226Y-113771898D01*
X155125000Y-113571939D01*
X155125000Y-113368061D01*
X155085226Y-113168102D01*
X155007205Y-112979744D01*
X154893937Y-112810226D01*
X154749774Y-112666063D01*
X154580256Y-112552795D01*
X154391898Y-112474774D01*
X154191939Y-112435000D01*
X153988061Y-112435000D01*
X153788102Y-112474774D01*
X153599744Y-112552795D01*
X153430226Y-112666063D01*
X153286063Y-112810226D01*
X153172795Y-112979744D01*
X153094774Y-113168102D01*
X153055000Y-113368061D01*
X153055000Y-113571939D01*
X153094774Y-113771898D01*
X153172795Y-113960256D01*
X153286063Y-114129774D01*
X153430226Y-114273937D01*
X153529097Y-114340000D01*
X133718433Y-114340000D01*
X133822526Y-114213162D01*
X133931169Y-114009906D01*
X133998071Y-113789360D01*
X134020661Y-113560000D01*
X133998071Y-113330640D01*
X133931169Y-113110094D01*
X133832234Y-112925000D01*
X133931169Y-112739906D01*
X133998071Y-112519360D01*
X134020661Y-112290000D01*
X133998071Y-112060640D01*
X133931169Y-111840094D01*
X133830846Y-111652404D01*
X133888377Y-111564421D01*
X133973900Y-111327383D01*
X133848244Y-111147000D01*
X133107560Y-111147000D01*
X133074360Y-111136929D01*
X132902477Y-111120000D01*
X132057523Y-111120000D01*
X131885640Y-111136929D01*
X131852440Y-111147000D01*
X131111756Y-111147000D01*
X130986100Y-111327383D01*
X131071623Y-111564421D01*
X131129154Y-111652404D01*
X131028831Y-111840094D01*
X130961929Y-112060640D01*
X130939339Y-112290000D01*
X130961929Y-112519360D01*
X131028831Y-112739906D01*
X131127766Y-112925000D01*
X131028831Y-113110094D01*
X130961929Y-113330640D01*
X130939339Y-113560000D01*
X130961929Y-113789360D01*
X131028831Y-114009906D01*
X131137474Y-114213162D01*
X131241567Y-114340000D01*
X127032279Y-114340000D01*
X126740340Y-114311375D01*
X126490571Y-114235965D01*
X126260206Y-114113477D01*
X126058021Y-113948579D01*
X125891712Y-113747546D01*
X125767622Y-113518046D01*
X125690469Y-113268805D01*
X125660000Y-112978911D01*
X125660000Y-109215000D01*
X130941928Y-109215000D01*
X130941928Y-110285000D01*
X130954188Y-110409482D01*
X130990498Y-110529180D01*
X131027385Y-110598190D01*
X130986100Y-110712617D01*
X131111756Y-110893000D01*
X131396800Y-110893000D01*
X131455518Y-110910812D01*
X131580000Y-110923072D01*
X133380000Y-110923072D01*
X133504482Y-110910812D01*
X133563200Y-110893000D01*
X133848244Y-110893000D01*
X133973900Y-110712617D01*
X133932615Y-110598190D01*
X133969502Y-110529180D01*
X134005812Y-110409482D01*
X134018072Y-110285000D01*
X134018072Y-109215000D01*
X134010496Y-109138072D01*
X135850000Y-109138072D01*
X135974482Y-109125812D01*
X136094180Y-109089502D01*
X136204494Y-109030537D01*
X136301185Y-108951185D01*
X136380537Y-108854494D01*
X136439502Y-108744180D01*
X136475812Y-108624482D01*
X136488072Y-108500000D01*
X136488072Y-107750000D01*
X137491928Y-107750000D01*
X137491928Y-109750000D01*
X137504188Y-109874482D01*
X137540498Y-109994180D01*
X137599463Y-110104494D01*
X137678815Y-110201185D01*
X137775506Y-110280537D01*
X137885820Y-110339502D01*
X138005518Y-110375812D01*
X138130000Y-110388072D01*
X140130000Y-110388072D01*
X140254482Y-110375812D01*
X140374180Y-110339502D01*
X140484494Y-110280537D01*
X140581185Y-110201185D01*
X140660537Y-110104494D01*
X140719502Y-109994180D01*
X140755812Y-109874482D01*
X140768072Y-109750000D01*
X140768072Y-108588967D01*
X145095000Y-108588967D01*
X145095000Y-108911033D01*
X145157832Y-109226912D01*
X145281082Y-109524463D01*
X145460013Y-109792252D01*
X145687748Y-110019987D01*
X145955537Y-110198918D01*
X146253088Y-110322168D01*
X146568967Y-110385000D01*
X146891033Y-110385000D01*
X147076738Y-110348061D01*
X152055000Y-110348061D01*
X152055000Y-110551939D01*
X152094774Y-110751898D01*
X152172795Y-110940256D01*
X152286063Y-111109774D01*
X152430226Y-111253937D01*
X152599744Y-111367205D01*
X152788102Y-111445226D01*
X152988061Y-111485000D01*
X153191939Y-111485000D01*
X153391898Y-111445226D01*
X153580256Y-111367205D01*
X153749774Y-111253937D01*
X153893937Y-111109774D01*
X154007205Y-110940256D01*
X154085226Y-110751898D01*
X154125000Y-110551939D01*
X154125000Y-110348061D01*
X154085226Y-110148102D01*
X154007205Y-109959744D01*
X153990672Y-109935000D01*
X155089428Y-109935000D01*
X155101688Y-110059482D01*
X155137998Y-110179180D01*
X155196963Y-110289494D01*
X155276315Y-110386185D01*
X155373006Y-110465537D01*
X155483320Y-110524502D01*
X155603018Y-110560812D01*
X155727500Y-110573072D01*
X156479250Y-110570000D01*
X156638000Y-110411250D01*
X156638000Y-108787000D01*
X156892000Y-108787000D01*
X156892000Y-110411250D01*
X157050750Y-110570000D01*
X157802500Y-110573072D01*
X157926982Y-110560812D01*
X158046680Y-110524502D01*
X158156994Y-110465537D01*
X158253685Y-110386185D01*
X158333037Y-110289494D01*
X158392002Y-110179180D01*
X158428312Y-110059482D01*
X158440572Y-109935000D01*
X158437500Y-108945750D01*
X158278750Y-108787000D01*
X156892000Y-108787000D01*
X156638000Y-108787000D01*
X155251250Y-108787000D01*
X155092500Y-108945750D01*
X155089428Y-109935000D01*
X153990672Y-109935000D01*
X153893937Y-109790226D01*
X153749774Y-109646063D01*
X153580256Y-109532795D01*
X153391898Y-109454774D01*
X153191939Y-109415000D01*
X152988061Y-109415000D01*
X152788102Y-109454774D01*
X152599744Y-109532795D01*
X152430226Y-109646063D01*
X152286063Y-109790226D01*
X152172795Y-109959744D01*
X152094774Y-110148102D01*
X152055000Y-110348061D01*
X147076738Y-110348061D01*
X147206912Y-110322168D01*
X147504463Y-110198918D01*
X147772252Y-110019987D01*
X147999987Y-109792252D01*
X148178918Y-109524463D01*
X148302168Y-109226912D01*
X148365000Y-108911033D01*
X148365000Y-108588967D01*
X148302168Y-108273088D01*
X148178918Y-107975537D01*
X147999987Y-107707748D01*
X147772252Y-107480013D01*
X147630056Y-107385000D01*
X155089428Y-107385000D01*
X155092500Y-108374250D01*
X155251250Y-108533000D01*
X156638000Y-108533000D01*
X156638000Y-106908750D01*
X156892000Y-106908750D01*
X156892000Y-108533000D01*
X158278750Y-108533000D01*
X158437500Y-108374250D01*
X158440572Y-107385000D01*
X158428312Y-107260518D01*
X158392002Y-107140820D01*
X158333037Y-107030506D01*
X158253685Y-106933815D01*
X158156994Y-106854463D01*
X158046680Y-106795498D01*
X157926982Y-106759188D01*
X157802500Y-106746928D01*
X157050750Y-106750000D01*
X156892000Y-106908750D01*
X156638000Y-106908750D01*
X156479250Y-106750000D01*
X155727500Y-106746928D01*
X155603018Y-106759188D01*
X155483320Y-106795498D01*
X155373006Y-106854463D01*
X155276315Y-106933815D01*
X155196963Y-107030506D01*
X155137998Y-107140820D01*
X155101688Y-107260518D01*
X155089428Y-107385000D01*
X147630056Y-107385000D01*
X147504463Y-107301082D01*
X147206912Y-107177832D01*
X146891033Y-107115000D01*
X146568967Y-107115000D01*
X146253088Y-107177832D01*
X145955537Y-107301082D01*
X145687748Y-107480013D01*
X145460013Y-107707748D01*
X145281082Y-107975537D01*
X145157832Y-108273088D01*
X145095000Y-108588967D01*
X140768072Y-108588967D01*
X140768072Y-107750000D01*
X140755812Y-107625518D01*
X140719502Y-107505820D01*
X140660537Y-107395506D01*
X140581185Y-107298815D01*
X140484494Y-107219463D01*
X140374180Y-107160498D01*
X140254482Y-107124188D01*
X140130000Y-107111928D01*
X138130000Y-107111928D01*
X138005518Y-107124188D01*
X137885820Y-107160498D01*
X137775506Y-107219463D01*
X137678815Y-107298815D01*
X137599463Y-107395506D01*
X137540498Y-107505820D01*
X137504188Y-107625518D01*
X137491928Y-107750000D01*
X136488072Y-107750000D01*
X136488072Y-106500000D01*
X136475812Y-106375518D01*
X136439502Y-106255820D01*
X136380537Y-106145506D01*
X136301185Y-106048815D01*
X136204494Y-105969463D01*
X136094180Y-105910498D01*
X135974482Y-105874188D01*
X135850000Y-105861928D01*
X133850000Y-105861928D01*
X133725518Y-105874188D01*
X133605820Y-105910498D01*
X133495506Y-105969463D01*
X133398815Y-106048815D01*
X133319463Y-106145506D01*
X133264024Y-106249223D01*
X133210044Y-106100186D01*
X132920429Y-105959296D01*
X132608892Y-105877616D01*
X132287405Y-105858282D01*
X131968325Y-105902039D01*
X131663912Y-106007205D01*
X131489956Y-106100186D01*
X131394192Y-106364587D01*
X132350000Y-107320395D01*
X132364143Y-107306253D01*
X132543748Y-107485858D01*
X132529605Y-107500000D01*
X132543748Y-107514143D01*
X132364143Y-107693748D01*
X132350000Y-107679605D01*
X131433842Y-108595763D01*
X131335820Y-108625498D01*
X131225506Y-108684463D01*
X131128815Y-108763815D01*
X131049463Y-108860506D01*
X130990498Y-108970820D01*
X130954188Y-109090518D01*
X130941928Y-109215000D01*
X125660000Y-109215000D01*
X125660000Y-107338967D01*
X128215000Y-107338967D01*
X128215000Y-107661033D01*
X128277832Y-107976912D01*
X128401082Y-108274463D01*
X128580013Y-108542252D01*
X128807748Y-108769987D01*
X129075537Y-108948918D01*
X129373088Y-109072168D01*
X129688967Y-109135000D01*
X130011033Y-109135000D01*
X130326912Y-109072168D01*
X130624463Y-108948918D01*
X130892252Y-108769987D01*
X131119987Y-108542252D01*
X131184925Y-108445065D01*
X131214587Y-108455808D01*
X132170395Y-107500000D01*
X131214587Y-106544192D01*
X131184925Y-106554935D01*
X131119987Y-106457748D01*
X130892252Y-106230013D01*
X130624463Y-106051082D01*
X130326912Y-105927832D01*
X130011033Y-105865000D01*
X129688967Y-105865000D01*
X129373088Y-105927832D01*
X129075537Y-106051082D01*
X128807748Y-106230013D01*
X128580013Y-106457748D01*
X128401082Y-106725537D01*
X128277832Y-107023088D01*
X128215000Y-107338967D01*
X125660000Y-107338967D01*
X125660000Y-104008061D01*
X131315000Y-104008061D01*
X131315000Y-104211939D01*
X131354774Y-104411898D01*
X131432795Y-104600256D01*
X131546063Y-104769774D01*
X131690226Y-104913937D01*
X131859744Y-105027205D01*
X132048102Y-105105226D01*
X132248061Y-105145000D01*
X132451939Y-105145000D01*
X132651898Y-105105226D01*
X132840256Y-105027205D01*
X133009774Y-104913937D01*
X133153937Y-104769774D01*
X133267205Y-104600256D01*
X133345226Y-104411898D01*
X133385000Y-104211939D01*
X133385000Y-104008061D01*
X133345226Y-103808102D01*
X133267205Y-103619744D01*
X133153937Y-103450226D01*
X133009774Y-103306063D01*
X132840256Y-103192795D01*
X132651898Y-103114774D01*
X132451939Y-103075000D01*
X132248061Y-103075000D01*
X132048102Y-103114774D01*
X131859744Y-103192795D01*
X131690226Y-103306063D01*
X131546063Y-103450226D01*
X131432795Y-103619744D01*
X131354774Y-103808102D01*
X131315000Y-104008061D01*
X125660000Y-104008061D01*
X125660000Y-102648061D01*
X140610000Y-102648061D01*
X140610000Y-102851939D01*
X140649774Y-103051898D01*
X140727795Y-103240256D01*
X140841063Y-103409774D01*
X140985226Y-103553937D01*
X141154744Y-103667205D01*
X141343102Y-103745226D01*
X141543061Y-103785000D01*
X141746939Y-103785000D01*
X141946898Y-103745226D01*
X142135256Y-103667205D01*
X142304774Y-103553937D01*
X142448937Y-103409774D01*
X142562205Y-103240256D01*
X142592109Y-103168061D01*
X145735000Y-103168061D01*
X145735000Y-103371939D01*
X145774774Y-103571898D01*
X145852795Y-103760256D01*
X145966063Y-103929774D01*
X146110226Y-104073937D01*
X146279744Y-104187205D01*
X146468102Y-104265226D01*
X146668061Y-104305000D01*
X146871939Y-104305000D01*
X147071898Y-104265226D01*
X147260256Y-104187205D01*
X147429774Y-104073937D01*
X147573937Y-103929774D01*
X147687205Y-103760256D01*
X147765226Y-103571898D01*
X147805000Y-103371939D01*
X147805000Y-103168061D01*
X147765226Y-102968102D01*
X147687205Y-102779744D01*
X147573937Y-102610226D01*
X147429774Y-102466063D01*
X147260256Y-102352795D01*
X147071898Y-102274774D01*
X146871939Y-102235000D01*
X146668061Y-102235000D01*
X146468102Y-102274774D01*
X146279744Y-102352795D01*
X146110226Y-102466063D01*
X145966063Y-102610226D01*
X145852795Y-102779744D01*
X145774774Y-102968102D01*
X145735000Y-103168061D01*
X142592109Y-103168061D01*
X142640226Y-103051898D01*
X142680000Y-102851939D01*
X142680000Y-102648061D01*
X142640226Y-102448102D01*
X142562205Y-102259744D01*
X142448937Y-102090226D01*
X142304774Y-101946063D01*
X142135256Y-101832795D01*
X141946898Y-101754774D01*
X141746939Y-101715000D01*
X141543061Y-101715000D01*
X141343102Y-101754774D01*
X141154744Y-101832795D01*
X140985226Y-101946063D01*
X140841063Y-102090226D01*
X140727795Y-102259744D01*
X140649774Y-102448102D01*
X140610000Y-102648061D01*
X125660000Y-102648061D01*
X125660000Y-102138072D01*
X128000000Y-102138072D01*
X128124482Y-102125812D01*
X128244180Y-102089502D01*
X128354494Y-102030537D01*
X128451185Y-101951185D01*
X128530537Y-101854494D01*
X128589502Y-101744180D01*
X128625812Y-101624482D01*
X128638072Y-101500000D01*
X128638072Y-98500000D01*
X136061928Y-98500000D01*
X136061928Y-101500000D01*
X136074188Y-101624482D01*
X136110498Y-101744180D01*
X136169463Y-101854494D01*
X136248815Y-101951185D01*
X136345506Y-102030537D01*
X136455820Y-102089502D01*
X136575518Y-102125812D01*
X136700000Y-102138072D01*
X139200000Y-102138072D01*
X139324482Y-102125812D01*
X139444180Y-102089502D01*
X139554494Y-102030537D01*
X139651185Y-101951185D01*
X139730537Y-101854494D01*
X139789502Y-101744180D01*
X139815625Y-101658061D01*
X158085000Y-101658061D01*
X158085000Y-101861939D01*
X158124774Y-102061898D01*
X158202795Y-102250256D01*
X158316063Y-102419774D01*
X158460226Y-102563937D01*
X158629744Y-102677205D01*
X158818102Y-102755226D01*
X158975001Y-102786435D01*
X158975000Y-103984556D01*
X158904463Y-104070506D01*
X158845498Y-104180820D01*
X158809188Y-104300518D01*
X158796928Y-104425000D01*
X158796928Y-105975000D01*
X158809188Y-106099482D01*
X158845498Y-106219180D01*
X158904463Y-106329494D01*
X158983815Y-106426185D01*
X159080506Y-106505537D01*
X159190820Y-106564502D01*
X159310518Y-106600812D01*
X159435000Y-106613072D01*
X160035000Y-106613072D01*
X160159482Y-106600812D01*
X160279180Y-106564502D01*
X160370000Y-106515957D01*
X160460820Y-106564502D01*
X160580518Y-106600812D01*
X160705000Y-106613072D01*
X161305000Y-106613072D01*
X161429482Y-106600812D01*
X161549180Y-106564502D01*
X161640000Y-106515957D01*
X161730820Y-106564502D01*
X161850518Y-106600812D01*
X161855001Y-106601253D01*
X161855001Y-106818617D01*
X161709114Y-106896595D01*
X161574538Y-107007038D01*
X161464095Y-107141614D01*
X161382028Y-107295150D01*
X161331492Y-107461746D01*
X161314428Y-107635000D01*
X161314428Y-109685000D01*
X161331492Y-109858254D01*
X161382028Y-110024850D01*
X161464095Y-110178386D01*
X161574538Y-110312962D01*
X161709114Y-110423405D01*
X161862650Y-110505472D01*
X162029246Y-110556008D01*
X162202500Y-110573072D01*
X163777500Y-110573072D01*
X163950754Y-110556008D01*
X164117350Y-110505472D01*
X164270886Y-110423405D01*
X164405462Y-110312962D01*
X164515905Y-110178386D01*
X164597972Y-110024850D01*
X164648508Y-109858254D01*
X164665572Y-109685000D01*
X164665572Y-109095000D01*
X169931370Y-109095000D01*
X169881614Y-109121595D01*
X169747038Y-109232038D01*
X169636595Y-109366614D01*
X169554528Y-109520150D01*
X169503992Y-109686746D01*
X169486928Y-109860000D01*
X169486928Y-111060000D01*
X169503992Y-111233254D01*
X169554528Y-111399850D01*
X169636595Y-111553386D01*
X169747038Y-111687962D01*
X169881614Y-111798405D01*
X170035150Y-111880472D01*
X170201746Y-111931008D01*
X170375000Y-111948072D01*
X171825000Y-111948072D01*
X171998254Y-111931008D01*
X172164850Y-111880472D01*
X172318386Y-111798405D01*
X172452962Y-111687962D01*
X172563405Y-111553386D01*
X172645472Y-111399850D01*
X172696008Y-111233254D01*
X172713072Y-111060000D01*
X172713072Y-109860000D01*
X172696008Y-109686746D01*
X172645472Y-109520150D01*
X172563405Y-109366614D01*
X172452962Y-109232038D01*
X172318386Y-109121595D01*
X172216663Y-109067223D01*
X172280134Y-109015134D01*
X172465706Y-108789014D01*
X172603599Y-108531034D01*
X172688513Y-108251111D01*
X172717185Y-107960000D01*
X172688513Y-107668889D01*
X172603599Y-107388966D01*
X172465706Y-107130986D01*
X172280134Y-106904866D01*
X172054014Y-106719294D01*
X172028278Y-106705538D01*
X172234429Y-106549049D01*
X172427496Y-106331193D01*
X172574352Y-106079858D01*
X172666476Y-105816890D01*
X172545155Y-105587000D01*
X171227000Y-105587000D01*
X171227000Y-105607000D01*
X170973000Y-105607000D01*
X170973000Y-105587000D01*
X169654845Y-105587000D01*
X169533524Y-105816890D01*
X169625648Y-106079858D01*
X169772504Y-106331193D01*
X169965571Y-106549049D01*
X170171722Y-106705538D01*
X170145986Y-106719294D01*
X170017183Y-106825000D01*
X164136942Y-106825000D01*
X164125000Y-106818617D01*
X164125000Y-106545356D01*
X164199494Y-106505537D01*
X164296185Y-106426185D01*
X164375537Y-106329494D01*
X164434502Y-106219180D01*
X164470812Y-106099482D01*
X164483072Y-105975000D01*
X164483072Y-105846066D01*
X164493284Y-105833623D01*
X164598676Y-105636447D01*
X164663577Y-105422499D01*
X164685491Y-105200000D01*
X164675949Y-105103110D01*
X169533524Y-105103110D01*
X169654845Y-105333000D01*
X170973000Y-105333000D01*
X170973000Y-104133835D01*
X171227000Y-104133835D01*
X171227000Y-105333000D01*
X172545155Y-105333000D01*
X172666476Y-105103110D01*
X172574352Y-104840142D01*
X172427496Y-104588807D01*
X172234429Y-104370951D01*
X172002570Y-104194947D01*
X171740830Y-104067558D01*
X171459267Y-103993680D01*
X171227000Y-104133835D01*
X170973000Y-104133835D01*
X170740733Y-103993680D01*
X170459170Y-104067558D01*
X170197430Y-104194947D01*
X169965571Y-104370951D01*
X169772504Y-104588807D01*
X169625648Y-104840142D01*
X169533524Y-105103110D01*
X164675949Y-105103110D01*
X164663577Y-104977501D01*
X164598676Y-104763553D01*
X164493284Y-104566377D01*
X164483072Y-104553934D01*
X164483072Y-104425000D01*
X164470812Y-104300518D01*
X164434502Y-104180820D01*
X164375537Y-104070506D01*
X164296185Y-103973815D01*
X164199494Y-103894463D01*
X164089180Y-103835498D01*
X163969482Y-103799188D01*
X163845000Y-103786928D01*
X163245000Y-103786928D01*
X163120518Y-103799188D01*
X163000820Y-103835498D01*
X162910000Y-103884043D01*
X162819180Y-103835498D01*
X162699482Y-103799188D01*
X162575000Y-103786928D01*
X161975000Y-103786928D01*
X161877952Y-103796486D01*
X161922205Y-103730256D01*
X162000226Y-103541898D01*
X162040000Y-103341939D01*
X162040000Y-103138061D01*
X162000226Y-102938102D01*
X161922205Y-102749744D01*
X161808937Y-102580226D01*
X161664774Y-102436063D01*
X161495256Y-102322795D01*
X161306898Y-102244774D01*
X161106939Y-102205000D01*
X160903061Y-102205000D01*
X160703102Y-102244774D01*
X160514744Y-102322795D01*
X160494845Y-102336091D01*
X160484003Y-102226014D01*
X160440546Y-102082753D01*
X160369974Y-101950724D01*
X160275001Y-101834999D01*
X160246002Y-101811200D01*
X160155000Y-101720198D01*
X160155000Y-101658061D01*
X160115226Y-101458102D01*
X160037205Y-101269744D01*
X159999338Y-101213072D01*
X160035000Y-101213072D01*
X160159482Y-101200812D01*
X160279180Y-101164502D01*
X160370000Y-101115957D01*
X160460820Y-101164502D01*
X160580518Y-101200812D01*
X160705000Y-101213072D01*
X161305000Y-101213072D01*
X161429482Y-101200812D01*
X161549180Y-101164502D01*
X161640000Y-101115957D01*
X161730820Y-101164502D01*
X161850518Y-101200812D01*
X161975000Y-101213072D01*
X162575000Y-101213072D01*
X162699482Y-101200812D01*
X162819180Y-101164502D01*
X162910000Y-101115957D01*
X163000820Y-101164502D01*
X163120518Y-101200812D01*
X163245000Y-101213072D01*
X163845000Y-101213072D01*
X163969482Y-101200812D01*
X164089180Y-101164502D01*
X164199494Y-101105537D01*
X164296185Y-101026185D01*
X164371018Y-100935000D01*
X169987495Y-100935000D01*
X170035150Y-100960472D01*
X170201746Y-101011008D01*
X170375000Y-101028072D01*
X171825000Y-101028072D01*
X171998254Y-101011008D01*
X172164850Y-100960472D01*
X172318386Y-100878405D01*
X172452962Y-100767962D01*
X172563405Y-100633386D01*
X172645472Y-100479850D01*
X172696008Y-100313254D01*
X172713072Y-100140000D01*
X172713072Y-98940000D01*
X172696008Y-98766746D01*
X172645472Y-98600150D01*
X172563405Y-98446614D01*
X172452962Y-98312038D01*
X172318386Y-98201595D01*
X172216663Y-98147223D01*
X172280134Y-98095134D01*
X172465706Y-97869014D01*
X172603599Y-97611034D01*
X172688513Y-97331111D01*
X172717185Y-97040000D01*
X172688513Y-96748889D01*
X172603599Y-96468966D01*
X172465706Y-96210986D01*
X172280134Y-95984866D01*
X172054014Y-95799294D01*
X172036626Y-95790000D01*
X172054014Y-95780706D01*
X172280134Y-95595134D01*
X172465706Y-95369014D01*
X172603599Y-95111034D01*
X172688513Y-94831111D01*
X172717185Y-94540000D01*
X172688513Y-94248889D01*
X172603599Y-93968966D01*
X172465706Y-93710986D01*
X172280134Y-93484866D01*
X172054014Y-93299294D01*
X172036626Y-93290000D01*
X172054014Y-93280706D01*
X172280134Y-93095134D01*
X172465706Y-92869014D01*
X172603599Y-92611034D01*
X172688513Y-92331111D01*
X172717185Y-92040000D01*
X172688513Y-91748889D01*
X172603599Y-91468966D01*
X172465706Y-91210986D01*
X172280134Y-90984866D01*
X172054014Y-90799294D01*
X172036626Y-90790000D01*
X172054014Y-90780706D01*
X172280134Y-90595134D01*
X172465706Y-90369014D01*
X172603599Y-90111034D01*
X172688513Y-89831111D01*
X172717185Y-89540000D01*
X172688513Y-89248889D01*
X172603599Y-88968966D01*
X172465706Y-88710986D01*
X172280134Y-88484866D01*
X172054014Y-88299294D01*
X171796034Y-88161401D01*
X171516111Y-88076487D01*
X171297950Y-88055000D01*
X170902050Y-88055000D01*
X170683889Y-88076487D01*
X170403966Y-88161401D01*
X170145986Y-88299294D01*
X169919866Y-88484866D01*
X169734294Y-88710986D01*
X169596401Y-88968966D01*
X169511487Y-89248889D01*
X169482815Y-89540000D01*
X169511487Y-89831111D01*
X169596401Y-90111034D01*
X169734294Y-90369014D01*
X169919866Y-90595134D01*
X170145986Y-90780706D01*
X170163374Y-90790000D01*
X170145986Y-90799294D01*
X169919866Y-90984866D01*
X169734294Y-91210986D01*
X169596401Y-91468966D01*
X169511487Y-91748889D01*
X169482815Y-92040000D01*
X169511487Y-92331111D01*
X169596401Y-92611034D01*
X169734294Y-92869014D01*
X169919866Y-93095134D01*
X170145986Y-93280706D01*
X170163374Y-93290000D01*
X170145986Y-93299294D01*
X169919866Y-93484866D01*
X169734294Y-93710986D01*
X169596401Y-93968966D01*
X169511487Y-94248889D01*
X169482815Y-94540000D01*
X169511487Y-94831111D01*
X169596401Y-95111034D01*
X169734294Y-95369014D01*
X169919866Y-95595134D01*
X170145986Y-95780706D01*
X170163374Y-95790000D01*
X170145986Y-95799294D01*
X169919866Y-95984866D01*
X169734294Y-96210986D01*
X169596401Y-96468966D01*
X169511487Y-96748889D01*
X169482815Y-97040000D01*
X169511487Y-97331111D01*
X169596401Y-97611034D01*
X169734294Y-97869014D01*
X169919866Y-98095134D01*
X169983337Y-98147223D01*
X169881614Y-98201595D01*
X169747038Y-98312038D01*
X169636595Y-98446614D01*
X169554528Y-98600150D01*
X169534856Y-98665000D01*
X164371018Y-98665000D01*
X164296185Y-98573815D01*
X164199494Y-98494463D01*
X164089180Y-98435498D01*
X163969482Y-98399188D01*
X163845000Y-98386928D01*
X163245000Y-98386928D01*
X163120518Y-98399188D01*
X163000820Y-98435498D01*
X162910000Y-98484043D01*
X162819180Y-98435498D01*
X162699482Y-98399188D01*
X162575000Y-98386928D01*
X161975000Y-98386928D01*
X161850518Y-98399188D01*
X161730820Y-98435498D01*
X161640000Y-98484043D01*
X161549180Y-98435498D01*
X161429482Y-98399188D01*
X161305000Y-98386928D01*
X160757840Y-98386928D01*
X160730226Y-98248102D01*
X160652205Y-98059744D01*
X160538937Y-97890226D01*
X160394774Y-97746063D01*
X160225256Y-97632795D01*
X160036898Y-97554774D01*
X159836939Y-97515000D01*
X159633061Y-97515000D01*
X159433102Y-97554774D01*
X159244744Y-97632795D01*
X159075226Y-97746063D01*
X158931063Y-97890226D01*
X158817795Y-98059744D01*
X158739774Y-98248102D01*
X158700000Y-98448061D01*
X158700000Y-98651939D01*
X158739774Y-98851898D01*
X158799723Y-98996626D01*
X158796928Y-99025000D01*
X158796928Y-99153934D01*
X158786716Y-99166377D01*
X158681324Y-99363553D01*
X158616423Y-99577501D01*
X158594509Y-99800000D01*
X158616423Y-100022499D01*
X158681324Y-100236447D01*
X158786716Y-100433623D01*
X158796928Y-100446066D01*
X158796928Y-100575000D01*
X158809188Y-100699482D01*
X158828374Y-100762731D01*
X158818102Y-100764774D01*
X158629744Y-100842795D01*
X158460226Y-100956063D01*
X158316063Y-101100226D01*
X158202795Y-101269744D01*
X158124774Y-101458102D01*
X158085000Y-101658061D01*
X139815625Y-101658061D01*
X139825812Y-101624482D01*
X139838072Y-101500000D01*
X139838072Y-98500000D01*
X139825812Y-98375518D01*
X139789502Y-98255820D01*
X139730537Y-98145506D01*
X139651185Y-98048815D01*
X139554494Y-97969463D01*
X139444180Y-97910498D01*
X139324482Y-97874188D01*
X139200000Y-97861928D01*
X136700000Y-97861928D01*
X136575518Y-97874188D01*
X136455820Y-97910498D01*
X136345506Y-97969463D01*
X136248815Y-98048815D01*
X136169463Y-98145506D01*
X136110498Y-98255820D01*
X136074188Y-98375518D01*
X136061928Y-98500000D01*
X128638072Y-98500000D01*
X128625812Y-98375518D01*
X128589502Y-98255820D01*
X128530537Y-98145506D01*
X128451185Y-98048815D01*
X128354494Y-97969463D01*
X128244180Y-97910498D01*
X128124482Y-97874188D01*
X128000000Y-97861928D01*
X125660000Y-97861928D01*
X125660000Y-94135413D01*
X128894192Y-94135413D01*
X128989956Y-94399814D01*
X129279571Y-94540704D01*
X129591108Y-94622384D01*
X129912595Y-94641718D01*
X130231675Y-94597961D01*
X130536088Y-94492795D01*
X130710044Y-94399814D01*
X130805808Y-94135413D01*
X129850000Y-93179605D01*
X128894192Y-94135413D01*
X125660000Y-94135413D01*
X125660000Y-93062595D01*
X128208282Y-93062595D01*
X128252039Y-93381675D01*
X128357205Y-93686088D01*
X128450186Y-93860044D01*
X128714587Y-93955808D01*
X129670395Y-93000000D01*
X130029605Y-93000000D01*
X130985413Y-93955808D01*
X131249814Y-93860044D01*
X131390704Y-93570429D01*
X131472384Y-93258892D01*
X131491718Y-92937405D01*
X131478219Y-92838967D01*
X133215000Y-92838967D01*
X133215000Y-93161033D01*
X133277832Y-93476912D01*
X133401082Y-93774463D01*
X133580013Y-94042252D01*
X133807748Y-94269987D01*
X134075537Y-94448918D01*
X134373088Y-94572168D01*
X134688967Y-94635000D01*
X135011033Y-94635000D01*
X135326912Y-94572168D01*
X135624463Y-94448918D01*
X135892252Y-94269987D01*
X135944178Y-94218061D01*
X143245000Y-94218061D01*
X143245000Y-94421939D01*
X143284774Y-94621898D01*
X143362795Y-94810256D01*
X143476063Y-94979774D01*
X143620226Y-95123937D01*
X143789744Y-95237205D01*
X143978102Y-95315226D01*
X144178061Y-95355000D01*
X144381939Y-95355000D01*
X144581898Y-95315226D01*
X144770256Y-95237205D01*
X144939774Y-95123937D01*
X145083937Y-94979774D01*
X145197205Y-94810256D01*
X145275226Y-94621898D01*
X145315000Y-94421939D01*
X145315000Y-94218061D01*
X145275226Y-94018102D01*
X145223432Y-93893061D01*
X151365000Y-93893061D01*
X151365000Y-94096939D01*
X151404774Y-94296898D01*
X151482795Y-94485256D01*
X151596063Y-94654774D01*
X151740226Y-94798937D01*
X151909744Y-94912205D01*
X152098102Y-94990226D01*
X152298061Y-95030000D01*
X152501939Y-95030000D01*
X152701898Y-94990226D01*
X152890256Y-94912205D01*
X153059774Y-94798937D01*
X153203937Y-94654774D01*
X153317205Y-94485256D01*
X153395226Y-94296898D01*
X153435000Y-94096939D01*
X153435000Y-93893061D01*
X153395226Y-93693102D01*
X153317205Y-93504744D01*
X153203937Y-93335226D01*
X153059774Y-93191063D01*
X152890256Y-93077795D01*
X152701898Y-92999774D01*
X152501939Y-92960000D01*
X152298061Y-92960000D01*
X152098102Y-92999774D01*
X151909744Y-93077795D01*
X151740226Y-93191063D01*
X151596063Y-93335226D01*
X151482795Y-93504744D01*
X151404774Y-93693102D01*
X151365000Y-93893061D01*
X145223432Y-93893061D01*
X145197205Y-93829744D01*
X145083937Y-93660226D01*
X144939774Y-93516063D01*
X144770256Y-93402795D01*
X144581898Y-93324774D01*
X144381939Y-93285000D01*
X144178061Y-93285000D01*
X143978102Y-93324774D01*
X143789744Y-93402795D01*
X143620226Y-93516063D01*
X143476063Y-93660226D01*
X143362795Y-93829744D01*
X143284774Y-94018102D01*
X143245000Y-94218061D01*
X135944178Y-94218061D01*
X136119987Y-94042252D01*
X136298918Y-93774463D01*
X136422168Y-93476912D01*
X136485000Y-93161033D01*
X136485000Y-92838967D01*
X136422168Y-92523088D01*
X136298918Y-92225537D01*
X136119987Y-91957748D01*
X135892252Y-91730013D01*
X135624463Y-91551082D01*
X135326912Y-91427832D01*
X135011033Y-91365000D01*
X134688967Y-91365000D01*
X134373088Y-91427832D01*
X134075537Y-91551082D01*
X133807748Y-91730013D01*
X133580013Y-91957748D01*
X133401082Y-92225537D01*
X133277832Y-92523088D01*
X133215000Y-92838967D01*
X131478219Y-92838967D01*
X131447961Y-92618325D01*
X131342795Y-92313912D01*
X131249814Y-92139956D01*
X130985413Y-92044192D01*
X130029605Y-93000000D01*
X129670395Y-93000000D01*
X128714587Y-92044192D01*
X128450186Y-92139956D01*
X128309296Y-92429571D01*
X128227616Y-92741108D01*
X128208282Y-93062595D01*
X125660000Y-93062595D01*
X125660000Y-91864587D01*
X128894192Y-91864587D01*
X129850000Y-92820395D01*
X130805808Y-91864587D01*
X130710044Y-91600186D01*
X130420429Y-91459296D01*
X130108892Y-91377616D01*
X129787405Y-91358282D01*
X129468325Y-91402039D01*
X129163912Y-91507205D01*
X128989956Y-91600186D01*
X128894192Y-91864587D01*
X125660000Y-91864587D01*
X125660000Y-87032279D01*
X125688625Y-86740341D01*
X125764035Y-86490571D01*
X125886522Y-86260208D01*
X126051422Y-86058020D01*
X126252450Y-85891714D01*
X126481954Y-85767622D01*
X126731195Y-85690469D01*
X127021088Y-85660000D01*
X127793133Y-85660000D01*
X127783368Y-85666525D01*
G37*
G04 #@! TD.AperFunction*
M02*
