G04 #@! TF.GenerationSoftware,KiCad,Pcbnew,5.1.10-88a1d61d58~90~ubuntu20.04.1*
G04 #@! TF.CreationDate,2021-08-05T14:32:23+02:00*
G04 #@! TF.ProjectId,arlene,61726c65-6e65-42e6-9b69-6361645f7063,v1.00*
G04 #@! TF.SameCoordinates,Original*
G04 #@! TF.FileFunction,Soldermask,Bot*
G04 #@! TF.FilePolarity,Negative*
%FSLAX46Y46*%
G04 Gerber Fmt 4.6, Leading zero omitted, Abs format (unit mm)*
G04 Created by KiCad (PCBNEW 5.1.10-88a1d61d58~90~ubuntu20.04.1) date 2021-08-05 14:32:23*
%MOMM*%
%LPD*%
G01*
G04 APERTURE LIST*
%ADD10O,1.800000X1.070000*%
%ADD11R,1.800000X1.070000*%
%ADD12R,0.600000X1.550000*%
%ADD13O,1.950000X1.700000*%
%ADD14C,2.000000*%
%ADD15R,2.500000X3.000000*%
%ADD16R,2.000000X2.000000*%
%ADD17R,1.700000X1.700000*%
%ADD18O,1.700000X1.700000*%
G04 APERTURE END LIST*
G36*
G01*
X144580000Y-88640000D02*
X144580000Y-88240000D01*
G75*
G02*
X144780000Y-88040000I200000J0D01*
G01*
X145180000Y-88040000D01*
G75*
G02*
X145380000Y-88240000I0J-200000D01*
G01*
X145380000Y-88640000D01*
G75*
G02*
X145180000Y-88840000I-200000J0D01*
G01*
X144780000Y-88840000D01*
G75*
G02*
X144580000Y-88640000I0J200000D01*
G01*
G37*
G36*
G01*
X145580000Y-88640000D02*
X145580000Y-88240000D01*
G75*
G02*
X145780000Y-88040000I200000J0D01*
G01*
X146180000Y-88040000D01*
G75*
G02*
X146380000Y-88240000I0J-200000D01*
G01*
X146380000Y-88640000D01*
G75*
G02*
X146180000Y-88840000I-200000J0D01*
G01*
X145780000Y-88840000D01*
G75*
G02*
X145580000Y-88640000I0J200000D01*
G01*
G37*
G36*
G01*
X146580000Y-88640000D02*
X146580000Y-88240000D01*
G75*
G02*
X146780000Y-88040000I200000J0D01*
G01*
X147180000Y-88040000D01*
G75*
G02*
X147380000Y-88240000I0J-200000D01*
G01*
X147380000Y-88640000D01*
G75*
G02*
X147180000Y-88840000I-200000J0D01*
G01*
X146780000Y-88840000D01*
G75*
G02*
X146580000Y-88640000I0J200000D01*
G01*
G37*
G36*
G01*
X147580000Y-88640000D02*
X147580000Y-88240000D01*
G75*
G02*
X147780000Y-88040000I200000J0D01*
G01*
X148180000Y-88040000D01*
G75*
G02*
X148380000Y-88240000I0J-200000D01*
G01*
X148380000Y-88640000D01*
G75*
G02*
X148180000Y-88840000I-200000J0D01*
G01*
X147780000Y-88840000D01*
G75*
G02*
X147580000Y-88640000I0J200000D01*
G01*
G37*
G36*
G01*
X143580000Y-88640000D02*
X143580000Y-88240000D01*
G75*
G02*
X143780000Y-88040000I200000J0D01*
G01*
X144180000Y-88040000D01*
G75*
G02*
X144380000Y-88240000I0J-200000D01*
G01*
X144380000Y-88640000D01*
G75*
G02*
X144180000Y-88840000I-200000J0D01*
G01*
X143780000Y-88840000D01*
G75*
G02*
X143580000Y-88640000I0J200000D01*
G01*
G37*
G36*
G01*
X141580000Y-88640000D02*
X141580000Y-88240000D01*
G75*
G02*
X141780000Y-88040000I200000J0D01*
G01*
X142180000Y-88040000D01*
G75*
G02*
X142380000Y-88240000I0J-200000D01*
G01*
X142380000Y-88640000D01*
G75*
G02*
X142180000Y-88840000I-200000J0D01*
G01*
X141780000Y-88840000D01*
G75*
G02*
X141580000Y-88640000I0J200000D01*
G01*
G37*
G36*
G01*
X140580000Y-88640000D02*
X140580000Y-88240000D01*
G75*
G02*
X140780000Y-88040000I200000J0D01*
G01*
X141180000Y-88040000D01*
G75*
G02*
X141380000Y-88240000I0J-200000D01*
G01*
X141380000Y-88640000D01*
G75*
G02*
X141180000Y-88840000I-200000J0D01*
G01*
X140780000Y-88840000D01*
G75*
G02*
X140580000Y-88640000I0J200000D01*
G01*
G37*
G36*
G01*
X140580000Y-87240000D02*
X140580000Y-86840000D01*
G75*
G02*
X140780000Y-86640000I200000J0D01*
G01*
X141180000Y-86640000D01*
G75*
G02*
X141380000Y-86840000I0J-200000D01*
G01*
X141380000Y-87240000D01*
G75*
G02*
X141180000Y-87440000I-200000J0D01*
G01*
X140780000Y-87440000D01*
G75*
G02*
X140580000Y-87240000I0J200000D01*
G01*
G37*
G36*
G01*
X141580000Y-87240000D02*
X141580000Y-86840000D01*
G75*
G02*
X141780000Y-86640000I200000J0D01*
G01*
X142180000Y-86640000D01*
G75*
G02*
X142380000Y-86840000I0J-200000D01*
G01*
X142380000Y-87240000D01*
G75*
G02*
X142180000Y-87440000I-200000J0D01*
G01*
X141780000Y-87440000D01*
G75*
G02*
X141580000Y-87240000I0J200000D01*
G01*
G37*
G36*
G01*
X142580000Y-87240000D02*
X142580000Y-86840000D01*
G75*
G02*
X142780000Y-86640000I200000J0D01*
G01*
X143180000Y-86640000D01*
G75*
G02*
X143380000Y-86840000I0J-200000D01*
G01*
X143380000Y-87240000D01*
G75*
G02*
X143180000Y-87440000I-200000J0D01*
G01*
X142780000Y-87440000D01*
G75*
G02*
X142580000Y-87240000I0J200000D01*
G01*
G37*
G36*
G01*
X143580000Y-87240000D02*
X143580000Y-86840000D01*
G75*
G02*
X143780000Y-86640000I200000J0D01*
G01*
X144180000Y-86640000D01*
G75*
G02*
X144380000Y-86840000I0J-200000D01*
G01*
X144380000Y-87240000D01*
G75*
G02*
X144180000Y-87440000I-200000J0D01*
G01*
X143780000Y-87440000D01*
G75*
G02*
X143580000Y-87240000I0J200000D01*
G01*
G37*
G36*
G01*
X144580000Y-87240000D02*
X144580000Y-86840000D01*
G75*
G02*
X144780000Y-86640000I200000J0D01*
G01*
X145180000Y-86640000D01*
G75*
G02*
X145380000Y-86840000I0J-200000D01*
G01*
X145380000Y-87240000D01*
G75*
G02*
X145180000Y-87440000I-200000J0D01*
G01*
X144780000Y-87440000D01*
G75*
G02*
X144580000Y-87240000I0J200000D01*
G01*
G37*
G36*
G01*
X146580000Y-87240000D02*
X146580000Y-86840000D01*
G75*
G02*
X146780000Y-86640000I200000J0D01*
G01*
X147180000Y-86640000D01*
G75*
G02*
X147380000Y-86840000I0J-200000D01*
G01*
X147380000Y-87240000D01*
G75*
G02*
X147180000Y-87440000I-200000J0D01*
G01*
X146780000Y-87440000D01*
G75*
G02*
X146580000Y-87240000I0J200000D01*
G01*
G37*
G36*
G01*
X147580000Y-87240000D02*
X147580000Y-86840000D01*
G75*
G02*
X147780000Y-86640000I200000J0D01*
G01*
X148180000Y-86640000D01*
G75*
G02*
X148380000Y-86840000I0J-200000D01*
G01*
X148380000Y-87240000D01*
G75*
G02*
X148180000Y-87440000I-200000J0D01*
G01*
X147780000Y-87440000D01*
G75*
G02*
X147580000Y-87240000I0J200000D01*
G01*
G37*
G36*
G01*
X141430000Y-86010000D02*
X141430000Y-85610000D01*
G75*
G02*
X141630000Y-85410000I200000J0D01*
G01*
X143330000Y-85410000D01*
G75*
G02*
X143530000Y-85610000I0J-200000D01*
G01*
X143530000Y-86010000D01*
G75*
G02*
X143330000Y-86210000I-200000J0D01*
G01*
X141630000Y-86210000D01*
G75*
G02*
X141430000Y-86010000I0J200000D01*
G01*
G37*
G36*
G01*
X145430000Y-86010000D02*
X145430000Y-85610000D01*
G75*
G02*
X145630000Y-85410000I200000J0D01*
G01*
X147330000Y-85410000D01*
G75*
G02*
X147530000Y-85610000I0J-200000D01*
G01*
X147530000Y-86010000D01*
G75*
G02*
X147330000Y-86210000I-200000J0D01*
G01*
X145630000Y-86210000D01*
G75*
G02*
X145430000Y-86010000I0J200000D01*
G01*
G37*
G36*
G01*
X145430000Y-89870000D02*
X145430000Y-89470000D01*
G75*
G02*
X145630000Y-89270000I200000J0D01*
G01*
X147330000Y-89270000D01*
G75*
G02*
X147530000Y-89470000I0J-200000D01*
G01*
X147530000Y-89870000D01*
G75*
G02*
X147330000Y-90070000I-200000J0D01*
G01*
X145630000Y-90070000D01*
G75*
G02*
X145430000Y-89870000I0J200000D01*
G01*
G37*
G36*
G01*
X141430000Y-89870000D02*
X141430000Y-89470000D01*
G75*
G02*
X141630000Y-89270000I200000J0D01*
G01*
X143330000Y-89270000D01*
G75*
G02*
X143530000Y-89470000I0J-200000D01*
G01*
X143530000Y-89870000D01*
G75*
G02*
X143330000Y-90070000I-200000J0D01*
G01*
X141630000Y-90070000D01*
G75*
G02*
X141430000Y-89870000I0J200000D01*
G01*
G37*
G36*
G01*
X145580000Y-87240000D02*
X145580000Y-86840000D01*
G75*
G02*
X145780000Y-86640000I200000J0D01*
G01*
X146180000Y-86640000D01*
G75*
G02*
X146380000Y-86840000I0J-200000D01*
G01*
X146380000Y-87240000D01*
G75*
G02*
X146180000Y-87440000I-200000J0D01*
G01*
X145780000Y-87440000D01*
G75*
G02*
X145580000Y-87240000I0J200000D01*
G01*
G37*
G36*
G01*
X142580000Y-88640000D02*
X142580000Y-88240000D01*
G75*
G02*
X142780000Y-88040000I200000J0D01*
G01*
X143180000Y-88040000D01*
G75*
G02*
X143380000Y-88240000I0J-200000D01*
G01*
X143380000Y-88640000D01*
G75*
G02*
X143180000Y-88840000I-200000J0D01*
G01*
X142780000Y-88840000D01*
G75*
G02*
X142580000Y-88640000I0J200000D01*
G01*
G37*
D10*
X132480000Y-113560000D03*
X132480000Y-112290000D03*
X132480000Y-111020000D03*
D11*
X132480000Y-109750000D03*
D12*
X163545000Y-105200000D03*
X162275000Y-105200000D03*
X161005000Y-105200000D03*
X159735000Y-105200000D03*
X159735000Y-99800000D03*
X161005000Y-99800000D03*
X162275000Y-99800000D03*
X163545000Y-99800000D03*
G36*
G01*
X171825000Y-111310000D02*
X170375000Y-111310000D01*
G75*
G02*
X170125000Y-111060000I0J250000D01*
G01*
X170125000Y-109860000D01*
G75*
G02*
X170375000Y-109610000I250000J0D01*
G01*
X171825000Y-109610000D01*
G75*
G02*
X172075000Y-109860000I0J-250000D01*
G01*
X172075000Y-111060000D01*
G75*
G02*
X171825000Y-111310000I-250000J0D01*
G01*
G37*
D13*
X171100000Y-107960000D03*
X171100000Y-105460000D03*
G36*
G01*
X171825000Y-100390000D02*
X170375000Y-100390000D01*
G75*
G02*
X170125000Y-100140000I0J250000D01*
G01*
X170125000Y-98940000D01*
G75*
G02*
X170375000Y-98690000I250000J0D01*
G01*
X171825000Y-98690000D01*
G75*
G02*
X172075000Y-98940000I0J-250000D01*
G01*
X172075000Y-100140000D01*
G75*
G02*
X171825000Y-100390000I-250000J0D01*
G01*
G37*
X171100000Y-97040000D03*
X171100000Y-94540000D03*
X171100000Y-92040000D03*
X171100000Y-89540000D03*
D14*
X129850000Y-93000000D03*
X134850000Y-93000000D03*
D15*
X126750000Y-100000000D03*
X137950000Y-100000000D03*
D14*
X129850000Y-107500000D03*
X132350000Y-107500000D03*
D16*
X134850000Y-107500000D03*
X139130000Y-108750000D03*
D14*
X146730000Y-108750000D03*
D17*
X166420000Y-86800000D03*
D18*
X163880000Y-86800000D03*
X161340000Y-86800000D03*
X158790000Y-86800000D03*
X156260000Y-86800000D03*
X153720000Y-86800000D03*
X151180000Y-86800000D03*
D17*
X136350000Y-86820000D03*
D18*
X136350000Y-89360000D03*
X133810000Y-86820000D03*
X133810000Y-89360000D03*
X131270000Y-86820000D03*
X131270000Y-89360000D03*
X128730000Y-86820000D03*
X128730000Y-89360000D03*
G36*
G01*
X164027500Y-107635000D02*
X164027500Y-109685000D01*
G75*
G02*
X163777500Y-109935000I-250000J0D01*
G01*
X162202500Y-109935000D01*
G75*
G02*
X161952500Y-109685000I0J250000D01*
G01*
X161952500Y-107635000D01*
G75*
G02*
X162202500Y-107385000I250000J0D01*
G01*
X163777500Y-107385000D01*
G75*
G02*
X164027500Y-107635000I0J-250000D01*
G01*
G37*
G36*
G01*
X157802500Y-107635000D02*
X157802500Y-109685000D01*
G75*
G02*
X157552500Y-109935000I-250000J0D01*
G01*
X155977500Y-109935000D01*
G75*
G02*
X155727500Y-109685000I0J250000D01*
G01*
X155727500Y-107635000D01*
G75*
G02*
X155977500Y-107385000I250000J0D01*
G01*
X157552500Y-107385000D01*
G75*
G02*
X157802500Y-107635000I0J-250000D01*
G01*
G37*
M02*
