G04 #@! TF.GenerationSoftware,KiCad,Pcbnew,5.1.10-88a1d61d58~90~ubuntu20.04.1*
G04 #@! TF.CreationDate,2021-08-06T19:03:49+02:00*
G04 #@! TF.ProjectId,arlene,61726c65-6e65-42e6-9b69-6361645f7063,v1.00*
G04 #@! TF.SameCoordinates,Original*
G04 #@! TF.FileFunction,Soldermask,Top*
G04 #@! TF.FilePolarity,Negative*
%FSLAX46Y46*%
G04 Gerber Fmt 4.6, Leading zero omitted, Abs format (unit mm)*
G04 Created by KiCad (PCBNEW 5.1.10-88a1d61d58~90~ubuntu20.04.1) date 2021-08-06 19:03:49*
%MOMM*%
%LPD*%
G01*
G04 APERTURE LIST*
%ADD10O,1.800000X1.070000*%
%ADD11R,1.800000X1.070000*%
%ADD12O,1.950000X1.700000*%
%ADD13C,2.000000*%
%ADD14R,2.500000X3.000000*%
%ADD15R,2.000000X2.000000*%
%ADD16R,0.600000X0.450000*%
%ADD17R,0.650000X1.060000*%
%ADD18R,0.800000X0.900000*%
%ADD19R,1.700000X1.700000*%
%ADD20O,1.700000X1.700000*%
%ADD21R,1.600000X1.000000*%
%ADD22R,0.900000X0.800000*%
G04 APERTURE END LIST*
G36*
G01*
X144580000Y-88640000D02*
X144580000Y-88240000D01*
G75*
G02*
X144780000Y-88040000I200000J0D01*
G01*
X145180000Y-88040000D01*
G75*
G02*
X145380000Y-88240000I0J-200000D01*
G01*
X145380000Y-88640000D01*
G75*
G02*
X145180000Y-88840000I-200000J0D01*
G01*
X144780000Y-88840000D01*
G75*
G02*
X144580000Y-88640000I0J200000D01*
G01*
G37*
G36*
G01*
X145580000Y-88640000D02*
X145580000Y-88240000D01*
G75*
G02*
X145780000Y-88040000I200000J0D01*
G01*
X146180000Y-88040000D01*
G75*
G02*
X146380000Y-88240000I0J-200000D01*
G01*
X146380000Y-88640000D01*
G75*
G02*
X146180000Y-88840000I-200000J0D01*
G01*
X145780000Y-88840000D01*
G75*
G02*
X145580000Y-88640000I0J200000D01*
G01*
G37*
G36*
G01*
X146580000Y-88640000D02*
X146580000Y-88240000D01*
G75*
G02*
X146780000Y-88040000I200000J0D01*
G01*
X147180000Y-88040000D01*
G75*
G02*
X147380000Y-88240000I0J-200000D01*
G01*
X147380000Y-88640000D01*
G75*
G02*
X147180000Y-88840000I-200000J0D01*
G01*
X146780000Y-88840000D01*
G75*
G02*
X146580000Y-88640000I0J200000D01*
G01*
G37*
G36*
G01*
X147580000Y-88640000D02*
X147580000Y-88240000D01*
G75*
G02*
X147780000Y-88040000I200000J0D01*
G01*
X148180000Y-88040000D01*
G75*
G02*
X148380000Y-88240000I0J-200000D01*
G01*
X148380000Y-88640000D01*
G75*
G02*
X148180000Y-88840000I-200000J0D01*
G01*
X147780000Y-88840000D01*
G75*
G02*
X147580000Y-88640000I0J200000D01*
G01*
G37*
G36*
G01*
X143580000Y-88640000D02*
X143580000Y-88240000D01*
G75*
G02*
X143780000Y-88040000I200000J0D01*
G01*
X144180000Y-88040000D01*
G75*
G02*
X144380000Y-88240000I0J-200000D01*
G01*
X144380000Y-88640000D01*
G75*
G02*
X144180000Y-88840000I-200000J0D01*
G01*
X143780000Y-88840000D01*
G75*
G02*
X143580000Y-88640000I0J200000D01*
G01*
G37*
G36*
G01*
X141580000Y-88640000D02*
X141580000Y-88240000D01*
G75*
G02*
X141780000Y-88040000I200000J0D01*
G01*
X142180000Y-88040000D01*
G75*
G02*
X142380000Y-88240000I0J-200000D01*
G01*
X142380000Y-88640000D01*
G75*
G02*
X142180000Y-88840000I-200000J0D01*
G01*
X141780000Y-88840000D01*
G75*
G02*
X141580000Y-88640000I0J200000D01*
G01*
G37*
G36*
G01*
X140580000Y-88640000D02*
X140580000Y-88240000D01*
G75*
G02*
X140780000Y-88040000I200000J0D01*
G01*
X141180000Y-88040000D01*
G75*
G02*
X141380000Y-88240000I0J-200000D01*
G01*
X141380000Y-88640000D01*
G75*
G02*
X141180000Y-88840000I-200000J0D01*
G01*
X140780000Y-88840000D01*
G75*
G02*
X140580000Y-88640000I0J200000D01*
G01*
G37*
G36*
G01*
X140580000Y-87240000D02*
X140580000Y-86840000D01*
G75*
G02*
X140780000Y-86640000I200000J0D01*
G01*
X141180000Y-86640000D01*
G75*
G02*
X141380000Y-86840000I0J-200000D01*
G01*
X141380000Y-87240000D01*
G75*
G02*
X141180000Y-87440000I-200000J0D01*
G01*
X140780000Y-87440000D01*
G75*
G02*
X140580000Y-87240000I0J200000D01*
G01*
G37*
G36*
G01*
X141580000Y-87240000D02*
X141580000Y-86840000D01*
G75*
G02*
X141780000Y-86640000I200000J0D01*
G01*
X142180000Y-86640000D01*
G75*
G02*
X142380000Y-86840000I0J-200000D01*
G01*
X142380000Y-87240000D01*
G75*
G02*
X142180000Y-87440000I-200000J0D01*
G01*
X141780000Y-87440000D01*
G75*
G02*
X141580000Y-87240000I0J200000D01*
G01*
G37*
G36*
G01*
X142580000Y-87240000D02*
X142580000Y-86840000D01*
G75*
G02*
X142780000Y-86640000I200000J0D01*
G01*
X143180000Y-86640000D01*
G75*
G02*
X143380000Y-86840000I0J-200000D01*
G01*
X143380000Y-87240000D01*
G75*
G02*
X143180000Y-87440000I-200000J0D01*
G01*
X142780000Y-87440000D01*
G75*
G02*
X142580000Y-87240000I0J200000D01*
G01*
G37*
G36*
G01*
X143580000Y-87240000D02*
X143580000Y-86840000D01*
G75*
G02*
X143780000Y-86640000I200000J0D01*
G01*
X144180000Y-86640000D01*
G75*
G02*
X144380000Y-86840000I0J-200000D01*
G01*
X144380000Y-87240000D01*
G75*
G02*
X144180000Y-87440000I-200000J0D01*
G01*
X143780000Y-87440000D01*
G75*
G02*
X143580000Y-87240000I0J200000D01*
G01*
G37*
G36*
G01*
X144580000Y-87240000D02*
X144580000Y-86840000D01*
G75*
G02*
X144780000Y-86640000I200000J0D01*
G01*
X145180000Y-86640000D01*
G75*
G02*
X145380000Y-86840000I0J-200000D01*
G01*
X145380000Y-87240000D01*
G75*
G02*
X145180000Y-87440000I-200000J0D01*
G01*
X144780000Y-87440000D01*
G75*
G02*
X144580000Y-87240000I0J200000D01*
G01*
G37*
G36*
G01*
X146580000Y-87240000D02*
X146580000Y-86840000D01*
G75*
G02*
X146780000Y-86640000I200000J0D01*
G01*
X147180000Y-86640000D01*
G75*
G02*
X147380000Y-86840000I0J-200000D01*
G01*
X147380000Y-87240000D01*
G75*
G02*
X147180000Y-87440000I-200000J0D01*
G01*
X146780000Y-87440000D01*
G75*
G02*
X146580000Y-87240000I0J200000D01*
G01*
G37*
G36*
G01*
X147580000Y-87240000D02*
X147580000Y-86840000D01*
G75*
G02*
X147780000Y-86640000I200000J0D01*
G01*
X148180000Y-86640000D01*
G75*
G02*
X148380000Y-86840000I0J-200000D01*
G01*
X148380000Y-87240000D01*
G75*
G02*
X148180000Y-87440000I-200000J0D01*
G01*
X147780000Y-87440000D01*
G75*
G02*
X147580000Y-87240000I0J200000D01*
G01*
G37*
G36*
G01*
X141430000Y-86010000D02*
X141430000Y-85610000D01*
G75*
G02*
X141630000Y-85410000I200000J0D01*
G01*
X143330000Y-85410000D01*
G75*
G02*
X143530000Y-85610000I0J-200000D01*
G01*
X143530000Y-86010000D01*
G75*
G02*
X143330000Y-86210000I-200000J0D01*
G01*
X141630000Y-86210000D01*
G75*
G02*
X141430000Y-86010000I0J200000D01*
G01*
G37*
G36*
G01*
X145430000Y-86010000D02*
X145430000Y-85610000D01*
G75*
G02*
X145630000Y-85410000I200000J0D01*
G01*
X147330000Y-85410000D01*
G75*
G02*
X147530000Y-85610000I0J-200000D01*
G01*
X147530000Y-86010000D01*
G75*
G02*
X147330000Y-86210000I-200000J0D01*
G01*
X145630000Y-86210000D01*
G75*
G02*
X145430000Y-86010000I0J200000D01*
G01*
G37*
G36*
G01*
X145430000Y-89870000D02*
X145430000Y-89470000D01*
G75*
G02*
X145630000Y-89270000I200000J0D01*
G01*
X147330000Y-89270000D01*
G75*
G02*
X147530000Y-89470000I0J-200000D01*
G01*
X147530000Y-89870000D01*
G75*
G02*
X147330000Y-90070000I-200000J0D01*
G01*
X145630000Y-90070000D01*
G75*
G02*
X145430000Y-89870000I0J200000D01*
G01*
G37*
G36*
G01*
X141430000Y-89870000D02*
X141430000Y-89470000D01*
G75*
G02*
X141630000Y-89270000I200000J0D01*
G01*
X143330000Y-89270000D01*
G75*
G02*
X143530000Y-89470000I0J-200000D01*
G01*
X143530000Y-89870000D01*
G75*
G02*
X143330000Y-90070000I-200000J0D01*
G01*
X141630000Y-90070000D01*
G75*
G02*
X141430000Y-89870000I0J200000D01*
G01*
G37*
G36*
G01*
X145580000Y-87240000D02*
X145580000Y-86840000D01*
G75*
G02*
X145780000Y-86640000I200000J0D01*
G01*
X146180000Y-86640000D01*
G75*
G02*
X146380000Y-86840000I0J-200000D01*
G01*
X146380000Y-87240000D01*
G75*
G02*
X146180000Y-87440000I-200000J0D01*
G01*
X145780000Y-87440000D01*
G75*
G02*
X145580000Y-87240000I0J200000D01*
G01*
G37*
G36*
G01*
X142580000Y-88640000D02*
X142580000Y-88240000D01*
G75*
G02*
X142780000Y-88040000I200000J0D01*
G01*
X143180000Y-88040000D01*
G75*
G02*
X143380000Y-88240000I0J-200000D01*
G01*
X143380000Y-88640000D01*
G75*
G02*
X143180000Y-88840000I-200000J0D01*
G01*
X142780000Y-88840000D01*
G75*
G02*
X142580000Y-88640000I0J200000D01*
G01*
G37*
D10*
X132480000Y-113560000D03*
X132480000Y-112290000D03*
X132480000Y-111020000D03*
D11*
X132480000Y-109750000D03*
G36*
G01*
X167715000Y-106075000D02*
X164865000Y-106075000D01*
G75*
G02*
X164615000Y-105825000I0J250000D01*
G01*
X164615000Y-105100000D01*
G75*
G02*
X164865000Y-104850000I250000J0D01*
G01*
X167715000Y-104850000D01*
G75*
G02*
X167965000Y-105100000I0J-250000D01*
G01*
X167965000Y-105825000D01*
G75*
G02*
X167715000Y-106075000I-250000J0D01*
G01*
G37*
G36*
G01*
X167715000Y-100150000D02*
X164865000Y-100150000D01*
G75*
G02*
X164615000Y-99900000I0J250000D01*
G01*
X164615000Y-99175000D01*
G75*
G02*
X164865000Y-98925000I250000J0D01*
G01*
X167715000Y-98925000D01*
G75*
G02*
X167965000Y-99175000I0J-250000D01*
G01*
X167965000Y-99900000D01*
G75*
G02*
X167715000Y-100150000I-250000J0D01*
G01*
G37*
G36*
G01*
X166605000Y-92305000D02*
X167155000Y-92305000D01*
G75*
G02*
X167355000Y-92505000I0J-200000D01*
G01*
X167355000Y-92905000D01*
G75*
G02*
X167155000Y-93105000I-200000J0D01*
G01*
X166605000Y-93105000D01*
G75*
G02*
X166405000Y-92905000I0J200000D01*
G01*
X166405000Y-92505000D01*
G75*
G02*
X166605000Y-92305000I200000J0D01*
G01*
G37*
G36*
G01*
X166605000Y-93955000D02*
X167155000Y-93955000D01*
G75*
G02*
X167355000Y-94155000I0J-200000D01*
G01*
X167355000Y-94555000D01*
G75*
G02*
X167155000Y-94755000I-200000J0D01*
G01*
X166605000Y-94755000D01*
G75*
G02*
X166405000Y-94555000I0J200000D01*
G01*
X166405000Y-94155000D01*
G75*
G02*
X166605000Y-93955000I200000J0D01*
G01*
G37*
G36*
G01*
X165105000Y-93955000D02*
X165655000Y-93955000D01*
G75*
G02*
X165855000Y-94155000I0J-200000D01*
G01*
X165855000Y-94555000D01*
G75*
G02*
X165655000Y-94755000I-200000J0D01*
G01*
X165105000Y-94755000D01*
G75*
G02*
X164905000Y-94555000I0J200000D01*
G01*
X164905000Y-94155000D01*
G75*
G02*
X165105000Y-93955000I200000J0D01*
G01*
G37*
G36*
G01*
X165105000Y-92305000D02*
X165655000Y-92305000D01*
G75*
G02*
X165855000Y-92505000I0J-200000D01*
G01*
X165855000Y-92905000D01*
G75*
G02*
X165655000Y-93105000I-200000J0D01*
G01*
X165105000Y-93105000D01*
G75*
G02*
X164905000Y-92905000I0J200000D01*
G01*
X164905000Y-92505000D01*
G75*
G02*
X165105000Y-92305000I200000J0D01*
G01*
G37*
G36*
G01*
X165705000Y-91015000D02*
X165705000Y-91565000D01*
G75*
G02*
X165505000Y-91765000I-200000J0D01*
G01*
X165105000Y-91765000D01*
G75*
G02*
X164905000Y-91565000I0J200000D01*
G01*
X164905000Y-91015000D01*
G75*
G02*
X165105000Y-90815000I200000J0D01*
G01*
X165505000Y-90815000D01*
G75*
G02*
X165705000Y-91015000I0J-200000D01*
G01*
G37*
G36*
G01*
X167355000Y-91015000D02*
X167355000Y-91565000D01*
G75*
G02*
X167155000Y-91765000I-200000J0D01*
G01*
X166755000Y-91765000D01*
G75*
G02*
X166555000Y-91565000I0J200000D01*
G01*
X166555000Y-91015000D01*
G75*
G02*
X166755000Y-90815000I200000J0D01*
G01*
X167155000Y-90815000D01*
G75*
G02*
X167355000Y-91015000I0J-200000D01*
G01*
G37*
G36*
G01*
X157460000Y-91775000D02*
X157460000Y-91475000D01*
G75*
G02*
X157610000Y-91325000I150000J0D01*
G01*
X159260000Y-91325000D01*
G75*
G02*
X159410000Y-91475000I0J-150000D01*
G01*
X159410000Y-91775000D01*
G75*
G02*
X159260000Y-91925000I-150000J0D01*
G01*
X157610000Y-91925000D01*
G75*
G02*
X157460000Y-91775000I0J150000D01*
G01*
G37*
G36*
G01*
X157460000Y-93045000D02*
X157460000Y-92745000D01*
G75*
G02*
X157610000Y-92595000I150000J0D01*
G01*
X159260000Y-92595000D01*
G75*
G02*
X159410000Y-92745000I0J-150000D01*
G01*
X159410000Y-93045000D01*
G75*
G02*
X159260000Y-93195000I-150000J0D01*
G01*
X157610000Y-93195000D01*
G75*
G02*
X157460000Y-93045000I0J150000D01*
G01*
G37*
G36*
G01*
X157460000Y-94315000D02*
X157460000Y-94015000D01*
G75*
G02*
X157610000Y-93865000I150000J0D01*
G01*
X159260000Y-93865000D01*
G75*
G02*
X159410000Y-94015000I0J-150000D01*
G01*
X159410000Y-94315000D01*
G75*
G02*
X159260000Y-94465000I-150000J0D01*
G01*
X157610000Y-94465000D01*
G75*
G02*
X157460000Y-94315000I0J150000D01*
G01*
G37*
G36*
G01*
X157460000Y-95585000D02*
X157460000Y-95285000D01*
G75*
G02*
X157610000Y-95135000I150000J0D01*
G01*
X159260000Y-95135000D01*
G75*
G02*
X159410000Y-95285000I0J-150000D01*
G01*
X159410000Y-95585000D01*
G75*
G02*
X159260000Y-95735000I-150000J0D01*
G01*
X157610000Y-95735000D01*
G75*
G02*
X157460000Y-95585000I0J150000D01*
G01*
G37*
G36*
G01*
X162410000Y-95585000D02*
X162410000Y-95285000D01*
G75*
G02*
X162560000Y-95135000I150000J0D01*
G01*
X164210000Y-95135000D01*
G75*
G02*
X164360000Y-95285000I0J-150000D01*
G01*
X164360000Y-95585000D01*
G75*
G02*
X164210000Y-95735000I-150000J0D01*
G01*
X162560000Y-95735000D01*
G75*
G02*
X162410000Y-95585000I0J150000D01*
G01*
G37*
G36*
G01*
X162410000Y-94315000D02*
X162410000Y-94015000D01*
G75*
G02*
X162560000Y-93865000I150000J0D01*
G01*
X164210000Y-93865000D01*
G75*
G02*
X164360000Y-94015000I0J-150000D01*
G01*
X164360000Y-94315000D01*
G75*
G02*
X164210000Y-94465000I-150000J0D01*
G01*
X162560000Y-94465000D01*
G75*
G02*
X162410000Y-94315000I0J150000D01*
G01*
G37*
G36*
G01*
X162410000Y-93045000D02*
X162410000Y-92745000D01*
G75*
G02*
X162560000Y-92595000I150000J0D01*
G01*
X164210000Y-92595000D01*
G75*
G02*
X164360000Y-92745000I0J-150000D01*
G01*
X164360000Y-93045000D01*
G75*
G02*
X164210000Y-93195000I-150000J0D01*
G01*
X162560000Y-93195000D01*
G75*
G02*
X162410000Y-93045000I0J150000D01*
G01*
G37*
G36*
G01*
X162410000Y-91775000D02*
X162410000Y-91475000D01*
G75*
G02*
X162560000Y-91325000I150000J0D01*
G01*
X164210000Y-91325000D01*
G75*
G02*
X164360000Y-91475000I0J-150000D01*
G01*
X164360000Y-91775000D01*
G75*
G02*
X164210000Y-91925000I-150000J0D01*
G01*
X162560000Y-91925000D01*
G75*
G02*
X162410000Y-91775000I0J150000D01*
G01*
G37*
G36*
G01*
X156205000Y-102035000D02*
X156205000Y-101485000D01*
G75*
G02*
X156405000Y-101285000I200000J0D01*
G01*
X156805000Y-101285000D01*
G75*
G02*
X157005000Y-101485000I0J-200000D01*
G01*
X157005000Y-102035000D01*
G75*
G02*
X156805000Y-102235000I-200000J0D01*
G01*
X156405000Y-102235000D01*
G75*
G02*
X156205000Y-102035000I0J200000D01*
G01*
G37*
G36*
G01*
X157855000Y-102035000D02*
X157855000Y-101485000D01*
G75*
G02*
X158055000Y-101285000I200000J0D01*
G01*
X158455000Y-101285000D01*
G75*
G02*
X158655000Y-101485000I0J-200000D01*
G01*
X158655000Y-102035000D01*
G75*
G02*
X158455000Y-102235000I-200000J0D01*
G01*
X158055000Y-102235000D01*
G75*
G02*
X157855000Y-102035000I0J200000D01*
G01*
G37*
G36*
G01*
X157005000Y-99985000D02*
X157005000Y-100535000D01*
G75*
G02*
X156805000Y-100735000I-200000J0D01*
G01*
X156405000Y-100735000D01*
G75*
G02*
X156205000Y-100535000I0J200000D01*
G01*
X156205000Y-99985000D01*
G75*
G02*
X156405000Y-99785000I200000J0D01*
G01*
X156805000Y-99785000D01*
G75*
G02*
X157005000Y-99985000I0J-200000D01*
G01*
G37*
G36*
G01*
X158655000Y-99985000D02*
X158655000Y-100535000D01*
G75*
G02*
X158455000Y-100735000I-200000J0D01*
G01*
X158055000Y-100735000D01*
G75*
G02*
X157855000Y-100535000I0J200000D01*
G01*
X157855000Y-99985000D01*
G75*
G02*
X158055000Y-99785000I200000J0D01*
G01*
X158455000Y-99785000D01*
G75*
G02*
X158655000Y-99985000I0J-200000D01*
G01*
G37*
G36*
G01*
X158655000Y-104465000D02*
X158655000Y-105015000D01*
G75*
G02*
X158455000Y-105215000I-200000J0D01*
G01*
X158055000Y-105215000D01*
G75*
G02*
X157855000Y-105015000I0J200000D01*
G01*
X157855000Y-104465000D01*
G75*
G02*
X158055000Y-104265000I200000J0D01*
G01*
X158455000Y-104265000D01*
G75*
G02*
X158655000Y-104465000I0J-200000D01*
G01*
G37*
G36*
G01*
X157005000Y-104465000D02*
X157005000Y-105015000D01*
G75*
G02*
X156805000Y-105215000I-200000J0D01*
G01*
X156405000Y-105215000D01*
G75*
G02*
X156205000Y-105015000I0J200000D01*
G01*
X156205000Y-104465000D01*
G75*
G02*
X156405000Y-104265000I200000J0D01*
G01*
X156805000Y-104265000D01*
G75*
G02*
X157005000Y-104465000I0J-200000D01*
G01*
G37*
G36*
G01*
X157855000Y-103515000D02*
X157855000Y-102965000D01*
G75*
G02*
X158055000Y-102765000I200000J0D01*
G01*
X158455000Y-102765000D01*
G75*
G02*
X158655000Y-102965000I0J-200000D01*
G01*
X158655000Y-103515000D01*
G75*
G02*
X158455000Y-103715000I-200000J0D01*
G01*
X158055000Y-103715000D01*
G75*
G02*
X157855000Y-103515000I0J200000D01*
G01*
G37*
G36*
G01*
X156205000Y-103515000D02*
X156205000Y-102965000D01*
G75*
G02*
X156405000Y-102765000I200000J0D01*
G01*
X156805000Y-102765000D01*
G75*
G02*
X157005000Y-102965000I0J-200000D01*
G01*
X157005000Y-103515000D01*
G75*
G02*
X156805000Y-103715000I-200000J0D01*
G01*
X156405000Y-103715000D01*
G75*
G02*
X156205000Y-103515000I0J200000D01*
G01*
G37*
G36*
G01*
X171825000Y-111310000D02*
X170375000Y-111310000D01*
G75*
G02*
X170125000Y-111060000I0J250000D01*
G01*
X170125000Y-109860000D01*
G75*
G02*
X170375000Y-109610000I250000J0D01*
G01*
X171825000Y-109610000D01*
G75*
G02*
X172075000Y-109860000I0J-250000D01*
G01*
X172075000Y-111060000D01*
G75*
G02*
X171825000Y-111310000I-250000J0D01*
G01*
G37*
D12*
X171100000Y-107960000D03*
X171100000Y-105460000D03*
G36*
G01*
X171825000Y-100390000D02*
X170375000Y-100390000D01*
G75*
G02*
X170125000Y-100140000I0J250000D01*
G01*
X170125000Y-98940000D01*
G75*
G02*
X170375000Y-98690000I250000J0D01*
G01*
X171825000Y-98690000D01*
G75*
G02*
X172075000Y-98940000I0J-250000D01*
G01*
X172075000Y-100140000D01*
G75*
G02*
X171825000Y-100390000I-250000J0D01*
G01*
G37*
X171100000Y-97040000D03*
X171100000Y-94540000D03*
X171100000Y-92040000D03*
X171100000Y-89540000D03*
D13*
X129850000Y-93000000D03*
X134850000Y-93000000D03*
D14*
X126750000Y-100000000D03*
X137950000Y-100000000D03*
D13*
X129850000Y-107500000D03*
X132350000Y-107500000D03*
D15*
X134850000Y-107500000D03*
X139130000Y-108750000D03*
D13*
X146730000Y-108750000D03*
G36*
G01*
X167105000Y-112950000D02*
X166155000Y-112950000D01*
G75*
G02*
X165905000Y-112700000I0J250000D01*
G01*
X165905000Y-112200000D01*
G75*
G02*
X166155000Y-111950000I250000J0D01*
G01*
X167105000Y-111950000D01*
G75*
G02*
X167355000Y-112200000I0J-250000D01*
G01*
X167355000Y-112700000D01*
G75*
G02*
X167105000Y-112950000I-250000J0D01*
G01*
G37*
G36*
G01*
X167105000Y-111050000D02*
X166155000Y-111050000D01*
G75*
G02*
X165905000Y-110800000I0J250000D01*
G01*
X165905000Y-110300000D01*
G75*
G02*
X166155000Y-110050000I250000J0D01*
G01*
X167105000Y-110050000D01*
G75*
G02*
X167355000Y-110300000I0J-250000D01*
G01*
X167355000Y-110800000D01*
G75*
G02*
X167105000Y-111050000I-250000J0D01*
G01*
G37*
G36*
G01*
X160990000Y-111825000D02*
X161490000Y-111825000D01*
G75*
G02*
X161715000Y-112050000I0J-225000D01*
G01*
X161715000Y-112500000D01*
G75*
G02*
X161490000Y-112725000I-225000J0D01*
G01*
X160990000Y-112725000D01*
G75*
G02*
X160765000Y-112500000I0J225000D01*
G01*
X160765000Y-112050000D01*
G75*
G02*
X160990000Y-111825000I225000J0D01*
G01*
G37*
G36*
G01*
X160990000Y-110275000D02*
X161490000Y-110275000D01*
G75*
G02*
X161715000Y-110500000I0J-225000D01*
G01*
X161715000Y-110950000D01*
G75*
G02*
X161490000Y-111175000I-225000J0D01*
G01*
X160990000Y-111175000D01*
G75*
G02*
X160765000Y-110950000I0J225000D01*
G01*
X160765000Y-110500000D01*
G75*
G02*
X160990000Y-110275000I225000J0D01*
G01*
G37*
G36*
G01*
X153590000Y-107275000D02*
X153590000Y-108225000D01*
G75*
G02*
X153340000Y-108475000I-250000J0D01*
G01*
X152840000Y-108475000D01*
G75*
G02*
X152590000Y-108225000I0J250000D01*
G01*
X152590000Y-107275000D01*
G75*
G02*
X152840000Y-107025000I250000J0D01*
G01*
X153340000Y-107025000D01*
G75*
G02*
X153590000Y-107275000I0J-250000D01*
G01*
G37*
G36*
G01*
X151690000Y-107275000D02*
X151690000Y-108225000D01*
G75*
G02*
X151440000Y-108475000I-250000J0D01*
G01*
X150940000Y-108475000D01*
G75*
G02*
X150690000Y-108225000I0J250000D01*
G01*
X150690000Y-107275000D01*
G75*
G02*
X150940000Y-107025000I250000J0D01*
G01*
X151440000Y-107025000D01*
G75*
G02*
X151690000Y-107275000I0J-250000D01*
G01*
G37*
G36*
G01*
X151690000Y-112695000D02*
X151690000Y-113645000D01*
G75*
G02*
X151440000Y-113895000I-250000J0D01*
G01*
X150940000Y-113895000D01*
G75*
G02*
X150690000Y-113645000I0J250000D01*
G01*
X150690000Y-112695000D01*
G75*
G02*
X150940000Y-112445000I250000J0D01*
G01*
X151440000Y-112445000D01*
G75*
G02*
X151690000Y-112695000I0J-250000D01*
G01*
G37*
G36*
G01*
X153590000Y-112695000D02*
X153590000Y-113645000D01*
G75*
G02*
X153340000Y-113895000I-250000J0D01*
G01*
X152840000Y-113895000D01*
G75*
G02*
X152590000Y-113645000I0J250000D01*
G01*
X152590000Y-112695000D01*
G75*
G02*
X152840000Y-112445000I250000J0D01*
G01*
X153340000Y-112445000D01*
G75*
G02*
X153590000Y-112695000I0J-250000D01*
G01*
G37*
G36*
G01*
X158410000Y-108305000D02*
X158410000Y-107355000D01*
G75*
G02*
X158660000Y-107105000I250000J0D01*
G01*
X159160000Y-107105000D01*
G75*
G02*
X159410000Y-107355000I0J-250000D01*
G01*
X159410000Y-108305000D01*
G75*
G02*
X159160000Y-108555000I-250000J0D01*
G01*
X158660000Y-108555000D01*
G75*
G02*
X158410000Y-108305000I0J250000D01*
G01*
G37*
G36*
G01*
X160310000Y-108305000D02*
X160310000Y-107355000D01*
G75*
G02*
X160560000Y-107105000I250000J0D01*
G01*
X161060000Y-107105000D01*
G75*
G02*
X161310000Y-107355000I0J-250000D01*
G01*
X161310000Y-108305000D01*
G75*
G02*
X161060000Y-108555000I-250000J0D01*
G01*
X160560000Y-108555000D01*
G75*
G02*
X160310000Y-108305000I0J250000D01*
G01*
G37*
G36*
G01*
X155990000Y-107355000D02*
X155990000Y-108305000D01*
G75*
G02*
X155740000Y-108555000I-250000J0D01*
G01*
X155240000Y-108555000D01*
G75*
G02*
X154990000Y-108305000I0J250000D01*
G01*
X154990000Y-107355000D01*
G75*
G02*
X155240000Y-107105000I250000J0D01*
G01*
X155740000Y-107105000D01*
G75*
G02*
X155990000Y-107355000I0J-250000D01*
G01*
G37*
G36*
G01*
X157890000Y-107355000D02*
X157890000Y-108305000D01*
G75*
G02*
X157640000Y-108555000I-250000J0D01*
G01*
X157140000Y-108555000D01*
G75*
G02*
X156890000Y-108305000I0J250000D01*
G01*
X156890000Y-107355000D01*
G75*
G02*
X157140000Y-107105000I250000J0D01*
G01*
X157640000Y-107105000D01*
G75*
G02*
X157890000Y-107355000I0J-250000D01*
G01*
G37*
G36*
G01*
X142095000Y-92510000D02*
X142095000Y-93010000D01*
G75*
G02*
X141870000Y-93235000I-225000J0D01*
G01*
X141420000Y-93235000D01*
G75*
G02*
X141195000Y-93010000I0J225000D01*
G01*
X141195000Y-92510000D01*
G75*
G02*
X141420000Y-92285000I225000J0D01*
G01*
X141870000Y-92285000D01*
G75*
G02*
X142095000Y-92510000I0J-225000D01*
G01*
G37*
G36*
G01*
X140545000Y-92510000D02*
X140545000Y-93010000D01*
G75*
G02*
X140320000Y-93235000I-225000J0D01*
G01*
X139870000Y-93235000D01*
G75*
G02*
X139645000Y-93010000I0J225000D01*
G01*
X139645000Y-92510000D01*
G75*
G02*
X139870000Y-92285000I225000J0D01*
G01*
X140320000Y-92285000D01*
G75*
G02*
X140545000Y-92510000I0J-225000D01*
G01*
G37*
G36*
G01*
X151180000Y-95095000D02*
X151680000Y-95095000D01*
G75*
G02*
X151905000Y-95320000I0J-225000D01*
G01*
X151905000Y-95770000D01*
G75*
G02*
X151680000Y-95995000I-225000J0D01*
G01*
X151180000Y-95995000D01*
G75*
G02*
X150955000Y-95770000I0J225000D01*
G01*
X150955000Y-95320000D01*
G75*
G02*
X151180000Y-95095000I225000J0D01*
G01*
G37*
G36*
G01*
X151180000Y-93545000D02*
X151680000Y-93545000D01*
G75*
G02*
X151905000Y-93770000I0J-225000D01*
G01*
X151905000Y-94220000D01*
G75*
G02*
X151680000Y-94445000I-225000J0D01*
G01*
X151180000Y-94445000D01*
G75*
G02*
X150955000Y-94220000I0J225000D01*
G01*
X150955000Y-93770000D01*
G75*
G02*
X151180000Y-93545000I225000J0D01*
G01*
G37*
G36*
G01*
X140545000Y-101530000D02*
X140545000Y-102030000D01*
G75*
G02*
X140320000Y-102255000I-225000J0D01*
G01*
X139870000Y-102255000D01*
G75*
G02*
X139645000Y-102030000I0J225000D01*
G01*
X139645000Y-101530000D01*
G75*
G02*
X139870000Y-101305000I225000J0D01*
G01*
X140320000Y-101305000D01*
G75*
G02*
X140545000Y-101530000I0J-225000D01*
G01*
G37*
G36*
G01*
X142095000Y-101530000D02*
X142095000Y-102030000D01*
G75*
G02*
X141870000Y-102255000I-225000J0D01*
G01*
X141420000Y-102255000D01*
G75*
G02*
X141195000Y-102030000I0J225000D01*
G01*
X141195000Y-101530000D01*
G75*
G02*
X141420000Y-101305000I225000J0D01*
G01*
X141870000Y-101305000D01*
G75*
G02*
X142095000Y-101530000I0J-225000D01*
G01*
G37*
G36*
G01*
X147245000Y-103520000D02*
X147245000Y-103020000D01*
G75*
G02*
X147470000Y-102795000I225000J0D01*
G01*
X147920000Y-102795000D01*
G75*
G02*
X148145000Y-103020000I0J-225000D01*
G01*
X148145000Y-103520000D01*
G75*
G02*
X147920000Y-103745000I-225000J0D01*
G01*
X147470000Y-103745000D01*
G75*
G02*
X147245000Y-103520000I0J225000D01*
G01*
G37*
G36*
G01*
X148795000Y-103520000D02*
X148795000Y-103020000D01*
G75*
G02*
X149020000Y-102795000I225000J0D01*
G01*
X149470000Y-102795000D01*
G75*
G02*
X149695000Y-103020000I0J-225000D01*
G01*
X149695000Y-103520000D01*
G75*
G02*
X149470000Y-103745000I-225000J0D01*
G01*
X149020000Y-103745000D01*
G75*
G02*
X148795000Y-103520000I0J225000D01*
G01*
G37*
G36*
G01*
X148965000Y-105010000D02*
X148965000Y-104510000D01*
G75*
G02*
X149190000Y-104285000I225000J0D01*
G01*
X149640000Y-104285000D01*
G75*
G02*
X149865000Y-104510000I0J-225000D01*
G01*
X149865000Y-105010000D01*
G75*
G02*
X149640000Y-105235000I-225000J0D01*
G01*
X149190000Y-105235000D01*
G75*
G02*
X148965000Y-105010000I0J225000D01*
G01*
G37*
G36*
G01*
X150515000Y-105010000D02*
X150515000Y-104510000D01*
G75*
G02*
X150740000Y-104285000I225000J0D01*
G01*
X151190000Y-104285000D01*
G75*
G02*
X151415000Y-104510000I0J-225000D01*
G01*
X151415000Y-105010000D01*
G75*
G02*
X151190000Y-105235000I-225000J0D01*
G01*
X150740000Y-105235000D01*
G75*
G02*
X150515000Y-105010000I0J225000D01*
G01*
G37*
G36*
G01*
X158655000Y-98510000D02*
X158655000Y-99010000D01*
G75*
G02*
X158430000Y-99235000I-225000J0D01*
G01*
X157980000Y-99235000D01*
G75*
G02*
X157755000Y-99010000I0J225000D01*
G01*
X157755000Y-98510000D01*
G75*
G02*
X157980000Y-98285000I225000J0D01*
G01*
X158430000Y-98285000D01*
G75*
G02*
X158655000Y-98510000I0J-225000D01*
G01*
G37*
G36*
G01*
X157105000Y-98510000D02*
X157105000Y-99010000D01*
G75*
G02*
X156880000Y-99235000I-225000J0D01*
G01*
X156430000Y-99235000D01*
G75*
G02*
X156205000Y-99010000I0J225000D01*
G01*
X156205000Y-98510000D01*
G75*
G02*
X156430000Y-98285000I225000J0D01*
G01*
X156880000Y-98285000D01*
G75*
G02*
X157105000Y-98510000I0J-225000D01*
G01*
G37*
G36*
G01*
X161905000Y-90320000D02*
X161905000Y-89820000D01*
G75*
G02*
X162130000Y-89595000I225000J0D01*
G01*
X162580000Y-89595000D01*
G75*
G02*
X162805000Y-89820000I0J-225000D01*
G01*
X162805000Y-90320000D01*
G75*
G02*
X162580000Y-90545000I-225000J0D01*
G01*
X162130000Y-90545000D01*
G75*
G02*
X161905000Y-90320000I0J225000D01*
G01*
G37*
G36*
G01*
X163455000Y-90320000D02*
X163455000Y-89820000D01*
G75*
G02*
X163680000Y-89595000I225000J0D01*
G01*
X164130000Y-89595000D01*
G75*
G02*
X164355000Y-89820000I0J-225000D01*
G01*
X164355000Y-90320000D01*
G75*
G02*
X164130000Y-90545000I-225000J0D01*
G01*
X163680000Y-90545000D01*
G75*
G02*
X163455000Y-90320000I0J225000D01*
G01*
G37*
G36*
G01*
X155336250Y-111050000D02*
X154423750Y-111050000D01*
G75*
G02*
X154180000Y-110806250I0J243750D01*
G01*
X154180000Y-110318750D01*
G75*
G02*
X154423750Y-110075000I243750J0D01*
G01*
X155336250Y-110075000D01*
G75*
G02*
X155580000Y-110318750I0J-243750D01*
G01*
X155580000Y-110806250D01*
G75*
G02*
X155336250Y-111050000I-243750J0D01*
G01*
G37*
G36*
G01*
X155336250Y-112925000D02*
X154423750Y-112925000D01*
G75*
G02*
X154180000Y-112681250I0J243750D01*
G01*
X154180000Y-112193750D01*
G75*
G02*
X154423750Y-111950000I243750J0D01*
G01*
X155336250Y-111950000D01*
G75*
G02*
X155580000Y-112193750I0J-243750D01*
G01*
X155580000Y-112681250D01*
G75*
G02*
X155336250Y-112925000I-243750J0D01*
G01*
G37*
D16*
X161960000Y-97210000D03*
X159860000Y-97210000D03*
G36*
G01*
X161885000Y-109105000D02*
X161885000Y-108555000D01*
G75*
G02*
X162085000Y-108355000I200000J0D01*
G01*
X162485000Y-108355000D01*
G75*
G02*
X162685000Y-108555000I0J-200000D01*
G01*
X162685000Y-109105000D01*
G75*
G02*
X162485000Y-109305000I-200000J0D01*
G01*
X162085000Y-109305000D01*
G75*
G02*
X161885000Y-109105000I0J200000D01*
G01*
G37*
G36*
G01*
X163535000Y-109105000D02*
X163535000Y-108555000D01*
G75*
G02*
X163735000Y-108355000I200000J0D01*
G01*
X164135000Y-108355000D01*
G75*
G02*
X164335000Y-108555000I0J-200000D01*
G01*
X164335000Y-109105000D01*
G75*
G02*
X164135000Y-109305000I-200000J0D01*
G01*
X163735000Y-109305000D01*
G75*
G02*
X163535000Y-109105000I0J200000D01*
G01*
G37*
G36*
G01*
X166535000Y-109105000D02*
X166535000Y-108555000D01*
G75*
G02*
X166735000Y-108355000I200000J0D01*
G01*
X167135000Y-108355000D01*
G75*
G02*
X167335000Y-108555000I0J-200000D01*
G01*
X167335000Y-109105000D01*
G75*
G02*
X167135000Y-109305000I-200000J0D01*
G01*
X166735000Y-109305000D01*
G75*
G02*
X166535000Y-109105000I0J200000D01*
G01*
G37*
G36*
G01*
X164885000Y-109105000D02*
X164885000Y-108555000D01*
G75*
G02*
X165085000Y-108355000I200000J0D01*
G01*
X165485000Y-108355000D01*
G75*
G02*
X165685000Y-108555000I0J-200000D01*
G01*
X165685000Y-109105000D01*
G75*
G02*
X165485000Y-109305000I-200000J0D01*
G01*
X165085000Y-109305000D01*
G75*
G02*
X164885000Y-109105000I0J200000D01*
G01*
G37*
G36*
G01*
X127625000Y-91455000D02*
X128175000Y-91455000D01*
G75*
G02*
X128375000Y-91655000I0J-200000D01*
G01*
X128375000Y-92055000D01*
G75*
G02*
X128175000Y-92255000I-200000J0D01*
G01*
X127625000Y-92255000D01*
G75*
G02*
X127425000Y-92055000I0J200000D01*
G01*
X127425000Y-91655000D01*
G75*
G02*
X127625000Y-91455000I200000J0D01*
G01*
G37*
G36*
G01*
X127625000Y-93105000D02*
X128175000Y-93105000D01*
G75*
G02*
X128375000Y-93305000I0J-200000D01*
G01*
X128375000Y-93705000D01*
G75*
G02*
X128175000Y-93905000I-200000J0D01*
G01*
X127625000Y-93905000D01*
G75*
G02*
X127425000Y-93705000I0J200000D01*
G01*
X127425000Y-93305000D01*
G75*
G02*
X127625000Y-93105000I200000J0D01*
G01*
G37*
G36*
G01*
X154855000Y-100265000D02*
X154855000Y-99715000D01*
G75*
G02*
X155055000Y-99515000I200000J0D01*
G01*
X155455000Y-99515000D01*
G75*
G02*
X155655000Y-99715000I0J-200000D01*
G01*
X155655000Y-100265000D01*
G75*
G02*
X155455000Y-100465000I-200000J0D01*
G01*
X155055000Y-100465000D01*
G75*
G02*
X154855000Y-100265000I0J200000D01*
G01*
G37*
G36*
G01*
X153205000Y-100265000D02*
X153205000Y-99715000D01*
G75*
G02*
X153405000Y-99515000I200000J0D01*
G01*
X153805000Y-99515000D01*
G75*
G02*
X154005000Y-99715000I0J-200000D01*
G01*
X154005000Y-100265000D01*
G75*
G02*
X153805000Y-100465000I-200000J0D01*
G01*
X153405000Y-100465000D01*
G75*
G02*
X153205000Y-100265000I0J200000D01*
G01*
G37*
G36*
G01*
X164905000Y-90075000D02*
X164905000Y-89525000D01*
G75*
G02*
X165105000Y-89325000I200000J0D01*
G01*
X165505000Y-89325000D01*
G75*
G02*
X165705000Y-89525000I0J-200000D01*
G01*
X165705000Y-90075000D01*
G75*
G02*
X165505000Y-90275000I-200000J0D01*
G01*
X165105000Y-90275000D01*
G75*
G02*
X164905000Y-90075000I0J200000D01*
G01*
G37*
G36*
G01*
X166555000Y-90075000D02*
X166555000Y-89525000D01*
G75*
G02*
X166755000Y-89325000I200000J0D01*
G01*
X167155000Y-89325000D01*
G75*
G02*
X167355000Y-89525000I0J-200000D01*
G01*
X167355000Y-90075000D01*
G75*
G02*
X167155000Y-90275000I-200000J0D01*
G01*
X166755000Y-90275000D01*
G75*
G02*
X166555000Y-90075000I0J200000D01*
G01*
G37*
G36*
G01*
X163555000Y-88855000D02*
X163555000Y-88305000D01*
G75*
G02*
X163755000Y-88105000I200000J0D01*
G01*
X164155000Y-88105000D01*
G75*
G02*
X164355000Y-88305000I0J-200000D01*
G01*
X164355000Y-88855000D01*
G75*
G02*
X164155000Y-89055000I-200000J0D01*
G01*
X163755000Y-89055000D01*
G75*
G02*
X163555000Y-88855000I0J200000D01*
G01*
G37*
G36*
G01*
X161905000Y-88855000D02*
X161905000Y-88305000D01*
G75*
G02*
X162105000Y-88105000I200000J0D01*
G01*
X162505000Y-88105000D01*
G75*
G02*
X162705000Y-88305000I0J-200000D01*
G01*
X162705000Y-88855000D01*
G75*
G02*
X162505000Y-89055000I-200000J0D01*
G01*
X162105000Y-89055000D01*
G75*
G02*
X161905000Y-88855000I0J200000D01*
G01*
G37*
G36*
G01*
X157855000Y-97535000D02*
X157855000Y-96985000D01*
G75*
G02*
X158055000Y-96785000I200000J0D01*
G01*
X158455000Y-96785000D01*
G75*
G02*
X158655000Y-96985000I0J-200000D01*
G01*
X158655000Y-97535000D01*
G75*
G02*
X158455000Y-97735000I-200000J0D01*
G01*
X158055000Y-97735000D01*
G75*
G02*
X157855000Y-97535000I0J200000D01*
G01*
G37*
G36*
G01*
X156205000Y-97535000D02*
X156205000Y-96985000D01*
G75*
G02*
X156405000Y-96785000I200000J0D01*
G01*
X156805000Y-96785000D01*
G75*
G02*
X157005000Y-96985000I0J-200000D01*
G01*
X157005000Y-97535000D01*
G75*
G02*
X156805000Y-97735000I-200000J0D01*
G01*
X156405000Y-97735000D01*
G75*
G02*
X156205000Y-97535000I0J200000D01*
G01*
G37*
G36*
G01*
X156725000Y-96255000D02*
X156175000Y-96255000D01*
G75*
G02*
X155975000Y-96055000I0J200000D01*
G01*
X155975000Y-95655000D01*
G75*
G02*
X156175000Y-95455000I200000J0D01*
G01*
X156725000Y-95455000D01*
G75*
G02*
X156925000Y-95655000I0J-200000D01*
G01*
X156925000Y-96055000D01*
G75*
G02*
X156725000Y-96255000I-200000J0D01*
G01*
G37*
G36*
G01*
X156725000Y-94605000D02*
X156175000Y-94605000D01*
G75*
G02*
X155975000Y-94405000I0J200000D01*
G01*
X155975000Y-94005000D01*
G75*
G02*
X156175000Y-93805000I200000J0D01*
G01*
X156725000Y-93805000D01*
G75*
G02*
X156925000Y-94005000I0J-200000D01*
G01*
X156925000Y-94405000D01*
G75*
G02*
X156725000Y-94605000I-200000J0D01*
G01*
G37*
G36*
G01*
X156725000Y-93255000D02*
X156175000Y-93255000D01*
G75*
G02*
X155975000Y-93055000I0J200000D01*
G01*
X155975000Y-92655000D01*
G75*
G02*
X156175000Y-92455000I200000J0D01*
G01*
X156725000Y-92455000D01*
G75*
G02*
X156925000Y-92655000I0J-200000D01*
G01*
X156925000Y-93055000D01*
G75*
G02*
X156725000Y-93255000I-200000J0D01*
G01*
G37*
G36*
G01*
X156725000Y-91605000D02*
X156175000Y-91605000D01*
G75*
G02*
X155975000Y-91405000I0J200000D01*
G01*
X155975000Y-91005000D01*
G75*
G02*
X156175000Y-90805000I200000J0D01*
G01*
X156725000Y-90805000D01*
G75*
G02*
X156925000Y-91005000I0J-200000D01*
G01*
X156925000Y-91405000D01*
G75*
G02*
X156725000Y-91605000I-200000J0D01*
G01*
G37*
D17*
X162860000Y-112600000D03*
X163810000Y-112600000D03*
X164760000Y-112600000D03*
X164760000Y-110400000D03*
X162860000Y-110400000D03*
X163810000Y-110400000D03*
D18*
X152140000Y-109450000D03*
X153090000Y-111450000D03*
X151190000Y-111450000D03*
G36*
G01*
X142855000Y-102170000D02*
X142705000Y-102170000D01*
G75*
G02*
X142630000Y-102095000I0J75000D01*
G01*
X142630000Y-100770000D01*
G75*
G02*
X142705000Y-100695000I75000J0D01*
G01*
X142855000Y-100695000D01*
G75*
G02*
X142930000Y-100770000I0J-75000D01*
G01*
X142930000Y-102095000D01*
G75*
G02*
X142855000Y-102170000I-75000J0D01*
G01*
G37*
G36*
G01*
X143355000Y-102170000D02*
X143205000Y-102170000D01*
G75*
G02*
X143130000Y-102095000I0J75000D01*
G01*
X143130000Y-100770000D01*
G75*
G02*
X143205000Y-100695000I75000J0D01*
G01*
X143355000Y-100695000D01*
G75*
G02*
X143430000Y-100770000I0J-75000D01*
G01*
X143430000Y-102095000D01*
G75*
G02*
X143355000Y-102170000I-75000J0D01*
G01*
G37*
G36*
G01*
X143855000Y-102170000D02*
X143705000Y-102170000D01*
G75*
G02*
X143630000Y-102095000I0J75000D01*
G01*
X143630000Y-100770000D01*
G75*
G02*
X143705000Y-100695000I75000J0D01*
G01*
X143855000Y-100695000D01*
G75*
G02*
X143930000Y-100770000I0J-75000D01*
G01*
X143930000Y-102095000D01*
G75*
G02*
X143855000Y-102170000I-75000J0D01*
G01*
G37*
G36*
G01*
X144355000Y-102170000D02*
X144205000Y-102170000D01*
G75*
G02*
X144130000Y-102095000I0J75000D01*
G01*
X144130000Y-100770000D01*
G75*
G02*
X144205000Y-100695000I75000J0D01*
G01*
X144355000Y-100695000D01*
G75*
G02*
X144430000Y-100770000I0J-75000D01*
G01*
X144430000Y-102095000D01*
G75*
G02*
X144355000Y-102170000I-75000J0D01*
G01*
G37*
G36*
G01*
X144855000Y-102170000D02*
X144705000Y-102170000D01*
G75*
G02*
X144630000Y-102095000I0J75000D01*
G01*
X144630000Y-100770000D01*
G75*
G02*
X144705000Y-100695000I75000J0D01*
G01*
X144855000Y-100695000D01*
G75*
G02*
X144930000Y-100770000I0J-75000D01*
G01*
X144930000Y-102095000D01*
G75*
G02*
X144855000Y-102170000I-75000J0D01*
G01*
G37*
G36*
G01*
X145355000Y-102170000D02*
X145205000Y-102170000D01*
G75*
G02*
X145130000Y-102095000I0J75000D01*
G01*
X145130000Y-100770000D01*
G75*
G02*
X145205000Y-100695000I75000J0D01*
G01*
X145355000Y-100695000D01*
G75*
G02*
X145430000Y-100770000I0J-75000D01*
G01*
X145430000Y-102095000D01*
G75*
G02*
X145355000Y-102170000I-75000J0D01*
G01*
G37*
G36*
G01*
X145855000Y-102170000D02*
X145705000Y-102170000D01*
G75*
G02*
X145630000Y-102095000I0J75000D01*
G01*
X145630000Y-100770000D01*
G75*
G02*
X145705000Y-100695000I75000J0D01*
G01*
X145855000Y-100695000D01*
G75*
G02*
X145930000Y-100770000I0J-75000D01*
G01*
X145930000Y-102095000D01*
G75*
G02*
X145855000Y-102170000I-75000J0D01*
G01*
G37*
G36*
G01*
X146355000Y-102177500D02*
X146205000Y-102177500D01*
G75*
G02*
X146130000Y-102102500I0J75000D01*
G01*
X146130000Y-100777500D01*
G75*
G02*
X146205000Y-100702500I75000J0D01*
G01*
X146355000Y-100702500D01*
G75*
G02*
X146430000Y-100777500I0J-75000D01*
G01*
X146430000Y-102102500D01*
G75*
G02*
X146355000Y-102177500I-75000J0D01*
G01*
G37*
G36*
G01*
X146855000Y-102170000D02*
X146705000Y-102170000D01*
G75*
G02*
X146630000Y-102095000I0J75000D01*
G01*
X146630000Y-100770000D01*
G75*
G02*
X146705000Y-100695000I75000J0D01*
G01*
X146855000Y-100695000D01*
G75*
G02*
X146930000Y-100770000I0J-75000D01*
G01*
X146930000Y-102095000D01*
G75*
G02*
X146855000Y-102170000I-75000J0D01*
G01*
G37*
G36*
G01*
X147355000Y-102170000D02*
X147205000Y-102170000D01*
G75*
G02*
X147130000Y-102095000I0J75000D01*
G01*
X147130000Y-100770000D01*
G75*
G02*
X147205000Y-100695000I75000J0D01*
G01*
X147355000Y-100695000D01*
G75*
G02*
X147430000Y-100770000I0J-75000D01*
G01*
X147430000Y-102095000D01*
G75*
G02*
X147355000Y-102170000I-75000J0D01*
G01*
G37*
G36*
G01*
X147855000Y-102170000D02*
X147705000Y-102170000D01*
G75*
G02*
X147630000Y-102095000I0J75000D01*
G01*
X147630000Y-100770000D01*
G75*
G02*
X147705000Y-100695000I75000J0D01*
G01*
X147855000Y-100695000D01*
G75*
G02*
X147930000Y-100770000I0J-75000D01*
G01*
X147930000Y-102095000D01*
G75*
G02*
X147855000Y-102170000I-75000J0D01*
G01*
G37*
G36*
G01*
X148355000Y-102170000D02*
X148205000Y-102170000D01*
G75*
G02*
X148130000Y-102095000I0J75000D01*
G01*
X148130000Y-100770000D01*
G75*
G02*
X148205000Y-100695000I75000J0D01*
G01*
X148355000Y-100695000D01*
G75*
G02*
X148430000Y-100770000I0J-75000D01*
G01*
X148430000Y-102095000D01*
G75*
G02*
X148355000Y-102170000I-75000J0D01*
G01*
G37*
G36*
G01*
X150355000Y-100170000D02*
X149030000Y-100170000D01*
G75*
G02*
X148955000Y-100095000I0J75000D01*
G01*
X148955000Y-99945000D01*
G75*
G02*
X149030000Y-99870000I75000J0D01*
G01*
X150355000Y-99870000D01*
G75*
G02*
X150430000Y-99945000I0J-75000D01*
G01*
X150430000Y-100095000D01*
G75*
G02*
X150355000Y-100170000I-75000J0D01*
G01*
G37*
G36*
G01*
X150355000Y-99670000D02*
X149030000Y-99670000D01*
G75*
G02*
X148955000Y-99595000I0J75000D01*
G01*
X148955000Y-99445000D01*
G75*
G02*
X149030000Y-99370000I75000J0D01*
G01*
X150355000Y-99370000D01*
G75*
G02*
X150430000Y-99445000I0J-75000D01*
G01*
X150430000Y-99595000D01*
G75*
G02*
X150355000Y-99670000I-75000J0D01*
G01*
G37*
G36*
G01*
X150355000Y-99170000D02*
X149030000Y-99170000D01*
G75*
G02*
X148955000Y-99095000I0J75000D01*
G01*
X148955000Y-98945000D01*
G75*
G02*
X149030000Y-98870000I75000J0D01*
G01*
X150355000Y-98870000D01*
G75*
G02*
X150430000Y-98945000I0J-75000D01*
G01*
X150430000Y-99095000D01*
G75*
G02*
X150355000Y-99170000I-75000J0D01*
G01*
G37*
G36*
G01*
X150355000Y-98670000D02*
X149030000Y-98670000D01*
G75*
G02*
X148955000Y-98595000I0J75000D01*
G01*
X148955000Y-98445000D01*
G75*
G02*
X149030000Y-98370000I75000J0D01*
G01*
X150355000Y-98370000D01*
G75*
G02*
X150430000Y-98445000I0J-75000D01*
G01*
X150430000Y-98595000D01*
G75*
G02*
X150355000Y-98670000I-75000J0D01*
G01*
G37*
G36*
G01*
X150355000Y-98170000D02*
X149030000Y-98170000D01*
G75*
G02*
X148955000Y-98095000I0J75000D01*
G01*
X148955000Y-97945000D01*
G75*
G02*
X149030000Y-97870000I75000J0D01*
G01*
X150355000Y-97870000D01*
G75*
G02*
X150430000Y-97945000I0J-75000D01*
G01*
X150430000Y-98095000D01*
G75*
G02*
X150355000Y-98170000I-75000J0D01*
G01*
G37*
G36*
G01*
X150355000Y-97670000D02*
X149030000Y-97670000D01*
G75*
G02*
X148955000Y-97595000I0J75000D01*
G01*
X148955000Y-97445000D01*
G75*
G02*
X149030000Y-97370000I75000J0D01*
G01*
X150355000Y-97370000D01*
G75*
G02*
X150430000Y-97445000I0J-75000D01*
G01*
X150430000Y-97595000D01*
G75*
G02*
X150355000Y-97670000I-75000J0D01*
G01*
G37*
G36*
G01*
X150355000Y-97170000D02*
X149030000Y-97170000D01*
G75*
G02*
X148955000Y-97095000I0J75000D01*
G01*
X148955000Y-96945000D01*
G75*
G02*
X149030000Y-96870000I75000J0D01*
G01*
X150355000Y-96870000D01*
G75*
G02*
X150430000Y-96945000I0J-75000D01*
G01*
X150430000Y-97095000D01*
G75*
G02*
X150355000Y-97170000I-75000J0D01*
G01*
G37*
G36*
G01*
X150355000Y-96670000D02*
X149030000Y-96670000D01*
G75*
G02*
X148955000Y-96595000I0J75000D01*
G01*
X148955000Y-96445000D01*
G75*
G02*
X149030000Y-96370000I75000J0D01*
G01*
X150355000Y-96370000D01*
G75*
G02*
X150430000Y-96445000I0J-75000D01*
G01*
X150430000Y-96595000D01*
G75*
G02*
X150355000Y-96670000I-75000J0D01*
G01*
G37*
G36*
G01*
X150355000Y-96170000D02*
X149030000Y-96170000D01*
G75*
G02*
X148955000Y-96095000I0J75000D01*
G01*
X148955000Y-95945000D01*
G75*
G02*
X149030000Y-95870000I75000J0D01*
G01*
X150355000Y-95870000D01*
G75*
G02*
X150430000Y-95945000I0J-75000D01*
G01*
X150430000Y-96095000D01*
G75*
G02*
X150355000Y-96170000I-75000J0D01*
G01*
G37*
G36*
G01*
X150355000Y-95670000D02*
X149030000Y-95670000D01*
G75*
G02*
X148955000Y-95595000I0J75000D01*
G01*
X148955000Y-95445000D01*
G75*
G02*
X149030000Y-95370000I75000J0D01*
G01*
X150355000Y-95370000D01*
G75*
G02*
X150430000Y-95445000I0J-75000D01*
G01*
X150430000Y-95595000D01*
G75*
G02*
X150355000Y-95670000I-75000J0D01*
G01*
G37*
G36*
G01*
X150355000Y-95170000D02*
X149030000Y-95170000D01*
G75*
G02*
X148955000Y-95095000I0J75000D01*
G01*
X148955000Y-94945000D01*
G75*
G02*
X149030000Y-94870000I75000J0D01*
G01*
X150355000Y-94870000D01*
G75*
G02*
X150430000Y-94945000I0J-75000D01*
G01*
X150430000Y-95095000D01*
G75*
G02*
X150355000Y-95170000I-75000J0D01*
G01*
G37*
G36*
G01*
X150355000Y-94670000D02*
X149030000Y-94670000D01*
G75*
G02*
X148955000Y-94595000I0J75000D01*
G01*
X148955000Y-94445000D01*
G75*
G02*
X149030000Y-94370000I75000J0D01*
G01*
X150355000Y-94370000D01*
G75*
G02*
X150430000Y-94445000I0J-75000D01*
G01*
X150430000Y-94595000D01*
G75*
G02*
X150355000Y-94670000I-75000J0D01*
G01*
G37*
G36*
G01*
X148355000Y-93845000D02*
X148205000Y-93845000D01*
G75*
G02*
X148130000Y-93770000I0J75000D01*
G01*
X148130000Y-92445000D01*
G75*
G02*
X148205000Y-92370000I75000J0D01*
G01*
X148355000Y-92370000D01*
G75*
G02*
X148430000Y-92445000I0J-75000D01*
G01*
X148430000Y-93770000D01*
G75*
G02*
X148355000Y-93845000I-75000J0D01*
G01*
G37*
G36*
G01*
X147855000Y-93845000D02*
X147705000Y-93845000D01*
G75*
G02*
X147630000Y-93770000I0J75000D01*
G01*
X147630000Y-92445000D01*
G75*
G02*
X147705000Y-92370000I75000J0D01*
G01*
X147855000Y-92370000D01*
G75*
G02*
X147930000Y-92445000I0J-75000D01*
G01*
X147930000Y-93770000D01*
G75*
G02*
X147855000Y-93845000I-75000J0D01*
G01*
G37*
G36*
G01*
X147355000Y-93845000D02*
X147205000Y-93845000D01*
G75*
G02*
X147130000Y-93770000I0J75000D01*
G01*
X147130000Y-92445000D01*
G75*
G02*
X147205000Y-92370000I75000J0D01*
G01*
X147355000Y-92370000D01*
G75*
G02*
X147430000Y-92445000I0J-75000D01*
G01*
X147430000Y-93770000D01*
G75*
G02*
X147355000Y-93845000I-75000J0D01*
G01*
G37*
G36*
G01*
X146855000Y-93845000D02*
X146705000Y-93845000D01*
G75*
G02*
X146630000Y-93770000I0J75000D01*
G01*
X146630000Y-92445000D01*
G75*
G02*
X146705000Y-92370000I75000J0D01*
G01*
X146855000Y-92370000D01*
G75*
G02*
X146930000Y-92445000I0J-75000D01*
G01*
X146930000Y-93770000D01*
G75*
G02*
X146855000Y-93845000I-75000J0D01*
G01*
G37*
G36*
G01*
X146355000Y-93845000D02*
X146205000Y-93845000D01*
G75*
G02*
X146130000Y-93770000I0J75000D01*
G01*
X146130000Y-92445000D01*
G75*
G02*
X146205000Y-92370000I75000J0D01*
G01*
X146355000Y-92370000D01*
G75*
G02*
X146430000Y-92445000I0J-75000D01*
G01*
X146430000Y-93770000D01*
G75*
G02*
X146355000Y-93845000I-75000J0D01*
G01*
G37*
G36*
G01*
X145855000Y-93845000D02*
X145705000Y-93845000D01*
G75*
G02*
X145630000Y-93770000I0J75000D01*
G01*
X145630000Y-92445000D01*
G75*
G02*
X145705000Y-92370000I75000J0D01*
G01*
X145855000Y-92370000D01*
G75*
G02*
X145930000Y-92445000I0J-75000D01*
G01*
X145930000Y-93770000D01*
G75*
G02*
X145855000Y-93845000I-75000J0D01*
G01*
G37*
G36*
G01*
X145355000Y-93845000D02*
X145205000Y-93845000D01*
G75*
G02*
X145130000Y-93770000I0J75000D01*
G01*
X145130000Y-92445000D01*
G75*
G02*
X145205000Y-92370000I75000J0D01*
G01*
X145355000Y-92370000D01*
G75*
G02*
X145430000Y-92445000I0J-75000D01*
G01*
X145430000Y-93770000D01*
G75*
G02*
X145355000Y-93845000I-75000J0D01*
G01*
G37*
G36*
G01*
X144855000Y-93845000D02*
X144705000Y-93845000D01*
G75*
G02*
X144630000Y-93770000I0J75000D01*
G01*
X144630000Y-92445000D01*
G75*
G02*
X144705000Y-92370000I75000J0D01*
G01*
X144855000Y-92370000D01*
G75*
G02*
X144930000Y-92445000I0J-75000D01*
G01*
X144930000Y-93770000D01*
G75*
G02*
X144855000Y-93845000I-75000J0D01*
G01*
G37*
G36*
G01*
X144355000Y-93845000D02*
X144205000Y-93845000D01*
G75*
G02*
X144130000Y-93770000I0J75000D01*
G01*
X144130000Y-92445000D01*
G75*
G02*
X144205000Y-92370000I75000J0D01*
G01*
X144355000Y-92370000D01*
G75*
G02*
X144430000Y-92445000I0J-75000D01*
G01*
X144430000Y-93770000D01*
G75*
G02*
X144355000Y-93845000I-75000J0D01*
G01*
G37*
G36*
G01*
X143855000Y-93845000D02*
X143705000Y-93845000D01*
G75*
G02*
X143630000Y-93770000I0J75000D01*
G01*
X143630000Y-92445000D01*
G75*
G02*
X143705000Y-92370000I75000J0D01*
G01*
X143855000Y-92370000D01*
G75*
G02*
X143930000Y-92445000I0J-75000D01*
G01*
X143930000Y-93770000D01*
G75*
G02*
X143855000Y-93845000I-75000J0D01*
G01*
G37*
G36*
G01*
X143355000Y-93845000D02*
X143205000Y-93845000D01*
G75*
G02*
X143130000Y-93770000I0J75000D01*
G01*
X143130000Y-92445000D01*
G75*
G02*
X143205000Y-92370000I75000J0D01*
G01*
X143355000Y-92370000D01*
G75*
G02*
X143430000Y-92445000I0J-75000D01*
G01*
X143430000Y-93770000D01*
G75*
G02*
X143355000Y-93845000I-75000J0D01*
G01*
G37*
G36*
G01*
X142855000Y-93845000D02*
X142705000Y-93845000D01*
G75*
G02*
X142630000Y-93770000I0J75000D01*
G01*
X142630000Y-92445000D01*
G75*
G02*
X142705000Y-92370000I75000J0D01*
G01*
X142855000Y-92370000D01*
G75*
G02*
X142930000Y-92445000I0J-75000D01*
G01*
X142930000Y-93770000D01*
G75*
G02*
X142855000Y-93845000I-75000J0D01*
G01*
G37*
G36*
G01*
X142030000Y-94670000D02*
X140705000Y-94670000D01*
G75*
G02*
X140630000Y-94595000I0J75000D01*
G01*
X140630000Y-94445000D01*
G75*
G02*
X140705000Y-94370000I75000J0D01*
G01*
X142030000Y-94370000D01*
G75*
G02*
X142105000Y-94445000I0J-75000D01*
G01*
X142105000Y-94595000D01*
G75*
G02*
X142030000Y-94670000I-75000J0D01*
G01*
G37*
G36*
G01*
X142030000Y-95170000D02*
X140705000Y-95170000D01*
G75*
G02*
X140630000Y-95095000I0J75000D01*
G01*
X140630000Y-94945000D01*
G75*
G02*
X140705000Y-94870000I75000J0D01*
G01*
X142030000Y-94870000D01*
G75*
G02*
X142105000Y-94945000I0J-75000D01*
G01*
X142105000Y-95095000D01*
G75*
G02*
X142030000Y-95170000I-75000J0D01*
G01*
G37*
G36*
G01*
X142030000Y-95670000D02*
X140705000Y-95670000D01*
G75*
G02*
X140630000Y-95595000I0J75000D01*
G01*
X140630000Y-95445000D01*
G75*
G02*
X140705000Y-95370000I75000J0D01*
G01*
X142030000Y-95370000D01*
G75*
G02*
X142105000Y-95445000I0J-75000D01*
G01*
X142105000Y-95595000D01*
G75*
G02*
X142030000Y-95670000I-75000J0D01*
G01*
G37*
G36*
G01*
X142030000Y-96170000D02*
X140705000Y-96170000D01*
G75*
G02*
X140630000Y-96095000I0J75000D01*
G01*
X140630000Y-95945000D01*
G75*
G02*
X140705000Y-95870000I75000J0D01*
G01*
X142030000Y-95870000D01*
G75*
G02*
X142105000Y-95945000I0J-75000D01*
G01*
X142105000Y-96095000D01*
G75*
G02*
X142030000Y-96170000I-75000J0D01*
G01*
G37*
G36*
G01*
X142030000Y-96670000D02*
X140705000Y-96670000D01*
G75*
G02*
X140630000Y-96595000I0J75000D01*
G01*
X140630000Y-96445000D01*
G75*
G02*
X140705000Y-96370000I75000J0D01*
G01*
X142030000Y-96370000D01*
G75*
G02*
X142105000Y-96445000I0J-75000D01*
G01*
X142105000Y-96595000D01*
G75*
G02*
X142030000Y-96670000I-75000J0D01*
G01*
G37*
G36*
G01*
X142030000Y-97170000D02*
X140705000Y-97170000D01*
G75*
G02*
X140630000Y-97095000I0J75000D01*
G01*
X140630000Y-96945000D01*
G75*
G02*
X140705000Y-96870000I75000J0D01*
G01*
X142030000Y-96870000D01*
G75*
G02*
X142105000Y-96945000I0J-75000D01*
G01*
X142105000Y-97095000D01*
G75*
G02*
X142030000Y-97170000I-75000J0D01*
G01*
G37*
G36*
G01*
X142030000Y-97670000D02*
X140705000Y-97670000D01*
G75*
G02*
X140630000Y-97595000I0J75000D01*
G01*
X140630000Y-97445000D01*
G75*
G02*
X140705000Y-97370000I75000J0D01*
G01*
X142030000Y-97370000D01*
G75*
G02*
X142105000Y-97445000I0J-75000D01*
G01*
X142105000Y-97595000D01*
G75*
G02*
X142030000Y-97670000I-75000J0D01*
G01*
G37*
G36*
G01*
X142030000Y-98170000D02*
X140705000Y-98170000D01*
G75*
G02*
X140630000Y-98095000I0J75000D01*
G01*
X140630000Y-97945000D01*
G75*
G02*
X140705000Y-97870000I75000J0D01*
G01*
X142030000Y-97870000D01*
G75*
G02*
X142105000Y-97945000I0J-75000D01*
G01*
X142105000Y-98095000D01*
G75*
G02*
X142030000Y-98170000I-75000J0D01*
G01*
G37*
G36*
G01*
X142030000Y-98670000D02*
X140705000Y-98670000D01*
G75*
G02*
X140630000Y-98595000I0J75000D01*
G01*
X140630000Y-98445000D01*
G75*
G02*
X140705000Y-98370000I75000J0D01*
G01*
X142030000Y-98370000D01*
G75*
G02*
X142105000Y-98445000I0J-75000D01*
G01*
X142105000Y-98595000D01*
G75*
G02*
X142030000Y-98670000I-75000J0D01*
G01*
G37*
G36*
G01*
X142030000Y-99170000D02*
X140705000Y-99170000D01*
G75*
G02*
X140630000Y-99095000I0J75000D01*
G01*
X140630000Y-98945000D01*
G75*
G02*
X140705000Y-98870000I75000J0D01*
G01*
X142030000Y-98870000D01*
G75*
G02*
X142105000Y-98945000I0J-75000D01*
G01*
X142105000Y-99095000D01*
G75*
G02*
X142030000Y-99170000I-75000J0D01*
G01*
G37*
G36*
G01*
X142030000Y-99670000D02*
X140705000Y-99670000D01*
G75*
G02*
X140630000Y-99595000I0J75000D01*
G01*
X140630000Y-99445000D01*
G75*
G02*
X140705000Y-99370000I75000J0D01*
G01*
X142030000Y-99370000D01*
G75*
G02*
X142105000Y-99445000I0J-75000D01*
G01*
X142105000Y-99595000D01*
G75*
G02*
X142030000Y-99670000I-75000J0D01*
G01*
G37*
G36*
G01*
X142030000Y-100170000D02*
X140705000Y-100170000D01*
G75*
G02*
X140630000Y-100095000I0J75000D01*
G01*
X140630000Y-99945000D01*
G75*
G02*
X140705000Y-99870000I75000J0D01*
G01*
X142030000Y-99870000D01*
G75*
G02*
X142105000Y-99945000I0J-75000D01*
G01*
X142105000Y-100095000D01*
G75*
G02*
X142030000Y-100170000I-75000J0D01*
G01*
G37*
D19*
X166420000Y-86800000D03*
D20*
X163880000Y-86800000D03*
X161340000Y-86800000D03*
X158790000Y-86800000D03*
X156260000Y-86800000D03*
X153720000Y-86800000D03*
X151180000Y-86800000D03*
D19*
X136350000Y-86820000D03*
D20*
X136350000Y-89360000D03*
X133810000Y-86820000D03*
X133810000Y-89360000D03*
X131270000Y-86820000D03*
X131270000Y-89360000D03*
X128730000Y-86820000D03*
X128730000Y-89360000D03*
G36*
G01*
X134005000Y-110525000D02*
X134005000Y-109975000D01*
G75*
G02*
X134205000Y-109775000I200000J0D01*
G01*
X134605000Y-109775000D01*
G75*
G02*
X134805000Y-109975000I0J-200000D01*
G01*
X134805000Y-110525000D01*
G75*
G02*
X134605000Y-110725000I-200000J0D01*
G01*
X134205000Y-110725000D01*
G75*
G02*
X134005000Y-110525000I0J200000D01*
G01*
G37*
G36*
G01*
X135655000Y-110525000D02*
X135655000Y-109975000D01*
G75*
G02*
X135855000Y-109775000I200000J0D01*
G01*
X136255000Y-109775000D01*
G75*
G02*
X136455000Y-109975000I0J-200000D01*
G01*
X136455000Y-110525000D01*
G75*
G02*
X136255000Y-110725000I-200000J0D01*
G01*
X135855000Y-110725000D01*
G75*
G02*
X135655000Y-110525000I0J200000D01*
G01*
G37*
G36*
G01*
X135655000Y-112015000D02*
X135655000Y-111465000D01*
G75*
G02*
X135855000Y-111265000I200000J0D01*
G01*
X136255000Y-111265000D01*
G75*
G02*
X136455000Y-111465000I0J-200000D01*
G01*
X136455000Y-112015000D01*
G75*
G02*
X136255000Y-112215000I-200000J0D01*
G01*
X135855000Y-112215000D01*
G75*
G02*
X135655000Y-112015000I0J200000D01*
G01*
G37*
G36*
G01*
X134005000Y-112015000D02*
X134005000Y-111465000D01*
G75*
G02*
X134205000Y-111265000I200000J0D01*
G01*
X134605000Y-111265000D01*
G75*
G02*
X134805000Y-111465000I0J-200000D01*
G01*
X134805000Y-112015000D01*
G75*
G02*
X134605000Y-112215000I-200000J0D01*
G01*
X134205000Y-112215000D01*
G75*
G02*
X134005000Y-112015000I0J200000D01*
G01*
G37*
G36*
G01*
X135655000Y-113505000D02*
X135655000Y-112955000D01*
G75*
G02*
X135855000Y-112755000I200000J0D01*
G01*
X136255000Y-112755000D01*
G75*
G02*
X136455000Y-112955000I0J-200000D01*
G01*
X136455000Y-113505000D01*
G75*
G02*
X136255000Y-113705000I-200000J0D01*
G01*
X135855000Y-113705000D01*
G75*
G02*
X135655000Y-113505000I0J200000D01*
G01*
G37*
G36*
G01*
X134005000Y-113505000D02*
X134005000Y-112955000D01*
G75*
G02*
X134205000Y-112755000I200000J0D01*
G01*
X134605000Y-112755000D01*
G75*
G02*
X134805000Y-112955000I0J-200000D01*
G01*
X134805000Y-113505000D01*
G75*
G02*
X134605000Y-113705000I-200000J0D01*
G01*
X134205000Y-113705000D01*
G75*
G02*
X134005000Y-113505000I0J200000D01*
G01*
G37*
D21*
X158180000Y-113350000D03*
X158180000Y-109650000D03*
G36*
G01*
X164905000Y-96045000D02*
X164905000Y-95495000D01*
G75*
G02*
X165105000Y-95295000I200000J0D01*
G01*
X165505000Y-95295000D01*
G75*
G02*
X165705000Y-95495000I0J-200000D01*
G01*
X165705000Y-96045000D01*
G75*
G02*
X165505000Y-96245000I-200000J0D01*
G01*
X165105000Y-96245000D01*
G75*
G02*
X164905000Y-96045000I0J200000D01*
G01*
G37*
G36*
G01*
X166555000Y-96045000D02*
X166555000Y-95495000D01*
G75*
G02*
X166755000Y-95295000I200000J0D01*
G01*
X167155000Y-95295000D01*
G75*
G02*
X167355000Y-95495000I0J-200000D01*
G01*
X167355000Y-96045000D01*
G75*
G02*
X167155000Y-96245000I-200000J0D01*
G01*
X166755000Y-96245000D01*
G75*
G02*
X166555000Y-96045000I0J200000D01*
G01*
G37*
D22*
X153220000Y-101550000D03*
X153220000Y-103450000D03*
X155220000Y-102500000D03*
G36*
G01*
X129400000Y-105850000D02*
X129400000Y-105350000D01*
G75*
G02*
X129625000Y-105125000I225000J0D01*
G01*
X130075000Y-105125000D01*
G75*
G02*
X130300000Y-105350000I0J-225000D01*
G01*
X130300000Y-105850000D01*
G75*
G02*
X130075000Y-106075000I-225000J0D01*
G01*
X129625000Y-106075000D01*
G75*
G02*
X129400000Y-105850000I0J225000D01*
G01*
G37*
G36*
G01*
X130950000Y-105850000D02*
X130950000Y-105350000D01*
G75*
G02*
X131175000Y-105125000I225000J0D01*
G01*
X131625000Y-105125000D01*
G75*
G02*
X131850000Y-105350000I0J-225000D01*
G01*
X131850000Y-105850000D01*
G75*
G02*
X131625000Y-106075000I-225000J0D01*
G01*
X131175000Y-106075000D01*
G75*
G02*
X130950000Y-105850000I0J225000D01*
G01*
G37*
G36*
G01*
X132860000Y-105850000D02*
X132860000Y-105350000D01*
G75*
G02*
X133085000Y-105125000I225000J0D01*
G01*
X133535000Y-105125000D01*
G75*
G02*
X133760000Y-105350000I0J-225000D01*
G01*
X133760000Y-105850000D01*
G75*
G02*
X133535000Y-106075000I-225000J0D01*
G01*
X133085000Y-106075000D01*
G75*
G02*
X132860000Y-105850000I0J225000D01*
G01*
G37*
G36*
G01*
X134410000Y-105850000D02*
X134410000Y-105350000D01*
G75*
G02*
X134635000Y-105125000I225000J0D01*
G01*
X135085000Y-105125000D01*
G75*
G02*
X135310000Y-105350000I0J-225000D01*
G01*
X135310000Y-105850000D01*
G75*
G02*
X135085000Y-106075000I-225000J0D01*
G01*
X134635000Y-106075000D01*
G75*
G02*
X134410000Y-105850000I0J225000D01*
G01*
G37*
G36*
G01*
X138520000Y-92355000D02*
X138020000Y-92355000D01*
G75*
G02*
X137795000Y-92130000I0J225000D01*
G01*
X137795000Y-91680000D01*
G75*
G02*
X138020000Y-91455000I225000J0D01*
G01*
X138520000Y-91455000D01*
G75*
G02*
X138745000Y-91680000I0J-225000D01*
G01*
X138745000Y-92130000D01*
G75*
G02*
X138520000Y-92355000I-225000J0D01*
G01*
G37*
G36*
G01*
X138520000Y-93905000D02*
X138020000Y-93905000D01*
G75*
G02*
X137795000Y-93680000I0J225000D01*
G01*
X137795000Y-93230000D01*
G75*
G02*
X138020000Y-93005000I225000J0D01*
G01*
X138520000Y-93005000D01*
G75*
G02*
X138745000Y-93230000I0J-225000D01*
G01*
X138745000Y-93680000D01*
G75*
G02*
X138520000Y-93905000I-225000J0D01*
G01*
G37*
G36*
G01*
X129400000Y-104385000D02*
X129400000Y-103835000D01*
G75*
G02*
X129600000Y-103635000I200000J0D01*
G01*
X130000000Y-103635000D01*
G75*
G02*
X130200000Y-103835000I0J-200000D01*
G01*
X130200000Y-104385000D01*
G75*
G02*
X130000000Y-104585000I-200000J0D01*
G01*
X129600000Y-104585000D01*
G75*
G02*
X129400000Y-104385000I0J200000D01*
G01*
G37*
G36*
G01*
X131050000Y-104385000D02*
X131050000Y-103835000D01*
G75*
G02*
X131250000Y-103635000I200000J0D01*
G01*
X131650000Y-103635000D01*
G75*
G02*
X131850000Y-103835000I0J-200000D01*
G01*
X131850000Y-104385000D01*
G75*
G02*
X131650000Y-104585000I-200000J0D01*
G01*
X131250000Y-104585000D01*
G75*
G02*
X131050000Y-104385000I0J200000D01*
G01*
G37*
G36*
G01*
X134510000Y-104385000D02*
X134510000Y-103835000D01*
G75*
G02*
X134710000Y-103635000I200000J0D01*
G01*
X135110000Y-103635000D01*
G75*
G02*
X135310000Y-103835000I0J-200000D01*
G01*
X135310000Y-104385000D01*
G75*
G02*
X135110000Y-104585000I-200000J0D01*
G01*
X134710000Y-104585000D01*
G75*
G02*
X134510000Y-104385000I0J200000D01*
G01*
G37*
G36*
G01*
X132860000Y-104385000D02*
X132860000Y-103835000D01*
G75*
G02*
X133060000Y-103635000I200000J0D01*
G01*
X133460000Y-103635000D01*
G75*
G02*
X133660000Y-103835000I0J-200000D01*
G01*
X133660000Y-104385000D01*
G75*
G02*
X133460000Y-104585000I-200000J0D01*
G01*
X133060000Y-104585000D01*
G75*
G02*
X132860000Y-104385000I0J200000D01*
G01*
G37*
G36*
G01*
X137045000Y-93905000D02*
X136495000Y-93905000D01*
G75*
G02*
X136295000Y-93705000I0J200000D01*
G01*
X136295000Y-93305000D01*
G75*
G02*
X136495000Y-93105000I200000J0D01*
G01*
X137045000Y-93105000D01*
G75*
G02*
X137245000Y-93305000I0J-200000D01*
G01*
X137245000Y-93705000D01*
G75*
G02*
X137045000Y-93905000I-200000J0D01*
G01*
G37*
G36*
G01*
X137045000Y-92255000D02*
X136495000Y-92255000D01*
G75*
G02*
X136295000Y-92055000I0J200000D01*
G01*
X136295000Y-91655000D01*
G75*
G02*
X136495000Y-91455000I200000J0D01*
G01*
X137045000Y-91455000D01*
G75*
G02*
X137245000Y-91655000I0J-200000D01*
G01*
X137245000Y-92055000D01*
G75*
G02*
X137045000Y-92255000I-200000J0D01*
G01*
G37*
G36*
G01*
X148965000Y-102055000D02*
X148965000Y-101505000D01*
G75*
G02*
X149165000Y-101305000I200000J0D01*
G01*
X149565000Y-101305000D01*
G75*
G02*
X149765000Y-101505000I0J-200000D01*
G01*
X149765000Y-102055000D01*
G75*
G02*
X149565000Y-102255000I-200000J0D01*
G01*
X149165000Y-102255000D01*
G75*
G02*
X148965000Y-102055000I0J200000D01*
G01*
G37*
G36*
G01*
X150615000Y-102055000D02*
X150615000Y-101505000D01*
G75*
G02*
X150815000Y-101305000I200000J0D01*
G01*
X151215000Y-101305000D01*
G75*
G02*
X151415000Y-101505000I0J-200000D01*
G01*
X151415000Y-102055000D01*
G75*
G02*
X151215000Y-102255000I-200000J0D01*
G01*
X150815000Y-102255000D01*
G75*
G02*
X150615000Y-102055000I0J200000D01*
G01*
G37*
M02*
