M48
; DRILL file {KiCad 5.1.10-88a1d61d58~90~ubuntu20.04.1} date Fri Aug  6 19:03:47 2021
; FORMAT={-:-/ absolute / inch / decimal}
; #@! TF.CreationDate,2021-08-06T19:03:47+02:00
; #@! TF.GenerationSoftware,Kicad,Pcbnew,5.1.10-88a1d61d58~90~ubuntu20.04.1
; #@! TF.FileFunction,Plated,1,4,PTH
FMAT,2
INCH
T1C0.0157
T2C0.0197
T3C0.0315
T4C0.0374
T5C0.0394
T6C0.0787
%
G90
G05
T1
X4.9972Y-3.6813
X5.0Y-3.4252
X5.0Y-4.4488
X5.2106Y-4.0988
X5.2106Y-4.1575
X5.3846Y-3.5811
X5.4437Y-3.5811
X5.5156Y-3.6142
X5.5156Y-4.0453
X5.5766Y-3.6142
X5.5766Y-4.0453
X5.6134Y-3.9181
X5.6409Y-3.7134
X5.6803Y-3.7134
X5.7291Y-3.8287
X5.7591Y-3.9449
X5.7783Y-4.0657
X5.8453Y-3.7409
X5.911Y-4.4563
X5.9114Y-4.0657
X5.9157Y-4.246
X5.9524Y-4.3484
X6.0Y-3.7006
X6.0Y-3.7616
X6.0272Y-4.3484
X6.0665Y-4.4673
X6.0689Y-4.0728
X6.0787Y-4.2295
X6.0787Y-4.261
X6.0976Y-4.315
X6.1315Y-3.8882
X6.1457Y-4.3529
X6.1913Y-4.3898
X6.2305Y-4.1602
X6.2646Y-4.0063
X6.2888Y-3.8799
X6.2953Y-3.7573
X6.3016Y-4.3898
X6.3154Y-4.1984
X6.3388Y-4.0646
X6.3421Y-4.3173
X6.3449Y-3.8272
X6.3469Y-4.1984
X6.3543Y-3.5461
X6.3732Y-3.6073
X6.376Y-4.4764
X6.3823Y-4.3898
X6.4118Y-4.3898
X6.4492Y-4.3898
X6.4866Y-4.3898
X6.5161Y-4.3898
X6.6067Y-3.8283
X6.6071Y-3.6498
X6.6091Y-4.2937
X6.6102Y-4.3366
X6.6102Y-4.3681
X6.6189Y-4.4764
X6.811Y-3.4252
X6.811Y-4.4488
T2
X5.5504Y-3.4268
X5.5504Y-3.4819
X5.5898Y-3.4268
X5.5898Y-3.4819
X5.6291Y-3.4268
X5.6291Y-3.4819
X5.6685Y-3.4268
X5.6685Y-3.4819
X5.7079Y-3.4268
X5.7079Y-3.4819
X5.7472Y-3.4268
X5.7472Y-3.4819
X5.7866Y-3.4268
X5.7866Y-3.4819
X5.826Y-3.4268
X5.826Y-3.4819
T3
X5.2157Y-4.3209
X5.2157Y-4.3709
X5.2157Y-4.4209
X5.2157Y-4.4709
T4
X6.7362Y-3.5252
X6.7362Y-3.6236
X6.7362Y-3.722
X6.7362Y-3.8205
X6.7362Y-3.9189
X6.7362Y-4.152
X6.7362Y-4.2504
X6.7362Y-4.3488
T5
X5.0681Y-3.4181
X5.0681Y-3.5181
X5.1122Y-3.6614
X5.1122Y-4.2323
X5.1681Y-3.4181
X5.1681Y-3.5181
X5.2106Y-4.2323
X5.2681Y-3.4181
X5.2681Y-3.5181
X5.3091Y-3.6614
X5.3091Y-4.2323
X5.3681Y-3.4181
X5.3681Y-3.5181
X5.4776Y-4.2815
X5.7768Y-4.2815
X5.952Y-3.4173
X6.052Y-3.4173
X6.152Y-3.4173
X6.2516Y-3.4173
X6.352Y-3.4173
X6.452Y-3.4173
X6.552Y-3.4173
T2
G00X5.5878Y-3.3783
M15
G01X5.6311Y-3.3783
M16
G05
G00X5.5878Y-3.5303
M15
G01X5.6311Y-3.5303
M16
G05
G00X5.7453Y-3.3783
M15
G01X5.7886Y-3.3783
M16
G05
G00X5.7453Y-3.5303
M15
G01X5.7886Y-3.5303
M16
G05
T6
G00X4.9902Y-3.9469
M15
G01X4.9902Y-3.9272
M16
G05
G00X5.4311Y-3.9469
M15
G01X5.4311Y-3.9272
M16
G05
T0
M30
