G04 #@! TF.GenerationSoftware,KiCad,Pcbnew,5.1.10-88a1d61d58~90~ubuntu20.04.1*
G04 #@! TF.CreationDate,2021-08-05T14:32:23+02:00*
G04 #@! TF.ProjectId,arlene,61726c65-6e65-42e6-9b69-6361645f7063,v1.00*
G04 #@! TF.SameCoordinates,Original*
G04 #@! TF.FileFunction,Copper,L1,Top*
G04 #@! TF.FilePolarity,Positive*
%FSLAX46Y46*%
G04 Gerber Fmt 4.6, Leading zero omitted, Abs format (unit mm)*
G04 Created by KiCad (PCBNEW 5.1.10-88a1d61d58~90~ubuntu20.04.1) date 2021-08-05 14:32:23*
%MOMM*%
%LPD*%
G01*
G04 APERTURE LIST*
G04 #@! TA.AperFunction,ComponentPad*
%ADD10O,1.800000X1.070000*%
G04 #@! TD*
G04 #@! TA.AperFunction,ComponentPad*
%ADD11R,1.800000X1.070000*%
G04 #@! TD*
G04 #@! TA.AperFunction,ComponentPad*
%ADD12O,1.950000X1.700000*%
G04 #@! TD*
G04 #@! TA.AperFunction,ComponentPad*
%ADD13C,2.000000*%
G04 #@! TD*
G04 #@! TA.AperFunction,ComponentPad*
%ADD14R,2.500000X3.000000*%
G04 #@! TD*
G04 #@! TA.AperFunction,ComponentPad*
%ADD15R,2.000000X2.000000*%
G04 #@! TD*
G04 #@! TA.AperFunction,SMDPad,CuDef*
%ADD16R,0.600000X0.450000*%
G04 #@! TD*
G04 #@! TA.AperFunction,SMDPad,CuDef*
%ADD17R,0.650000X1.060000*%
G04 #@! TD*
G04 #@! TA.AperFunction,SMDPad,CuDef*
%ADD18R,0.800000X0.900000*%
G04 #@! TD*
G04 #@! TA.AperFunction,ComponentPad*
%ADD19R,1.700000X1.700000*%
G04 #@! TD*
G04 #@! TA.AperFunction,ComponentPad*
%ADD20O,1.700000X1.700000*%
G04 #@! TD*
G04 #@! TA.AperFunction,SMDPad,CuDef*
%ADD21R,1.600000X1.000000*%
G04 #@! TD*
G04 #@! TA.AperFunction,SMDPad,CuDef*
%ADD22R,0.900000X0.800000*%
G04 #@! TD*
G04 #@! TA.AperFunction,ViaPad*
%ADD23C,0.800000*%
G04 #@! TD*
G04 #@! TA.AperFunction,ViaPad*
%ADD24C,0.700000*%
G04 #@! TD*
G04 #@! TA.AperFunction,Conductor*
%ADD25C,0.250000*%
G04 #@! TD*
G04 #@! TA.AperFunction,Conductor*
%ADD26C,0.500000*%
G04 #@! TD*
G04 #@! TA.AperFunction,Conductor*
%ADD27C,1.000000*%
G04 #@! TD*
G04 #@! TA.AperFunction,Conductor*
%ADD28C,0.300000*%
G04 #@! TD*
G04 #@! TA.AperFunction,Conductor*
%ADD29C,0.200000*%
G04 #@! TD*
G04 #@! TA.AperFunction,Conductor*
%ADD30C,0.254000*%
G04 #@! TD*
G04 #@! TA.AperFunction,Conductor*
%ADD31C,0.100000*%
G04 #@! TD*
G04 APERTURE END LIST*
G04 #@! TA.AperFunction,ComponentPad*
G36*
G01*
X144580000Y-88640000D02*
X144580000Y-88240000D01*
G75*
G02*
X144780000Y-88040000I200000J0D01*
G01*
X145180000Y-88040000D01*
G75*
G02*
X145380000Y-88240000I0J-200000D01*
G01*
X145380000Y-88640000D01*
G75*
G02*
X145180000Y-88840000I-200000J0D01*
G01*
X144780000Y-88840000D01*
G75*
G02*
X144580000Y-88640000I0J200000D01*
G01*
G37*
G04 #@! TD.AperFunction*
G04 #@! TA.AperFunction,ComponentPad*
G36*
G01*
X145580000Y-88640000D02*
X145580000Y-88240000D01*
G75*
G02*
X145780000Y-88040000I200000J0D01*
G01*
X146180000Y-88040000D01*
G75*
G02*
X146380000Y-88240000I0J-200000D01*
G01*
X146380000Y-88640000D01*
G75*
G02*
X146180000Y-88840000I-200000J0D01*
G01*
X145780000Y-88840000D01*
G75*
G02*
X145580000Y-88640000I0J200000D01*
G01*
G37*
G04 #@! TD.AperFunction*
G04 #@! TA.AperFunction,ComponentPad*
G36*
G01*
X146580000Y-88640000D02*
X146580000Y-88240000D01*
G75*
G02*
X146780000Y-88040000I200000J0D01*
G01*
X147180000Y-88040000D01*
G75*
G02*
X147380000Y-88240000I0J-200000D01*
G01*
X147380000Y-88640000D01*
G75*
G02*
X147180000Y-88840000I-200000J0D01*
G01*
X146780000Y-88840000D01*
G75*
G02*
X146580000Y-88640000I0J200000D01*
G01*
G37*
G04 #@! TD.AperFunction*
G04 #@! TA.AperFunction,ComponentPad*
G36*
G01*
X147580000Y-88640000D02*
X147580000Y-88240000D01*
G75*
G02*
X147780000Y-88040000I200000J0D01*
G01*
X148180000Y-88040000D01*
G75*
G02*
X148380000Y-88240000I0J-200000D01*
G01*
X148380000Y-88640000D01*
G75*
G02*
X148180000Y-88840000I-200000J0D01*
G01*
X147780000Y-88840000D01*
G75*
G02*
X147580000Y-88640000I0J200000D01*
G01*
G37*
G04 #@! TD.AperFunction*
G04 #@! TA.AperFunction,ComponentPad*
G36*
G01*
X143580000Y-88640000D02*
X143580000Y-88240000D01*
G75*
G02*
X143780000Y-88040000I200000J0D01*
G01*
X144180000Y-88040000D01*
G75*
G02*
X144380000Y-88240000I0J-200000D01*
G01*
X144380000Y-88640000D01*
G75*
G02*
X144180000Y-88840000I-200000J0D01*
G01*
X143780000Y-88840000D01*
G75*
G02*
X143580000Y-88640000I0J200000D01*
G01*
G37*
G04 #@! TD.AperFunction*
G04 #@! TA.AperFunction,ComponentPad*
G36*
G01*
X141580000Y-88640000D02*
X141580000Y-88240000D01*
G75*
G02*
X141780000Y-88040000I200000J0D01*
G01*
X142180000Y-88040000D01*
G75*
G02*
X142380000Y-88240000I0J-200000D01*
G01*
X142380000Y-88640000D01*
G75*
G02*
X142180000Y-88840000I-200000J0D01*
G01*
X141780000Y-88840000D01*
G75*
G02*
X141580000Y-88640000I0J200000D01*
G01*
G37*
G04 #@! TD.AperFunction*
G04 #@! TA.AperFunction,ComponentPad*
G36*
G01*
X140580000Y-88640000D02*
X140580000Y-88240000D01*
G75*
G02*
X140780000Y-88040000I200000J0D01*
G01*
X141180000Y-88040000D01*
G75*
G02*
X141380000Y-88240000I0J-200000D01*
G01*
X141380000Y-88640000D01*
G75*
G02*
X141180000Y-88840000I-200000J0D01*
G01*
X140780000Y-88840000D01*
G75*
G02*
X140580000Y-88640000I0J200000D01*
G01*
G37*
G04 #@! TD.AperFunction*
G04 #@! TA.AperFunction,ComponentPad*
G36*
G01*
X140580000Y-87240000D02*
X140580000Y-86840000D01*
G75*
G02*
X140780000Y-86640000I200000J0D01*
G01*
X141180000Y-86640000D01*
G75*
G02*
X141380000Y-86840000I0J-200000D01*
G01*
X141380000Y-87240000D01*
G75*
G02*
X141180000Y-87440000I-200000J0D01*
G01*
X140780000Y-87440000D01*
G75*
G02*
X140580000Y-87240000I0J200000D01*
G01*
G37*
G04 #@! TD.AperFunction*
G04 #@! TA.AperFunction,ComponentPad*
G36*
G01*
X141580000Y-87240000D02*
X141580000Y-86840000D01*
G75*
G02*
X141780000Y-86640000I200000J0D01*
G01*
X142180000Y-86640000D01*
G75*
G02*
X142380000Y-86840000I0J-200000D01*
G01*
X142380000Y-87240000D01*
G75*
G02*
X142180000Y-87440000I-200000J0D01*
G01*
X141780000Y-87440000D01*
G75*
G02*
X141580000Y-87240000I0J200000D01*
G01*
G37*
G04 #@! TD.AperFunction*
G04 #@! TA.AperFunction,ComponentPad*
G36*
G01*
X142580000Y-87240000D02*
X142580000Y-86840000D01*
G75*
G02*
X142780000Y-86640000I200000J0D01*
G01*
X143180000Y-86640000D01*
G75*
G02*
X143380000Y-86840000I0J-200000D01*
G01*
X143380000Y-87240000D01*
G75*
G02*
X143180000Y-87440000I-200000J0D01*
G01*
X142780000Y-87440000D01*
G75*
G02*
X142580000Y-87240000I0J200000D01*
G01*
G37*
G04 #@! TD.AperFunction*
G04 #@! TA.AperFunction,ComponentPad*
G36*
G01*
X143580000Y-87240000D02*
X143580000Y-86840000D01*
G75*
G02*
X143780000Y-86640000I200000J0D01*
G01*
X144180000Y-86640000D01*
G75*
G02*
X144380000Y-86840000I0J-200000D01*
G01*
X144380000Y-87240000D01*
G75*
G02*
X144180000Y-87440000I-200000J0D01*
G01*
X143780000Y-87440000D01*
G75*
G02*
X143580000Y-87240000I0J200000D01*
G01*
G37*
G04 #@! TD.AperFunction*
G04 #@! TA.AperFunction,ComponentPad*
G36*
G01*
X144580000Y-87240000D02*
X144580000Y-86840000D01*
G75*
G02*
X144780000Y-86640000I200000J0D01*
G01*
X145180000Y-86640000D01*
G75*
G02*
X145380000Y-86840000I0J-200000D01*
G01*
X145380000Y-87240000D01*
G75*
G02*
X145180000Y-87440000I-200000J0D01*
G01*
X144780000Y-87440000D01*
G75*
G02*
X144580000Y-87240000I0J200000D01*
G01*
G37*
G04 #@! TD.AperFunction*
G04 #@! TA.AperFunction,ComponentPad*
G36*
G01*
X146580000Y-87240000D02*
X146580000Y-86840000D01*
G75*
G02*
X146780000Y-86640000I200000J0D01*
G01*
X147180000Y-86640000D01*
G75*
G02*
X147380000Y-86840000I0J-200000D01*
G01*
X147380000Y-87240000D01*
G75*
G02*
X147180000Y-87440000I-200000J0D01*
G01*
X146780000Y-87440000D01*
G75*
G02*
X146580000Y-87240000I0J200000D01*
G01*
G37*
G04 #@! TD.AperFunction*
G04 #@! TA.AperFunction,ComponentPad*
G36*
G01*
X147580000Y-87240000D02*
X147580000Y-86840000D01*
G75*
G02*
X147780000Y-86640000I200000J0D01*
G01*
X148180000Y-86640000D01*
G75*
G02*
X148380000Y-86840000I0J-200000D01*
G01*
X148380000Y-87240000D01*
G75*
G02*
X148180000Y-87440000I-200000J0D01*
G01*
X147780000Y-87440000D01*
G75*
G02*
X147580000Y-87240000I0J200000D01*
G01*
G37*
G04 #@! TD.AperFunction*
G04 #@! TA.AperFunction,ComponentPad*
G36*
G01*
X141430000Y-86010000D02*
X141430000Y-85610000D01*
G75*
G02*
X141630000Y-85410000I200000J0D01*
G01*
X143330000Y-85410000D01*
G75*
G02*
X143530000Y-85610000I0J-200000D01*
G01*
X143530000Y-86010000D01*
G75*
G02*
X143330000Y-86210000I-200000J0D01*
G01*
X141630000Y-86210000D01*
G75*
G02*
X141430000Y-86010000I0J200000D01*
G01*
G37*
G04 #@! TD.AperFunction*
G04 #@! TA.AperFunction,ComponentPad*
G36*
G01*
X145430000Y-86010000D02*
X145430000Y-85610000D01*
G75*
G02*
X145630000Y-85410000I200000J0D01*
G01*
X147330000Y-85410000D01*
G75*
G02*
X147530000Y-85610000I0J-200000D01*
G01*
X147530000Y-86010000D01*
G75*
G02*
X147330000Y-86210000I-200000J0D01*
G01*
X145630000Y-86210000D01*
G75*
G02*
X145430000Y-86010000I0J200000D01*
G01*
G37*
G04 #@! TD.AperFunction*
G04 #@! TA.AperFunction,ComponentPad*
G36*
G01*
X145430000Y-89870000D02*
X145430000Y-89470000D01*
G75*
G02*
X145630000Y-89270000I200000J0D01*
G01*
X147330000Y-89270000D01*
G75*
G02*
X147530000Y-89470000I0J-200000D01*
G01*
X147530000Y-89870000D01*
G75*
G02*
X147330000Y-90070000I-200000J0D01*
G01*
X145630000Y-90070000D01*
G75*
G02*
X145430000Y-89870000I0J200000D01*
G01*
G37*
G04 #@! TD.AperFunction*
G04 #@! TA.AperFunction,ComponentPad*
G36*
G01*
X141430000Y-89870000D02*
X141430000Y-89470000D01*
G75*
G02*
X141630000Y-89270000I200000J0D01*
G01*
X143330000Y-89270000D01*
G75*
G02*
X143530000Y-89470000I0J-200000D01*
G01*
X143530000Y-89870000D01*
G75*
G02*
X143330000Y-90070000I-200000J0D01*
G01*
X141630000Y-90070000D01*
G75*
G02*
X141430000Y-89870000I0J200000D01*
G01*
G37*
G04 #@! TD.AperFunction*
G04 #@! TA.AperFunction,ComponentPad*
G36*
G01*
X145580000Y-87240000D02*
X145580000Y-86840000D01*
G75*
G02*
X145780000Y-86640000I200000J0D01*
G01*
X146180000Y-86640000D01*
G75*
G02*
X146380000Y-86840000I0J-200000D01*
G01*
X146380000Y-87240000D01*
G75*
G02*
X146180000Y-87440000I-200000J0D01*
G01*
X145780000Y-87440000D01*
G75*
G02*
X145580000Y-87240000I0J200000D01*
G01*
G37*
G04 #@! TD.AperFunction*
G04 #@! TA.AperFunction,ComponentPad*
G36*
G01*
X142580000Y-88640000D02*
X142580000Y-88240000D01*
G75*
G02*
X142780000Y-88040000I200000J0D01*
G01*
X143180000Y-88040000D01*
G75*
G02*
X143380000Y-88240000I0J-200000D01*
G01*
X143380000Y-88640000D01*
G75*
G02*
X143180000Y-88840000I-200000J0D01*
G01*
X142780000Y-88840000D01*
G75*
G02*
X142580000Y-88640000I0J200000D01*
G01*
G37*
G04 #@! TD.AperFunction*
D10*
X132480000Y-113560000D03*
X132480000Y-112290000D03*
X132480000Y-111020000D03*
D11*
X132480000Y-109750000D03*
G04 #@! TA.AperFunction,SMDPad,CuDef*
G36*
G01*
X167715000Y-106075000D02*
X164865000Y-106075000D01*
G75*
G02*
X164615000Y-105825000I0J250000D01*
G01*
X164615000Y-105100000D01*
G75*
G02*
X164865000Y-104850000I250000J0D01*
G01*
X167715000Y-104850000D01*
G75*
G02*
X167965000Y-105100000I0J-250000D01*
G01*
X167965000Y-105825000D01*
G75*
G02*
X167715000Y-106075000I-250000J0D01*
G01*
G37*
G04 #@! TD.AperFunction*
G04 #@! TA.AperFunction,SMDPad,CuDef*
G36*
G01*
X167715000Y-100150000D02*
X164865000Y-100150000D01*
G75*
G02*
X164615000Y-99900000I0J250000D01*
G01*
X164615000Y-99175000D01*
G75*
G02*
X164865000Y-98925000I250000J0D01*
G01*
X167715000Y-98925000D01*
G75*
G02*
X167965000Y-99175000I0J-250000D01*
G01*
X167965000Y-99900000D01*
G75*
G02*
X167715000Y-100150000I-250000J0D01*
G01*
G37*
G04 #@! TD.AperFunction*
G04 #@! TA.AperFunction,SMDPad,CuDef*
G36*
G01*
X166605000Y-92305000D02*
X167155000Y-92305000D01*
G75*
G02*
X167355000Y-92505000I0J-200000D01*
G01*
X167355000Y-92905000D01*
G75*
G02*
X167155000Y-93105000I-200000J0D01*
G01*
X166605000Y-93105000D01*
G75*
G02*
X166405000Y-92905000I0J200000D01*
G01*
X166405000Y-92505000D01*
G75*
G02*
X166605000Y-92305000I200000J0D01*
G01*
G37*
G04 #@! TD.AperFunction*
G04 #@! TA.AperFunction,SMDPad,CuDef*
G36*
G01*
X166605000Y-93955000D02*
X167155000Y-93955000D01*
G75*
G02*
X167355000Y-94155000I0J-200000D01*
G01*
X167355000Y-94555000D01*
G75*
G02*
X167155000Y-94755000I-200000J0D01*
G01*
X166605000Y-94755000D01*
G75*
G02*
X166405000Y-94555000I0J200000D01*
G01*
X166405000Y-94155000D01*
G75*
G02*
X166605000Y-93955000I200000J0D01*
G01*
G37*
G04 #@! TD.AperFunction*
G04 #@! TA.AperFunction,SMDPad,CuDef*
G36*
G01*
X165105000Y-93955000D02*
X165655000Y-93955000D01*
G75*
G02*
X165855000Y-94155000I0J-200000D01*
G01*
X165855000Y-94555000D01*
G75*
G02*
X165655000Y-94755000I-200000J0D01*
G01*
X165105000Y-94755000D01*
G75*
G02*
X164905000Y-94555000I0J200000D01*
G01*
X164905000Y-94155000D01*
G75*
G02*
X165105000Y-93955000I200000J0D01*
G01*
G37*
G04 #@! TD.AperFunction*
G04 #@! TA.AperFunction,SMDPad,CuDef*
G36*
G01*
X165105000Y-92305000D02*
X165655000Y-92305000D01*
G75*
G02*
X165855000Y-92505000I0J-200000D01*
G01*
X165855000Y-92905000D01*
G75*
G02*
X165655000Y-93105000I-200000J0D01*
G01*
X165105000Y-93105000D01*
G75*
G02*
X164905000Y-92905000I0J200000D01*
G01*
X164905000Y-92505000D01*
G75*
G02*
X165105000Y-92305000I200000J0D01*
G01*
G37*
G04 #@! TD.AperFunction*
G04 #@! TA.AperFunction,SMDPad,CuDef*
G36*
G01*
X165705000Y-91015000D02*
X165705000Y-91565000D01*
G75*
G02*
X165505000Y-91765000I-200000J0D01*
G01*
X165105000Y-91765000D01*
G75*
G02*
X164905000Y-91565000I0J200000D01*
G01*
X164905000Y-91015000D01*
G75*
G02*
X165105000Y-90815000I200000J0D01*
G01*
X165505000Y-90815000D01*
G75*
G02*
X165705000Y-91015000I0J-200000D01*
G01*
G37*
G04 #@! TD.AperFunction*
G04 #@! TA.AperFunction,SMDPad,CuDef*
G36*
G01*
X167355000Y-91015000D02*
X167355000Y-91565000D01*
G75*
G02*
X167155000Y-91765000I-200000J0D01*
G01*
X166755000Y-91765000D01*
G75*
G02*
X166555000Y-91565000I0J200000D01*
G01*
X166555000Y-91015000D01*
G75*
G02*
X166755000Y-90815000I200000J0D01*
G01*
X167155000Y-90815000D01*
G75*
G02*
X167355000Y-91015000I0J-200000D01*
G01*
G37*
G04 #@! TD.AperFunction*
G04 #@! TA.AperFunction,SMDPad,CuDef*
G36*
G01*
X157460000Y-91775000D02*
X157460000Y-91475000D01*
G75*
G02*
X157610000Y-91325000I150000J0D01*
G01*
X159260000Y-91325000D01*
G75*
G02*
X159410000Y-91475000I0J-150000D01*
G01*
X159410000Y-91775000D01*
G75*
G02*
X159260000Y-91925000I-150000J0D01*
G01*
X157610000Y-91925000D01*
G75*
G02*
X157460000Y-91775000I0J150000D01*
G01*
G37*
G04 #@! TD.AperFunction*
G04 #@! TA.AperFunction,SMDPad,CuDef*
G36*
G01*
X157460000Y-93045000D02*
X157460000Y-92745000D01*
G75*
G02*
X157610000Y-92595000I150000J0D01*
G01*
X159260000Y-92595000D01*
G75*
G02*
X159410000Y-92745000I0J-150000D01*
G01*
X159410000Y-93045000D01*
G75*
G02*
X159260000Y-93195000I-150000J0D01*
G01*
X157610000Y-93195000D01*
G75*
G02*
X157460000Y-93045000I0J150000D01*
G01*
G37*
G04 #@! TD.AperFunction*
G04 #@! TA.AperFunction,SMDPad,CuDef*
G36*
G01*
X157460000Y-94315000D02*
X157460000Y-94015000D01*
G75*
G02*
X157610000Y-93865000I150000J0D01*
G01*
X159260000Y-93865000D01*
G75*
G02*
X159410000Y-94015000I0J-150000D01*
G01*
X159410000Y-94315000D01*
G75*
G02*
X159260000Y-94465000I-150000J0D01*
G01*
X157610000Y-94465000D01*
G75*
G02*
X157460000Y-94315000I0J150000D01*
G01*
G37*
G04 #@! TD.AperFunction*
G04 #@! TA.AperFunction,SMDPad,CuDef*
G36*
G01*
X157460000Y-95585000D02*
X157460000Y-95285000D01*
G75*
G02*
X157610000Y-95135000I150000J0D01*
G01*
X159260000Y-95135000D01*
G75*
G02*
X159410000Y-95285000I0J-150000D01*
G01*
X159410000Y-95585000D01*
G75*
G02*
X159260000Y-95735000I-150000J0D01*
G01*
X157610000Y-95735000D01*
G75*
G02*
X157460000Y-95585000I0J150000D01*
G01*
G37*
G04 #@! TD.AperFunction*
G04 #@! TA.AperFunction,SMDPad,CuDef*
G36*
G01*
X162410000Y-95585000D02*
X162410000Y-95285000D01*
G75*
G02*
X162560000Y-95135000I150000J0D01*
G01*
X164210000Y-95135000D01*
G75*
G02*
X164360000Y-95285000I0J-150000D01*
G01*
X164360000Y-95585000D01*
G75*
G02*
X164210000Y-95735000I-150000J0D01*
G01*
X162560000Y-95735000D01*
G75*
G02*
X162410000Y-95585000I0J150000D01*
G01*
G37*
G04 #@! TD.AperFunction*
G04 #@! TA.AperFunction,SMDPad,CuDef*
G36*
G01*
X162410000Y-94315000D02*
X162410000Y-94015000D01*
G75*
G02*
X162560000Y-93865000I150000J0D01*
G01*
X164210000Y-93865000D01*
G75*
G02*
X164360000Y-94015000I0J-150000D01*
G01*
X164360000Y-94315000D01*
G75*
G02*
X164210000Y-94465000I-150000J0D01*
G01*
X162560000Y-94465000D01*
G75*
G02*
X162410000Y-94315000I0J150000D01*
G01*
G37*
G04 #@! TD.AperFunction*
G04 #@! TA.AperFunction,SMDPad,CuDef*
G36*
G01*
X162410000Y-93045000D02*
X162410000Y-92745000D01*
G75*
G02*
X162560000Y-92595000I150000J0D01*
G01*
X164210000Y-92595000D01*
G75*
G02*
X164360000Y-92745000I0J-150000D01*
G01*
X164360000Y-93045000D01*
G75*
G02*
X164210000Y-93195000I-150000J0D01*
G01*
X162560000Y-93195000D01*
G75*
G02*
X162410000Y-93045000I0J150000D01*
G01*
G37*
G04 #@! TD.AperFunction*
G04 #@! TA.AperFunction,SMDPad,CuDef*
G36*
G01*
X162410000Y-91775000D02*
X162410000Y-91475000D01*
G75*
G02*
X162560000Y-91325000I150000J0D01*
G01*
X164210000Y-91325000D01*
G75*
G02*
X164360000Y-91475000I0J-150000D01*
G01*
X164360000Y-91775000D01*
G75*
G02*
X164210000Y-91925000I-150000J0D01*
G01*
X162560000Y-91925000D01*
G75*
G02*
X162410000Y-91775000I0J150000D01*
G01*
G37*
G04 #@! TD.AperFunction*
G04 #@! TA.AperFunction,SMDPad,CuDef*
G36*
G01*
X156205000Y-102035000D02*
X156205000Y-101485000D01*
G75*
G02*
X156405000Y-101285000I200000J0D01*
G01*
X156805000Y-101285000D01*
G75*
G02*
X157005000Y-101485000I0J-200000D01*
G01*
X157005000Y-102035000D01*
G75*
G02*
X156805000Y-102235000I-200000J0D01*
G01*
X156405000Y-102235000D01*
G75*
G02*
X156205000Y-102035000I0J200000D01*
G01*
G37*
G04 #@! TD.AperFunction*
G04 #@! TA.AperFunction,SMDPad,CuDef*
G36*
G01*
X157855000Y-102035000D02*
X157855000Y-101485000D01*
G75*
G02*
X158055000Y-101285000I200000J0D01*
G01*
X158455000Y-101285000D01*
G75*
G02*
X158655000Y-101485000I0J-200000D01*
G01*
X158655000Y-102035000D01*
G75*
G02*
X158455000Y-102235000I-200000J0D01*
G01*
X158055000Y-102235000D01*
G75*
G02*
X157855000Y-102035000I0J200000D01*
G01*
G37*
G04 #@! TD.AperFunction*
G04 #@! TA.AperFunction,SMDPad,CuDef*
G36*
G01*
X157005000Y-99985000D02*
X157005000Y-100535000D01*
G75*
G02*
X156805000Y-100735000I-200000J0D01*
G01*
X156405000Y-100735000D01*
G75*
G02*
X156205000Y-100535000I0J200000D01*
G01*
X156205000Y-99985000D01*
G75*
G02*
X156405000Y-99785000I200000J0D01*
G01*
X156805000Y-99785000D01*
G75*
G02*
X157005000Y-99985000I0J-200000D01*
G01*
G37*
G04 #@! TD.AperFunction*
G04 #@! TA.AperFunction,SMDPad,CuDef*
G36*
G01*
X158655000Y-99985000D02*
X158655000Y-100535000D01*
G75*
G02*
X158455000Y-100735000I-200000J0D01*
G01*
X158055000Y-100735000D01*
G75*
G02*
X157855000Y-100535000I0J200000D01*
G01*
X157855000Y-99985000D01*
G75*
G02*
X158055000Y-99785000I200000J0D01*
G01*
X158455000Y-99785000D01*
G75*
G02*
X158655000Y-99985000I0J-200000D01*
G01*
G37*
G04 #@! TD.AperFunction*
G04 #@! TA.AperFunction,SMDPad,CuDef*
G36*
G01*
X158655000Y-104465000D02*
X158655000Y-105015000D01*
G75*
G02*
X158455000Y-105215000I-200000J0D01*
G01*
X158055000Y-105215000D01*
G75*
G02*
X157855000Y-105015000I0J200000D01*
G01*
X157855000Y-104465000D01*
G75*
G02*
X158055000Y-104265000I200000J0D01*
G01*
X158455000Y-104265000D01*
G75*
G02*
X158655000Y-104465000I0J-200000D01*
G01*
G37*
G04 #@! TD.AperFunction*
G04 #@! TA.AperFunction,SMDPad,CuDef*
G36*
G01*
X157005000Y-104465000D02*
X157005000Y-105015000D01*
G75*
G02*
X156805000Y-105215000I-200000J0D01*
G01*
X156405000Y-105215000D01*
G75*
G02*
X156205000Y-105015000I0J200000D01*
G01*
X156205000Y-104465000D01*
G75*
G02*
X156405000Y-104265000I200000J0D01*
G01*
X156805000Y-104265000D01*
G75*
G02*
X157005000Y-104465000I0J-200000D01*
G01*
G37*
G04 #@! TD.AperFunction*
G04 #@! TA.AperFunction,SMDPad,CuDef*
G36*
G01*
X157855000Y-103515000D02*
X157855000Y-102965000D01*
G75*
G02*
X158055000Y-102765000I200000J0D01*
G01*
X158455000Y-102765000D01*
G75*
G02*
X158655000Y-102965000I0J-200000D01*
G01*
X158655000Y-103515000D01*
G75*
G02*
X158455000Y-103715000I-200000J0D01*
G01*
X158055000Y-103715000D01*
G75*
G02*
X157855000Y-103515000I0J200000D01*
G01*
G37*
G04 #@! TD.AperFunction*
G04 #@! TA.AperFunction,SMDPad,CuDef*
G36*
G01*
X156205000Y-103515000D02*
X156205000Y-102965000D01*
G75*
G02*
X156405000Y-102765000I200000J0D01*
G01*
X156805000Y-102765000D01*
G75*
G02*
X157005000Y-102965000I0J-200000D01*
G01*
X157005000Y-103515000D01*
G75*
G02*
X156805000Y-103715000I-200000J0D01*
G01*
X156405000Y-103715000D01*
G75*
G02*
X156205000Y-103515000I0J200000D01*
G01*
G37*
G04 #@! TD.AperFunction*
G04 #@! TA.AperFunction,ComponentPad*
G36*
G01*
X171825000Y-111310000D02*
X170375000Y-111310000D01*
G75*
G02*
X170125000Y-111060000I0J250000D01*
G01*
X170125000Y-109860000D01*
G75*
G02*
X170375000Y-109610000I250000J0D01*
G01*
X171825000Y-109610000D01*
G75*
G02*
X172075000Y-109860000I0J-250000D01*
G01*
X172075000Y-111060000D01*
G75*
G02*
X171825000Y-111310000I-250000J0D01*
G01*
G37*
G04 #@! TD.AperFunction*
D12*
X171100000Y-107960000D03*
X171100000Y-105460000D03*
G04 #@! TA.AperFunction,ComponentPad*
G36*
G01*
X171825000Y-100390000D02*
X170375000Y-100390000D01*
G75*
G02*
X170125000Y-100140000I0J250000D01*
G01*
X170125000Y-98940000D01*
G75*
G02*
X170375000Y-98690000I250000J0D01*
G01*
X171825000Y-98690000D01*
G75*
G02*
X172075000Y-98940000I0J-250000D01*
G01*
X172075000Y-100140000D01*
G75*
G02*
X171825000Y-100390000I-250000J0D01*
G01*
G37*
G04 #@! TD.AperFunction*
X171100000Y-97040000D03*
X171100000Y-94540000D03*
X171100000Y-92040000D03*
X171100000Y-89540000D03*
D13*
X129850000Y-93000000D03*
X134850000Y-93000000D03*
D14*
X126750000Y-100000000D03*
X137950000Y-100000000D03*
D13*
X129850000Y-107500000D03*
X132350000Y-107500000D03*
D15*
X134850000Y-107500000D03*
X139130000Y-108750000D03*
D13*
X146730000Y-108750000D03*
G04 #@! TA.AperFunction,SMDPad,CuDef*
G36*
G01*
X167105000Y-112950000D02*
X166155000Y-112950000D01*
G75*
G02*
X165905000Y-112700000I0J250000D01*
G01*
X165905000Y-112200000D01*
G75*
G02*
X166155000Y-111950000I250000J0D01*
G01*
X167105000Y-111950000D01*
G75*
G02*
X167355000Y-112200000I0J-250000D01*
G01*
X167355000Y-112700000D01*
G75*
G02*
X167105000Y-112950000I-250000J0D01*
G01*
G37*
G04 #@! TD.AperFunction*
G04 #@! TA.AperFunction,SMDPad,CuDef*
G36*
G01*
X167105000Y-111050000D02*
X166155000Y-111050000D01*
G75*
G02*
X165905000Y-110800000I0J250000D01*
G01*
X165905000Y-110300000D01*
G75*
G02*
X166155000Y-110050000I250000J0D01*
G01*
X167105000Y-110050000D01*
G75*
G02*
X167355000Y-110300000I0J-250000D01*
G01*
X167355000Y-110800000D01*
G75*
G02*
X167105000Y-111050000I-250000J0D01*
G01*
G37*
G04 #@! TD.AperFunction*
G04 #@! TA.AperFunction,SMDPad,CuDef*
G36*
G01*
X160990000Y-111825000D02*
X161490000Y-111825000D01*
G75*
G02*
X161715000Y-112050000I0J-225000D01*
G01*
X161715000Y-112500000D01*
G75*
G02*
X161490000Y-112725000I-225000J0D01*
G01*
X160990000Y-112725000D01*
G75*
G02*
X160765000Y-112500000I0J225000D01*
G01*
X160765000Y-112050000D01*
G75*
G02*
X160990000Y-111825000I225000J0D01*
G01*
G37*
G04 #@! TD.AperFunction*
G04 #@! TA.AperFunction,SMDPad,CuDef*
G36*
G01*
X160990000Y-110275000D02*
X161490000Y-110275000D01*
G75*
G02*
X161715000Y-110500000I0J-225000D01*
G01*
X161715000Y-110950000D01*
G75*
G02*
X161490000Y-111175000I-225000J0D01*
G01*
X160990000Y-111175000D01*
G75*
G02*
X160765000Y-110950000I0J225000D01*
G01*
X160765000Y-110500000D01*
G75*
G02*
X160990000Y-110275000I225000J0D01*
G01*
G37*
G04 #@! TD.AperFunction*
G04 #@! TA.AperFunction,SMDPad,CuDef*
G36*
G01*
X153590000Y-107275000D02*
X153590000Y-108225000D01*
G75*
G02*
X153340000Y-108475000I-250000J0D01*
G01*
X152840000Y-108475000D01*
G75*
G02*
X152590000Y-108225000I0J250000D01*
G01*
X152590000Y-107275000D01*
G75*
G02*
X152840000Y-107025000I250000J0D01*
G01*
X153340000Y-107025000D01*
G75*
G02*
X153590000Y-107275000I0J-250000D01*
G01*
G37*
G04 #@! TD.AperFunction*
G04 #@! TA.AperFunction,SMDPad,CuDef*
G36*
G01*
X151690000Y-107275000D02*
X151690000Y-108225000D01*
G75*
G02*
X151440000Y-108475000I-250000J0D01*
G01*
X150940000Y-108475000D01*
G75*
G02*
X150690000Y-108225000I0J250000D01*
G01*
X150690000Y-107275000D01*
G75*
G02*
X150940000Y-107025000I250000J0D01*
G01*
X151440000Y-107025000D01*
G75*
G02*
X151690000Y-107275000I0J-250000D01*
G01*
G37*
G04 #@! TD.AperFunction*
G04 #@! TA.AperFunction,SMDPad,CuDef*
G36*
G01*
X151690000Y-112695000D02*
X151690000Y-113645000D01*
G75*
G02*
X151440000Y-113895000I-250000J0D01*
G01*
X150940000Y-113895000D01*
G75*
G02*
X150690000Y-113645000I0J250000D01*
G01*
X150690000Y-112695000D01*
G75*
G02*
X150940000Y-112445000I250000J0D01*
G01*
X151440000Y-112445000D01*
G75*
G02*
X151690000Y-112695000I0J-250000D01*
G01*
G37*
G04 #@! TD.AperFunction*
G04 #@! TA.AperFunction,SMDPad,CuDef*
G36*
G01*
X153590000Y-112695000D02*
X153590000Y-113645000D01*
G75*
G02*
X153340000Y-113895000I-250000J0D01*
G01*
X152840000Y-113895000D01*
G75*
G02*
X152590000Y-113645000I0J250000D01*
G01*
X152590000Y-112695000D01*
G75*
G02*
X152840000Y-112445000I250000J0D01*
G01*
X153340000Y-112445000D01*
G75*
G02*
X153590000Y-112695000I0J-250000D01*
G01*
G37*
G04 #@! TD.AperFunction*
G04 #@! TA.AperFunction,SMDPad,CuDef*
G36*
G01*
X158410000Y-108305000D02*
X158410000Y-107355000D01*
G75*
G02*
X158660000Y-107105000I250000J0D01*
G01*
X159160000Y-107105000D01*
G75*
G02*
X159410000Y-107355000I0J-250000D01*
G01*
X159410000Y-108305000D01*
G75*
G02*
X159160000Y-108555000I-250000J0D01*
G01*
X158660000Y-108555000D01*
G75*
G02*
X158410000Y-108305000I0J250000D01*
G01*
G37*
G04 #@! TD.AperFunction*
G04 #@! TA.AperFunction,SMDPad,CuDef*
G36*
G01*
X160310000Y-108305000D02*
X160310000Y-107355000D01*
G75*
G02*
X160560000Y-107105000I250000J0D01*
G01*
X161060000Y-107105000D01*
G75*
G02*
X161310000Y-107355000I0J-250000D01*
G01*
X161310000Y-108305000D01*
G75*
G02*
X161060000Y-108555000I-250000J0D01*
G01*
X160560000Y-108555000D01*
G75*
G02*
X160310000Y-108305000I0J250000D01*
G01*
G37*
G04 #@! TD.AperFunction*
G04 #@! TA.AperFunction,SMDPad,CuDef*
G36*
G01*
X155990000Y-107355000D02*
X155990000Y-108305000D01*
G75*
G02*
X155740000Y-108555000I-250000J0D01*
G01*
X155240000Y-108555000D01*
G75*
G02*
X154990000Y-108305000I0J250000D01*
G01*
X154990000Y-107355000D01*
G75*
G02*
X155240000Y-107105000I250000J0D01*
G01*
X155740000Y-107105000D01*
G75*
G02*
X155990000Y-107355000I0J-250000D01*
G01*
G37*
G04 #@! TD.AperFunction*
G04 #@! TA.AperFunction,SMDPad,CuDef*
G36*
G01*
X157890000Y-107355000D02*
X157890000Y-108305000D01*
G75*
G02*
X157640000Y-108555000I-250000J0D01*
G01*
X157140000Y-108555000D01*
G75*
G02*
X156890000Y-108305000I0J250000D01*
G01*
X156890000Y-107355000D01*
G75*
G02*
X157140000Y-107105000I250000J0D01*
G01*
X157640000Y-107105000D01*
G75*
G02*
X157890000Y-107355000I0J-250000D01*
G01*
G37*
G04 #@! TD.AperFunction*
G04 #@! TA.AperFunction,SMDPad,CuDef*
G36*
G01*
X142095000Y-92510000D02*
X142095000Y-93010000D01*
G75*
G02*
X141870000Y-93235000I-225000J0D01*
G01*
X141420000Y-93235000D01*
G75*
G02*
X141195000Y-93010000I0J225000D01*
G01*
X141195000Y-92510000D01*
G75*
G02*
X141420000Y-92285000I225000J0D01*
G01*
X141870000Y-92285000D01*
G75*
G02*
X142095000Y-92510000I0J-225000D01*
G01*
G37*
G04 #@! TD.AperFunction*
G04 #@! TA.AperFunction,SMDPad,CuDef*
G36*
G01*
X140545000Y-92510000D02*
X140545000Y-93010000D01*
G75*
G02*
X140320000Y-93235000I-225000J0D01*
G01*
X139870000Y-93235000D01*
G75*
G02*
X139645000Y-93010000I0J225000D01*
G01*
X139645000Y-92510000D01*
G75*
G02*
X139870000Y-92285000I225000J0D01*
G01*
X140320000Y-92285000D01*
G75*
G02*
X140545000Y-92510000I0J-225000D01*
G01*
G37*
G04 #@! TD.AperFunction*
G04 #@! TA.AperFunction,SMDPad,CuDef*
G36*
G01*
X151180000Y-95095000D02*
X151680000Y-95095000D01*
G75*
G02*
X151905000Y-95320000I0J-225000D01*
G01*
X151905000Y-95770000D01*
G75*
G02*
X151680000Y-95995000I-225000J0D01*
G01*
X151180000Y-95995000D01*
G75*
G02*
X150955000Y-95770000I0J225000D01*
G01*
X150955000Y-95320000D01*
G75*
G02*
X151180000Y-95095000I225000J0D01*
G01*
G37*
G04 #@! TD.AperFunction*
G04 #@! TA.AperFunction,SMDPad,CuDef*
G36*
G01*
X151180000Y-93545000D02*
X151680000Y-93545000D01*
G75*
G02*
X151905000Y-93770000I0J-225000D01*
G01*
X151905000Y-94220000D01*
G75*
G02*
X151680000Y-94445000I-225000J0D01*
G01*
X151180000Y-94445000D01*
G75*
G02*
X150955000Y-94220000I0J225000D01*
G01*
X150955000Y-93770000D01*
G75*
G02*
X151180000Y-93545000I225000J0D01*
G01*
G37*
G04 #@! TD.AperFunction*
G04 #@! TA.AperFunction,SMDPad,CuDef*
G36*
G01*
X140545000Y-101530000D02*
X140545000Y-102030000D01*
G75*
G02*
X140320000Y-102255000I-225000J0D01*
G01*
X139870000Y-102255000D01*
G75*
G02*
X139645000Y-102030000I0J225000D01*
G01*
X139645000Y-101530000D01*
G75*
G02*
X139870000Y-101305000I225000J0D01*
G01*
X140320000Y-101305000D01*
G75*
G02*
X140545000Y-101530000I0J-225000D01*
G01*
G37*
G04 #@! TD.AperFunction*
G04 #@! TA.AperFunction,SMDPad,CuDef*
G36*
G01*
X142095000Y-101530000D02*
X142095000Y-102030000D01*
G75*
G02*
X141870000Y-102255000I-225000J0D01*
G01*
X141420000Y-102255000D01*
G75*
G02*
X141195000Y-102030000I0J225000D01*
G01*
X141195000Y-101530000D01*
G75*
G02*
X141420000Y-101305000I225000J0D01*
G01*
X141870000Y-101305000D01*
G75*
G02*
X142095000Y-101530000I0J-225000D01*
G01*
G37*
G04 #@! TD.AperFunction*
G04 #@! TA.AperFunction,SMDPad,CuDef*
G36*
G01*
X147245000Y-103520000D02*
X147245000Y-103020000D01*
G75*
G02*
X147470000Y-102795000I225000J0D01*
G01*
X147920000Y-102795000D01*
G75*
G02*
X148145000Y-103020000I0J-225000D01*
G01*
X148145000Y-103520000D01*
G75*
G02*
X147920000Y-103745000I-225000J0D01*
G01*
X147470000Y-103745000D01*
G75*
G02*
X147245000Y-103520000I0J225000D01*
G01*
G37*
G04 #@! TD.AperFunction*
G04 #@! TA.AperFunction,SMDPad,CuDef*
G36*
G01*
X148795000Y-103520000D02*
X148795000Y-103020000D01*
G75*
G02*
X149020000Y-102795000I225000J0D01*
G01*
X149470000Y-102795000D01*
G75*
G02*
X149695000Y-103020000I0J-225000D01*
G01*
X149695000Y-103520000D01*
G75*
G02*
X149470000Y-103745000I-225000J0D01*
G01*
X149020000Y-103745000D01*
G75*
G02*
X148795000Y-103520000I0J225000D01*
G01*
G37*
G04 #@! TD.AperFunction*
G04 #@! TA.AperFunction,SMDPad,CuDef*
G36*
G01*
X148965000Y-105010000D02*
X148965000Y-104510000D01*
G75*
G02*
X149190000Y-104285000I225000J0D01*
G01*
X149640000Y-104285000D01*
G75*
G02*
X149865000Y-104510000I0J-225000D01*
G01*
X149865000Y-105010000D01*
G75*
G02*
X149640000Y-105235000I-225000J0D01*
G01*
X149190000Y-105235000D01*
G75*
G02*
X148965000Y-105010000I0J225000D01*
G01*
G37*
G04 #@! TD.AperFunction*
G04 #@! TA.AperFunction,SMDPad,CuDef*
G36*
G01*
X150515000Y-105010000D02*
X150515000Y-104510000D01*
G75*
G02*
X150740000Y-104285000I225000J0D01*
G01*
X151190000Y-104285000D01*
G75*
G02*
X151415000Y-104510000I0J-225000D01*
G01*
X151415000Y-105010000D01*
G75*
G02*
X151190000Y-105235000I-225000J0D01*
G01*
X150740000Y-105235000D01*
G75*
G02*
X150515000Y-105010000I0J225000D01*
G01*
G37*
G04 #@! TD.AperFunction*
G04 #@! TA.AperFunction,SMDPad,CuDef*
G36*
G01*
X158655000Y-98510000D02*
X158655000Y-99010000D01*
G75*
G02*
X158430000Y-99235000I-225000J0D01*
G01*
X157980000Y-99235000D01*
G75*
G02*
X157755000Y-99010000I0J225000D01*
G01*
X157755000Y-98510000D01*
G75*
G02*
X157980000Y-98285000I225000J0D01*
G01*
X158430000Y-98285000D01*
G75*
G02*
X158655000Y-98510000I0J-225000D01*
G01*
G37*
G04 #@! TD.AperFunction*
G04 #@! TA.AperFunction,SMDPad,CuDef*
G36*
G01*
X157105000Y-98510000D02*
X157105000Y-99010000D01*
G75*
G02*
X156880000Y-99235000I-225000J0D01*
G01*
X156430000Y-99235000D01*
G75*
G02*
X156205000Y-99010000I0J225000D01*
G01*
X156205000Y-98510000D01*
G75*
G02*
X156430000Y-98285000I225000J0D01*
G01*
X156880000Y-98285000D01*
G75*
G02*
X157105000Y-98510000I0J-225000D01*
G01*
G37*
G04 #@! TD.AperFunction*
G04 #@! TA.AperFunction,SMDPad,CuDef*
G36*
G01*
X161905000Y-90320000D02*
X161905000Y-89820000D01*
G75*
G02*
X162130000Y-89595000I225000J0D01*
G01*
X162580000Y-89595000D01*
G75*
G02*
X162805000Y-89820000I0J-225000D01*
G01*
X162805000Y-90320000D01*
G75*
G02*
X162580000Y-90545000I-225000J0D01*
G01*
X162130000Y-90545000D01*
G75*
G02*
X161905000Y-90320000I0J225000D01*
G01*
G37*
G04 #@! TD.AperFunction*
G04 #@! TA.AperFunction,SMDPad,CuDef*
G36*
G01*
X163455000Y-90320000D02*
X163455000Y-89820000D01*
G75*
G02*
X163680000Y-89595000I225000J0D01*
G01*
X164130000Y-89595000D01*
G75*
G02*
X164355000Y-89820000I0J-225000D01*
G01*
X164355000Y-90320000D01*
G75*
G02*
X164130000Y-90545000I-225000J0D01*
G01*
X163680000Y-90545000D01*
G75*
G02*
X163455000Y-90320000I0J225000D01*
G01*
G37*
G04 #@! TD.AperFunction*
G04 #@! TA.AperFunction,SMDPad,CuDef*
G36*
G01*
X155336250Y-111050000D02*
X154423750Y-111050000D01*
G75*
G02*
X154180000Y-110806250I0J243750D01*
G01*
X154180000Y-110318750D01*
G75*
G02*
X154423750Y-110075000I243750J0D01*
G01*
X155336250Y-110075000D01*
G75*
G02*
X155580000Y-110318750I0J-243750D01*
G01*
X155580000Y-110806250D01*
G75*
G02*
X155336250Y-111050000I-243750J0D01*
G01*
G37*
G04 #@! TD.AperFunction*
G04 #@! TA.AperFunction,SMDPad,CuDef*
G36*
G01*
X155336250Y-112925000D02*
X154423750Y-112925000D01*
G75*
G02*
X154180000Y-112681250I0J243750D01*
G01*
X154180000Y-112193750D01*
G75*
G02*
X154423750Y-111950000I243750J0D01*
G01*
X155336250Y-111950000D01*
G75*
G02*
X155580000Y-112193750I0J-243750D01*
G01*
X155580000Y-112681250D01*
G75*
G02*
X155336250Y-112925000I-243750J0D01*
G01*
G37*
G04 #@! TD.AperFunction*
D16*
X161960000Y-97210000D03*
X159860000Y-97210000D03*
G04 #@! TA.AperFunction,SMDPad,CuDef*
G36*
G01*
X161885000Y-109105000D02*
X161885000Y-108555000D01*
G75*
G02*
X162085000Y-108355000I200000J0D01*
G01*
X162485000Y-108355000D01*
G75*
G02*
X162685000Y-108555000I0J-200000D01*
G01*
X162685000Y-109105000D01*
G75*
G02*
X162485000Y-109305000I-200000J0D01*
G01*
X162085000Y-109305000D01*
G75*
G02*
X161885000Y-109105000I0J200000D01*
G01*
G37*
G04 #@! TD.AperFunction*
G04 #@! TA.AperFunction,SMDPad,CuDef*
G36*
G01*
X163535000Y-109105000D02*
X163535000Y-108555000D01*
G75*
G02*
X163735000Y-108355000I200000J0D01*
G01*
X164135000Y-108355000D01*
G75*
G02*
X164335000Y-108555000I0J-200000D01*
G01*
X164335000Y-109105000D01*
G75*
G02*
X164135000Y-109305000I-200000J0D01*
G01*
X163735000Y-109305000D01*
G75*
G02*
X163535000Y-109105000I0J200000D01*
G01*
G37*
G04 #@! TD.AperFunction*
G04 #@! TA.AperFunction,SMDPad,CuDef*
G36*
G01*
X166535000Y-109105000D02*
X166535000Y-108555000D01*
G75*
G02*
X166735000Y-108355000I200000J0D01*
G01*
X167135000Y-108355000D01*
G75*
G02*
X167335000Y-108555000I0J-200000D01*
G01*
X167335000Y-109105000D01*
G75*
G02*
X167135000Y-109305000I-200000J0D01*
G01*
X166735000Y-109305000D01*
G75*
G02*
X166535000Y-109105000I0J200000D01*
G01*
G37*
G04 #@! TD.AperFunction*
G04 #@! TA.AperFunction,SMDPad,CuDef*
G36*
G01*
X164885000Y-109105000D02*
X164885000Y-108555000D01*
G75*
G02*
X165085000Y-108355000I200000J0D01*
G01*
X165485000Y-108355000D01*
G75*
G02*
X165685000Y-108555000I0J-200000D01*
G01*
X165685000Y-109105000D01*
G75*
G02*
X165485000Y-109305000I-200000J0D01*
G01*
X165085000Y-109305000D01*
G75*
G02*
X164885000Y-109105000I0J200000D01*
G01*
G37*
G04 #@! TD.AperFunction*
G04 #@! TA.AperFunction,SMDPad,CuDef*
G36*
G01*
X127625000Y-91455000D02*
X128175000Y-91455000D01*
G75*
G02*
X128375000Y-91655000I0J-200000D01*
G01*
X128375000Y-92055000D01*
G75*
G02*
X128175000Y-92255000I-200000J0D01*
G01*
X127625000Y-92255000D01*
G75*
G02*
X127425000Y-92055000I0J200000D01*
G01*
X127425000Y-91655000D01*
G75*
G02*
X127625000Y-91455000I200000J0D01*
G01*
G37*
G04 #@! TD.AperFunction*
G04 #@! TA.AperFunction,SMDPad,CuDef*
G36*
G01*
X127625000Y-93105000D02*
X128175000Y-93105000D01*
G75*
G02*
X128375000Y-93305000I0J-200000D01*
G01*
X128375000Y-93705000D01*
G75*
G02*
X128175000Y-93905000I-200000J0D01*
G01*
X127625000Y-93905000D01*
G75*
G02*
X127425000Y-93705000I0J200000D01*
G01*
X127425000Y-93305000D01*
G75*
G02*
X127625000Y-93105000I200000J0D01*
G01*
G37*
G04 #@! TD.AperFunction*
G04 #@! TA.AperFunction,SMDPad,CuDef*
G36*
G01*
X154855000Y-100265000D02*
X154855000Y-99715000D01*
G75*
G02*
X155055000Y-99515000I200000J0D01*
G01*
X155455000Y-99515000D01*
G75*
G02*
X155655000Y-99715000I0J-200000D01*
G01*
X155655000Y-100265000D01*
G75*
G02*
X155455000Y-100465000I-200000J0D01*
G01*
X155055000Y-100465000D01*
G75*
G02*
X154855000Y-100265000I0J200000D01*
G01*
G37*
G04 #@! TD.AperFunction*
G04 #@! TA.AperFunction,SMDPad,CuDef*
G36*
G01*
X153205000Y-100265000D02*
X153205000Y-99715000D01*
G75*
G02*
X153405000Y-99515000I200000J0D01*
G01*
X153805000Y-99515000D01*
G75*
G02*
X154005000Y-99715000I0J-200000D01*
G01*
X154005000Y-100265000D01*
G75*
G02*
X153805000Y-100465000I-200000J0D01*
G01*
X153405000Y-100465000D01*
G75*
G02*
X153205000Y-100265000I0J200000D01*
G01*
G37*
G04 #@! TD.AperFunction*
G04 #@! TA.AperFunction,SMDPad,CuDef*
G36*
G01*
X164905000Y-90075000D02*
X164905000Y-89525000D01*
G75*
G02*
X165105000Y-89325000I200000J0D01*
G01*
X165505000Y-89325000D01*
G75*
G02*
X165705000Y-89525000I0J-200000D01*
G01*
X165705000Y-90075000D01*
G75*
G02*
X165505000Y-90275000I-200000J0D01*
G01*
X165105000Y-90275000D01*
G75*
G02*
X164905000Y-90075000I0J200000D01*
G01*
G37*
G04 #@! TD.AperFunction*
G04 #@! TA.AperFunction,SMDPad,CuDef*
G36*
G01*
X166555000Y-90075000D02*
X166555000Y-89525000D01*
G75*
G02*
X166755000Y-89325000I200000J0D01*
G01*
X167155000Y-89325000D01*
G75*
G02*
X167355000Y-89525000I0J-200000D01*
G01*
X167355000Y-90075000D01*
G75*
G02*
X167155000Y-90275000I-200000J0D01*
G01*
X166755000Y-90275000D01*
G75*
G02*
X166555000Y-90075000I0J200000D01*
G01*
G37*
G04 #@! TD.AperFunction*
G04 #@! TA.AperFunction,SMDPad,CuDef*
G36*
G01*
X163555000Y-88855000D02*
X163555000Y-88305000D01*
G75*
G02*
X163755000Y-88105000I200000J0D01*
G01*
X164155000Y-88105000D01*
G75*
G02*
X164355000Y-88305000I0J-200000D01*
G01*
X164355000Y-88855000D01*
G75*
G02*
X164155000Y-89055000I-200000J0D01*
G01*
X163755000Y-89055000D01*
G75*
G02*
X163555000Y-88855000I0J200000D01*
G01*
G37*
G04 #@! TD.AperFunction*
G04 #@! TA.AperFunction,SMDPad,CuDef*
G36*
G01*
X161905000Y-88855000D02*
X161905000Y-88305000D01*
G75*
G02*
X162105000Y-88105000I200000J0D01*
G01*
X162505000Y-88105000D01*
G75*
G02*
X162705000Y-88305000I0J-200000D01*
G01*
X162705000Y-88855000D01*
G75*
G02*
X162505000Y-89055000I-200000J0D01*
G01*
X162105000Y-89055000D01*
G75*
G02*
X161905000Y-88855000I0J200000D01*
G01*
G37*
G04 #@! TD.AperFunction*
G04 #@! TA.AperFunction,SMDPad,CuDef*
G36*
G01*
X157855000Y-97535000D02*
X157855000Y-96985000D01*
G75*
G02*
X158055000Y-96785000I200000J0D01*
G01*
X158455000Y-96785000D01*
G75*
G02*
X158655000Y-96985000I0J-200000D01*
G01*
X158655000Y-97535000D01*
G75*
G02*
X158455000Y-97735000I-200000J0D01*
G01*
X158055000Y-97735000D01*
G75*
G02*
X157855000Y-97535000I0J200000D01*
G01*
G37*
G04 #@! TD.AperFunction*
G04 #@! TA.AperFunction,SMDPad,CuDef*
G36*
G01*
X156205000Y-97535000D02*
X156205000Y-96985000D01*
G75*
G02*
X156405000Y-96785000I200000J0D01*
G01*
X156805000Y-96785000D01*
G75*
G02*
X157005000Y-96985000I0J-200000D01*
G01*
X157005000Y-97535000D01*
G75*
G02*
X156805000Y-97735000I-200000J0D01*
G01*
X156405000Y-97735000D01*
G75*
G02*
X156205000Y-97535000I0J200000D01*
G01*
G37*
G04 #@! TD.AperFunction*
G04 #@! TA.AperFunction,SMDPad,CuDef*
G36*
G01*
X156725000Y-96255000D02*
X156175000Y-96255000D01*
G75*
G02*
X155975000Y-96055000I0J200000D01*
G01*
X155975000Y-95655000D01*
G75*
G02*
X156175000Y-95455000I200000J0D01*
G01*
X156725000Y-95455000D01*
G75*
G02*
X156925000Y-95655000I0J-200000D01*
G01*
X156925000Y-96055000D01*
G75*
G02*
X156725000Y-96255000I-200000J0D01*
G01*
G37*
G04 #@! TD.AperFunction*
G04 #@! TA.AperFunction,SMDPad,CuDef*
G36*
G01*
X156725000Y-94605000D02*
X156175000Y-94605000D01*
G75*
G02*
X155975000Y-94405000I0J200000D01*
G01*
X155975000Y-94005000D01*
G75*
G02*
X156175000Y-93805000I200000J0D01*
G01*
X156725000Y-93805000D01*
G75*
G02*
X156925000Y-94005000I0J-200000D01*
G01*
X156925000Y-94405000D01*
G75*
G02*
X156725000Y-94605000I-200000J0D01*
G01*
G37*
G04 #@! TD.AperFunction*
G04 #@! TA.AperFunction,SMDPad,CuDef*
G36*
G01*
X156725000Y-93255000D02*
X156175000Y-93255000D01*
G75*
G02*
X155975000Y-93055000I0J200000D01*
G01*
X155975000Y-92655000D01*
G75*
G02*
X156175000Y-92455000I200000J0D01*
G01*
X156725000Y-92455000D01*
G75*
G02*
X156925000Y-92655000I0J-200000D01*
G01*
X156925000Y-93055000D01*
G75*
G02*
X156725000Y-93255000I-200000J0D01*
G01*
G37*
G04 #@! TD.AperFunction*
G04 #@! TA.AperFunction,SMDPad,CuDef*
G36*
G01*
X156725000Y-91605000D02*
X156175000Y-91605000D01*
G75*
G02*
X155975000Y-91405000I0J200000D01*
G01*
X155975000Y-91005000D01*
G75*
G02*
X156175000Y-90805000I200000J0D01*
G01*
X156725000Y-90805000D01*
G75*
G02*
X156925000Y-91005000I0J-200000D01*
G01*
X156925000Y-91405000D01*
G75*
G02*
X156725000Y-91605000I-200000J0D01*
G01*
G37*
G04 #@! TD.AperFunction*
D17*
X162860000Y-112600000D03*
X163810000Y-112600000D03*
X164760000Y-112600000D03*
X164760000Y-110400000D03*
X162860000Y-110400000D03*
X163810000Y-110400000D03*
D18*
X152140000Y-109450000D03*
X153090000Y-111450000D03*
X151190000Y-111450000D03*
G04 #@! TA.AperFunction,SMDPad,CuDef*
G36*
G01*
X142855000Y-102170000D02*
X142705000Y-102170000D01*
G75*
G02*
X142630000Y-102095000I0J75000D01*
G01*
X142630000Y-100770000D01*
G75*
G02*
X142705000Y-100695000I75000J0D01*
G01*
X142855000Y-100695000D01*
G75*
G02*
X142930000Y-100770000I0J-75000D01*
G01*
X142930000Y-102095000D01*
G75*
G02*
X142855000Y-102170000I-75000J0D01*
G01*
G37*
G04 #@! TD.AperFunction*
G04 #@! TA.AperFunction,SMDPad,CuDef*
G36*
G01*
X143355000Y-102170000D02*
X143205000Y-102170000D01*
G75*
G02*
X143130000Y-102095000I0J75000D01*
G01*
X143130000Y-100770000D01*
G75*
G02*
X143205000Y-100695000I75000J0D01*
G01*
X143355000Y-100695000D01*
G75*
G02*
X143430000Y-100770000I0J-75000D01*
G01*
X143430000Y-102095000D01*
G75*
G02*
X143355000Y-102170000I-75000J0D01*
G01*
G37*
G04 #@! TD.AperFunction*
G04 #@! TA.AperFunction,SMDPad,CuDef*
G36*
G01*
X143855000Y-102170000D02*
X143705000Y-102170000D01*
G75*
G02*
X143630000Y-102095000I0J75000D01*
G01*
X143630000Y-100770000D01*
G75*
G02*
X143705000Y-100695000I75000J0D01*
G01*
X143855000Y-100695000D01*
G75*
G02*
X143930000Y-100770000I0J-75000D01*
G01*
X143930000Y-102095000D01*
G75*
G02*
X143855000Y-102170000I-75000J0D01*
G01*
G37*
G04 #@! TD.AperFunction*
G04 #@! TA.AperFunction,SMDPad,CuDef*
G36*
G01*
X144355000Y-102170000D02*
X144205000Y-102170000D01*
G75*
G02*
X144130000Y-102095000I0J75000D01*
G01*
X144130000Y-100770000D01*
G75*
G02*
X144205000Y-100695000I75000J0D01*
G01*
X144355000Y-100695000D01*
G75*
G02*
X144430000Y-100770000I0J-75000D01*
G01*
X144430000Y-102095000D01*
G75*
G02*
X144355000Y-102170000I-75000J0D01*
G01*
G37*
G04 #@! TD.AperFunction*
G04 #@! TA.AperFunction,SMDPad,CuDef*
G36*
G01*
X144855000Y-102170000D02*
X144705000Y-102170000D01*
G75*
G02*
X144630000Y-102095000I0J75000D01*
G01*
X144630000Y-100770000D01*
G75*
G02*
X144705000Y-100695000I75000J0D01*
G01*
X144855000Y-100695000D01*
G75*
G02*
X144930000Y-100770000I0J-75000D01*
G01*
X144930000Y-102095000D01*
G75*
G02*
X144855000Y-102170000I-75000J0D01*
G01*
G37*
G04 #@! TD.AperFunction*
G04 #@! TA.AperFunction,SMDPad,CuDef*
G36*
G01*
X145355000Y-102170000D02*
X145205000Y-102170000D01*
G75*
G02*
X145130000Y-102095000I0J75000D01*
G01*
X145130000Y-100770000D01*
G75*
G02*
X145205000Y-100695000I75000J0D01*
G01*
X145355000Y-100695000D01*
G75*
G02*
X145430000Y-100770000I0J-75000D01*
G01*
X145430000Y-102095000D01*
G75*
G02*
X145355000Y-102170000I-75000J0D01*
G01*
G37*
G04 #@! TD.AperFunction*
G04 #@! TA.AperFunction,SMDPad,CuDef*
G36*
G01*
X145855000Y-102170000D02*
X145705000Y-102170000D01*
G75*
G02*
X145630000Y-102095000I0J75000D01*
G01*
X145630000Y-100770000D01*
G75*
G02*
X145705000Y-100695000I75000J0D01*
G01*
X145855000Y-100695000D01*
G75*
G02*
X145930000Y-100770000I0J-75000D01*
G01*
X145930000Y-102095000D01*
G75*
G02*
X145855000Y-102170000I-75000J0D01*
G01*
G37*
G04 #@! TD.AperFunction*
G04 #@! TA.AperFunction,SMDPad,CuDef*
G36*
G01*
X146355000Y-102177500D02*
X146205000Y-102177500D01*
G75*
G02*
X146130000Y-102102500I0J75000D01*
G01*
X146130000Y-100777500D01*
G75*
G02*
X146205000Y-100702500I75000J0D01*
G01*
X146355000Y-100702500D01*
G75*
G02*
X146430000Y-100777500I0J-75000D01*
G01*
X146430000Y-102102500D01*
G75*
G02*
X146355000Y-102177500I-75000J0D01*
G01*
G37*
G04 #@! TD.AperFunction*
G04 #@! TA.AperFunction,SMDPad,CuDef*
G36*
G01*
X146855000Y-102170000D02*
X146705000Y-102170000D01*
G75*
G02*
X146630000Y-102095000I0J75000D01*
G01*
X146630000Y-100770000D01*
G75*
G02*
X146705000Y-100695000I75000J0D01*
G01*
X146855000Y-100695000D01*
G75*
G02*
X146930000Y-100770000I0J-75000D01*
G01*
X146930000Y-102095000D01*
G75*
G02*
X146855000Y-102170000I-75000J0D01*
G01*
G37*
G04 #@! TD.AperFunction*
G04 #@! TA.AperFunction,SMDPad,CuDef*
G36*
G01*
X147355000Y-102170000D02*
X147205000Y-102170000D01*
G75*
G02*
X147130000Y-102095000I0J75000D01*
G01*
X147130000Y-100770000D01*
G75*
G02*
X147205000Y-100695000I75000J0D01*
G01*
X147355000Y-100695000D01*
G75*
G02*
X147430000Y-100770000I0J-75000D01*
G01*
X147430000Y-102095000D01*
G75*
G02*
X147355000Y-102170000I-75000J0D01*
G01*
G37*
G04 #@! TD.AperFunction*
G04 #@! TA.AperFunction,SMDPad,CuDef*
G36*
G01*
X147855000Y-102170000D02*
X147705000Y-102170000D01*
G75*
G02*
X147630000Y-102095000I0J75000D01*
G01*
X147630000Y-100770000D01*
G75*
G02*
X147705000Y-100695000I75000J0D01*
G01*
X147855000Y-100695000D01*
G75*
G02*
X147930000Y-100770000I0J-75000D01*
G01*
X147930000Y-102095000D01*
G75*
G02*
X147855000Y-102170000I-75000J0D01*
G01*
G37*
G04 #@! TD.AperFunction*
G04 #@! TA.AperFunction,SMDPad,CuDef*
G36*
G01*
X148355000Y-102170000D02*
X148205000Y-102170000D01*
G75*
G02*
X148130000Y-102095000I0J75000D01*
G01*
X148130000Y-100770000D01*
G75*
G02*
X148205000Y-100695000I75000J0D01*
G01*
X148355000Y-100695000D01*
G75*
G02*
X148430000Y-100770000I0J-75000D01*
G01*
X148430000Y-102095000D01*
G75*
G02*
X148355000Y-102170000I-75000J0D01*
G01*
G37*
G04 #@! TD.AperFunction*
G04 #@! TA.AperFunction,SMDPad,CuDef*
G36*
G01*
X150355000Y-100170000D02*
X149030000Y-100170000D01*
G75*
G02*
X148955000Y-100095000I0J75000D01*
G01*
X148955000Y-99945000D01*
G75*
G02*
X149030000Y-99870000I75000J0D01*
G01*
X150355000Y-99870000D01*
G75*
G02*
X150430000Y-99945000I0J-75000D01*
G01*
X150430000Y-100095000D01*
G75*
G02*
X150355000Y-100170000I-75000J0D01*
G01*
G37*
G04 #@! TD.AperFunction*
G04 #@! TA.AperFunction,SMDPad,CuDef*
G36*
G01*
X150355000Y-99670000D02*
X149030000Y-99670000D01*
G75*
G02*
X148955000Y-99595000I0J75000D01*
G01*
X148955000Y-99445000D01*
G75*
G02*
X149030000Y-99370000I75000J0D01*
G01*
X150355000Y-99370000D01*
G75*
G02*
X150430000Y-99445000I0J-75000D01*
G01*
X150430000Y-99595000D01*
G75*
G02*
X150355000Y-99670000I-75000J0D01*
G01*
G37*
G04 #@! TD.AperFunction*
G04 #@! TA.AperFunction,SMDPad,CuDef*
G36*
G01*
X150355000Y-99170000D02*
X149030000Y-99170000D01*
G75*
G02*
X148955000Y-99095000I0J75000D01*
G01*
X148955000Y-98945000D01*
G75*
G02*
X149030000Y-98870000I75000J0D01*
G01*
X150355000Y-98870000D01*
G75*
G02*
X150430000Y-98945000I0J-75000D01*
G01*
X150430000Y-99095000D01*
G75*
G02*
X150355000Y-99170000I-75000J0D01*
G01*
G37*
G04 #@! TD.AperFunction*
G04 #@! TA.AperFunction,SMDPad,CuDef*
G36*
G01*
X150355000Y-98670000D02*
X149030000Y-98670000D01*
G75*
G02*
X148955000Y-98595000I0J75000D01*
G01*
X148955000Y-98445000D01*
G75*
G02*
X149030000Y-98370000I75000J0D01*
G01*
X150355000Y-98370000D01*
G75*
G02*
X150430000Y-98445000I0J-75000D01*
G01*
X150430000Y-98595000D01*
G75*
G02*
X150355000Y-98670000I-75000J0D01*
G01*
G37*
G04 #@! TD.AperFunction*
G04 #@! TA.AperFunction,SMDPad,CuDef*
G36*
G01*
X150355000Y-98170000D02*
X149030000Y-98170000D01*
G75*
G02*
X148955000Y-98095000I0J75000D01*
G01*
X148955000Y-97945000D01*
G75*
G02*
X149030000Y-97870000I75000J0D01*
G01*
X150355000Y-97870000D01*
G75*
G02*
X150430000Y-97945000I0J-75000D01*
G01*
X150430000Y-98095000D01*
G75*
G02*
X150355000Y-98170000I-75000J0D01*
G01*
G37*
G04 #@! TD.AperFunction*
G04 #@! TA.AperFunction,SMDPad,CuDef*
G36*
G01*
X150355000Y-97670000D02*
X149030000Y-97670000D01*
G75*
G02*
X148955000Y-97595000I0J75000D01*
G01*
X148955000Y-97445000D01*
G75*
G02*
X149030000Y-97370000I75000J0D01*
G01*
X150355000Y-97370000D01*
G75*
G02*
X150430000Y-97445000I0J-75000D01*
G01*
X150430000Y-97595000D01*
G75*
G02*
X150355000Y-97670000I-75000J0D01*
G01*
G37*
G04 #@! TD.AperFunction*
G04 #@! TA.AperFunction,SMDPad,CuDef*
G36*
G01*
X150355000Y-97170000D02*
X149030000Y-97170000D01*
G75*
G02*
X148955000Y-97095000I0J75000D01*
G01*
X148955000Y-96945000D01*
G75*
G02*
X149030000Y-96870000I75000J0D01*
G01*
X150355000Y-96870000D01*
G75*
G02*
X150430000Y-96945000I0J-75000D01*
G01*
X150430000Y-97095000D01*
G75*
G02*
X150355000Y-97170000I-75000J0D01*
G01*
G37*
G04 #@! TD.AperFunction*
G04 #@! TA.AperFunction,SMDPad,CuDef*
G36*
G01*
X150355000Y-96670000D02*
X149030000Y-96670000D01*
G75*
G02*
X148955000Y-96595000I0J75000D01*
G01*
X148955000Y-96445000D01*
G75*
G02*
X149030000Y-96370000I75000J0D01*
G01*
X150355000Y-96370000D01*
G75*
G02*
X150430000Y-96445000I0J-75000D01*
G01*
X150430000Y-96595000D01*
G75*
G02*
X150355000Y-96670000I-75000J0D01*
G01*
G37*
G04 #@! TD.AperFunction*
G04 #@! TA.AperFunction,SMDPad,CuDef*
G36*
G01*
X150355000Y-96170000D02*
X149030000Y-96170000D01*
G75*
G02*
X148955000Y-96095000I0J75000D01*
G01*
X148955000Y-95945000D01*
G75*
G02*
X149030000Y-95870000I75000J0D01*
G01*
X150355000Y-95870000D01*
G75*
G02*
X150430000Y-95945000I0J-75000D01*
G01*
X150430000Y-96095000D01*
G75*
G02*
X150355000Y-96170000I-75000J0D01*
G01*
G37*
G04 #@! TD.AperFunction*
G04 #@! TA.AperFunction,SMDPad,CuDef*
G36*
G01*
X150355000Y-95670000D02*
X149030000Y-95670000D01*
G75*
G02*
X148955000Y-95595000I0J75000D01*
G01*
X148955000Y-95445000D01*
G75*
G02*
X149030000Y-95370000I75000J0D01*
G01*
X150355000Y-95370000D01*
G75*
G02*
X150430000Y-95445000I0J-75000D01*
G01*
X150430000Y-95595000D01*
G75*
G02*
X150355000Y-95670000I-75000J0D01*
G01*
G37*
G04 #@! TD.AperFunction*
G04 #@! TA.AperFunction,SMDPad,CuDef*
G36*
G01*
X150355000Y-95170000D02*
X149030000Y-95170000D01*
G75*
G02*
X148955000Y-95095000I0J75000D01*
G01*
X148955000Y-94945000D01*
G75*
G02*
X149030000Y-94870000I75000J0D01*
G01*
X150355000Y-94870000D01*
G75*
G02*
X150430000Y-94945000I0J-75000D01*
G01*
X150430000Y-95095000D01*
G75*
G02*
X150355000Y-95170000I-75000J0D01*
G01*
G37*
G04 #@! TD.AperFunction*
G04 #@! TA.AperFunction,SMDPad,CuDef*
G36*
G01*
X150355000Y-94670000D02*
X149030000Y-94670000D01*
G75*
G02*
X148955000Y-94595000I0J75000D01*
G01*
X148955000Y-94445000D01*
G75*
G02*
X149030000Y-94370000I75000J0D01*
G01*
X150355000Y-94370000D01*
G75*
G02*
X150430000Y-94445000I0J-75000D01*
G01*
X150430000Y-94595000D01*
G75*
G02*
X150355000Y-94670000I-75000J0D01*
G01*
G37*
G04 #@! TD.AperFunction*
G04 #@! TA.AperFunction,SMDPad,CuDef*
G36*
G01*
X148355000Y-93845000D02*
X148205000Y-93845000D01*
G75*
G02*
X148130000Y-93770000I0J75000D01*
G01*
X148130000Y-92445000D01*
G75*
G02*
X148205000Y-92370000I75000J0D01*
G01*
X148355000Y-92370000D01*
G75*
G02*
X148430000Y-92445000I0J-75000D01*
G01*
X148430000Y-93770000D01*
G75*
G02*
X148355000Y-93845000I-75000J0D01*
G01*
G37*
G04 #@! TD.AperFunction*
G04 #@! TA.AperFunction,SMDPad,CuDef*
G36*
G01*
X147855000Y-93845000D02*
X147705000Y-93845000D01*
G75*
G02*
X147630000Y-93770000I0J75000D01*
G01*
X147630000Y-92445000D01*
G75*
G02*
X147705000Y-92370000I75000J0D01*
G01*
X147855000Y-92370000D01*
G75*
G02*
X147930000Y-92445000I0J-75000D01*
G01*
X147930000Y-93770000D01*
G75*
G02*
X147855000Y-93845000I-75000J0D01*
G01*
G37*
G04 #@! TD.AperFunction*
G04 #@! TA.AperFunction,SMDPad,CuDef*
G36*
G01*
X147355000Y-93845000D02*
X147205000Y-93845000D01*
G75*
G02*
X147130000Y-93770000I0J75000D01*
G01*
X147130000Y-92445000D01*
G75*
G02*
X147205000Y-92370000I75000J0D01*
G01*
X147355000Y-92370000D01*
G75*
G02*
X147430000Y-92445000I0J-75000D01*
G01*
X147430000Y-93770000D01*
G75*
G02*
X147355000Y-93845000I-75000J0D01*
G01*
G37*
G04 #@! TD.AperFunction*
G04 #@! TA.AperFunction,SMDPad,CuDef*
G36*
G01*
X146855000Y-93845000D02*
X146705000Y-93845000D01*
G75*
G02*
X146630000Y-93770000I0J75000D01*
G01*
X146630000Y-92445000D01*
G75*
G02*
X146705000Y-92370000I75000J0D01*
G01*
X146855000Y-92370000D01*
G75*
G02*
X146930000Y-92445000I0J-75000D01*
G01*
X146930000Y-93770000D01*
G75*
G02*
X146855000Y-93845000I-75000J0D01*
G01*
G37*
G04 #@! TD.AperFunction*
G04 #@! TA.AperFunction,SMDPad,CuDef*
G36*
G01*
X146355000Y-93845000D02*
X146205000Y-93845000D01*
G75*
G02*
X146130000Y-93770000I0J75000D01*
G01*
X146130000Y-92445000D01*
G75*
G02*
X146205000Y-92370000I75000J0D01*
G01*
X146355000Y-92370000D01*
G75*
G02*
X146430000Y-92445000I0J-75000D01*
G01*
X146430000Y-93770000D01*
G75*
G02*
X146355000Y-93845000I-75000J0D01*
G01*
G37*
G04 #@! TD.AperFunction*
G04 #@! TA.AperFunction,SMDPad,CuDef*
G36*
G01*
X145855000Y-93845000D02*
X145705000Y-93845000D01*
G75*
G02*
X145630000Y-93770000I0J75000D01*
G01*
X145630000Y-92445000D01*
G75*
G02*
X145705000Y-92370000I75000J0D01*
G01*
X145855000Y-92370000D01*
G75*
G02*
X145930000Y-92445000I0J-75000D01*
G01*
X145930000Y-93770000D01*
G75*
G02*
X145855000Y-93845000I-75000J0D01*
G01*
G37*
G04 #@! TD.AperFunction*
G04 #@! TA.AperFunction,SMDPad,CuDef*
G36*
G01*
X145355000Y-93845000D02*
X145205000Y-93845000D01*
G75*
G02*
X145130000Y-93770000I0J75000D01*
G01*
X145130000Y-92445000D01*
G75*
G02*
X145205000Y-92370000I75000J0D01*
G01*
X145355000Y-92370000D01*
G75*
G02*
X145430000Y-92445000I0J-75000D01*
G01*
X145430000Y-93770000D01*
G75*
G02*
X145355000Y-93845000I-75000J0D01*
G01*
G37*
G04 #@! TD.AperFunction*
G04 #@! TA.AperFunction,SMDPad,CuDef*
G36*
G01*
X144855000Y-93845000D02*
X144705000Y-93845000D01*
G75*
G02*
X144630000Y-93770000I0J75000D01*
G01*
X144630000Y-92445000D01*
G75*
G02*
X144705000Y-92370000I75000J0D01*
G01*
X144855000Y-92370000D01*
G75*
G02*
X144930000Y-92445000I0J-75000D01*
G01*
X144930000Y-93770000D01*
G75*
G02*
X144855000Y-93845000I-75000J0D01*
G01*
G37*
G04 #@! TD.AperFunction*
G04 #@! TA.AperFunction,SMDPad,CuDef*
G36*
G01*
X144355000Y-93845000D02*
X144205000Y-93845000D01*
G75*
G02*
X144130000Y-93770000I0J75000D01*
G01*
X144130000Y-92445000D01*
G75*
G02*
X144205000Y-92370000I75000J0D01*
G01*
X144355000Y-92370000D01*
G75*
G02*
X144430000Y-92445000I0J-75000D01*
G01*
X144430000Y-93770000D01*
G75*
G02*
X144355000Y-93845000I-75000J0D01*
G01*
G37*
G04 #@! TD.AperFunction*
G04 #@! TA.AperFunction,SMDPad,CuDef*
G36*
G01*
X143855000Y-93845000D02*
X143705000Y-93845000D01*
G75*
G02*
X143630000Y-93770000I0J75000D01*
G01*
X143630000Y-92445000D01*
G75*
G02*
X143705000Y-92370000I75000J0D01*
G01*
X143855000Y-92370000D01*
G75*
G02*
X143930000Y-92445000I0J-75000D01*
G01*
X143930000Y-93770000D01*
G75*
G02*
X143855000Y-93845000I-75000J0D01*
G01*
G37*
G04 #@! TD.AperFunction*
G04 #@! TA.AperFunction,SMDPad,CuDef*
G36*
G01*
X143355000Y-93845000D02*
X143205000Y-93845000D01*
G75*
G02*
X143130000Y-93770000I0J75000D01*
G01*
X143130000Y-92445000D01*
G75*
G02*
X143205000Y-92370000I75000J0D01*
G01*
X143355000Y-92370000D01*
G75*
G02*
X143430000Y-92445000I0J-75000D01*
G01*
X143430000Y-93770000D01*
G75*
G02*
X143355000Y-93845000I-75000J0D01*
G01*
G37*
G04 #@! TD.AperFunction*
G04 #@! TA.AperFunction,SMDPad,CuDef*
G36*
G01*
X142855000Y-93845000D02*
X142705000Y-93845000D01*
G75*
G02*
X142630000Y-93770000I0J75000D01*
G01*
X142630000Y-92445000D01*
G75*
G02*
X142705000Y-92370000I75000J0D01*
G01*
X142855000Y-92370000D01*
G75*
G02*
X142930000Y-92445000I0J-75000D01*
G01*
X142930000Y-93770000D01*
G75*
G02*
X142855000Y-93845000I-75000J0D01*
G01*
G37*
G04 #@! TD.AperFunction*
G04 #@! TA.AperFunction,SMDPad,CuDef*
G36*
G01*
X142030000Y-94670000D02*
X140705000Y-94670000D01*
G75*
G02*
X140630000Y-94595000I0J75000D01*
G01*
X140630000Y-94445000D01*
G75*
G02*
X140705000Y-94370000I75000J0D01*
G01*
X142030000Y-94370000D01*
G75*
G02*
X142105000Y-94445000I0J-75000D01*
G01*
X142105000Y-94595000D01*
G75*
G02*
X142030000Y-94670000I-75000J0D01*
G01*
G37*
G04 #@! TD.AperFunction*
G04 #@! TA.AperFunction,SMDPad,CuDef*
G36*
G01*
X142030000Y-95170000D02*
X140705000Y-95170000D01*
G75*
G02*
X140630000Y-95095000I0J75000D01*
G01*
X140630000Y-94945000D01*
G75*
G02*
X140705000Y-94870000I75000J0D01*
G01*
X142030000Y-94870000D01*
G75*
G02*
X142105000Y-94945000I0J-75000D01*
G01*
X142105000Y-95095000D01*
G75*
G02*
X142030000Y-95170000I-75000J0D01*
G01*
G37*
G04 #@! TD.AperFunction*
G04 #@! TA.AperFunction,SMDPad,CuDef*
G36*
G01*
X142030000Y-95670000D02*
X140705000Y-95670000D01*
G75*
G02*
X140630000Y-95595000I0J75000D01*
G01*
X140630000Y-95445000D01*
G75*
G02*
X140705000Y-95370000I75000J0D01*
G01*
X142030000Y-95370000D01*
G75*
G02*
X142105000Y-95445000I0J-75000D01*
G01*
X142105000Y-95595000D01*
G75*
G02*
X142030000Y-95670000I-75000J0D01*
G01*
G37*
G04 #@! TD.AperFunction*
G04 #@! TA.AperFunction,SMDPad,CuDef*
G36*
G01*
X142030000Y-96170000D02*
X140705000Y-96170000D01*
G75*
G02*
X140630000Y-96095000I0J75000D01*
G01*
X140630000Y-95945000D01*
G75*
G02*
X140705000Y-95870000I75000J0D01*
G01*
X142030000Y-95870000D01*
G75*
G02*
X142105000Y-95945000I0J-75000D01*
G01*
X142105000Y-96095000D01*
G75*
G02*
X142030000Y-96170000I-75000J0D01*
G01*
G37*
G04 #@! TD.AperFunction*
G04 #@! TA.AperFunction,SMDPad,CuDef*
G36*
G01*
X142030000Y-96670000D02*
X140705000Y-96670000D01*
G75*
G02*
X140630000Y-96595000I0J75000D01*
G01*
X140630000Y-96445000D01*
G75*
G02*
X140705000Y-96370000I75000J0D01*
G01*
X142030000Y-96370000D01*
G75*
G02*
X142105000Y-96445000I0J-75000D01*
G01*
X142105000Y-96595000D01*
G75*
G02*
X142030000Y-96670000I-75000J0D01*
G01*
G37*
G04 #@! TD.AperFunction*
G04 #@! TA.AperFunction,SMDPad,CuDef*
G36*
G01*
X142030000Y-97170000D02*
X140705000Y-97170000D01*
G75*
G02*
X140630000Y-97095000I0J75000D01*
G01*
X140630000Y-96945000D01*
G75*
G02*
X140705000Y-96870000I75000J0D01*
G01*
X142030000Y-96870000D01*
G75*
G02*
X142105000Y-96945000I0J-75000D01*
G01*
X142105000Y-97095000D01*
G75*
G02*
X142030000Y-97170000I-75000J0D01*
G01*
G37*
G04 #@! TD.AperFunction*
G04 #@! TA.AperFunction,SMDPad,CuDef*
G36*
G01*
X142030000Y-97670000D02*
X140705000Y-97670000D01*
G75*
G02*
X140630000Y-97595000I0J75000D01*
G01*
X140630000Y-97445000D01*
G75*
G02*
X140705000Y-97370000I75000J0D01*
G01*
X142030000Y-97370000D01*
G75*
G02*
X142105000Y-97445000I0J-75000D01*
G01*
X142105000Y-97595000D01*
G75*
G02*
X142030000Y-97670000I-75000J0D01*
G01*
G37*
G04 #@! TD.AperFunction*
G04 #@! TA.AperFunction,SMDPad,CuDef*
G36*
G01*
X142030000Y-98170000D02*
X140705000Y-98170000D01*
G75*
G02*
X140630000Y-98095000I0J75000D01*
G01*
X140630000Y-97945000D01*
G75*
G02*
X140705000Y-97870000I75000J0D01*
G01*
X142030000Y-97870000D01*
G75*
G02*
X142105000Y-97945000I0J-75000D01*
G01*
X142105000Y-98095000D01*
G75*
G02*
X142030000Y-98170000I-75000J0D01*
G01*
G37*
G04 #@! TD.AperFunction*
G04 #@! TA.AperFunction,SMDPad,CuDef*
G36*
G01*
X142030000Y-98670000D02*
X140705000Y-98670000D01*
G75*
G02*
X140630000Y-98595000I0J75000D01*
G01*
X140630000Y-98445000D01*
G75*
G02*
X140705000Y-98370000I75000J0D01*
G01*
X142030000Y-98370000D01*
G75*
G02*
X142105000Y-98445000I0J-75000D01*
G01*
X142105000Y-98595000D01*
G75*
G02*
X142030000Y-98670000I-75000J0D01*
G01*
G37*
G04 #@! TD.AperFunction*
G04 #@! TA.AperFunction,SMDPad,CuDef*
G36*
G01*
X142030000Y-99170000D02*
X140705000Y-99170000D01*
G75*
G02*
X140630000Y-99095000I0J75000D01*
G01*
X140630000Y-98945000D01*
G75*
G02*
X140705000Y-98870000I75000J0D01*
G01*
X142030000Y-98870000D01*
G75*
G02*
X142105000Y-98945000I0J-75000D01*
G01*
X142105000Y-99095000D01*
G75*
G02*
X142030000Y-99170000I-75000J0D01*
G01*
G37*
G04 #@! TD.AperFunction*
G04 #@! TA.AperFunction,SMDPad,CuDef*
G36*
G01*
X142030000Y-99670000D02*
X140705000Y-99670000D01*
G75*
G02*
X140630000Y-99595000I0J75000D01*
G01*
X140630000Y-99445000D01*
G75*
G02*
X140705000Y-99370000I75000J0D01*
G01*
X142030000Y-99370000D01*
G75*
G02*
X142105000Y-99445000I0J-75000D01*
G01*
X142105000Y-99595000D01*
G75*
G02*
X142030000Y-99670000I-75000J0D01*
G01*
G37*
G04 #@! TD.AperFunction*
G04 #@! TA.AperFunction,SMDPad,CuDef*
G36*
G01*
X142030000Y-100170000D02*
X140705000Y-100170000D01*
G75*
G02*
X140630000Y-100095000I0J75000D01*
G01*
X140630000Y-99945000D01*
G75*
G02*
X140705000Y-99870000I75000J0D01*
G01*
X142030000Y-99870000D01*
G75*
G02*
X142105000Y-99945000I0J-75000D01*
G01*
X142105000Y-100095000D01*
G75*
G02*
X142030000Y-100170000I-75000J0D01*
G01*
G37*
G04 #@! TD.AperFunction*
D19*
X166420000Y-86800000D03*
D20*
X163880000Y-86800000D03*
X161340000Y-86800000D03*
X158790000Y-86800000D03*
X156260000Y-86800000D03*
X153720000Y-86800000D03*
X151180000Y-86800000D03*
D19*
X136350000Y-86820000D03*
D20*
X136350000Y-89360000D03*
X133810000Y-86820000D03*
X133810000Y-89360000D03*
X131270000Y-86820000D03*
X131270000Y-89360000D03*
X128730000Y-86820000D03*
X128730000Y-89360000D03*
G04 #@! TA.AperFunction,SMDPad,CuDef*
G36*
G01*
X134005000Y-110525000D02*
X134005000Y-109975000D01*
G75*
G02*
X134205000Y-109775000I200000J0D01*
G01*
X134605000Y-109775000D01*
G75*
G02*
X134805000Y-109975000I0J-200000D01*
G01*
X134805000Y-110525000D01*
G75*
G02*
X134605000Y-110725000I-200000J0D01*
G01*
X134205000Y-110725000D01*
G75*
G02*
X134005000Y-110525000I0J200000D01*
G01*
G37*
G04 #@! TD.AperFunction*
G04 #@! TA.AperFunction,SMDPad,CuDef*
G36*
G01*
X135655000Y-110525000D02*
X135655000Y-109975000D01*
G75*
G02*
X135855000Y-109775000I200000J0D01*
G01*
X136255000Y-109775000D01*
G75*
G02*
X136455000Y-109975000I0J-200000D01*
G01*
X136455000Y-110525000D01*
G75*
G02*
X136255000Y-110725000I-200000J0D01*
G01*
X135855000Y-110725000D01*
G75*
G02*
X135655000Y-110525000I0J200000D01*
G01*
G37*
G04 #@! TD.AperFunction*
G04 #@! TA.AperFunction,SMDPad,CuDef*
G36*
G01*
X135655000Y-112015000D02*
X135655000Y-111465000D01*
G75*
G02*
X135855000Y-111265000I200000J0D01*
G01*
X136255000Y-111265000D01*
G75*
G02*
X136455000Y-111465000I0J-200000D01*
G01*
X136455000Y-112015000D01*
G75*
G02*
X136255000Y-112215000I-200000J0D01*
G01*
X135855000Y-112215000D01*
G75*
G02*
X135655000Y-112015000I0J200000D01*
G01*
G37*
G04 #@! TD.AperFunction*
G04 #@! TA.AperFunction,SMDPad,CuDef*
G36*
G01*
X134005000Y-112015000D02*
X134005000Y-111465000D01*
G75*
G02*
X134205000Y-111265000I200000J0D01*
G01*
X134605000Y-111265000D01*
G75*
G02*
X134805000Y-111465000I0J-200000D01*
G01*
X134805000Y-112015000D01*
G75*
G02*
X134605000Y-112215000I-200000J0D01*
G01*
X134205000Y-112215000D01*
G75*
G02*
X134005000Y-112015000I0J200000D01*
G01*
G37*
G04 #@! TD.AperFunction*
G04 #@! TA.AperFunction,SMDPad,CuDef*
G36*
G01*
X135655000Y-113505000D02*
X135655000Y-112955000D01*
G75*
G02*
X135855000Y-112755000I200000J0D01*
G01*
X136255000Y-112755000D01*
G75*
G02*
X136455000Y-112955000I0J-200000D01*
G01*
X136455000Y-113505000D01*
G75*
G02*
X136255000Y-113705000I-200000J0D01*
G01*
X135855000Y-113705000D01*
G75*
G02*
X135655000Y-113505000I0J200000D01*
G01*
G37*
G04 #@! TD.AperFunction*
G04 #@! TA.AperFunction,SMDPad,CuDef*
G36*
G01*
X134005000Y-113505000D02*
X134005000Y-112955000D01*
G75*
G02*
X134205000Y-112755000I200000J0D01*
G01*
X134605000Y-112755000D01*
G75*
G02*
X134805000Y-112955000I0J-200000D01*
G01*
X134805000Y-113505000D01*
G75*
G02*
X134605000Y-113705000I-200000J0D01*
G01*
X134205000Y-113705000D01*
G75*
G02*
X134005000Y-113505000I0J200000D01*
G01*
G37*
G04 #@! TD.AperFunction*
D21*
X158180000Y-113350000D03*
X158180000Y-109650000D03*
G04 #@! TA.AperFunction,SMDPad,CuDef*
G36*
G01*
X164905000Y-96045000D02*
X164905000Y-95495000D01*
G75*
G02*
X165105000Y-95295000I200000J0D01*
G01*
X165505000Y-95295000D01*
G75*
G02*
X165705000Y-95495000I0J-200000D01*
G01*
X165705000Y-96045000D01*
G75*
G02*
X165505000Y-96245000I-200000J0D01*
G01*
X165105000Y-96245000D01*
G75*
G02*
X164905000Y-96045000I0J200000D01*
G01*
G37*
G04 #@! TD.AperFunction*
G04 #@! TA.AperFunction,SMDPad,CuDef*
G36*
G01*
X166555000Y-96045000D02*
X166555000Y-95495000D01*
G75*
G02*
X166755000Y-95295000I200000J0D01*
G01*
X167155000Y-95295000D01*
G75*
G02*
X167355000Y-95495000I0J-200000D01*
G01*
X167355000Y-96045000D01*
G75*
G02*
X167155000Y-96245000I-200000J0D01*
G01*
X166755000Y-96245000D01*
G75*
G02*
X166555000Y-96045000I0J200000D01*
G01*
G37*
G04 #@! TD.AperFunction*
D22*
X153220000Y-101550000D03*
X153220000Y-103450000D03*
X155220000Y-102500000D03*
G04 #@! TA.AperFunction,SMDPad,CuDef*
G36*
G01*
X129400000Y-105850000D02*
X129400000Y-105350000D01*
G75*
G02*
X129625000Y-105125000I225000J0D01*
G01*
X130075000Y-105125000D01*
G75*
G02*
X130300000Y-105350000I0J-225000D01*
G01*
X130300000Y-105850000D01*
G75*
G02*
X130075000Y-106075000I-225000J0D01*
G01*
X129625000Y-106075000D01*
G75*
G02*
X129400000Y-105850000I0J225000D01*
G01*
G37*
G04 #@! TD.AperFunction*
G04 #@! TA.AperFunction,SMDPad,CuDef*
G36*
G01*
X130950000Y-105850000D02*
X130950000Y-105350000D01*
G75*
G02*
X131175000Y-105125000I225000J0D01*
G01*
X131625000Y-105125000D01*
G75*
G02*
X131850000Y-105350000I0J-225000D01*
G01*
X131850000Y-105850000D01*
G75*
G02*
X131625000Y-106075000I-225000J0D01*
G01*
X131175000Y-106075000D01*
G75*
G02*
X130950000Y-105850000I0J225000D01*
G01*
G37*
G04 #@! TD.AperFunction*
G04 #@! TA.AperFunction,SMDPad,CuDef*
G36*
G01*
X132860000Y-105850000D02*
X132860000Y-105350000D01*
G75*
G02*
X133085000Y-105125000I225000J0D01*
G01*
X133535000Y-105125000D01*
G75*
G02*
X133760000Y-105350000I0J-225000D01*
G01*
X133760000Y-105850000D01*
G75*
G02*
X133535000Y-106075000I-225000J0D01*
G01*
X133085000Y-106075000D01*
G75*
G02*
X132860000Y-105850000I0J225000D01*
G01*
G37*
G04 #@! TD.AperFunction*
G04 #@! TA.AperFunction,SMDPad,CuDef*
G36*
G01*
X134410000Y-105850000D02*
X134410000Y-105350000D01*
G75*
G02*
X134635000Y-105125000I225000J0D01*
G01*
X135085000Y-105125000D01*
G75*
G02*
X135310000Y-105350000I0J-225000D01*
G01*
X135310000Y-105850000D01*
G75*
G02*
X135085000Y-106075000I-225000J0D01*
G01*
X134635000Y-106075000D01*
G75*
G02*
X134410000Y-105850000I0J225000D01*
G01*
G37*
G04 #@! TD.AperFunction*
G04 #@! TA.AperFunction,SMDPad,CuDef*
G36*
G01*
X138520000Y-92355000D02*
X138020000Y-92355000D01*
G75*
G02*
X137795000Y-92130000I0J225000D01*
G01*
X137795000Y-91680000D01*
G75*
G02*
X138020000Y-91455000I225000J0D01*
G01*
X138520000Y-91455000D01*
G75*
G02*
X138745000Y-91680000I0J-225000D01*
G01*
X138745000Y-92130000D01*
G75*
G02*
X138520000Y-92355000I-225000J0D01*
G01*
G37*
G04 #@! TD.AperFunction*
G04 #@! TA.AperFunction,SMDPad,CuDef*
G36*
G01*
X138520000Y-93905000D02*
X138020000Y-93905000D01*
G75*
G02*
X137795000Y-93680000I0J225000D01*
G01*
X137795000Y-93230000D01*
G75*
G02*
X138020000Y-93005000I225000J0D01*
G01*
X138520000Y-93005000D01*
G75*
G02*
X138745000Y-93230000I0J-225000D01*
G01*
X138745000Y-93680000D01*
G75*
G02*
X138520000Y-93905000I-225000J0D01*
G01*
G37*
G04 #@! TD.AperFunction*
G04 #@! TA.AperFunction,SMDPad,CuDef*
G36*
G01*
X129400000Y-104385000D02*
X129400000Y-103835000D01*
G75*
G02*
X129600000Y-103635000I200000J0D01*
G01*
X130000000Y-103635000D01*
G75*
G02*
X130200000Y-103835000I0J-200000D01*
G01*
X130200000Y-104385000D01*
G75*
G02*
X130000000Y-104585000I-200000J0D01*
G01*
X129600000Y-104585000D01*
G75*
G02*
X129400000Y-104385000I0J200000D01*
G01*
G37*
G04 #@! TD.AperFunction*
G04 #@! TA.AperFunction,SMDPad,CuDef*
G36*
G01*
X131050000Y-104385000D02*
X131050000Y-103835000D01*
G75*
G02*
X131250000Y-103635000I200000J0D01*
G01*
X131650000Y-103635000D01*
G75*
G02*
X131850000Y-103835000I0J-200000D01*
G01*
X131850000Y-104385000D01*
G75*
G02*
X131650000Y-104585000I-200000J0D01*
G01*
X131250000Y-104585000D01*
G75*
G02*
X131050000Y-104385000I0J200000D01*
G01*
G37*
G04 #@! TD.AperFunction*
G04 #@! TA.AperFunction,SMDPad,CuDef*
G36*
G01*
X134510000Y-104385000D02*
X134510000Y-103835000D01*
G75*
G02*
X134710000Y-103635000I200000J0D01*
G01*
X135110000Y-103635000D01*
G75*
G02*
X135310000Y-103835000I0J-200000D01*
G01*
X135310000Y-104385000D01*
G75*
G02*
X135110000Y-104585000I-200000J0D01*
G01*
X134710000Y-104585000D01*
G75*
G02*
X134510000Y-104385000I0J200000D01*
G01*
G37*
G04 #@! TD.AperFunction*
G04 #@! TA.AperFunction,SMDPad,CuDef*
G36*
G01*
X132860000Y-104385000D02*
X132860000Y-103835000D01*
G75*
G02*
X133060000Y-103635000I200000J0D01*
G01*
X133460000Y-103635000D01*
G75*
G02*
X133660000Y-103835000I0J-200000D01*
G01*
X133660000Y-104385000D01*
G75*
G02*
X133460000Y-104585000I-200000J0D01*
G01*
X133060000Y-104585000D01*
G75*
G02*
X132860000Y-104385000I0J200000D01*
G01*
G37*
G04 #@! TD.AperFunction*
G04 #@! TA.AperFunction,SMDPad,CuDef*
G36*
G01*
X137045000Y-93905000D02*
X136495000Y-93905000D01*
G75*
G02*
X136295000Y-93705000I0J200000D01*
G01*
X136295000Y-93305000D01*
G75*
G02*
X136495000Y-93105000I200000J0D01*
G01*
X137045000Y-93105000D01*
G75*
G02*
X137245000Y-93305000I0J-200000D01*
G01*
X137245000Y-93705000D01*
G75*
G02*
X137045000Y-93905000I-200000J0D01*
G01*
G37*
G04 #@! TD.AperFunction*
G04 #@! TA.AperFunction,SMDPad,CuDef*
G36*
G01*
X137045000Y-92255000D02*
X136495000Y-92255000D01*
G75*
G02*
X136295000Y-92055000I0J200000D01*
G01*
X136295000Y-91655000D01*
G75*
G02*
X136495000Y-91455000I200000J0D01*
G01*
X137045000Y-91455000D01*
G75*
G02*
X137245000Y-91655000I0J-200000D01*
G01*
X137245000Y-92055000D01*
G75*
G02*
X137045000Y-92255000I-200000J0D01*
G01*
G37*
G04 #@! TD.AperFunction*
G04 #@! TA.AperFunction,SMDPad,CuDef*
G36*
G01*
X148965000Y-102055000D02*
X148965000Y-101505000D01*
G75*
G02*
X149165000Y-101305000I200000J0D01*
G01*
X149565000Y-101305000D01*
G75*
G02*
X149765000Y-101505000I0J-200000D01*
G01*
X149765000Y-102055000D01*
G75*
G02*
X149565000Y-102255000I-200000J0D01*
G01*
X149165000Y-102255000D01*
G75*
G02*
X148965000Y-102055000I0J200000D01*
G01*
G37*
G04 #@! TD.AperFunction*
G04 #@! TA.AperFunction,SMDPad,CuDef*
G36*
G01*
X150615000Y-102055000D02*
X150615000Y-101505000D01*
G75*
G02*
X150815000Y-101305000I200000J0D01*
G01*
X151215000Y-101305000D01*
G75*
G02*
X151415000Y-101505000I0J-200000D01*
G01*
X151415000Y-102055000D01*
G75*
G02*
X151215000Y-102255000I-200000J0D01*
G01*
X150815000Y-102255000D01*
G75*
G02*
X150615000Y-102055000I0J200000D01*
G01*
G37*
G04 #@! TD.AperFunction*
D23*
X158255000Y-105670000D03*
X154400000Y-107430000D03*
X154400000Y-108230000D03*
X160410000Y-106640000D03*
X167900000Y-110150000D03*
X167900000Y-110950000D03*
D24*
X163810000Y-111500000D03*
X162860000Y-111500000D03*
X164760000Y-111500000D03*
D23*
X156100000Y-110562500D03*
X150140000Y-113190000D03*
X151190000Y-110450000D03*
X161210000Y-106640000D03*
X161160000Y-97210000D03*
X159900000Y-95435000D03*
X167820000Y-92705000D03*
X161400000Y-90070000D03*
X155740000Y-98760000D03*
X140095000Y-102750000D03*
X126930000Y-93505000D03*
X140095000Y-91800000D03*
X152400000Y-95545000D03*
X142580000Y-99520000D03*
X154150000Y-103450000D03*
X154880000Y-109599998D03*
X146280000Y-100200000D03*
X150150000Y-103270000D03*
X143280000Y-94320000D03*
X148470000Y-95020000D03*
X145520000Y-97250000D03*
X132350000Y-105600000D03*
X138270000Y-90960000D03*
X173000000Y-87000000D03*
X173000000Y-113000000D03*
X127000000Y-113000000D03*
X127000000Y-87000000D03*
X167810000Y-97240000D03*
X161950000Y-113700000D03*
X160060000Y-111500000D03*
X161090000Y-109660000D03*
X157260000Y-111500000D03*
X168120000Y-113700000D03*
X165510000Y-111500000D03*
X162110000Y-111500000D03*
X167870000Y-109060010D03*
X150257660Y-107847660D03*
X132350000Y-104110000D03*
X136770000Y-90960000D03*
X153090000Y-110450000D03*
X146770000Y-103270000D03*
X141645000Y-102750000D03*
X161880000Y-91625000D03*
X154090000Y-113470000D03*
X152400000Y-93995000D03*
X141645000Y-91800000D03*
X161005000Y-103240000D03*
X159735000Y-98550000D03*
X159120000Y-101760000D03*
X144280000Y-94320000D03*
D25*
X166292500Y-105960000D02*
X166290000Y-105962500D01*
D26*
X163810000Y-110400000D02*
X163810000Y-111500000D01*
X162860000Y-111500000D02*
X163810000Y-111500000D01*
X164760000Y-111500000D02*
X163810000Y-111500000D01*
X167500000Y-110550000D02*
X167900000Y-110150000D01*
X167500000Y-110550000D02*
X167900000Y-110950000D01*
X166630000Y-110550000D02*
X167500000Y-110550000D01*
X154880000Y-110562500D02*
X156100000Y-110562500D01*
X150170000Y-113170000D02*
X151190000Y-113170000D01*
X151190000Y-111450000D02*
X151190000Y-113170000D01*
X154800000Y-107830000D02*
X154400000Y-107430000D01*
X154800000Y-107830000D02*
X154400000Y-108230000D01*
X155490000Y-107830000D02*
X154800000Y-107830000D01*
X151190000Y-107750000D02*
X150200000Y-107750000D01*
D27*
X171097500Y-105462500D02*
X171100000Y-105460000D01*
X166290000Y-105462500D02*
X171097500Y-105462500D01*
D25*
X158255000Y-104740000D02*
X158255000Y-105670000D01*
D26*
X154880000Y-110562500D02*
X154880000Y-109599998D01*
D25*
X166880000Y-92705000D02*
X167820000Y-92705000D01*
X155740000Y-98760000D02*
X156655000Y-98760000D01*
D26*
X160810000Y-107040000D02*
X161210000Y-106640000D01*
X160810000Y-107040000D02*
X160410000Y-106640000D01*
X160810000Y-107830000D02*
X160810000Y-107040000D01*
D25*
X140330000Y-101580000D02*
X140320000Y-101590000D01*
X140492500Y-101432500D02*
X140420000Y-101505000D01*
D26*
X140095000Y-101780000D02*
X140095000Y-102750000D01*
D28*
X142580000Y-99520000D02*
X141367500Y-99520000D01*
X146280000Y-101440000D02*
X146280000Y-100200000D01*
D26*
X140095000Y-92760000D02*
X140095000Y-91800000D01*
D28*
X143280000Y-93107500D02*
X143280000Y-94320000D01*
D26*
X152400000Y-95545000D02*
X151430000Y-95545000D01*
D28*
X150905000Y-95020000D02*
X151430000Y-95545000D01*
X149692500Y-95020000D02*
X150905000Y-95020000D01*
D26*
X151190000Y-111450000D02*
X151190000Y-110450000D01*
D28*
X148470000Y-95020000D02*
X149692500Y-95020000D01*
D25*
X162355000Y-90070000D02*
X161400000Y-90070000D01*
X158435000Y-95435000D02*
X159900000Y-95435000D01*
X156870000Y-95435000D02*
X156450000Y-95855000D01*
X158435000Y-95435000D02*
X156870000Y-95435000D01*
X153220000Y-103450000D02*
X154150000Y-103450000D01*
X155255000Y-99245000D02*
X155740000Y-98760000D01*
X155255000Y-99990000D02*
X155255000Y-99245000D01*
X161960000Y-97210000D02*
X161160000Y-97210000D01*
X133310000Y-105600000D02*
X132350000Y-105600000D01*
X131400000Y-105600000D02*
X132350000Y-105600000D01*
X138270000Y-91905000D02*
X138270000Y-90960000D01*
X127900000Y-93505000D02*
X126930000Y-93505000D01*
D26*
X164760000Y-111500000D02*
X165510000Y-111500000D01*
X162860000Y-111500000D02*
X162110000Y-111500000D01*
X165680000Y-111500000D02*
X166630000Y-110550000D01*
X165510000Y-111500000D02*
X165680000Y-111500000D01*
D25*
X166935000Y-108830000D02*
X167639990Y-108830000D01*
X167639990Y-108830000D02*
X167870000Y-109060010D01*
X150257660Y-107807660D02*
X150257660Y-107847660D01*
X150200000Y-107750000D02*
X150257660Y-107807660D01*
D26*
X150150000Y-103270000D02*
X149185000Y-103270000D01*
D25*
X150965000Y-104085000D02*
X150150000Y-103270000D01*
X150965000Y-104760000D02*
X150965000Y-104085000D01*
X145780000Y-103378002D02*
X147161998Y-104760000D01*
X147161998Y-104760000D02*
X149415000Y-104760000D01*
X145780000Y-101432500D02*
X145780000Y-103378002D01*
D26*
X153090000Y-113170000D02*
X153090000Y-111450000D01*
X141645000Y-101780000D02*
X141645000Y-102750000D01*
D28*
X141367500Y-101502500D02*
X141645000Y-101780000D01*
X141367500Y-100020000D02*
X141367500Y-101502500D01*
X141992500Y-101432500D02*
X141645000Y-101780000D01*
X142780000Y-101432500D02*
X141992500Y-101432500D01*
X141992500Y-93107500D02*
X141645000Y-92760000D01*
X142780000Y-93107500D02*
X141992500Y-93107500D01*
D26*
X141645000Y-92760000D02*
X141645000Y-91800000D01*
X152400000Y-93995000D02*
X151430000Y-93995000D01*
D28*
X150905000Y-94520000D02*
X151430000Y-93995000D01*
X149692500Y-94520000D02*
X150905000Y-94520000D01*
D26*
X153090000Y-111450000D02*
X153090000Y-110450000D01*
X153390000Y-113470000D02*
X153090000Y-113170000D01*
X154090000Y-113470000D02*
X153390000Y-113470000D01*
D25*
X163385000Y-91625000D02*
X161880000Y-91625000D01*
X163905000Y-91105000D02*
X163385000Y-91625000D01*
X163905000Y-90070000D02*
X163905000Y-91105000D01*
X165035000Y-90070000D02*
X165305000Y-89800000D01*
X163905000Y-90070000D02*
X165035000Y-90070000D01*
X165305000Y-91290000D02*
X165305000Y-89800000D01*
X133260000Y-104110000D02*
X132350000Y-104110000D01*
X131450000Y-104110000D02*
X132350000Y-104110000D01*
X136770000Y-91855000D02*
X136770000Y-90960000D01*
D28*
X146780000Y-102415000D02*
X147635000Y-103270000D01*
X146780000Y-101432500D02*
X146780000Y-102415000D01*
D26*
X147635000Y-103270000D02*
X146770000Y-103270000D01*
D25*
X135720000Y-97520000D02*
X141367500Y-97520000D01*
X132350000Y-94150000D02*
X135720000Y-97520000D01*
X132350000Y-90820000D02*
X132350000Y-94150000D01*
X133810000Y-89360000D02*
X132350000Y-90820000D01*
X137670000Y-86820000D02*
X136350000Y-86820000D01*
X140190000Y-90400000D02*
X140190000Y-89340000D01*
X140820000Y-91030000D02*
X140190000Y-90400000D01*
X142850000Y-91030000D02*
X140820000Y-91030000D01*
X143780000Y-91960000D02*
X142850000Y-91030000D01*
X140190000Y-89340000D02*
X137670000Y-86820000D01*
X143780000Y-93107500D02*
X143780000Y-91960000D01*
X135080000Y-88090000D02*
X133810000Y-86820000D01*
X137590000Y-88090000D02*
X135080000Y-88090000D01*
X139190000Y-89690000D02*
X137590000Y-88090000D01*
X139190000Y-93870000D02*
X139190000Y-89690000D01*
X139840000Y-94520000D02*
X139190000Y-93870000D01*
X141367500Y-94520000D02*
X139840000Y-94520000D01*
X142020000Y-98020000D02*
X141995010Y-97995010D01*
X130000000Y-90450000D02*
X130000000Y-88090000D01*
X130000000Y-88090000D02*
X128730000Y-86820000D01*
X129025000Y-91855000D02*
X127900000Y-91855000D01*
X130000000Y-90880000D02*
X129025000Y-91855000D01*
X130000000Y-90450000D02*
X130000000Y-90880000D01*
X131360000Y-92240000D02*
X130000000Y-90880000D01*
X131360000Y-94650000D02*
X131360000Y-92240000D01*
X134730000Y-98020000D02*
X131360000Y-94650000D01*
X141367500Y-98020000D02*
X134730000Y-98020000D01*
D26*
X166630000Y-113360000D02*
X166630000Y-112450000D01*
X164130000Y-113680000D02*
X166310000Y-113680000D01*
X163810000Y-113360000D02*
X164130000Y-113680000D01*
X166310000Y-113680000D02*
X166630000Y-113360000D01*
X163810000Y-112600000D02*
X163810000Y-113360000D01*
X168080000Y-112450000D02*
X166630000Y-112450000D01*
X169070000Y-111460000D02*
X168080000Y-112450000D01*
X169070000Y-109990000D02*
X169070000Y-111460000D01*
X171100000Y-107960000D02*
X169070000Y-109990000D01*
D25*
X156700000Y-101760000D02*
X156605000Y-101760000D01*
X158180000Y-103240000D02*
X156700000Y-101760000D01*
X158255000Y-103240000D02*
X158180000Y-103240000D01*
X158255000Y-103240000D02*
X161005000Y-103240000D01*
X134850000Y-105610000D02*
X134860000Y-105600000D01*
X134850000Y-107500000D02*
X134850000Y-105610000D01*
X134860000Y-104160000D02*
X134910000Y-104110000D01*
X134860000Y-105600000D02*
X134860000Y-104160000D01*
X142730000Y-104110000D02*
X134910000Y-104110000D01*
X143780000Y-103060000D02*
X142730000Y-104110000D01*
X143780000Y-101432500D02*
X143780000Y-103060000D01*
X129850000Y-107500000D02*
X129850000Y-105600000D01*
X129850000Y-104160000D02*
X129800000Y-104110000D01*
X129850000Y-105600000D02*
X129850000Y-104160000D01*
X130670000Y-103240000D02*
X129800000Y-104110000D01*
X139220000Y-103240000D02*
X130670000Y-103240000D01*
X139639989Y-103659989D02*
X139220000Y-103240000D01*
X142510011Y-103659989D02*
X139639989Y-103659989D01*
X143280000Y-102890000D02*
X142510011Y-103659989D01*
X143280000Y-101432500D02*
X143280000Y-102890000D01*
X166290000Y-99537500D02*
X165532500Y-99537500D01*
X165532500Y-99537500D02*
X165305000Y-99765000D01*
D27*
X166292500Y-99540000D02*
X166290000Y-99537500D01*
X170910000Y-97040000D02*
X168410000Y-99540000D01*
X168410000Y-99540000D02*
X166292500Y-99540000D01*
X171100000Y-97040000D02*
X170910000Y-97040000D01*
D25*
X165500000Y-97150000D02*
X166290000Y-97940000D01*
X164160000Y-97150000D02*
X165500000Y-97150000D01*
X163385000Y-96375000D02*
X164160000Y-97150000D01*
X166290000Y-97940000D02*
X166290000Y-99537500D01*
X163385000Y-95435000D02*
X163385000Y-96375000D01*
X156705000Y-97260000D02*
X158205000Y-98760000D01*
X156605000Y-97260000D02*
X156705000Y-97260000D01*
X159525000Y-98760000D02*
X159735000Y-98550000D01*
X158205000Y-98760000D02*
X159525000Y-98760000D01*
X166955000Y-89800000D02*
X166845000Y-89800000D01*
X165985000Y-88830000D02*
X166955000Y-89800000D01*
X164205000Y-88830000D02*
X165985000Y-88830000D01*
X163955000Y-88580000D02*
X164205000Y-88830000D01*
X168310000Y-89800000D02*
X166955000Y-89800000D01*
X168570000Y-89540000D02*
X168310000Y-89800000D01*
X171100000Y-89540000D02*
X168570000Y-89540000D01*
X156450000Y-92855000D02*
X156450000Y-94205000D01*
X156490000Y-92895000D02*
X156450000Y-92855000D01*
X158435000Y-92895000D02*
X156490000Y-92895000D01*
X149692500Y-99520000D02*
X149717490Y-99544990D01*
X153605000Y-101165000D02*
X153220000Y-101550000D01*
X153605000Y-99990000D02*
X153605000Y-101165000D01*
X150669990Y-99569990D02*
X153184990Y-99569990D01*
X153184990Y-99569990D02*
X153605000Y-99990000D01*
X150620000Y-99520000D02*
X150669990Y-99569990D01*
X149692500Y-99520000D02*
X150620000Y-99520000D01*
X147780000Y-101432500D02*
X148280000Y-101432500D01*
X147280000Y-101432500D02*
X147780000Y-101432500D01*
X149017500Y-101432500D02*
X149365000Y-101780000D01*
X148280000Y-101432500D02*
X149017500Y-101432500D01*
X136820000Y-93455000D02*
X136770000Y-93505000D01*
X138270000Y-93455000D02*
X136820000Y-93455000D01*
X136265000Y-93000000D02*
X136770000Y-93505000D01*
X134850000Y-93000000D02*
X136265000Y-93000000D01*
X139130000Y-95020000D02*
X138270000Y-94160000D01*
X138270000Y-94160000D02*
X138270000Y-93455000D01*
X141367500Y-95020000D02*
X139130000Y-95020000D01*
D26*
X161565000Y-112600000D02*
X161240000Y-112275000D01*
X162860000Y-112600000D02*
X161565000Y-112600000D01*
X155792500Y-113350000D02*
X154880000Y-112437500D01*
X158180000Y-113350000D02*
X155792500Y-113350000D01*
X160165000Y-113350000D02*
X161240000Y-112275000D01*
X158180000Y-113350000D02*
X160165000Y-113350000D01*
D25*
X161565000Y-110400000D02*
X161240000Y-110725000D01*
X162860000Y-110400000D02*
X161565000Y-110400000D01*
D26*
X158150000Y-109620000D02*
X158180000Y-109650000D01*
X158180000Y-108560000D02*
X158910000Y-107830000D01*
X158180000Y-109650000D02*
X158180000Y-108560000D01*
X158180000Y-108620000D02*
X157390000Y-107830000D01*
D25*
X158180000Y-109650000D02*
X158180000Y-108620000D01*
D26*
X157390000Y-107830000D02*
X158910000Y-107830000D01*
D25*
X157428638Y-107791362D02*
X157390000Y-107830000D01*
D26*
X153090000Y-108500000D02*
X152140000Y-109450000D01*
X153090000Y-107750000D02*
X153090000Y-108500000D01*
X154090000Y-106530000D02*
X153090000Y-107530000D01*
X156090000Y-106530000D02*
X154090000Y-106530000D01*
X153090000Y-107530000D02*
X153090000Y-107750000D01*
X157390000Y-107830000D02*
X156090000Y-106530000D01*
D25*
X162195000Y-108920000D02*
X162285000Y-108830000D01*
X159790000Y-108920000D02*
X162195000Y-108920000D01*
X158910000Y-108040000D02*
X159790000Y-108920000D01*
X158910000Y-107830000D02*
X158910000Y-108040000D01*
D26*
X169800000Y-104000000D02*
X161540000Y-104000000D01*
X158910000Y-106630000D02*
X158910000Y-107830000D01*
X173210000Y-89260000D02*
X173210000Y-100590000D01*
X173210000Y-100590000D02*
X169800000Y-104000000D01*
X172110000Y-88160000D02*
X173210000Y-89260000D01*
X165240000Y-88160000D02*
X172110000Y-88160000D01*
X161540000Y-104000000D02*
X158910000Y-106630000D01*
X163880000Y-86800000D02*
X165240000Y-88160000D01*
D25*
X159905000Y-94165000D02*
X160640000Y-94900000D01*
X158435000Y-94165000D02*
X159905000Y-94165000D01*
X160640000Y-96430000D02*
X159860000Y-97210000D01*
X160640000Y-94900000D02*
X160640000Y-96430000D01*
X159810000Y-97260000D02*
X159860000Y-97210000D01*
X158255000Y-97260000D02*
X159810000Y-97260000D01*
D29*
X147780000Y-94050000D02*
X147780000Y-93107500D01*
X147960000Y-94230000D02*
X147780000Y-94050000D01*
X148570000Y-94230000D02*
X147960000Y-94230000D01*
X152101767Y-92360000D02*
X150440000Y-92360000D01*
X150440000Y-92360000D02*
X148570000Y-94230000D01*
X155451767Y-89010000D02*
X152101767Y-92360000D01*
X159130000Y-89010000D02*
X155451767Y-89010000D01*
X161340000Y-86800000D02*
X159130000Y-89010000D01*
D25*
X146780000Y-93107500D02*
X147280000Y-93107500D01*
D29*
X157080000Y-88510000D02*
X158790000Y-86800000D01*
X155315356Y-88510000D02*
X157080000Y-88510000D01*
X151905356Y-91920000D02*
X155315356Y-88510000D01*
X147480000Y-91920000D02*
X151905356Y-91920000D01*
X147280000Y-92120000D02*
X147480000Y-91920000D01*
X147280000Y-93107500D02*
X147280000Y-92120000D01*
X151540011Y-91519989D02*
X156260000Y-86800000D01*
X146870011Y-91519989D02*
X151540011Y-91519989D01*
X146280000Y-92110000D02*
X146870011Y-91519989D01*
X146280000Y-93107500D02*
X146280000Y-92110000D01*
X153720000Y-88600000D02*
X153720000Y-86800000D01*
X151200022Y-91119978D02*
X153720000Y-88600000D01*
X146610022Y-91119978D02*
X151200022Y-91119978D01*
X145780000Y-91950000D02*
X146610022Y-91119978D01*
X145780000Y-93107500D02*
X145780000Y-91950000D01*
X151180000Y-89080000D02*
X151180000Y-86800000D01*
X146296483Y-90719967D02*
X149540033Y-90719967D01*
X145280000Y-91736450D02*
X146296483Y-90719967D01*
X149540033Y-90719967D02*
X151180000Y-89080000D01*
X145280000Y-93107500D02*
X145280000Y-91736450D01*
D25*
X151763590Y-98520000D02*
X149692500Y-98520000D01*
X154690000Y-91676410D02*
X154690000Y-95593590D01*
X155936410Y-90430000D02*
X154690000Y-91676410D01*
X160350000Y-91250000D02*
X159530000Y-90430000D01*
X154690000Y-95593590D02*
X151763590Y-98520000D01*
X159530000Y-90430000D02*
X155936410Y-90430000D01*
X160350000Y-93570000D02*
X160350000Y-91250000D01*
X161580000Y-94800000D02*
X160350000Y-93570000D01*
X164510000Y-94800000D02*
X161580000Y-94800000D01*
X165305000Y-95595000D02*
X164510000Y-94800000D01*
X165305000Y-95770000D02*
X165305000Y-95595000D01*
X158255000Y-100260000D02*
X158255000Y-101760000D01*
X158255000Y-101760000D02*
X159120000Y-101760000D01*
X155220000Y-101645000D02*
X155220000Y-102500000D01*
X156605000Y-100260000D02*
X155220000Y-101645000D01*
X163935000Y-108830000D02*
X165285000Y-108830000D01*
X164760000Y-109355000D02*
X165285000Y-108830000D01*
X164760000Y-110400000D02*
X164760000Y-109355000D01*
X151490000Y-97520000D02*
X149692500Y-97520000D01*
X153560000Y-95450000D02*
X151490000Y-97520000D01*
X155570009Y-89509991D02*
X153560000Y-91520000D01*
X159860009Y-89509991D02*
X155570009Y-89509991D01*
X153560000Y-91520000D02*
X153560000Y-95450000D01*
X160790000Y-88580000D02*
X159860009Y-89509991D01*
X162305000Y-88580000D02*
X160790000Y-88580000D01*
X156605000Y-103240000D02*
X156605000Y-104740000D01*
X149692500Y-100020000D02*
X150920000Y-100020000D01*
X150920000Y-100020000D02*
X152260011Y-101360011D01*
X152260011Y-104100011D02*
X152900000Y-104740000D01*
X152260011Y-101360011D02*
X152260011Y-104100011D01*
X152900000Y-104740000D02*
X156605000Y-104740000D01*
X165190000Y-94165000D02*
X165380000Y-94355000D01*
X163385000Y-94165000D02*
X165190000Y-94165000D01*
X166880000Y-94355000D02*
X165380000Y-94355000D01*
X156870000Y-91625000D02*
X156450000Y-91205000D01*
X158435000Y-91625000D02*
X156870000Y-91625000D01*
X151900000Y-99020000D02*
X149692500Y-99020000D01*
X155240000Y-95680000D02*
X151900000Y-99020000D01*
X155240000Y-92415000D02*
X155240000Y-95680000D01*
X156450000Y-91205000D02*
X155240000Y-92415000D01*
X165190000Y-92895000D02*
X165380000Y-92705000D01*
X163385000Y-92895000D02*
X165190000Y-92895000D01*
X161315000Y-92895000D02*
X163385000Y-92895000D01*
X160890000Y-92470000D02*
X161315000Y-92895000D01*
X160890000Y-90990000D02*
X160890000Y-92470000D01*
X159860000Y-89960000D02*
X160890000Y-90990000D01*
X155770000Y-89960000D02*
X159860000Y-89960000D01*
X154120000Y-91610000D02*
X155770000Y-89960000D01*
X154120000Y-95527180D02*
X154120000Y-91610000D01*
X151627180Y-98020000D02*
X154120000Y-95527180D01*
X149692500Y-98020000D02*
X151627180Y-98020000D01*
X146980000Y-88440000D02*
X146980000Y-87040000D01*
X141980000Y-87040000D02*
X141980000Y-88440000D01*
X144980000Y-87297522D02*
X144980000Y-87040000D01*
X143980000Y-88297522D02*
X144980000Y-87297522D01*
X143980000Y-88440000D02*
X143980000Y-88297522D01*
X144780000Y-92304298D02*
X144780000Y-93107500D01*
X144780000Y-89850000D02*
X144780000Y-92304298D01*
X143980000Y-89050000D02*
X144780000Y-89850000D01*
X143980000Y-88440000D02*
X143980000Y-89050000D01*
X144280000Y-93107500D02*
X144280000Y-94320000D01*
X138600000Y-97020000D02*
X141367500Y-97020000D01*
X136680000Y-97020000D02*
X138600000Y-97020000D01*
X133330000Y-93670000D02*
X136680000Y-97020000D01*
X133330000Y-92380000D02*
X133330000Y-93670000D01*
X136350000Y-89360000D02*
X133330000Y-92380000D01*
X133905000Y-109750000D02*
X134405000Y-110250000D01*
X132480000Y-109750000D02*
X133905000Y-109750000D01*
X133855000Y-112290000D02*
X134405000Y-111740000D01*
X132480000Y-112290000D02*
X133855000Y-112290000D01*
X134075000Y-113560000D02*
X134405000Y-113230000D01*
X132480000Y-113560000D02*
X134075000Y-113560000D01*
X139880000Y-113230000D02*
X136055000Y-113230000D01*
X145280000Y-107830000D02*
X139880000Y-113230000D01*
X145280000Y-101432500D02*
X145280000Y-107830000D01*
X140010000Y-111740000D02*
X136055000Y-111740000D01*
X144780000Y-106970000D02*
X140010000Y-111740000D01*
X144780000Y-101432500D02*
X144780000Y-106970000D01*
X140130000Y-110250000D02*
X136055000Y-110250000D01*
X144280000Y-106100000D02*
X140130000Y-110250000D01*
X144280000Y-101432500D02*
X144280000Y-106100000D01*
X167850000Y-91290000D02*
X166955000Y-91290000D01*
X168600000Y-92040000D02*
X167850000Y-91290000D01*
X171100000Y-92040000D02*
X168600000Y-92040000D01*
X168060000Y-95770000D02*
X166955000Y-95770000D01*
X168430000Y-95400000D02*
X168440000Y-95410000D01*
X168430000Y-95400000D02*
X168060000Y-95770000D01*
X168720000Y-95110000D02*
X168430000Y-95400000D01*
X168720000Y-92060000D02*
X168720000Y-95110000D01*
X168740000Y-92040000D02*
X168720000Y-92060000D01*
X171100000Y-92040000D02*
X168740000Y-92040000D01*
X148330000Y-108750000D02*
X146730000Y-108750000D01*
X151810000Y-105270000D02*
X148330000Y-108750000D01*
X151810000Y-102575000D02*
X151810000Y-105270000D01*
X151015000Y-101780000D02*
X151810000Y-102575000D01*
D30*
X143152998Y-94480000D02*
X143256549Y-94480000D01*
X143284774Y-94621898D01*
X143362795Y-94810256D01*
X143476063Y-94979774D01*
X143620226Y-95123937D01*
X143789744Y-95237205D01*
X143978102Y-95315226D01*
X144178061Y-95355000D01*
X144381939Y-95355000D01*
X144581898Y-95315226D01*
X144770256Y-95237205D01*
X144939774Y-95123937D01*
X145083937Y-94979774D01*
X145197205Y-94810256D01*
X145275226Y-94621898D01*
X145302840Y-94483072D01*
X145355000Y-94483072D01*
X145494113Y-94469371D01*
X145530000Y-94458485D01*
X145565887Y-94469371D01*
X145705000Y-94483072D01*
X145855000Y-94483072D01*
X145994113Y-94469371D01*
X146030000Y-94458485D01*
X146065887Y-94469371D01*
X146205000Y-94483072D01*
X146355000Y-94483072D01*
X146494113Y-94469371D01*
X146530000Y-94458485D01*
X146565887Y-94469371D01*
X146705000Y-94483072D01*
X146855000Y-94483072D01*
X146994113Y-94469371D01*
X147030000Y-94458485D01*
X147065887Y-94469371D01*
X147182791Y-94480885D01*
X147257762Y-94572237D01*
X147285808Y-94595254D01*
X147414741Y-94724187D01*
X147437762Y-94752238D01*
X147549680Y-94844087D01*
X147677367Y-94912337D01*
X147815915Y-94954365D01*
X147923895Y-94965000D01*
X147923904Y-94965000D01*
X147959999Y-94968555D01*
X147996094Y-94965000D01*
X148423118Y-94965000D01*
X148437102Y-94991162D01*
X148460769Y-95020000D01*
X148437102Y-95048838D01*
X148395982Y-95125768D01*
X148320000Y-95201750D01*
X148331132Y-95303883D01*
X148331186Y-95304051D01*
X148330629Y-95305887D01*
X148316928Y-95445000D01*
X148316928Y-95595000D01*
X148330629Y-95734113D01*
X148341515Y-95770000D01*
X148330629Y-95805887D01*
X148316928Y-95945000D01*
X148316928Y-96095000D01*
X148330629Y-96234113D01*
X148341515Y-96270000D01*
X148330629Y-96305887D01*
X148316928Y-96445000D01*
X148316928Y-96595000D01*
X148330629Y-96734113D01*
X148341515Y-96770000D01*
X148330629Y-96805887D01*
X148316928Y-96945000D01*
X148316928Y-97095000D01*
X148330629Y-97234113D01*
X148341515Y-97270000D01*
X148330629Y-97305887D01*
X148316928Y-97445000D01*
X148316928Y-97595000D01*
X148330629Y-97734113D01*
X148341515Y-97770000D01*
X148330629Y-97805887D01*
X148316928Y-97945000D01*
X148316928Y-98095000D01*
X148330629Y-98234113D01*
X148341515Y-98270000D01*
X148330629Y-98305887D01*
X148316928Y-98445000D01*
X148316928Y-98595000D01*
X148330629Y-98734113D01*
X148341515Y-98770000D01*
X148330629Y-98805887D01*
X148316928Y-98945000D01*
X148316928Y-99095000D01*
X148330629Y-99234113D01*
X148341515Y-99270000D01*
X148330629Y-99305887D01*
X148316928Y-99445000D01*
X148316928Y-99595000D01*
X148330629Y-99734113D01*
X148341515Y-99770000D01*
X148330629Y-99805887D01*
X148316928Y-99945000D01*
X148316928Y-100056928D01*
X148205000Y-100056928D01*
X148065887Y-100070629D01*
X148030000Y-100081515D01*
X147994113Y-100070629D01*
X147855000Y-100056928D01*
X147705000Y-100056928D01*
X147565887Y-100070629D01*
X147530000Y-100081515D01*
X147494113Y-100070629D01*
X147355000Y-100056928D01*
X147205000Y-100056928D01*
X147065887Y-100070629D01*
X147030000Y-100081515D01*
X146994113Y-100070629D01*
X146855000Y-100056928D01*
X146705000Y-100056928D01*
X146565887Y-100070629D01*
X146545949Y-100076677D01*
X146461750Y-100067500D01*
X146401880Y-100127370D01*
X146308838Y-100177102D01*
X146280000Y-100200769D01*
X146251162Y-100177102D01*
X146158120Y-100127370D01*
X146098250Y-100067500D01*
X146014051Y-100076677D01*
X145994113Y-100070629D01*
X145855000Y-100056928D01*
X145705000Y-100056928D01*
X145565887Y-100070629D01*
X145530000Y-100081515D01*
X145494113Y-100070629D01*
X145355000Y-100056928D01*
X145205000Y-100056928D01*
X145065887Y-100070629D01*
X145030000Y-100081515D01*
X144994113Y-100070629D01*
X144855000Y-100056928D01*
X144705000Y-100056928D01*
X144565887Y-100070629D01*
X144530000Y-100081515D01*
X144494113Y-100070629D01*
X144355000Y-100056928D01*
X144205000Y-100056928D01*
X144065887Y-100070629D01*
X144030000Y-100081515D01*
X143994113Y-100070629D01*
X143855000Y-100056928D01*
X143705000Y-100056928D01*
X143565887Y-100070629D01*
X143530000Y-100081515D01*
X143494113Y-100070629D01*
X143355000Y-100056928D01*
X143205000Y-100056928D01*
X143065887Y-100070629D01*
X143030000Y-100081515D01*
X142994113Y-100070629D01*
X142855000Y-100056928D01*
X142743072Y-100056928D01*
X142743072Y-99945000D01*
X142729371Y-99805887D01*
X142728814Y-99804051D01*
X142728868Y-99803883D01*
X142740000Y-99701750D01*
X142664018Y-99625768D01*
X142622898Y-99548838D01*
X142599231Y-99520000D01*
X142622898Y-99491162D01*
X142664018Y-99414232D01*
X142740000Y-99338250D01*
X142728868Y-99236117D01*
X142728814Y-99235949D01*
X142729371Y-99234113D01*
X142743072Y-99095000D01*
X142743072Y-98945000D01*
X142729371Y-98805887D01*
X142718485Y-98770000D01*
X142729371Y-98734113D01*
X142743072Y-98595000D01*
X142743072Y-98445000D01*
X142729371Y-98305887D01*
X142728423Y-98302762D01*
X142769002Y-98168985D01*
X142783676Y-98019999D01*
X142769002Y-97871014D01*
X142728423Y-97737238D01*
X142729371Y-97734113D01*
X142743072Y-97595000D01*
X142743072Y-97445000D01*
X142729371Y-97305887D01*
X142718485Y-97270000D01*
X142729371Y-97234113D01*
X142743072Y-97095000D01*
X142743072Y-96945000D01*
X142729371Y-96805887D01*
X142718485Y-96770000D01*
X142729371Y-96734113D01*
X142743072Y-96595000D01*
X142743072Y-96445000D01*
X142729371Y-96305887D01*
X142718485Y-96270000D01*
X142729371Y-96234113D01*
X142743072Y-96095000D01*
X142743072Y-95945000D01*
X142729371Y-95805887D01*
X142718485Y-95770000D01*
X142729371Y-95734113D01*
X142743072Y-95595000D01*
X142743072Y-95445000D01*
X142729371Y-95305887D01*
X142718485Y-95270000D01*
X142729371Y-95234113D01*
X142743072Y-95095000D01*
X142743072Y-94945000D01*
X142729371Y-94805887D01*
X142718485Y-94770000D01*
X142729371Y-94734113D01*
X142743072Y-94595000D01*
X142743072Y-94483072D01*
X142855000Y-94483072D01*
X142994113Y-94469371D01*
X142995949Y-94468814D01*
X142996117Y-94468868D01*
X143098250Y-94480000D01*
X143152998Y-94425252D01*
X143152998Y-94480000D01*
G04 #@! TA.AperFunction,Conductor*
D31*
G36*
X143152998Y-94480000D02*
G01*
X143256549Y-94480000D01*
X143284774Y-94621898D01*
X143362795Y-94810256D01*
X143476063Y-94979774D01*
X143620226Y-95123937D01*
X143789744Y-95237205D01*
X143978102Y-95315226D01*
X144178061Y-95355000D01*
X144381939Y-95355000D01*
X144581898Y-95315226D01*
X144770256Y-95237205D01*
X144939774Y-95123937D01*
X145083937Y-94979774D01*
X145197205Y-94810256D01*
X145275226Y-94621898D01*
X145302840Y-94483072D01*
X145355000Y-94483072D01*
X145494113Y-94469371D01*
X145530000Y-94458485D01*
X145565887Y-94469371D01*
X145705000Y-94483072D01*
X145855000Y-94483072D01*
X145994113Y-94469371D01*
X146030000Y-94458485D01*
X146065887Y-94469371D01*
X146205000Y-94483072D01*
X146355000Y-94483072D01*
X146494113Y-94469371D01*
X146530000Y-94458485D01*
X146565887Y-94469371D01*
X146705000Y-94483072D01*
X146855000Y-94483072D01*
X146994113Y-94469371D01*
X147030000Y-94458485D01*
X147065887Y-94469371D01*
X147182791Y-94480885D01*
X147257762Y-94572237D01*
X147285808Y-94595254D01*
X147414741Y-94724187D01*
X147437762Y-94752238D01*
X147549680Y-94844087D01*
X147677367Y-94912337D01*
X147815915Y-94954365D01*
X147923895Y-94965000D01*
X147923904Y-94965000D01*
X147959999Y-94968555D01*
X147996094Y-94965000D01*
X148423118Y-94965000D01*
X148437102Y-94991162D01*
X148460769Y-95020000D01*
X148437102Y-95048838D01*
X148395982Y-95125768D01*
X148320000Y-95201750D01*
X148331132Y-95303883D01*
X148331186Y-95304051D01*
X148330629Y-95305887D01*
X148316928Y-95445000D01*
X148316928Y-95595000D01*
X148330629Y-95734113D01*
X148341515Y-95770000D01*
X148330629Y-95805887D01*
X148316928Y-95945000D01*
X148316928Y-96095000D01*
X148330629Y-96234113D01*
X148341515Y-96270000D01*
X148330629Y-96305887D01*
X148316928Y-96445000D01*
X148316928Y-96595000D01*
X148330629Y-96734113D01*
X148341515Y-96770000D01*
X148330629Y-96805887D01*
X148316928Y-96945000D01*
X148316928Y-97095000D01*
X148330629Y-97234113D01*
X148341515Y-97270000D01*
X148330629Y-97305887D01*
X148316928Y-97445000D01*
X148316928Y-97595000D01*
X148330629Y-97734113D01*
X148341515Y-97770000D01*
X148330629Y-97805887D01*
X148316928Y-97945000D01*
X148316928Y-98095000D01*
X148330629Y-98234113D01*
X148341515Y-98270000D01*
X148330629Y-98305887D01*
X148316928Y-98445000D01*
X148316928Y-98595000D01*
X148330629Y-98734113D01*
X148341515Y-98770000D01*
X148330629Y-98805887D01*
X148316928Y-98945000D01*
X148316928Y-99095000D01*
X148330629Y-99234113D01*
X148341515Y-99270000D01*
X148330629Y-99305887D01*
X148316928Y-99445000D01*
X148316928Y-99595000D01*
X148330629Y-99734113D01*
X148341515Y-99770000D01*
X148330629Y-99805887D01*
X148316928Y-99945000D01*
X148316928Y-100056928D01*
X148205000Y-100056928D01*
X148065887Y-100070629D01*
X148030000Y-100081515D01*
X147994113Y-100070629D01*
X147855000Y-100056928D01*
X147705000Y-100056928D01*
X147565887Y-100070629D01*
X147530000Y-100081515D01*
X147494113Y-100070629D01*
X147355000Y-100056928D01*
X147205000Y-100056928D01*
X147065887Y-100070629D01*
X147030000Y-100081515D01*
X146994113Y-100070629D01*
X146855000Y-100056928D01*
X146705000Y-100056928D01*
X146565887Y-100070629D01*
X146545949Y-100076677D01*
X146461750Y-100067500D01*
X146401880Y-100127370D01*
X146308838Y-100177102D01*
X146280000Y-100200769D01*
X146251162Y-100177102D01*
X146158120Y-100127370D01*
X146098250Y-100067500D01*
X146014051Y-100076677D01*
X145994113Y-100070629D01*
X145855000Y-100056928D01*
X145705000Y-100056928D01*
X145565887Y-100070629D01*
X145530000Y-100081515D01*
X145494113Y-100070629D01*
X145355000Y-100056928D01*
X145205000Y-100056928D01*
X145065887Y-100070629D01*
X145030000Y-100081515D01*
X144994113Y-100070629D01*
X144855000Y-100056928D01*
X144705000Y-100056928D01*
X144565887Y-100070629D01*
X144530000Y-100081515D01*
X144494113Y-100070629D01*
X144355000Y-100056928D01*
X144205000Y-100056928D01*
X144065887Y-100070629D01*
X144030000Y-100081515D01*
X143994113Y-100070629D01*
X143855000Y-100056928D01*
X143705000Y-100056928D01*
X143565887Y-100070629D01*
X143530000Y-100081515D01*
X143494113Y-100070629D01*
X143355000Y-100056928D01*
X143205000Y-100056928D01*
X143065887Y-100070629D01*
X143030000Y-100081515D01*
X142994113Y-100070629D01*
X142855000Y-100056928D01*
X142743072Y-100056928D01*
X142743072Y-99945000D01*
X142729371Y-99805887D01*
X142728814Y-99804051D01*
X142728868Y-99803883D01*
X142740000Y-99701750D01*
X142664018Y-99625768D01*
X142622898Y-99548838D01*
X142599231Y-99520000D01*
X142622898Y-99491162D01*
X142664018Y-99414232D01*
X142740000Y-99338250D01*
X142728868Y-99236117D01*
X142728814Y-99235949D01*
X142729371Y-99234113D01*
X142743072Y-99095000D01*
X142743072Y-98945000D01*
X142729371Y-98805887D01*
X142718485Y-98770000D01*
X142729371Y-98734113D01*
X142743072Y-98595000D01*
X142743072Y-98445000D01*
X142729371Y-98305887D01*
X142728423Y-98302762D01*
X142769002Y-98168985D01*
X142783676Y-98019999D01*
X142769002Y-97871014D01*
X142728423Y-97737238D01*
X142729371Y-97734113D01*
X142743072Y-97595000D01*
X142743072Y-97445000D01*
X142729371Y-97305887D01*
X142718485Y-97270000D01*
X142729371Y-97234113D01*
X142743072Y-97095000D01*
X142743072Y-96945000D01*
X142729371Y-96805887D01*
X142718485Y-96770000D01*
X142729371Y-96734113D01*
X142743072Y-96595000D01*
X142743072Y-96445000D01*
X142729371Y-96305887D01*
X142718485Y-96270000D01*
X142729371Y-96234113D01*
X142743072Y-96095000D01*
X142743072Y-95945000D01*
X142729371Y-95805887D01*
X142718485Y-95770000D01*
X142729371Y-95734113D01*
X142743072Y-95595000D01*
X142743072Y-95445000D01*
X142729371Y-95305887D01*
X142718485Y-95270000D01*
X142729371Y-95234113D01*
X142743072Y-95095000D01*
X142743072Y-94945000D01*
X142729371Y-94805887D01*
X142718485Y-94770000D01*
X142729371Y-94734113D01*
X142743072Y-94595000D01*
X142743072Y-94483072D01*
X142855000Y-94483072D01*
X142994113Y-94469371D01*
X142995949Y-94468814D01*
X142996117Y-94468868D01*
X143098250Y-94480000D01*
X143152998Y-94425252D01*
X143152998Y-94480000D01*
G37*
G04 #@! TD.AperFunction*
M02*
