G04 #@! TF.GenerationSoftware,KiCad,Pcbnew,5.1.10-88a1d61d58~90~ubuntu20.04.1*
G04 #@! TF.CreationDate,2021-08-05T14:32:23+02:00*
G04 #@! TF.ProjectId,arlene,61726c65-6e65-42e6-9b69-6361645f7063,v1.00*
G04 #@! TF.SameCoordinates,Original*
G04 #@! TF.FileFunction,Legend,Bot*
G04 #@! TF.FilePolarity,Positive*
%FSLAX46Y46*%
G04 Gerber Fmt 4.6, Leading zero omitted, Abs format (unit mm)*
G04 Created by KiCad (PCBNEW 5.1.10-88a1d61d58~90~ubuntu20.04.1) date 2021-08-05 14:32:23*
%MOMM*%
%LPD*%
G01*
G04 APERTURE LIST*
%ADD10C,0.150000*%
%ADD11C,0.500000*%
%ADD12C,0.120000*%
G04 APERTURE END LIST*
D10*
X173562380Y-92226666D02*
X172562380Y-92226666D01*
X173038571Y-92226666D02*
X173038571Y-92798095D01*
X173562380Y-92798095D02*
X172562380Y-92798095D01*
X173562380Y-93702857D02*
X173038571Y-93702857D01*
X172943333Y-93655238D01*
X172895714Y-93560000D01*
X172895714Y-93369523D01*
X172943333Y-93274285D01*
X173514761Y-93702857D02*
X173562380Y-93607619D01*
X173562380Y-93369523D01*
X173514761Y-93274285D01*
X173419523Y-93226666D01*
X173324285Y-93226666D01*
X173229047Y-93274285D01*
X173181428Y-93369523D01*
X173181428Y-93607619D01*
X173133809Y-93702857D01*
X172895714Y-94179047D02*
X173562380Y-94179047D01*
X172990952Y-94179047D02*
X172943333Y-94226666D01*
X172895714Y-94321904D01*
X172895714Y-94464761D01*
X172943333Y-94560000D01*
X173038571Y-94607619D01*
X173562380Y-94607619D01*
X173562380Y-95512380D02*
X172562380Y-95512380D01*
X173514761Y-95512380D02*
X173562380Y-95417142D01*
X173562380Y-95226666D01*
X173514761Y-95131428D01*
X173467142Y-95083809D01*
X173371904Y-95036190D01*
X173086190Y-95036190D01*
X172990952Y-95083809D01*
X172943333Y-95131428D01*
X172895714Y-95226666D01*
X172895714Y-95417142D01*
X172943333Y-95512380D01*
X173562380Y-96131428D02*
X173514761Y-96036190D01*
X173419523Y-95988571D01*
X172562380Y-95988571D01*
X173514761Y-96893333D02*
X173562380Y-96798095D01*
X173562380Y-96607619D01*
X173514761Y-96512380D01*
X173419523Y-96464761D01*
X173038571Y-96464761D01*
X172943333Y-96512380D01*
X172895714Y-96607619D01*
X172895714Y-96798095D01*
X172943333Y-96893333D01*
X173038571Y-96940952D01*
X173133809Y-96940952D01*
X173229047Y-96464761D01*
X173432380Y-105973809D02*
X172432380Y-105973809D01*
X172432380Y-106354761D01*
X172480000Y-106450000D01*
X172527619Y-106497619D01*
X172622857Y-106545238D01*
X172765714Y-106545238D01*
X172860952Y-106497619D01*
X172908571Y-106450000D01*
X172956190Y-106354761D01*
X172956190Y-105973809D01*
X173432380Y-107116666D02*
X173384761Y-107021428D01*
X173337142Y-106973809D01*
X173241904Y-106926190D01*
X172956190Y-106926190D01*
X172860952Y-106973809D01*
X172813333Y-107021428D01*
X172765714Y-107116666D01*
X172765714Y-107259523D01*
X172813333Y-107354761D01*
X172860952Y-107402380D01*
X172956190Y-107450000D01*
X173241904Y-107450000D01*
X173337142Y-107402380D01*
X173384761Y-107354761D01*
X173432380Y-107259523D01*
X173432380Y-107116666D01*
X172765714Y-107783333D02*
X173432380Y-107973809D01*
X172956190Y-108164285D01*
X173432380Y-108354761D01*
X172765714Y-108545238D01*
X173384761Y-109307142D02*
X173432380Y-109211904D01*
X173432380Y-109021428D01*
X173384761Y-108926190D01*
X173289523Y-108878571D01*
X172908571Y-108878571D01*
X172813333Y-108926190D01*
X172765714Y-109021428D01*
X172765714Y-109211904D01*
X172813333Y-109307142D01*
X172908571Y-109354761D01*
X173003809Y-109354761D01*
X173099047Y-108878571D01*
X173432380Y-109783333D02*
X172765714Y-109783333D01*
X172956190Y-109783333D02*
X172860952Y-109830952D01*
X172813333Y-109878571D01*
X172765714Y-109973809D01*
X172765714Y-110069047D01*
X160252380Y-88342380D02*
X160061904Y-88342380D01*
X159966666Y-88390000D01*
X159871428Y-88485238D01*
X159823809Y-88675714D01*
X159823809Y-89009047D01*
X159871428Y-89199523D01*
X159966666Y-89294761D01*
X160061904Y-89342380D01*
X160252380Y-89342380D01*
X160347619Y-89294761D01*
X160442857Y-89199523D01*
X160490476Y-89009047D01*
X160490476Y-88675714D01*
X160442857Y-88485238D01*
X160347619Y-88390000D01*
X160252380Y-88342380D01*
X158919047Y-89342380D02*
X159395238Y-89342380D01*
X159395238Y-88342380D01*
X158585714Y-88818571D02*
X158252380Y-88818571D01*
X158109523Y-89342380D02*
X158585714Y-89342380D01*
X158585714Y-88342380D01*
X158109523Y-88342380D01*
X157680952Y-89342380D02*
X157680952Y-88342380D01*
X157442857Y-88342380D01*
X157300000Y-88390000D01*
X157204761Y-88485238D01*
X157157142Y-88580476D01*
X157109523Y-88770952D01*
X157109523Y-88913809D01*
X157157142Y-89104285D01*
X157204761Y-89199523D01*
X157300000Y-89294761D01*
X157442857Y-89342380D01*
X157680952Y-89342380D01*
X169784285Y-94508571D02*
X169450952Y-94508571D01*
X169308095Y-95032380D02*
X169784285Y-95032380D01*
X169784285Y-94032380D01*
X169308095Y-94032380D01*
X168450952Y-95032380D02*
X168450952Y-94508571D01*
X168498571Y-94413333D01*
X168593809Y-94365714D01*
X168784285Y-94365714D01*
X168879523Y-94413333D01*
X168450952Y-94984761D02*
X168546190Y-95032380D01*
X168784285Y-95032380D01*
X168879523Y-94984761D01*
X168927142Y-94889523D01*
X168927142Y-94794285D01*
X168879523Y-94699047D01*
X168784285Y-94651428D01*
X168546190Y-94651428D01*
X168450952Y-94603809D01*
X167974761Y-95032380D02*
X167974761Y-94365714D01*
X167974761Y-94556190D02*
X167927142Y-94460952D01*
X167879523Y-94413333D01*
X167784285Y-94365714D01*
X167689047Y-94365714D01*
X167498571Y-94365714D02*
X167117619Y-94365714D01*
X167355714Y-94032380D02*
X167355714Y-94889523D01*
X167308095Y-94984761D01*
X167212857Y-95032380D01*
X167117619Y-95032380D01*
X166784285Y-95032380D02*
X166784285Y-94032380D01*
X166355714Y-95032380D02*
X166355714Y-94508571D01*
X166403333Y-94413333D01*
X166498571Y-94365714D01*
X166641428Y-94365714D01*
X166736666Y-94413333D01*
X166784285Y-94460952D01*
X169764285Y-89934761D02*
X169621428Y-89982380D01*
X169383333Y-89982380D01*
X169288095Y-89934761D01*
X169240476Y-89887142D01*
X169192857Y-89791904D01*
X169192857Y-89696666D01*
X169240476Y-89601428D01*
X169288095Y-89553809D01*
X169383333Y-89506190D01*
X169573809Y-89458571D01*
X169669047Y-89410952D01*
X169716666Y-89363333D01*
X169764285Y-89268095D01*
X169764285Y-89172857D01*
X169716666Y-89077619D01*
X169669047Y-89030000D01*
X169573809Y-88982380D01*
X169335714Y-88982380D01*
X169192857Y-89030000D01*
X168859523Y-89315714D02*
X168669047Y-89982380D01*
X168478571Y-89506190D01*
X168288095Y-89982380D01*
X168097619Y-89315714D01*
X167716666Y-89982380D02*
X167716666Y-89315714D01*
X167716666Y-88982380D02*
X167764285Y-89030000D01*
X167716666Y-89077619D01*
X167669047Y-89030000D01*
X167716666Y-88982380D01*
X167716666Y-89077619D01*
X167383333Y-89315714D02*
X167002380Y-89315714D01*
X167240476Y-88982380D02*
X167240476Y-89839523D01*
X167192857Y-89934761D01*
X167097619Y-89982380D01*
X167002380Y-89982380D01*
X166240476Y-89934761D02*
X166335714Y-89982380D01*
X166526190Y-89982380D01*
X166621428Y-89934761D01*
X166669047Y-89887142D01*
X166716666Y-89791904D01*
X166716666Y-89506190D01*
X166669047Y-89410952D01*
X166621428Y-89363333D01*
X166526190Y-89315714D01*
X166335714Y-89315714D01*
X166240476Y-89363333D01*
X165811904Y-89982380D02*
X165811904Y-88982380D01*
X165383333Y-89982380D02*
X165383333Y-89458571D01*
X165430952Y-89363333D01*
X165526190Y-89315714D01*
X165669047Y-89315714D01*
X165764285Y-89363333D01*
X165811904Y-89410952D01*
X169786666Y-92542380D02*
X169786666Y-91542380D01*
X169215238Y-92542380D01*
X169215238Y-91542380D01*
X168881904Y-91542380D02*
X168310476Y-91542380D01*
X168596190Y-92542380D02*
X168596190Y-91542380D01*
X167405714Y-92447142D02*
X167453333Y-92494761D01*
X167596190Y-92542380D01*
X167691428Y-92542380D01*
X167834285Y-92494761D01*
X167929523Y-92399523D01*
X167977142Y-92304285D01*
X168024761Y-92113809D01*
X168024761Y-91970952D01*
X167977142Y-91780476D01*
X167929523Y-91685238D01*
X167834285Y-91590000D01*
X167691428Y-91542380D01*
X167596190Y-91542380D01*
X167453333Y-91590000D01*
X167405714Y-91637619D01*
X169789523Y-100012380D02*
X169789523Y-99012380D01*
X169789523Y-99488571D02*
X169218095Y-99488571D01*
X169218095Y-100012380D02*
X169218095Y-99012380D01*
X168360952Y-99964761D02*
X168456190Y-100012380D01*
X168646666Y-100012380D01*
X168741904Y-99964761D01*
X168789523Y-99869523D01*
X168789523Y-99488571D01*
X168741904Y-99393333D01*
X168646666Y-99345714D01*
X168456190Y-99345714D01*
X168360952Y-99393333D01*
X168313333Y-99488571D01*
X168313333Y-99583809D01*
X168789523Y-99679047D01*
X167456190Y-100012380D02*
X167456190Y-99488571D01*
X167503809Y-99393333D01*
X167599047Y-99345714D01*
X167789523Y-99345714D01*
X167884761Y-99393333D01*
X167456190Y-99964761D02*
X167551428Y-100012380D01*
X167789523Y-100012380D01*
X167884761Y-99964761D01*
X167932380Y-99869523D01*
X167932380Y-99774285D01*
X167884761Y-99679047D01*
X167789523Y-99631428D01*
X167551428Y-99631428D01*
X167456190Y-99583809D01*
X167122857Y-99345714D02*
X166741904Y-99345714D01*
X166980000Y-99012380D02*
X166980000Y-99869523D01*
X166932380Y-99964761D01*
X166837142Y-100012380D01*
X166741904Y-100012380D01*
X166027619Y-99964761D02*
X166122857Y-100012380D01*
X166313333Y-100012380D01*
X166408571Y-99964761D01*
X166456190Y-99869523D01*
X166456190Y-99488571D01*
X166408571Y-99393333D01*
X166313333Y-99345714D01*
X166122857Y-99345714D01*
X166027619Y-99393333D01*
X165980000Y-99488571D01*
X165980000Y-99583809D01*
X166456190Y-99679047D01*
X165551428Y-100012380D02*
X165551428Y-99345714D01*
X165551428Y-99536190D02*
X165503809Y-99440952D01*
X165456190Y-99393333D01*
X165360952Y-99345714D01*
X165265714Y-99345714D01*
X164932380Y-99631428D02*
X164170476Y-99631428D01*
X164551428Y-100012380D02*
X164551428Y-99250476D01*
X169769523Y-97532380D02*
X169769523Y-96532380D01*
X169769523Y-97008571D02*
X169198095Y-97008571D01*
X169198095Y-97532380D02*
X169198095Y-96532380D01*
X168340952Y-97484761D02*
X168436190Y-97532380D01*
X168626666Y-97532380D01*
X168721904Y-97484761D01*
X168769523Y-97389523D01*
X168769523Y-97008571D01*
X168721904Y-96913333D01*
X168626666Y-96865714D01*
X168436190Y-96865714D01*
X168340952Y-96913333D01*
X168293333Y-97008571D01*
X168293333Y-97103809D01*
X168769523Y-97199047D01*
X167436190Y-97532380D02*
X167436190Y-97008571D01*
X167483809Y-96913333D01*
X167579047Y-96865714D01*
X167769523Y-96865714D01*
X167864761Y-96913333D01*
X167436190Y-97484761D02*
X167531428Y-97532380D01*
X167769523Y-97532380D01*
X167864761Y-97484761D01*
X167912380Y-97389523D01*
X167912380Y-97294285D01*
X167864761Y-97199047D01*
X167769523Y-97151428D01*
X167531428Y-97151428D01*
X167436190Y-97103809D01*
X167102857Y-96865714D02*
X166721904Y-96865714D01*
X166960000Y-96532380D02*
X166960000Y-97389523D01*
X166912380Y-97484761D01*
X166817142Y-97532380D01*
X166721904Y-97532380D01*
X166007619Y-97484761D02*
X166102857Y-97532380D01*
X166293333Y-97532380D01*
X166388571Y-97484761D01*
X166436190Y-97389523D01*
X166436190Y-97008571D01*
X166388571Y-96913333D01*
X166293333Y-96865714D01*
X166102857Y-96865714D01*
X166007619Y-96913333D01*
X165960000Y-97008571D01*
X165960000Y-97103809D01*
X166436190Y-97199047D01*
X165531428Y-97532380D02*
X165531428Y-96865714D01*
X165531428Y-97056190D02*
X165483809Y-96960952D01*
X165436190Y-96913333D01*
X165340952Y-96865714D01*
X165245714Y-96865714D01*
X164912380Y-97151428D02*
X164150476Y-97151428D01*
X169171904Y-104970000D02*
X169267142Y-104922380D01*
X169410000Y-104922380D01*
X169552857Y-104970000D01*
X169648095Y-105065238D01*
X169695714Y-105160476D01*
X169743333Y-105350952D01*
X169743333Y-105493809D01*
X169695714Y-105684285D01*
X169648095Y-105779523D01*
X169552857Y-105874761D01*
X169410000Y-105922380D01*
X169314761Y-105922380D01*
X169171904Y-105874761D01*
X169124285Y-105827142D01*
X169124285Y-105493809D01*
X169314761Y-105493809D01*
X168695714Y-105922380D02*
X168695714Y-104922380D01*
X168124285Y-105922380D01*
X168124285Y-104922380D01*
X167648095Y-105922380D02*
X167648095Y-104922380D01*
X167410000Y-104922380D01*
X167267142Y-104970000D01*
X167171904Y-105065238D01*
X167124285Y-105160476D01*
X167076666Y-105350952D01*
X167076666Y-105493809D01*
X167124285Y-105684285D01*
X167171904Y-105779523D01*
X167267142Y-105874761D01*
X167410000Y-105922380D01*
X167648095Y-105922380D01*
X169834285Y-108041428D02*
X169072380Y-108041428D01*
X169453333Y-108422380D02*
X169453333Y-107660476D01*
X168643809Y-107517619D02*
X168596190Y-107470000D01*
X168500952Y-107422380D01*
X168262857Y-107422380D01*
X168167619Y-107470000D01*
X168120000Y-107517619D01*
X168072380Y-107612857D01*
X168072380Y-107708095D01*
X168120000Y-107850952D01*
X168691428Y-108422380D01*
X168072380Y-108422380D01*
X167215238Y-107755714D02*
X167215238Y-108422380D01*
X167453333Y-107374761D02*
X167691428Y-108089047D01*
X167072380Y-108089047D01*
X166786666Y-107755714D02*
X166548571Y-108422380D01*
X166310476Y-107755714D01*
X169704285Y-110418571D02*
X169370952Y-110418571D01*
X169228095Y-110942380D02*
X169704285Y-110942380D01*
X169704285Y-109942380D01*
X169228095Y-109942380D01*
X168370952Y-110942380D02*
X168370952Y-110418571D01*
X168418571Y-110323333D01*
X168513809Y-110275714D01*
X168704285Y-110275714D01*
X168799523Y-110323333D01*
X168370952Y-110894761D02*
X168466190Y-110942380D01*
X168704285Y-110942380D01*
X168799523Y-110894761D01*
X168847142Y-110799523D01*
X168847142Y-110704285D01*
X168799523Y-110609047D01*
X168704285Y-110561428D01*
X168466190Y-110561428D01*
X168370952Y-110513809D01*
X167894761Y-110942380D02*
X167894761Y-110275714D01*
X167894761Y-110466190D02*
X167847142Y-110370952D01*
X167799523Y-110323333D01*
X167704285Y-110275714D01*
X167609047Y-110275714D01*
X167418571Y-110275714D02*
X167037619Y-110275714D01*
X167275714Y-109942380D02*
X167275714Y-110799523D01*
X167228095Y-110894761D01*
X167132857Y-110942380D01*
X167037619Y-110942380D01*
X166704285Y-110942380D02*
X166704285Y-109942380D01*
X166275714Y-110942380D02*
X166275714Y-110418571D01*
X166323333Y-110323333D01*
X166418571Y-110275714D01*
X166561428Y-110275714D01*
X166656666Y-110323333D01*
X166704285Y-110370952D01*
D11*
X162869047Y-93121666D02*
X161678571Y-93121666D01*
X163107142Y-93835952D02*
X162273809Y-91335952D01*
X161440476Y-93835952D01*
X160607142Y-93835952D02*
X160607142Y-92169285D01*
X160607142Y-92645476D02*
X160488095Y-92407380D01*
X160369047Y-92288333D01*
X160130952Y-92169285D01*
X159892857Y-92169285D01*
X158702380Y-93835952D02*
X158940476Y-93716904D01*
X159059523Y-93478809D01*
X159059523Y-91335952D01*
X156797619Y-93716904D02*
X157035714Y-93835952D01*
X157511904Y-93835952D01*
X157750000Y-93716904D01*
X157869047Y-93478809D01*
X157869047Y-92526428D01*
X157750000Y-92288333D01*
X157511904Y-92169285D01*
X157035714Y-92169285D01*
X156797619Y-92288333D01*
X156678571Y-92526428D01*
X156678571Y-92764523D01*
X157869047Y-93002619D01*
X155607142Y-92169285D02*
X155607142Y-93835952D01*
X155607142Y-92407380D02*
X155488095Y-92288333D01*
X155250000Y-92169285D01*
X154892857Y-92169285D01*
X154654761Y-92288333D01*
X154535714Y-92526428D01*
X154535714Y-93835952D01*
X152392857Y-93716904D02*
X152630952Y-93835952D01*
X153107142Y-93835952D01*
X153345238Y-93716904D01*
X153464285Y-93478809D01*
X153464285Y-92526428D01*
X153345238Y-92288333D01*
X153107142Y-92169285D01*
X152630952Y-92169285D01*
X152392857Y-92288333D01*
X152273809Y-92526428D01*
X152273809Y-92764523D01*
X153464285Y-93002619D01*
X149535714Y-92169285D02*
X148940476Y-93835952D01*
X148345238Y-92169285D01*
X146083333Y-93835952D02*
X147511904Y-93835952D01*
X146797619Y-93835952D02*
X146797619Y-91335952D01*
X147035714Y-91693095D01*
X147273809Y-91931190D01*
X147511904Y-92050238D01*
X145011904Y-93597857D02*
X144892857Y-93716904D01*
X145011904Y-93835952D01*
X145130952Y-93716904D01*
X145011904Y-93597857D01*
X145011904Y-93835952D01*
X143345238Y-91335952D02*
X143107142Y-91335952D01*
X142869047Y-91455000D01*
X142750000Y-91574047D01*
X142630952Y-91812142D01*
X142511904Y-92288333D01*
X142511904Y-92883571D01*
X142630952Y-93359761D01*
X142750000Y-93597857D01*
X142869047Y-93716904D01*
X143107142Y-93835952D01*
X143345238Y-93835952D01*
X143583333Y-93716904D01*
X143702380Y-93597857D01*
X143821428Y-93359761D01*
X143940476Y-92883571D01*
X143940476Y-92288333D01*
X143821428Y-91812142D01*
X143702380Y-91574047D01*
X143583333Y-91455000D01*
X143345238Y-91335952D01*
X140964285Y-91335952D02*
X140726190Y-91335952D01*
X140488095Y-91455000D01*
X140369047Y-91574047D01*
X140250000Y-91812142D01*
X140130952Y-92288333D01*
X140130952Y-92883571D01*
X140250000Y-93359761D01*
X140369047Y-93597857D01*
X140488095Y-93716904D01*
X140726190Y-93835952D01*
X140964285Y-93835952D01*
X141202380Y-93716904D01*
X141321428Y-93597857D01*
X141440476Y-93359761D01*
X141559523Y-92883571D01*
X141559523Y-92288333D01*
X141440476Y-91812142D01*
X141321428Y-91574047D01*
X141202380Y-91455000D01*
X140964285Y-91335952D01*
X162333333Y-96419285D02*
X161857142Y-98085952D01*
X161380952Y-96895476D01*
X160904761Y-98085952D01*
X160428571Y-96419285D01*
X159714285Y-96419285D02*
X159238095Y-98085952D01*
X158761904Y-96895476D01*
X158285714Y-98085952D01*
X157809523Y-96419285D01*
X157095238Y-96419285D02*
X156619047Y-98085952D01*
X156142857Y-96895476D01*
X155666666Y-98085952D01*
X155190476Y-96419285D01*
X154238095Y-97847857D02*
X154119047Y-97966904D01*
X154238095Y-98085952D01*
X154357142Y-97966904D01*
X154238095Y-97847857D01*
X154238095Y-98085952D01*
X153166666Y-95824047D02*
X153047619Y-95705000D01*
X152809523Y-95585952D01*
X152214285Y-95585952D01*
X151976190Y-95705000D01*
X151857142Y-95824047D01*
X151738095Y-96062142D01*
X151738095Y-96300238D01*
X151857142Y-96657380D01*
X153285714Y-98085952D01*
X151738095Y-98085952D01*
X150666666Y-97133571D02*
X148761904Y-97133571D01*
X147095238Y-95585952D02*
X146857142Y-95585952D01*
X146619047Y-95705000D01*
X146500000Y-95824047D01*
X146380952Y-96062142D01*
X146261904Y-96538333D01*
X146261904Y-97133571D01*
X146380952Y-97609761D01*
X146500000Y-97847857D01*
X146619047Y-97966904D01*
X146857142Y-98085952D01*
X147095238Y-98085952D01*
X147333333Y-97966904D01*
X147452380Y-97847857D01*
X147571428Y-97609761D01*
X147690476Y-97133571D01*
X147690476Y-96538333D01*
X147571428Y-96062142D01*
X147452380Y-95824047D01*
X147333333Y-95705000D01*
X147095238Y-95585952D01*
X145190476Y-97847857D02*
X145071428Y-97966904D01*
X145190476Y-98085952D01*
X145309523Y-97966904D01*
X145190476Y-97847857D01*
X145190476Y-98085952D01*
X142928571Y-98085952D02*
X142928571Y-95585952D01*
X142928571Y-97966904D02*
X143166666Y-98085952D01*
X143642857Y-98085952D01*
X143880952Y-97966904D01*
X144000000Y-97847857D01*
X144119047Y-97609761D01*
X144119047Y-96895476D01*
X144000000Y-96657380D01*
X143880952Y-96538333D01*
X143642857Y-96419285D01*
X143166666Y-96419285D01*
X142928571Y-96538333D01*
X141738095Y-98085952D02*
X141738095Y-95585952D01*
X141500000Y-97133571D02*
X140785714Y-98085952D01*
X140785714Y-96419285D02*
X141738095Y-97371666D01*
D12*
X133560429Y-113909479D02*
G75*
G03*
X133560000Y-109400316I-1080429J2254479D01*
G01*
X131399571Y-113909479D02*
G75*
G02*
X131400000Y-109400316I1080429J2254479D01*
G01*
X133560827Y-114442815D02*
G75*
G03*
X134024830Y-109095000I-1080827J2787815D01*
G01*
X131399173Y-114442815D02*
G75*
G02*
X130935170Y-109095000I1080827J2787815D01*
G01*
X133560000Y-109095000D02*
X134025000Y-109095000D01*
X130935000Y-109095000D02*
X131400000Y-109095000D01*
D10*
X164215000Y-104575000D02*
X164165000Y-104575000D01*
X164215000Y-100425000D02*
X164070000Y-100425000D01*
X159065000Y-100425000D02*
X159210000Y-100425000D01*
X159065000Y-104575000D02*
X159210000Y-104575000D01*
X164215000Y-104575000D02*
X164215000Y-100425000D01*
X159065000Y-104575000D02*
X159065000Y-100425000D01*
X164165000Y-104575000D02*
X164165000Y-105975000D01*
D12*
X132350000Y-100500000D02*
X132350000Y-99500000D01*
X132850000Y-100000000D02*
X131850000Y-100000000D01*
X128650000Y-93300000D02*
X126050000Y-93300000D01*
X133650000Y-93300000D02*
X131050000Y-93300000D01*
X138650000Y-93300000D02*
X136050000Y-93300000D01*
X136450000Y-107200000D02*
X136150000Y-107500000D01*
X136450000Y-107800000D02*
X136450000Y-107200000D01*
X136150000Y-107500000D02*
X136450000Y-107800000D01*
X138650000Y-106700000D02*
X136150000Y-106700000D01*
X138650000Y-101900000D02*
X138650000Y-106700000D01*
X126050000Y-106700000D02*
X128850000Y-106700000D01*
X126050000Y-101800000D02*
X126050000Y-106700000D01*
X126050000Y-93300000D02*
X126050000Y-98200000D01*
X138650000Y-98200000D02*
X138650000Y-93300000D01*
X135350000Y-100000000D02*
G75*
G03*
X135350000Y-100000000I-3000000J0D01*
G01*
X167750000Y-88130000D02*
X167750000Y-86800000D01*
X166420000Y-88130000D02*
X167750000Y-88130000D01*
X165150000Y-88130000D02*
X165150000Y-85470000D01*
X165150000Y-85470000D02*
X149850000Y-85470000D01*
X165150000Y-88130000D02*
X149850000Y-88130000D01*
X149850000Y-88130000D02*
X149850000Y-85470000D01*
X156227500Y-106400000D02*
X164287500Y-106400000D01*
X164287500Y-106400000D02*
X164287500Y-110920000D01*
X164287500Y-110920000D02*
X156227500Y-110920000D01*
D10*
X137083571Y-111999285D02*
X137083571Y-111249285D01*
X136905000Y-111249285D01*
X136797857Y-111285000D01*
X136726428Y-111356428D01*
X136690714Y-111427857D01*
X136655000Y-111570714D01*
X136655000Y-111677857D01*
X136690714Y-111820714D01*
X136726428Y-111892142D01*
X136797857Y-111963571D01*
X136905000Y-111999285D01*
X137083571Y-111999285D01*
X136405000Y-111249285D02*
X135940714Y-111249285D01*
X136190714Y-111535000D01*
X136083571Y-111535000D01*
X136012142Y-111570714D01*
X135976428Y-111606428D01*
X135940714Y-111677857D01*
X135940714Y-111856428D01*
X135976428Y-111927857D01*
X136012142Y-111963571D01*
X136083571Y-111999285D01*
X136297857Y-111999285D01*
X136369285Y-111963571D01*
X136405000Y-111927857D01*
X158241428Y-102930714D02*
X158312857Y-102895000D01*
X158384285Y-102823571D01*
X158491428Y-102716428D01*
X158562857Y-102680714D01*
X158634285Y-102680714D01*
X158598571Y-102859285D02*
X158670000Y-102823571D01*
X158741428Y-102752142D01*
X158777142Y-102609285D01*
X158777142Y-102359285D01*
X158741428Y-102216428D01*
X158670000Y-102145000D01*
X158598571Y-102109285D01*
X158455714Y-102109285D01*
X158384285Y-102145000D01*
X158312857Y-102216428D01*
X158277142Y-102359285D01*
X158277142Y-102609285D01*
X158312857Y-102752142D01*
X158384285Y-102823571D01*
X158455714Y-102859285D01*
X158598571Y-102859285D01*
X157562857Y-102859285D02*
X157991428Y-102859285D01*
X157777142Y-102859285D02*
X157777142Y-102109285D01*
X157848571Y-102216428D01*
X157920000Y-102287857D01*
X157991428Y-102323571D01*
X133330000Y-92633571D02*
X133222857Y-92669285D01*
X133044285Y-92669285D01*
X132972857Y-92633571D01*
X132937142Y-92597857D01*
X132901428Y-92526428D01*
X132901428Y-92455000D01*
X132937142Y-92383571D01*
X132972857Y-92347857D01*
X133044285Y-92312142D01*
X133187142Y-92276428D01*
X133258571Y-92240714D01*
X133294285Y-92205000D01*
X133330000Y-92133571D01*
X133330000Y-92062142D01*
X133294285Y-91990714D01*
X133258571Y-91955000D01*
X133187142Y-91919285D01*
X133008571Y-91919285D01*
X132901428Y-91955000D01*
X132651428Y-91919285D02*
X132472857Y-92669285D01*
X132330000Y-92133571D01*
X132187142Y-92669285D01*
X132008571Y-91919285D01*
X131330000Y-92669285D02*
X131758571Y-92669285D01*
X131544285Y-92669285D02*
X131544285Y-91919285D01*
X131615714Y-92026428D01*
X131687142Y-92097857D01*
X131758571Y-92133571D01*
X169090000Y-86379285D02*
X169090000Y-86915000D01*
X169125714Y-87022142D01*
X169197142Y-87093571D01*
X169304285Y-87129285D01*
X169375714Y-87129285D01*
X168340000Y-87129285D02*
X168768571Y-87129285D01*
X168554285Y-87129285D02*
X168554285Y-86379285D01*
X168625714Y-86486428D01*
X168697142Y-86557857D01*
X168768571Y-86593571D01*
X154942142Y-108927857D02*
X154977857Y-108963571D01*
X155085000Y-108999285D01*
X155156428Y-108999285D01*
X155263571Y-108963571D01*
X155335000Y-108892142D01*
X155370714Y-108820714D01*
X155406428Y-108677857D01*
X155406428Y-108570714D01*
X155370714Y-108427857D01*
X155335000Y-108356428D01*
X155263571Y-108285000D01*
X155156428Y-108249285D01*
X155085000Y-108249285D01*
X154977857Y-108285000D01*
X154942142Y-108320714D01*
X154227857Y-108999285D02*
X154656428Y-108999285D01*
X154442142Y-108999285D02*
X154442142Y-108249285D01*
X154513571Y-108356428D01*
X154585000Y-108427857D01*
X154656428Y-108463571D01*
X153977857Y-108249285D02*
X153477857Y-108249285D01*
X153799285Y-108999285D01*
M02*
